<?xml version="1.0" encoding="utf-8"?>
<!-- Generator: Adobe Illustrator 16.0.5, SVG Export Plug-In . SVG Version: 6.00 Build 0)  -->
<!DOCTYPE svg PUBLIC "-//W3C//DTD SVG 1.1//EN" "http://www.w3.org/Graphics/SVG/1.1/DTD/svg11.dtd">
<svg version="1.1" id="Layer_1" xmlns="http://www.w3.org/2000/svg" xmlns:xlink="http://www.w3.org/1999/xlink" x="0px" y="0px"
	 width="612px" height="612px" viewBox="0 90 612 612" enable-background="new 0 90 612 612" xml:space="preserve">
<rect y="90" fill="#F7DF1E" width="612" height="612"/>
<path d="M411.108,568.127c12.327,20.129,28.366,34.924,56.731,34.924c23.829,0,39.052-11.91,39.052-28.366
	c0-19.72-15.641-26.704-41.869-38.177l-14.377-6.169c-41.499-17.68-69.068-39.828-69.068-86.651
	c0-43.132,32.863-75.966,84.223-75.966c36.564,0,62.852,12.726,81.795,46.046l-44.783,28.754
	c-9.86-17.68-20.497-24.645-37.012-24.645c-16.845,0-27.521,10.686-27.521,24.645c0,17.253,10.686,24.237,35.36,34.923l14.377,6.159
	c48.863,20.954,76.451,42.315,76.451,90.343c0,51.777-40.674,80.143-95.297,80.143c-53.409,0-87.914-25.451-104.798-58.81
	L411.108,568.127z M207.954,573.111c9.034,16.028,17.252,29.579,37.012,29.579c18.894,0,30.813-7.393,30.813-36.137V371.005h57.508
	v196.326c0,59.549-34.913,86.651-85.874,86.651c-46.045,0-72.711-23.829-86.272-52.53L207.954,573.111z"/>
<g>
	<path fill="#010000" d="M447.7,127.282c1.528,1.066,3.11,2.204,3.946,3.927c3.626,6.327,7.376,12.761,8.673,20.029
		c2.327-0.017,4.674-0.017,7.021,0c2.273-8.743,5.881-17.914,12.492-24.258c-2.487,8.975-8.316,16.741-9.454,26.143
		c4.532-2.186,10.058-4.265,14.928-1.794c7.163,4.496,8.744,14.128,7.109,21.859c-0.995,6.967-9.294,10.254-8.389,17.791
		c4.265-4.302,8.621-8.479,12.779-12.85c7.499-8.761,10.646-20.722,19.655-28.257c4.869-4.158,8.939-9.276,14.431-12.689
		c-2.595,6.025-8.015,10.077-12.085,15.018c-9.064,9.366-11.855,22.961-20.864,32.346c-4.46,4.852-8.903,9.721-13.31,14.626
		c20.969-6.042,42.011-12.672,63.8-14.928c10.877-1.208,23.921,11.481,17.666,22.321c-6.754,9.259-18.91,11.908-29.379,14.627
		c-0.018,7.126-0.319,15.887-6.983,20.224c-7.873,5.083-17.808,1.919-26.124-0.391c12.262,9.81,13.666,27.103,24.702,37.854
		c3.68,4.585,9.171,8.174,10.467,14.252c-6.966-4.762-12.688-11.088-18.837-16.812c-6.255-8.619-9.473-19.23-16.651-27.262
		c0.764,8.424,1.545,16.884,0.337,25.308c5.543,8.123,8.852,17.47,13.683,25.983c5.066,7.001,11.927,12.529,16.814,19.689
		c-5.973-0.727-9.313-6.646-13.81-10.058c-8.923-6.949-12.37-18.127-17.844-27.6c-3.235,15.177-10.556,30.745-24.098,39.241
		c-9.384,6.043-22.127,5.616-31.28-0.639c-11.64-7.466-17.949-20.545-21.947-33.323l1.617-0.996
		c-0.498-0.196-1.51-0.586-2.027-0.781c-3.412,5.97-6.041,12.385-9.916,18.074c-3.943,4.353-8.585,8.015-12.743,12.156
		c-2.131,1.741-4.016,4.532-7.231,3.962c4.958-7.447,12.191-13.027,17.186-20.419c3.927-7.413,7.356-15.089,11.07-22.607
		c-0.889-8.354-2.079-17.078,0.819-25.183c-7.91,8.174-9.669,21.024-18.856,28.311c-5.101,4.158-9.189,9.686-15.125,12.725
		c3.786-9.473,13.828-14.627,18.146-23.796c4.993-10.077,8.85-21.024,17.311-28.862c-8.887,3.004-19.711,6.505-28.312,0.96
		c-6.559-4.354-6.451-13.01-6.398-19.994c-10.573-2.754-22.979-5.26-29.803-14.626c-5.172-7.909,1.635-16.777,8.726-20.438
		c5.421-3.501,12.085-1.493,18.003-0.835c18.892,3.252,37.393,8.495,55.734,14.04c-5.936-6.238-11.819-12.547-17.382-19.104
		c-6.61-9.508-10.077-21.149-18.555-29.342c-3.697-4.443-8.727-8.122-10.627-13.809c6.753,4.87,12.546,10.929,18.465,16.741
		c5.509,7.145,8.834,15.729,14.234,22.944c4.408,4.852,9.244,9.276,13.81,13.968c-0.338-2.132-0.692-4.265-1.084-6.38
		c-9.348-7.624-10.183-23.672-1.351-31.937c4.515-4.159,11.161-1.564,16.085,0.356C455.965,143.579,450.581,135.866,447.7,127.282z"
		/>
	<path fill="#FFFFFF" d="M444.538,156.481c3.766-2.613,8.388,0.587,9.685,4.425c3.075,6.452,1.209,17.044-6.54,19.052
		C437.518,177.63,437.819,162.364,444.538,156.481z"/>
	<path fill="#FFFFFF" d="M473.47,174.094c-2.878-7.074-0.958-19.62,9.011-18.643c6.699,5.989,7.855,18.749-0.444,23.833
		C478.128,181.416,474.785,177.346,473.47,174.094z"/>
	<path fill="#FFFFFF" d="M365.754,205.053c-5.224-5.865,2.08-12.725,7.34-15.231c7.375-1.083,14.733,0.534,21.913,1.974
		c18.447,3.821,36.539,9.152,54.596,14.484c-10.629,5.758-17.044,16.563-21.594,27.369c-6.415,2.916-13.239,4.728-20.188,5.97
		c-3.466-1.048-7.642-1.277-9.969-4.478c-3.627-5.155-2.597-11.8-2.187-17.701C385.321,214.597,373.895,212.57,365.754,205.053z"/>
	<path fill="#FFFFFF" d="M477.381,206.491c20.615-6.255,41.372-12.208,62.574-16.136c5.954-0.711,13.1-2.471,18.057,2.008
		c4.033,2.719,7.447,8.886,3.004,12.866c-7.997,7.607-19.39,9.544-29.68,12.335c0.337,6.788,2.027,15.941-4.887,20.153
		c-9.296,4.318-19.407-1.084-28.099-4.568C494.032,222.558,487.402,212.445,477.381,206.491z"/>
	<path fill="#F9CF4B" d="M426.02,253.125c6.221-5.687,15.158-5.687,23.05-6.451c17.559-1.048,36.31-2.027,52.729,5.297
		c-2.754,2.398-5.972,4.228-9.633,4.745c-17.932,3.18-36.379,3.11-54.383,0.408C433.661,256.467,429.769,254.903,426.02,253.125z"/>
	<path fill="#F9CF4B" d="M432.364,281.08c1.759-2.949,4.709-4.762,8.067-5.312c11.588-2.187,23.513-3.289,35.26-1.743
		c6.416,0.835,13.365,0.925,18.875,4.747c1.476,3.037-2.187,3.695-4.214,4.691c-8.726,2.647-17.966,2.968-27.012,3.287
		C452.854,286.164,441.906,286.04,432.364,281.08z"/>
	<path fill="#F9CF4B" d="M441.091,305.055c9.613-5.224,20.827-4.21,31.367-4.033c5.402,0.143,10.644,1.812,15.266,4.603
		c-7.181,7.482-18.59,5.776-27.972,6.043C453.299,311.098,444.769,311.577,441.091,305.055z"/>
</g>
</svg>
