<?xml version="1.0" encoding="utf-8"?>
<!-- Generator: Adobe Illustrator 17.1.0, SVG Export Plug-In . SVG Version: 6.00 Build 0)  -->
<!DOCTYPE svg PUBLIC "-//W3C//DTD SVG 1.1//EN" "http://www.w3.org/Graphics/SVG/1.1/DTD/svg11.dtd">
<svg version="1.1" xmlns="http://www.w3.org/2000/svg" xmlns:xlink="http://www.w3.org/1999/xlink" x="0px" y="0px"
	 viewBox="0 0 504 504" enable-background="new 0 0 504 504" xml:space="preserve">
<g id="Layer_1">
	<g>
		
			<rect x="0" y="378" transform="matrix(-1 -6.118615e-05 6.118615e-05 -1 503.9653 882.0173)" fill="#FFF1AA" width="504" height="126"/>
	</g>
	<g>
		
			<radialGradient id="SVGID_1_" cx="251.6908" cy="125.9916" r="199.2425" gradientTransform="matrix(1 0 0 1.0952 0.3077 5.970000e-02)" gradientUnits="userSpaceOnUse">
			<stop  offset="0" style="stop-color:#FADE34"/>
			<stop  offset="1" style="stop-color:#F5BC36"/>
		</radialGradient>
		<polygon fill="url(#SVGID_1_)" points="0,276.1 504,276.1 504,0 0,0 		"/>
	</g>
	<path fill="#61C5BA" d="M462.9,268.8c-20.4,11.3-38.6,1.9-42.1,0c-3.5-1.9-21.5-11.4-42.1,0c-20.6,11.4-42.1,0-42.1,0
		s-19.3-12.6-42.1,0c-20.3,11.2-37.8,2.5-41.4,0.4c-0.1-0.1-0.2-0.1-0.2-0.2c-3.1-1.7-21.7-11.3-42.1,0c-20.4,11.3-38.6,1.9-42.1,0
		c-3.5-1.9-21.5-11.4-42.1,0c-20.6,11.4-42.1,0-42.1,0s-19.3-12.6-42.1,0c-22.8,12.6-42.1,0-42.1,0l0.1,109.3c0,0,252.7,0.1,252.7,0
		l251.2,0.3V268.3C499,265.7,481.7,258.4,462.9,268.8z"/>
	<g>
		<path d="M132.3,420.8l38.5-23.3c7.4,13.2,14.2,24.3,30.4,24.3c15.5,0,25.3-6.1,25.3-29.7l0-160.9l47.3,0l0,161.6
			c0,49-28.7,71.3-70.6,71.3C165.4,464,143.5,444.4,132.3,420.8"/>
		<path d="M299.6,415.7l38.5-22.3c10.1,16.6,23.3,28.7,46.6,28.7c19.6,0,32.1-9.8,32.1-23.3c0-16.2-12.8-22-34.5-31.4l-11.8-5.1
			c-34.1-14.5-56.8-32.8-56.8-71.3c0-35.5,27-62.5,69.3-62.5c30.1,0,51.7,10.5,67.2,37.9L413.5,290c-8.1-14.5-16.9-20.3-30.4-20.3
			c-13.9,0-22.6,8.8-22.6,20.3c0,14.2,8.8,19.9,29.1,28.7l11.8,5.1c40.2,17.2,62.8,34.8,62.8,74.4c0,42.6-33.5,65.9-78.4,65.9
			C341.8,464,313.4,443.1,299.6,415.7"/>
	</g>
	<circle fill="#FFF1AA" cx="251" cy="133" r="24"/>
</g>
<g id="Font_No_Outline" display="none">
	<text transform="matrix(1 0 0 1 127.4961 211.707)" display="inline" font-family="'ITCLubalinGraph-Book'" font-size="96.1128">Miami</text>
</g>
<g id="Font_Outline">
	<g>
		<path d="M145,152.1v53.2h9v6.3h-24.7v-6.3h8.7v-55.9h-8.7v-6.3h19.2l24.9,58.2l27.3-58.2h19v6.3h-8.8v55.9h8.8v6.3h-24.6v-6.3h8.8
			v-53.4l-28.1,59.8h-5.4L145,152.1z"/>
		<path d="M239.7,149.4v55.9h8.7v6.3H224v-6.3h8.7v-55.9H224v-6.3h24.4v6.3H239.7z"/>
		<path d="M328.9,211.7h-25.2v-6.3h8.9l-6.8-15.8h-31.8l-7,15.8h8.7v6.3h-24.5v-6.3h8.6l24.9-55.9h-9.1v-6.3h18l26.9,62.3h8.6V211.7
			z M303.9,183.9l-13.7-33.1l-14,33.1H303.9z"/>
		<path d="M346.8,152.1v53.2h9v6.3h-24.7v-6.3h8.7v-55.9h-8.7v-6.3h19.2l24.9,58.2l27.3-58.2h19v6.3h-8.8v55.9h8.8v6.3H397v-6.3h8.8
			v-53.4l-28.1,59.8h-5.4L346.8,152.1z"/>
		<path d="M441.5,149.4v55.9h8.7v6.3h-24.4v-6.3h8.7v-55.9h-8.7v-6.3h24.4v6.3H441.5z"/>
	</g>
</g>
</svg>
