<svg xmlns="http://www.w3.org/2000/svg" viewBox="0 0 504 504" enable-background="new 0 0 504 504"><g><path fill="#FFF1AA" d="M503.988 504.017l-504-.031.008-126 504 .031z"/><radialGradient id="a" cx="251.691" cy="125.992" r="199.243" gradientTransform="matrix(1 0 0 1.095 .308 .06)" gradientUnits="userSpaceOnUse"><stop offset="0" stop-color="#FADE34"/><stop offset="1" stop-color="#F5BC36"/></radialGradient><path fill="url(#a)" d="M0 276.1h504v-276.1h-504z"/><path fill="#61C5BA" d="M462.9 268.8c-20.4 11.3-38.6 1.9-42.1 0s-21.5-11.4-42.1 0-42.1 0-42.1 0-19.3-12.6-42.1 0c-20.3 11.2-37.8 2.5-41.4.4-.1-.1-.2-.1-.2-.2-3.1-1.7-21.7-11.3-42.1 0-20.4 11.3-38.6 1.9-42.1 0s-21.5-11.4-42.1 0-42.1 0-42.1 0-19.3-12.6-42.1 0-42.1 0-42.1 0l.1 109.3s252.7.1 252.7 0l251.2.3v-110.3c-5.3-2.6-22.6-9.9-41.4.5z"/><path d="M132.3 420.8l38.5-23.3c7.4 13.2 14.2 24.3 30.4 24.3 15.5 0 25.3-6.1 25.3-29.7v-160.9h47.3v161.6c0 49-28.7 71.3-70.6 71.3-37.8-.1-59.7-19.7-70.9-43.3M299.6 415.7l38.5-22.3c10.1 16.6 23.3 28.7 46.6 28.7 19.6 0 32.1-9.8 32.1-23.3 0-16.2-12.8-22-34.5-31.4l-11.8-5.1c-34.1-14.5-56.8-32.8-56.8-71.3 0-35.5 27-62.5 69.3-62.5 30.1 0 51.7 10.5 67.2 37.9l-36.7 23.6c-8.1-14.5-16.9-20.3-30.4-20.3-13.9 0-22.6 8.8-22.6 20.3 0 14.2 8.8 19.9 29.1 28.7l11.8 5.1c40.2 17.2 62.8 34.8 62.8 74.4 0 42.6-33.5 65.9-78.4 65.9-44-.1-72.4-21-86.2-48.4"/><circle fill="#FFF1AA" cx="251" cy="133" r="24"/></g><g><path d="M145 152.1v53.2h9v6.3h-24.7v-6.3h8.7v-55.9h-8.7v-6.3h19.2l24.9 58.2 27.3-58.2h19v6.3h-8.8v55.9h8.8v6.3h-24.6v-6.3h8.8v-53.4l-28.1 59.8h-5.4l-25.4-59.6zM239.7 149.4v55.9h8.7v6.3h-24.4v-6.3h8.7v-55.9h-8.7v-6.3h24.4v6.3h-8.7zM328.9 211.7h-25.2v-6.3h8.9l-6.8-15.8h-31.8l-7 15.8h8.7v6.3h-24.5v-6.3h8.6l24.9-55.9h-9.1v-6.3h18l26.9 62.3h8.6v6.2zm-25-27.8l-13.7-33.1-14 33.1h27.7zM346.8 152.1v53.2h9v6.3h-24.7v-6.3h8.7v-55.9h-8.7v-6.3h19.2l24.9 58.2 27.3-58.2h19v6.3h-8.8v55.9h8.8v6.3h-24.5v-6.3h8.8v-53.4l-28.1 59.8h-5.4l-25.5-59.6zM441.5 149.4v55.9h8.7v6.3h-24.4v-6.3h8.7v-55.9h-8.7v-6.3h24.4v6.3h-8.7z"/></g></svg>