<?xml version="1.0" encoding="utf-8"?>
<!-- Generator: Adobe Illustrator 15.0.0, SVG Export Plug-In . SVG Version: 6.00 Build 0)  -->
<!DOCTYPE svg PUBLIC "-//W3C//DTD SVG 1.1//EN" "http://www.w3.org/Graphics/SVG/1.1/DTD/svg11.dtd">
<svg version="1.1" id="Layer_1" xmlns="http://www.w3.org/2000/svg" xmlns:xlink="http://www.w3.org/1999/xlink" x="0px" y="0px"
	 width="612px" height="792px" viewBox="0 0 612 792" enable-background="new 0 0 612 792" xml:space="preserve">
<g id="logo">
	<rect id="background" y="90" fill="#E2007A" width="612" height="612"/>
	<path id="j" fill="#FFFFFF" d="M160.917,601.432l46.835-28.344c9.036,16.02,17.255,29.574,36.97,29.574
		c18.898,0,30.812-7.393,30.812-36.147V370.966h57.512v196.362c0,59.568-34.917,86.682-85.86,86.682
		c-46.008,0-72.714-23.827-86.27-52.583"/>
	<path id="s" fill="#FFFFFF" d="M364.286,595.27l46.828-27.114c12.328,20.132,28.349,34.921,56.694,34.921
		c23.83,0,39.025-11.915,39.025-28.348c0-19.719-15.609-26.703-41.902-38.203l-14.375-6.166
		c-41.494-17.662-69.02-39.846-69.02-86.678c0-43.135,32.864-76.002,84.218-76.002c36.562,0,62.854,12.737,81.75,46.013
		l-44.779,28.755c-9.86-17.663-20.539-24.646-36.971-24.646c-16.843,0-27.525,10.682-27.525,24.646
		c0,17.256,10.683,24.24,35.329,34.922l14.377,6.161c48.887,20.953,76.412,42.313,76.412,90.376
		c0,51.765-40.67,80.108-95.307,80.108C415.636,654.015,381.127,628.547,364.286,595.27"/>
</g>
</svg>
