<?xml version="1.0" encoding="UTF-8" standalone="no"?>
<svg id="js"
     viewBox="0 0 630 630"
     height="100%"
     width="100%"
     version="1.1"
     xmlns="http://www.w3.org/2000/svg"
     xml:space="preserve">
    <!--
                    DO WHAT THE FUCK YOU WANT TO PUBLIC LICENSE
                            Version 2, December 2004

         Copyright (C) 2004 Sam Hocevar <sam@hocevar.net>

         Everyone is permitted to copy and distribute verbatim or modified
         copies of this license document, and changing it is allowed as long
         as the name is changed.

                    DO WHAT THE FUCK YOU WANT TO PUBLIC LICENSE
           TERMS AND CONDITIONS FOR COPYING, DISTRIBUTION AND MODIFICATION

          0. You just DO WHAT THE FUCK YOU WANT TO.
    -->
    <g id="logo">
        <rect fill="#f7df1e" id="background" width="630" height="630" x="0" y="0" />
        <path fill="#000000" id="j" d="M 165.63754,525.78812 213.84577,496.6132 C 223.14619,513.10312 231.6067,527.05401 251.8999,527.05401 271.35194,527.05401 283.61585,519.44493 283.61585,489.84755 L 283.61585,288.56537 342.81436,288.56537 342.81436,490.68998 C 342.81436,552.00454 306.87379,579.91321 254.43718,579.91321 207.08012,579.91321 179.59131,555.3865 165.63754,525.78812" />
        <path fill="#000000" id="s" d="M 374.98559,519.26138 423.16797,491.36393 C 435.85168,512.07745 452.33601,527.29346 481.50032,527.29346 506.01941,527.29346 521.65417,515.03484 521.65417,498.12679 521.65417,477.8381 505.59338,470.65169 478.54053,458.82008 L 463.75036,452.47571 C 421.05651,434.30347 392.73555,411.47851 392.73555,363.29237 392.73555,318.91059 426.55005,285.09363 479.38761,285.09363 517.00647,285.09363 544.05806,298.19839 563.49968,332.43642 L 517.42626,362.02305 C 507.28129,343.84954 496.29424,336.66433 479.38761,336.66433 462.05745,336.66433 451.06665,347.65391 451.06665,362.02305 451.06665,379.7767 462.05745,386.96319 487.41613,397.95397 L 502.20879,404.29331 C 552.50888,425.85141 580.82985,447.82921 580.82985,497.28101 580.82985,550.54222 538.98433,579.70505 482.76843,579.70505 427.81941,579.70505 392.31326,553.50062 374.98559,519.26138" />
    </g>
</svg>
