<?xml version="1.0" encoding="UTF-8" standalone="no"?>
<svg id="js"
     viewBox="0 0 630 630"
     height="100%"
     width="100%"
     version="1.1"
     xmlns="http://www.w3.org/2000/svg"
     xml:space="preserve">
    <!--
                    DO WHAT THE FUCK YOU WANT TO PUBLIC LICENSE
                            Version 2, December 2004

         Copyright (C) 2004 Sam Hocevar <sam@hocevar.net>

         Everyone is permitted to copy and distribute verbatim or modified
         copies of this license document, and changing it is allowed as long
         as the name is changed.

                    DO WHAT THE FUCK YOU WANT TO PUBLIC LICENSE
           TERMS AND CONDITIONS FOR COPYING, DISTRIBUTION AND MODIFICATION

          0. You just DO WHAT THE FUCK YOU WANT TO.
    -->
    <g transform="matrix(1.25,0,0,-1.25,0,630.6275)">
        <g id="logo" transform="scale(0.1,0.1)" d="M0,5045,0,0h5046.7v5045h-5046.7z" fill-rule="nonzero">
            <path id="background"
                  fill="#f7df1e"
                  d="m0,0,5046.7,0,0,5045h-5046.7v-5045z" />
            <path id="j"
                  fill="#000"
                  d="m1325.2,833.23,385.7,233.42c74.41-131.93,142.1-243.55,304.46-243.55,155.63,0,253.75,60.878,253.75,297.68v1610.4h473.63v-1617.1c0-490.56-287.55-713.85-707.08-713.85-378.89,0-598.82,196.23-710.46,433.04" />
            <path id="s"
                  fill="#000"
                  d="m3000,883.98,385.65,223.29c101.52-165.79,233.46-287.58,466.89-287.58,196.25,0,321.39,98.118,321.39,233.45,0,162.39-128.55,219.91-345.08,314.61l-118.38,50.78c-341.72,145.45-568.4,328.14-568.4,713.82,0,355.23,270.65,625.9,693.56,625.9,301.1,0,517.62-104.89,673.23-378.93l-368.77-236.81c-81.2,145.46-169.14,202.97-304.46,202.97-138.71,0-226.68-87.96-226.68-202.97,0-142.1,87.97-199.62,290.94-287.59l118.4-50.74c402.6-172.55,629.28-348.46,629.28-744.27,0-426.3-334.93-659.72-784.88-659.72-439.81,0-724,209.74-862.69,483.79" />
        </g>
    </g>
</svg>