<?xml version="1.0" encoding="UTF-8" standalone="no"?>
<svg
   xmlns:dc="http://purl.org/dc/elements/1.1/"
   xmlns:cc="http://creativecommons.org/ns#"
   xmlns:rdf="http://www.w3.org/1999/02/22-rdf-syntax-ns#"
   xmlns:svg="http://www.w3.org/2000/svg"
   xmlns="http://www.w3.org/2000/svg"
   version="1.1"
   width="100%"
   height="100%"
   viewBox="0 0 630 630"
   id="svg2">
  <g
     id="layer3"
     style="display:inline">
    <rect
       width="630"
       height="630"
       x="0"
       y="0"
       id="background"
       style="fill:#004c98;fill-opacity:1" />
  </g>
  <metadata
     id="metadata12">
    <rdf:RDF>
      <cc:Work
         rdf:about="">
        <dc:format>image/svg+xml</dc:format>
        <dc:type
           rdf:resource="http://purl.org/dc/dcmitype/StillImage" />
        <dc:title></dc:title>
      </cc:Work>
    </rdf:RDF>
  </metadata>
  <defs
     id="defs10" />
  <g
     id="layer1"
     style="display:inline">
    <g
       id="text3041"
       style="font-size:40.05428696px;font-style:normal;font-variant:normal;font-weight:bold;font-stretch:normal;line-height:125%;letter-spacing:0px;word-spacing:0px;fill:#ffffff;fill-opacity:1;stroke:none;font-family:Neutra Text;-inkscape-font-specification:Neutra Text Bold">
      <path
         d="m 206.1852,510.01307 c -8.2145,7e-5 -14.50969,2.57189 -18.88559,7.71546 -4.29919,5.06692 -6.44876,12.12982 -6.44874,21.18872 -2e-5,4.29919 0.49898,8.25288 1.49703,11.86107 1.07476,3.53148 2.61017,6.56392 4.60624,9.09733 2.07278,2.53345 4.60621,4.52949 7.6003,5.98812 3.07079,1.38188 6.64062,2.07282 10.70951,2.07281 2.53339,10e-6 4.72135,-0.0768 6.5639,-0.23032 1.84244,-0.2303 3.30109,-0.49899 4.37593,-0.80609 l 0,-28.67386 14.50967,0 0,38.34697 c -1.99611,0.76771 -5.37402,1.61219 -10.13374,2.53344 -4.75984,0.92124 -10.24894,1.38187 -16.46732,1.38187 -5.75784,0 -11.01663,-0.92125 -15.77638,-2.76375 -4.75981,-1.84249 -8.82865,-4.52946 -12.20654,-8.06092 -3.30116,-3.53144 -5.87297,-7.86898 -7.71546,-13.01264 -1.8425,-5.14361 -2.76375,-11.05495 -2.76374,-17.73403 -1e-5,-6.67901 0.99801,-12.59035 2.99405,-17.73404 2.0728,-5.14357 4.87493,-9.48112 8.4064,-13.01264 3.53143,-3.60815 7.67704,-6.3335 12.43685,-8.17608 4.75975,-1.84241 9.82661,-2.76366 15.2006,-2.76374 3.68495,8e-5 6.9477,0.26878 9.78827,0.80609 2.91723,0.4607 5.41228,0.9981 7.48515,1.61218 2.07274,0.61425 3.76169,1.2668 5.06686,1.95766 1.38181,0.69101 2.34144,1.19002 2.8789,1.49703 l -4.37593,11.86107 c -2.30318,-1.38181 -5.18208,-2.53336 -8.6367,-3.45468 -3.37797,-0.99795 -6.9478,-1.49696 -10.70952,-1.49703"
         id="path3059"
         style="font-size:115.15607452px;font-weight:500;fill:#ffffff;font-family:Ubuntu;-inkscape-font-specification:Ubuntu Medium" />
      <path
         d="m 269.58942,498.26715 c 11.51556,8e-5 20.3058,2.11127 26.37074,6.33359 6.14159,4.22246 9.21242,10.67119 9.21248,19.34622 -6e-5,10.82471 -5.33562,18.15631 -16.00669,21.99481 1.45859,1.76575 3.10916,3.91533 4.95171,6.44874 1.84244,2.53345 3.72332,5.2972 5.64265,8.29123 1.9192,2.91731 3.7617,5.94975 5.52749,9.09733 1.76566,3.07084 3.33945,6.10328 4.7214,9.09733 l -16.23701,0 c -1.4587,-2.76374 -3.03249,-5.52748 -4.7214,-8.29123 -1.689,-2.84051 -3.41634,-5.56587 -5.18202,-8.17608 -1.689,-2.68696 -3.37795,-5.18201 -5.06687,-7.48515 -1.68899,-2.37987 -3.26279,-4.49106 -4.7214,-6.33358 -1.07482,0.0768 -1.99607,0.11518 -2.76374,0.11515 -0.76774,3e-5 -1.49706,3e-5 -2.18797,0 l -7.02452,0 0,30.17089 -14.50966,0 0,-78.6516 c 3.53144,-0.76762 7.2932,-1.26663 11.28529,-1.49702 3.99205,-0.30701 7.56189,-0.46055 10.70952,-0.46063 m 1.0364,12.55201 c -3.07086,7e-5 -5.91137,0.11523 -8.52155,0.34547 l 0,25.79496 6.33359,0 c 3.53141,4e-5 6.64063,-0.19188 9.32764,-0.57578 2.68693,-0.38381 4.91328,-1.07474 6.67905,-2.07281 1.84245,-0.99797 3.22432,-2.34146 4.14562,-4.03046 0.9212,-1.68891 1.38182,-3.83848 1.38187,-6.44874 -5e-5,-2.45661 -0.46067,-4.52941 -1.38187,-6.21843 -0.9213,-1.68889 -2.26479,-3.03238 -4.03046,-4.03046 -1.689,-0.99795 -3.72343,-1.68889 -6.10328,-2.07281 -2.37993,-0.46056 -4.99013,-0.69087 -7.83061,-0.69094"
         id="path3061"
         style="font-size:115.15607452px;font-weight:500;fill:#ffffff;font-family:Ubuntu;-inkscape-font-specification:Ubuntu Medium" />
      <path
         d="m 321.36646,578.8764 0,-79.80316 51.24445,0 0,12.3217 -36.73479,0 0,19.69169 32.70433,0 0,12.09139 -32.70433,0 0,23.37668 39.49854,0 0,12.3217 -54.0082,0"
         id="path3063"
         style="font-size:115.15607452px;font-weight:500;fill:#ffffff;font-family:Ubuntu;-inkscape-font-specification:Ubuntu Medium" />
      <path
         d="m 388.84073,578.8764 0,-79.80316 51.24445,0 0,12.3217 -36.73478,0 0,19.69169 32.70432,0 0,12.09139 -32.70432,0 0,23.37668 39.49853,0 0,12.3217 -54.0082,0"
         id="path3065"
         style="font-size:115.15607452px;font-weight:500;fill:#ffffff;font-family:Ubuntu;-inkscape-font-specification:Ubuntu Medium" />
      <path
         d="m 488.85919,580.60374 c -5.98816,0 -11.3621,-0.92124 -16.12185,-2.76374 -4.75981,-1.8425 -8.79027,-4.52947 -12.09139,-8.06093 -3.30116,-3.60821 -5.83459,-7.98413 -7.6003,-13.12779 -1.76574,-5.14361 -2.6486,-11.05495 -2.64859,-17.73403 -1e-5,-6.67901 0.99801,-12.59035 2.99405,-17.73404 2.0728,-5.14357 4.87493,-9.48112 8.4064,-13.01264 3.53143,-3.60815 7.67704,-6.3335 12.43685,-8.17608 4.75975,-1.84241 9.865,-2.76366 15.31576,-2.76374 3.30109,8e-5 6.29515,0.26878 8.98218,0.80609 2.68691,0.4607 5.02842,0.9981 7.02452,1.61218 1.99597,0.61425 3.64654,1.2668 4.95171,1.95766 1.30503,0.69101 2.22628,1.19002 2.76374,1.49703 l -4.26077,11.86107 c -1.84256,-1.15149 -4.49115,-2.22628 -7.94577,-3.22437 -3.37797,-1.07472 -7.06296,-1.61211 -11.05498,-1.61218 -3.45473,7e-5 -6.6791,0.61423 -9.67311,1.84249 -2.9941,1.15163 -5.6043,2.91736 -7.83062,5.29718 -2.1496,2.37996 -3.83856,5.37401 -5.06686,8.98218 -1.22836,3.60827 -1.84252,7.79227 -1.8425,12.55201 -2e-5,4.22243 0.4606,8.09934 1.38187,11.63076 0.998,3.53148 2.49502,6.60231 4.49109,9.21249 1.99601,2.53345 4.52944,4.52949 7.6003,5.98812 3.07079,1.38188 6.75578,2.07282 11.05498,2.0728 5.14359,2e-5 9.32759,-0.49899 12.55201,-1.49702 3.22431,-1.07478 5.71936,-2.0728 7.48515,-2.99406 l 3.91531,11.86107 c -0.92132,0.61417 -2.18804,1.22834 -3.80015,1.8425 -1.53548,0.61417 -3.37798,1.22833 -5.5275,1.8425 -2.14964,0.53739 -4.56791,0.95963 -7.25483,1.26671 -2.68702,0.38386 -5.56592,0.57578 -8.6367,0.57578"
         id="path3067"
         style="font-size:115.15607452px;font-weight:500;fill:#ffffff;font-family:Ubuntu;-inkscape-font-specification:Ubuntu Medium" />
      <path
         d="m 526.93805,578.8764 0,-79.80316 51.24445,0 0,12.3217 -36.73478,0 0,19.69169 32.70432,0 0,12.09139 -32.70432,0 0,23.37668 39.49853,0 0,12.3217 -54.0082,0"
         id="path3069"
         style="font-size:115.15607452px;font-weight:500;fill:#ffffff;font-family:Ubuntu;-inkscape-font-specification:Ubuntu Medium" />
    </g>
  </g>
  <g
     id="layer2"
     style="display:inline">
    <g
       transform="translate(0,-132.76875)"
       id="g2993"
       style="fill:#ffffff">
      <path
         d="m 165.65,526.47375 48.2125,-29.1775 C 223.16375,513.7875 231.625,527.74 251.92,527.74 c 19.45375,0 31.71875,-7.60975 31.71875,-37.21 l 0,-201.3 59.20375,0 0,202.1375 c 0,61.32 -35.94375,89.23125 -88.385,89.23125 -47.36125,0 -74.8525,-24.52875 -88.8075,-54.13"
         id="j"
         style="fill:#ffffff" />
      <path
         d="m 375,520.13 48.20625,-27.91125 c 12.69,20.72375 29.1825,35.9475 58.36125,35.9475 24.53125,0 40.17375,-12.26475 40.17375,-29.18125 0,-20.29875 -16.06875,-27.48875 -43.135,-39.32625 l -14.7975,-6.3475 c -42.715,-18.18125 -71.05,-41.0175 -71.05,-89.2275 0,-44.40375 33.83125,-78.2375 86.695,-78.2375 37.6375,0 64.7025,13.11125 84.15375,47.36625 l -46.09625,29.60125 c -10.15,-18.1825 -21.1425,-25.37125 -38.0575,-25.37125 -17.33875,0 -28.335,10.995 -28.335,25.37125 0,17.7625 10.99625,24.9525 36.3675,35.94875 l 14.8,6.3425 c 50.325,21.56875 78.66,43.5575 78.66,93.03375 0,53.2875 -41.86625,82.465 -98.11,82.465 -54.97625,0 -90.5,-26.2175 -107.83625,-60.47375"
         id="s"
         style="fill:#ffffff" />
    </g>
  </g>
</svg>
