<?xml version="1.0" encoding="utf-8"?>
<!-- Generator: Adobe Illustrator 18.1.1, SVG Export Plug-In . SVG Version: 6.00 Build 0)  -->
<!DOCTYPE svg PUBLIC "-//W3C//DTD SVG 1.1//EN" "http://www.w3.org/Graphics/SVG/1.1/DTD/svg11.dtd">
<svg version="1.1" xmlns="http://www.w3.org/2000/svg" xmlns:xlink="http://www.w3.org/1999/xlink" x="0px" y="0px"
	 viewBox="0 0 1020.6 1178.4" enable-background="new 0 0 1020.6 1178.4" xml:space="preserve">
<g id="Layer_3" display="none">
	<polygon display="inline" fill="#FEDA3F" points="2275.5,183.2 2275.5,-217.8 1874.5,-217.8 	"/>
	<polygon display="inline" fill="#E1AF25" points="1874.1,-217.8 1639.6,-217.8 1639.4,-217.3 1639.4,184 2275.1,184 	"/>
	<polygon display="inline" fill="#E1AF25" points="2639.4,-217.8 2275.4,-217.8 2275.4,183.7 2639.4,-180.3 	"/>
	<polygon display="inline" fill="#FEDA3F" points="2639.4,-180.3 2275.9,183.2 2639.4,183.2 	"/>
	<polygon display="inline" fill="#E1AF25" points="2639.4,183.5 2275.2,183.5 2639.4,548.2 	"/>
	<polygon display="inline" fill="#FEDA3F" points="2639.4,546.4 2275.9,182.9 2275.5,782.2 2639.4,781.6 	"/>
	<polygon display="inline" fill="#E1AF25" points="2275.6,183.1 1678.3,782.2 2276.1,782.2 	"/>
	<polygon display="inline" fill="#FEDA3F" points="1678.3,782.2 2276.5,182.9 1639.4,183.2 1639.4,782.2 	"/>
</g>
<g id="Layer_1" display="none">
	<path display="inline" fill="none" stroke="#FFFFFF" stroke-width="36" stroke-miterlimit="10" d="M3777,297.7
		c-24.2-7.8-43.9-2.1-58.6,7.1c24.1-30.5,47.6-70.5,37-78.2c-32.2,17.9-61.1,43.7-83.3,67.1c15.2-26.2,15.2-42.6,9-39.5
		c-20.4,11.1-35.9,22.1-47.6,32.4c-14.1-23.3-31.4-40.4-51.8-51.3c-5.6-3-11.2-5.3-16.6-7.2c197.2-40.2,174.4-202.9,174.4-202.9
		c0,0,0,0,0,0c0.4-14.7-0.6-26.3-1.4-33.1c-0.7-28.5-6.6-225.1-48.2-256.2c0,0-83.7,53.2-116.4,94.3l1.5,1.5
		c-2.7-0.9-5.5-1.8-8.3-2.7c-30.5-10.1-63.9-15.6-98.9-15.6c-2.2,0-4.4,0-6.6,0.1c-32.9,0.5-61.7,4.7-86.8,11.4
		c-3.6,0.9-7.1,1.9-10.6,2.9c-34-40.7-114.4-91.9-114.4-91.9c-26.2,19.7-38.3,103.3-43.8,169.3l-4.5,46.4c0.5-0.1,1-0.3,1.4-0.4
		c-1.2,23.5-1.4,39-1.4,39l1.2-1.1c0,0.4-0.1,0.7-0.1,1.1l-1,0c0,0-2.9,15.8-2.2,39.5c0,0,0,0,0,0s-3.7,47.3,23.4,96.7
		c-7.3,2.9-15.8,5.5-25.7,7.3c-50.8,9.1-121.5,36.5-141.4,70.6l15.8,32.4c0,0,60.8-47.6,136.2-62.5c8.9-1.8,16.9-3.9,23.9-6.4
		c-5.9,9.8-15.3,21-30,32.1c-41.2,31.1-91.9,87.4-94.3,126.9l28.7,21.7c0,0,32.8-69.9,93.3-117.3c23.1-18.1,34.9-35.1,40.7-49.3
		c26.6,21,63.1,38.5,113.2,47.9c-9.1,1.9-18.9,5.1-29.1,10.5c-36.3,19.3-62.8,58.6-78.8,116.7l-5.4,19.4l-0.2-0.1
		c0,0.4-0.1,0.7-0.1,1.1l-1.8,6.6l1.6,0.5c0.6,24.5,15.8,15.7,15.8,15.7s7.8,11.9,17,4.4c0,0,9.7,10.4,15.9,2.6
		c2.3-2.9,5-9.4,7.4-16.4l-1.4-0.4l5.1-18.5c10-36,24.4-62,42-76.1c-4.8,20.4-9.2,43.5-13.6,69.6c-0.1,0.5-0.2,1-0.2,1.4l0,0
		c0,0-2.1,11.7-3.3,21.2c-0.4,2.4-2.6,16.1-3.5,29.5c0,0,0,0,0,0c-1.4,15.4-1.9,30.1-1.2,43.9l0,0c0,0,0.6,131,55.3,149.5
		c9.5-6.7,6.4-34.7,3.2-52.9c16.8,7.6,38,12.6,64.4,14.2c27.3-2,48.9-6.3,65.9-12.5c-3,18.2-5.6,44.7,3.5,51.2
		c37.2-12.6,49.4-77.3,53.3-117.3c1.2-7.3,1.8-15.1,1.9-23.3c45.8,1.9,121.4-72.1,114.4-80.9c-7.9,1-15.6,4.4-22,8.1
		c27.5-21.1,69.1-55.2,61.2-59.1c-8.5-4.3-23.9,1-27.8,2.5C3736.8,335,3780.9,303.5,3777,297.7z M3582.1,310.1
		c-0.8,0.8-1.6,1.7-2.4,2.5c-0.4-2.6-0.9-5.2-1.4-7.7C3579.6,306.6,3580.9,308.3,3582.1,310.1z"/>
	<path display="inline" fill="#9FACC6" d="M3551.1,442.2c0,0-14.4-87.3,34.7-134.5c12.5,2.4,18.8,14.8,11.7,35.2
		c0,0,1.5-43.1,85-88.7c9.9-4.8,4,40.2-55.1,95.5c0,0,55.9-82.3,129.4-123.1c15.6,11.4-42.5,92.4-68,110.5c0,0,31.8-58,89.5-39.4
		c4,5.9-42.1,38.7-55.6,43.5c0,0,18.9-7.7,28.7-2.8c9.8,4.9-56.9,56.5-77.9,71.6c0,0,18.4-18,38.7-20.5
		c7.4,9.2-77.4,91.3-121.9,79.8C3545.8,457.7,3551.1,442.2,3551.1,442.2z"/>
	<path display="inline" fill="#F9F9FA" d="M3338.8,277"/>
	<path display="inline" fill="#677CA0" d="M3563.7,421.2c0,0-18-61.3,31.2-79.2c13.9-1.7,1.2,33.2,1.2,33.2s14.3-53,51.8-62.8
		c37.5-9.8-33.8,63.7-33.8,63.7s42.6-52.6,62-42.7c19.4,9.9-57.7,68.1-57.7,68.1s29.3-40.3,62.7-24c7.8,15.5-43.6,38.9-43.6,38.9
		s-5.8-18.5,28.5,5.4c6.3,11-74.5,30.6-88.5,15C3563.7,421.2,3563.7,421.2,3563.7,421.2z"/>
	<path display="inline" d="M3242.7,136.8c0,0,0.8,31.9-40.3,63c-41.2,31.1-91.9,87.4-94.3,126.9l28.7,21.7c0,0,32.8-69.9,93.3-117.3
		c60.5-47.4,43.7-87.7,43.7-87.7L3242.7,136.8z"/>
	<path display="inline" fill="#9FACC6" d="M3738.5-14.3l-11.9,0.1c-22.9-98.1-129.5-172.4-257.5-172.4
		c-137.2,0-253.9,69.9-265.8,176.7l-1,0c0,0-45,243.2,259.9,246.8c2.3,0.1,4.6,0.1,6.9,0.1c2.6,0,5.1,0,7.6-0.1
		C3784.3,232.8,3738.5-14.3,3738.5-14.3z"/>
	<path display="inline" fill="#2D2C2B" d="M3597.8,463.6c0-1.4,0-2.2,0-2.2l-0.1,0.1c-0.6-28.1-5.8-60.5-9.6-96.1
		c-15.4-144.8-51.4-199.3-114.9-199.3s-90.5,54.6-114.9,199.3c-5.9,35-9.9,67.3-8.3,96.1l0,0c0,0,0.6,131,55.3,149.5
		c9.5-6.7,6.4-34.7,3.2-52.9c16.8,7.6,38,12.6,64.4,14.2c27.3-2,48.9-6.3,65.9-12.5c-3,18.2-5.6,44.7,3.5,51.2
		c37.2-12.6,49.4-77.3,53.3-117.3C3597.4,484.3,3597.9,474.2,3597.8,463.6z"/>
	<path display="inline" d="M3262.3,95.6c0,0-13.7,28.9-64.5,38c-50.8,9.1-121.5,36.5-141.4,70.6l15.8,32.4c0,0,60.8-47.6,136.2-62.5
		c75.4-14.9,78.6-58.5,78.6-58.5L3262.3,95.6z"/>
	<path display="inline" fill="none" stroke="#25282A" stroke-width="23" stroke-linecap="round" stroke-miterlimit="10" d="
		M3301.8,367.9"/>
	<g display="inline">
		<path fill="#9FACC6" d="M3667.4,371.2c2.8,34.4-15.5,23.8-15.5,23.8s-7.8,11.9-17,4.4c0,0-9.7,10.4-15.9,2.6
			c-2.3-2.9-5-9.4-7.4-16.4L3667.4,371.2z"/>
		<path fill="#2C2B2A" d="M3615.4,393.8l-7.5-27c-11.4-41.4-28.8-69.6-50.2-81.6c-17.9-10.1-33.6-5.7-34.3-5.6
			c0.3-0.1,0.5-0.2,0.5-0.2l-17.6-53.1c3.8-1.3,38.1-11.7,76.7,8.9c36.3,19.4,62.8,58.6,78.8,116.7l7.5,27L3615.4,393.8z"/>
	</g>
	<g display="inline">
		<path fill="#9FACC6" d="M3270.5,376.2c-2.8,34.4,15.5,23.8,15.5,23.8s7.8,11.9,17,4.4c0,0,9.7,10.4,15.9,2.6
			c2.3-2.9,5-9.4,7.4-16.4L3270.5,376.2z"/>
		<path fill="#2C2B2A" d="M3322.5,398.8l-54-14.9l7.5-27c16.1-58.1,42.6-97.3,78.8-116.7c38.6-20.6,72.9-10.2,76.7-8.9l-17.6,53.1
			c0,0,0.2,0.1,0.5,0.2c-0.7-0.2-16.3-4.5-34.3,5.6c-21.4,12-38.8,40.2-50.2,81.6L3322.5,398.8z"/>
	</g>
	<path display="inline" fill="#677CA0" d="M3465.8-127c0,0-56.7,288.7,264.6,212.4c0,0,13.8-37.3,7.4-129.2
		C3731.4-135.6,3465.8-127,3465.8-127z"/>
	<path display="inline" fill="none" stroke="#25282A" stroke-width="23" stroke-linecap="round" stroke-miterlimit="10" d="
		M3421.6,261.5"/>
	<polygon display="inline" fill="#707071" points="3423.9,230.3 3461.3,307.7 3537.8,225.8 	"/>
	<g display="inline">
		<path fill="none" stroke="#4F4F4F" stroke-width="3" stroke-miterlimit="10" d="M3430.2,241.3c0,0,30.5,11.2,82.8,2.5"/>
		<path fill="none" stroke="#4F4F4F" stroke-width="3" stroke-miterlimit="10" d="M3429.2,255c0,0,30.5,11.2,82.8,2.5"/>
		<path fill="none" stroke="#4F4F4F" stroke-width="3" stroke-miterlimit="10" d="M3429.2,269.9c0,0,30.5,11.2,82.8,2.5"/>
		<path fill="none" stroke="#4F4F4F" stroke-width="3" stroke-miterlimit="10" d="M3454.5,225.8c0,0-3.7,59.2,8.2,71.2
			c12,12,19.1-57.8,17.8-74.6"/>
	</g>
	<path display="inline" fill="#E1BD23" d="M3515.1,235c0,0-20.7,38.6-44.7,61.1l13,22c0,0,57.7-42.5,65.6-91.5L3515.1,235z"/>
	<path display="inline" fill="#F4D62B" d="M3429,233.1c0,0,62,109.1,142.7,156.3c4.4,15.3-26.5,15.5-26.5,15.5s-83.2-57.2-154.4-181
		c1.7-6.8-2.3,4.6-2.3,4.6L3429,233.1z"/>
	<path display="inline" fill="none" stroke="#000000" stroke-width="9" stroke-linecap="round" stroke-miterlimit="10" d="
		M3442.5,76.5c0,0,26.5-54.2,48.5,0"/>
	<g display="inline">
		<path fill="#2D2C2B" d="M3740.8,25.2c-289.4,151.1-540.7,4.4-540.7,4.4s-16.4,207.4,269,207.4C3770.6,237,3740.8,25.2,3740.8,25.2
			z"/>
		<path fill="#2D2C2B" d="M3739.5-4.4c0,0-3.4-226.1-48.3-259.7c0,0-83.7,53.2-116.4,94.3l1.5,1.5c-30.1-10.4-65.6-17.3-107.2-18.3
			c-40.4,0-74.8,5.5-104,14.5c-33.9-40.8-114.5-92-114.5-92c-44.8,33.6-48.3,254.3-48.3,254.3l5.9-5.7
			C3232.9-30.4,3480.7-170.7,3739.5-4.4z"/>
	</g>
	<circle display="inline" fill="#FFFFFF" cx="3336.6" cy="6.6" r="67.1"/>
	<circle display="inline" fill="#34373A" cx="3336.6" cy="6.6" r="41.5"/>
	
		<circle display="inline" fill="#E8EBEC" stroke="#CEAF2C" stroke-width="6" stroke-miterlimit="10" cx="3407.2" cy="313.4" r="29.1"/>
	<circle display="inline" fill="#FFFFFF" cx="3596.7" cy="6.6" r="67.1"/>
	<circle display="inline" fill="#34373A" cx="3596.7" cy="6.6" r="41.5"/>
	
		<line display="inline" fill="none" stroke="#000000" stroke-width="5" stroke-linecap="round" stroke-miterlimit="10" x1="3395.1" y1="-48.5" x2="3376.9" y2="-66.6"/>
	
		<line display="inline" fill="none" stroke="#000000" stroke-width="5" stroke-linecap="round" stroke-miterlimit="10" x1="3401.1" y1="-54.4" x2="3382.9" y2="-72.6"/>
	<path display="inline" fill="none" stroke="#E1BD23" stroke-width="13" stroke-linecap="square" stroke-miterlimit="10" d="
		M3561.5,410.6c0,0,14.9,35.8,12.4,76.1"/>
	
		<line display="inline" fill="none" stroke="#000000" stroke-width="5" stroke-linecap="round" stroke-miterlimit="10" x1="3540.3" y1="-48.5" x2="3558.5" y2="-66.6"/>
	
		<line display="inline" fill="none" stroke="#000000" stroke-width="5" stroke-linecap="round" stroke-miterlimit="10" x1="3534.3" y1="-54.4" x2="3552.5" y2="-72.6"/>
	<path display="inline" fill="#F9F9FA" d="M3331.2,348.5"/>
	<path display="inline" fill="#F4D62B" d="M3351.3,417.5c0,0,113.5,39.4,242.7,0l-0.3-9.5l-238.8-20.3
		C3354.9,387.7,3352.3,402.9,3351.3,417.5z"/>
	<path display="inline" fill="#E1BD23" d="M3358.2,366.8c0,0,102,39,232.5,20.2c3.7,19,3.3,27.9,3.3,27.9s-140.1,8.3-239.2-26.4
		C3356,378.9,3358.2,366.8,3358.2,366.8z"/>
	<path display="inline" fill="#707071" d="M3387.1,307.2c0,0,1.9,3.9,5.3,2.5c2.2-0.6,4.5,0.9,5.1,1.9c0.6,1.1,3.6,2.1,6.8,1.1
		c3.2-1.1,5.7-0.8,6.5-0.7c0,0,2.1-1.3,1.3-3.5c0,0-1.8,1.1-2.4,1.6c-0.6,0.5-2.7,1.2-2.7,1.2l-2.5,0.5c0,0-0.8,0-2-0.3
		c0,0,1.3,0.1,2.3-0.3c1-0.4,3.1-1.8,3.9-1.8c0,0,2.6-1.5,3.3-2.1c0,0-1.7,0.9-2.4,0.6c-0.7,0.3-0.7,0.7-0.9,1
		c-0.2,0.2-0.9,0.2-1.4-0.3c0,0-0.4,0.1-0.6-0.2c-0.2-0.4-1.1-0.2-1.1-0.2s1.1,0,1.1-0.4c0-0.4,0.6-1,1.1-1.1
		c0.4-0.1,1.6-0.3,1.7-0.8c0-0.6,0.7-1.3,1.9-1.2c1.2,0.1,2.7-0.8,3-1.3c0.3-0.5,2-0.5,2.4,0c0.4,0.5,0.5,1.3,0.9,1.3
		c0,0,0.6,0.9-0.4,1.5l-0.8,0.1l-0.3,0.9c0,0,0.9,0.6,2.1,0c1.2-0.6,4.1-1.9,4.9-2.7c0.8-0.8,2.4-1.2,2.4-1.2s-0.1,0.3,0.5-0.3
		c0.6-0.5,1.3-0.3,1.3-0.3l-0.4,0.8l-1.4,0.3c0,0-1.1,0.9-1.3,1.2c-0.2,0.3-3.1,2-3.6,2.3c-0.5,0.3-1.5,0.5-1.7,0.9
		c-0.2,0.5-1.1,1-1.4,1c-0.3,0-1.6,3.9-3.6,4.7c-1.2,2.2-3.4,3.3-4,3.4c-0.6,0.1-4.6,1.1-9.6-1.9c-4.1-3.3-3.2-2.5-4.3-3
		c-1-0.6-2.6,0.5-3.7,2.1c-0.8,1.1-1.2,2.3-1,2.8c0,0-2.2-2.5-0.5-5.1C3390.7,312.3,3387.1,311.6,3387.1,307.2z"/>
	
		<line display="inline" fill="none" stroke="#F3D62B" stroke-width="14" stroke-linecap="square" stroke-miterlimit="10" x1="3549.1" y1="425.6" x2="3522.8" y2="491.2"/>
	<path display="inline" fill="#FEE672" d="M3536,391.9c0,0-11.4,21.5-3.2,39.1c0,0,43-5.8,44.2-8.7c0,0-1.5-25.5-5.2-32.9
		C3571.7,389.4,3542.6,391.7,3536,391.9z"/>
	<path display="inline" d="M3210-127.4c0,0,177.8-71.8,520.7-6.9l5.8,63.4c0,0-287.1-50.4-534.2,22.5L3210-127.4z"/>
	
		<text transform="matrix(0.9996 2.703000e-02 -2.703000e-02 0.9996 3437.9863 -113.2626)" display="inline" font-family="'NeutraText-Bold'" font-size="39.3331">JS</text>
	<rect x="3432.5" y="-161.5" display="inline" fill="#F4D62B" width="73.5" height="73.5"/>
	
		<text transform="matrix(0.9996 2.703000e-02 -2.703000e-02 0.9996 3466.8115 -100.1746)" display="inline" font-family="'NeutraText-Bold'" font-size="39.3331">JS</text>
	
		<text transform="matrix(1 0 0 1 3388.5117 325.7175)" display="inline" fill="#2D2C2B" font-family="'NeutraText-Bold'" font-size="6.5085" letter-spacing="1">NORFOLK</text>
</g>
<g id="Layer_5" display="none">
	<g display="inline">
		<path fill="#FFFFFF" d="M2197.1,716.3c-13,0-25.3-4.4-32.9-11.7c-5.7-5.5-14.6-20-25.8-82.2c-6-33.2-9.8-64.6-9.9-65l0-0.2l0-0.2
			c-2.7-41.6,2.4-80.7,15.3-116.8c-10.7,14.6-16.1,30.4-21.4,45.8c-2.6,7.6-5.1,14.8-8.2,21.8c-1.1,2.5-2.7,4.7-4.7,6.7l-0.3,0.3
			c-0.2,0.2-0.5,0.4-0.7,0.7l-0.1,0.1c-0.3,0.3-0.6,0.5-0.9,0.8l-0.1,0.1h0c-0.3,0.2-0.6,0.5-1,0.7l-0.2,0.1
			c-0.3,0.2-0.6,0.4-0.9,0.6l-0.2,0.1c-0.3,0.2-0.6,0.4-0.9,0.6l-0.3,0.1c-0.3,0.2-0.6,0.3-0.9,0.5l-0.3,0.1
			c-0.3,0.2-0.6,0.3-0.9,0.4l-0.3,0.2c-0.3,0.1-0.6,0.3-0.9,0.4l-0.3,0.1c-0.3,0.1-0.6,0.2-0.9,0.3l-0.3,0.1c-0.4,0.1-0.7,0.2-1,0.3
			c-0.1,0-0.2,0.1-0.3,0.1c-0.3,0.1-0.6,0.2-1,0.3l-0.4,0.1c-0.3,0.1-0.7,0.2-1,0.2l-0.3,0.1c-0.4,0.1-0.7,0.1-1.1,0.2l-0.3,0
			c-0.4,0.1-0.7,0.1-1.1,0.1l-0.2,0c-1,0.1-2.1,0.2-3.1,0.2c-1.2,0-2.3-0.1-3.5-0.2l-0.2,0c-0.4,0-0.7-0.1-1.1-0.2l-0.3,0
			c-0.3-0.1-0.6-0.1-0.9-0.2c0,0-0.4-0.1-0.6-0.1c-0.3-0.1-0.5-0.1-0.8-0.2l-0.6-0.2c-0.3-0.1-0.6-0.2-0.9-0.3
			c-0.2-0.1-0.4-0.1-0.6-0.2c-0.3-0.1-0.5-0.2-0.8-0.3c-0.2-0.1-0.4-0.2-0.6-0.2c-0.3-0.1-0.5-0.2-0.8-0.3c-0.2-0.1-0.4-0.2-0.6-0.3
			c-0.2-0.1-0.5-0.2-0.8-0.4c-0.2-0.1-0.4-0.2-0.6-0.3c-0.3-0.2-0.6-0.3-0.8-0.5c-0.2-0.1-0.4-0.2-0.6-0.3c-0.3-0.2-0.5-0.3-0.8-0.5
			c-0.2-0.1-0.4-0.3-0.6-0.4c-0.2-0.2-0.5-0.3-0.7-0.5c-0.2-0.2-0.4-0.3-0.6-0.4c-0.3-0.2-0.5-0.4-0.7-0.6c-0.2-0.1-0.3-0.3-0.5-0.5
			c-0.2-0.2-0.5-0.4-0.7-0.6c-0.2-0.2-0.3-0.3-0.5-0.5c-0.2-0.2-0.4-0.4-0.6-0.7c-0.2-0.2-0.3-0.3-0.4-0.5c-0.3-0.3-0.5-0.5-0.7-0.8
			c-0.1-0.2-0.3-0.3-0.4-0.5l-0.1-0.1c-0.2-0.3-0.4-0.5-0.6-0.8c-0.1-0.2-0.2-0.3-0.4-0.5l-0.1-0.1c-0.2-0.3-0.4-0.6-0.5-0.8
			c-0.1-0.2-0.2-0.4-0.3-0.6l-0.1-0.2c-0.2-0.3-0.3-0.5-0.4-0.8c-0.1-0.2-0.2-0.4-0.3-0.5l-0.1-0.2c-0.1-0.3-0.3-0.5-0.4-0.8
			c-0.1-0.2-0.2-0.4-0.3-0.6l-0.1-0.3c-0.1-0.3-0.2-0.5-0.4-0.8c-0.1-0.2-0.2-0.4-0.2-0.6l0-0.1c-0.5-1.2-0.9-2.4-1.2-3.7l-0.1-0.2
			c-0.1-0.2-0.1-0.5-0.2-0.7c-0.1-0.3-0.1-0.5-0.2-0.8l-0.1-0.3c-0.1-0.3-0.1-0.5-0.2-0.8c-0.1-0.2-0.1-0.5-0.1-0.7l-0.1-0.4
			c-0.1-0.3-0.1-0.6-0.1-0.8c0-0.2-0.1-0.5-0.1-0.8l-0.1-0.4c0-0.3-0.1-0.6-0.1-0.9c0-0.3-0.1-0.5-0.1-0.8l0-0.3
			c0-0.3-0.1-0.6-0.1-1c0-0.3,0-0.6-0.1-0.9l0-0.2c0-0.4,0-0.8-0.1-1.2c0-0.3,0-0.6,0-0.9l0-0.1c0-0.4,0-0.8,0-1.2
			c0-0.3,0-0.7,0-1.1c0-0.4,0-0.8,0-1.2c0-0.4,0-0.7,0.1-1.1c0-0.4,0.1-0.9,0.1-1.3c0-0.4,0.1-0.7,0.1-1.1c0-0.5,0.1-0.9,0.1-1.4
			c0-0.4,0.1-0.7,0.1-1.1c0.1-0.5,0.1-0.9,0.2-1.4c0.1-0.4,0.1-0.7,0.2-1.1c0.1-0.5,0.2-1,0.2-1.5c0.1-0.4,0.1-0.7,0.2-1.1
			c0.1-0.5,0.2-1,0.3-1.6c0.1-0.4,0.1-0.8,0.2-1.1c0.1-0.5,0.2-1.1,0.4-1.7c0,0,0.2-0.8,0.2-1.1c0.1-0.6,0.3-1.2,0.4-1.8l0.3-1.1
			c0.2-0.6,0.3-1.3,0.5-1.9l0.3-1c0.2-0.7,0.4-1.4,0.6-2.1l0.4-1.5l0.1-0.2c0.9-2.9,1.8-5.6,3-8.8c20-52.8,57.7-80.9,92.7-96
			c-0.5-0.2-1.1-0.3-1.6-0.5c-0.8-0.3-1.7-0.6-2.5-0.8c-1.1-0.4-2.1-0.7-3.2-1.1c-0.8-0.3-1.7-0.6-2.5-0.9c-1.1-0.4-2.1-0.8-3.2-1.1
			c-0.8-0.3-1.7-0.6-2.5-0.9c-1.1-0.4-2.1-0.8-3.1-1.2l-0.3-0.1c-0.7-0.3-1.4-0.6-2.1-0.8c-1.1-0.4-2.1-0.9-3.2-1.3l-0.6-0.3
			c-0.6-0.2-1.1-0.5-1.7-0.7c-1.1-0.5-2.2-1-3.3-1.5l-0.6-0.3c-0.5-0.2-1-0.4-1.4-0.6c-1.3-0.6-2.5-1.2-3.8-1.8l-0.5-0.2
			c-0.3-0.1-0.6-0.3-0.9-0.4c-1.7-0.8-3.5-1.7-5.2-2.6c-0.3-0.1-1.2-0.7-1.2-0.7c-1.3-0.7-2.6-1.3-3.8-2c-0.4-0.2-0.8-0.5-1.2-0.7
			l-0.8-0.4c-1-0.6-2-1.1-3-1.7c-0.5-0.3-1-0.6-1.4-0.8l-0.6-0.4c-1-0.6-1.9-1.1-2.9-1.7c-0.6-0.4-1.1-0.7-1.7-1.1l-0.4-0.2
			c-0.9-0.6-1.8-1.1-2.7-1.7c-0.7-0.4-1.4-0.9-2.1-1.4c-0.9-0.6-1.7-1.2-2.6-1.8c-0.7-0.5-1.4-1-2.1-1.4c-0.2-0.1-0.4-0.3-0.6-0.4
			c-7.6,9.9-17.4,19.5-29.2,28.7c-58.1,45.5-90.5,113.5-90.8,114.2l-4.5,9.5l-40.7-30.8l0.3-4.5c2.7-45.7,59.9-104.7,97.7-133.2
			c4.5-3.4,8.5-6.9,12.2-10.5c-72.3,14.5-131.4,60.3-132,60.7l-8.3,6.5l-22.4-45.9l2.3-3.9c23.1-39.5,100.7-66.3,147.3-74.7
			c0.6-0.1,1.1-0.2,1.7-0.3c-0.3-0.8-0.6-1.7-0.9-2.5c-0.2-0.5-0.3-1-0.5-1.5l-0.3-0.8c-0.3-1-0.7-2-1-3c-0.2-0.6-0.4-1.2-0.5-1.7
			l-0.2-0.6c-0.3-1-0.6-2.1-0.9-3.1c-0.2-0.7-0.4-1.5-0.6-2.2l-0.1-0.2c-0.3-1-0.5-2-0.8-3.1c-0.2-0.8-0.4-1.7-0.6-2.5
			c-0.2-1-0.5-2.1-0.7-3.1c-0.2-0.8-0.4-1.7-0.5-2.6c-0.2-1-0.4-2.1-0.6-3.2c-0.2-0.9-0.3-1.7-0.4-2.6c-0.2-1.1-0.3-2.2-0.5-3.2
			l0-0.3c-0.1-0.8-0.2-1.5-0.3-2.3c-0.1-1.1-0.3-2.2-0.4-3.4l-0.1-0.6c-0.1-0.7-0.1-1.3-0.2-2c-0.1-1.1-0.2-2.2-0.3-3.3l-0.1-1
			c0-0.6-0.1-1.1-0.1-1.7c-0.1-1.3-0.1-2.5-0.2-3.8l0-0.9c0-0.5-0.1-0.9-0.1-1.4c-0.1-2.1-0.1-4.1-0.1-6.1
			c-0.1-10.8,0.7-22,2.2-33.4c2.2-15.4,5.4-30.6,9.7-45c0.8-7.5,7.7-68.1,20-126.8l0-0.1c7.4-35.1,15.3-63.1,23.7-83.3
			c11.7-28.3,24.6-42.1,39.5-42.2c0,0,0,0,0,0c4.2,0,15.2,0.1,94.4,66c14.8-4.2,30.1-7.3,45.5-9c10.5-1.2,21.2-1.8,31.7-1.8
			c22.3,0,44.1,2.7,65,7.9c11.8-7.2,35.8-21.6,59-34.8c49.8-28.3,56.2-28.3,59.6-28.3c23.3,0.1,31.1,35.8,33.7,47.6
			c4.9,22.3,8.1,53.3,9.6,92.1l0,0.2c2.5,67.4-1.3,137.2-1.5,141.2c0,0.5-0.1,3.8-0.1,4.2c-0.1,2.3-0.2,4.4-0.3,6.3
			c-0.1,2.3-0.3,4.6-0.4,6.9l-0.1,2c-0.1,1.8-0.3,3.6-0.4,5.3l-0.1,1.7c-0.2,2.2-0.4,4.3-0.6,6.4l-0.2,2.2c-0.1,1.4-0.3,2.8-0.4,4.2
			c-0.1,0.9-0.2,1.8-0.3,2.6c-0.2,1.6-0.4,3.1-0.6,4.7c-0.2,1.3-0.3,2.6-0.5,3.8c-0.1,1.1-0.3,2.1-0.4,3.1c-0.2,1.1-0.3,2.3-0.5,3.4
			c-0.1,0.8-0.2,1.6-0.4,2.3c-0.4,2.5-0.8,5-1.2,7.4l-0.1,0.9c-0.2,1.3-0.5,2.7-0.7,4l-0.3,1.4c-0.8,4.3-1.7,8.6-2.7,12.7l-0.2,0.7
			c-0.6,2.6-1.2,4.9-1.7,7.2c-0.4,1.6-0.8,3.1-1.2,4.6l-0.3,1c-0.4,1.4-0.8,2.8-1.2,4.2l-0.3,1.2c-0.4,1.4-0.8,2.8-1.3,4.2l-0.3,1
			c-2,6.4-4.2,12.6-6.6,18.4l-0.1,0.4c-0.5,1.3-1.1,2.5-1.6,3.8l-0.4,1c-0.5,1.2-1,2.4-1.6,3.6l-0.5,1.2c-0.5,1.2-1.1,2.3-1.6,3.5
			l-0.5,1c-0.6,1.2-1.2,2.4-1.8,3.6l-0.1,0.2c-2.1,4-4.2,7.9-6.5,11.7l-0.4,0.6c-0.6,1.1-1.3,2.1-1.9,3.1l-0.7,1.1
			c-0.6,1-1.3,1.9-1.9,2.9c-0.3,0.4-0.5,0.8-0.8,1.2c-0.6,0.9-1.3,1.9-2,2.8l-0.8,1.1c-0.7,0.9-1.4,1.9-2.1,2.8l-0.4,0.5
			c-2.4,3.2-5,6.3-7.6,9.3c0,0-0.6,0.7-0.8,0.9c-0.7,0.8-1.5,1.6-2.2,2.4c-0.3,0.4-0.7,0.7-1,1.1c-0.7,0.8-1.4,1.5-2.2,2.2
			c-0.4,0.4-0.8,0.8-1.1,1.1c-0.7,0.7-1.5,1.5-2.2,2.2c-0.3,0.3-1.1,1.1-1.1,1.1c-0.8,0.7-1.6,1.4-2.3,2.1c-0.2,0.2-0.8,0.7-0.8,0.7
			c-2.7,2.4-5.6,4.7-8.5,7l-0.4,0.3c-0.3,0.2-0.6,0.5-0.9,0.7c-0.8,0.6-1.6,1.2-2.4,1.7l-0.1,0.1c-0.5,0.3-0.9,0.7-1.4,1
			c-0.8,0.6-1.6,1.1-2.3,1.6c-0.5,0.4-1.1,0.7-1.6,1.1c-0.8,0.5-1.6,1-2.4,1.5c-0.4,0.3-0.9,0.5-1.3,0.8l-0.6,0.4
			c-0.7,0.5-1.4,0.9-2.2,1.3c-0.4,0.2-0.7,0.4-1.1,0.6l-0.5,0.3c-1.6,1-3.3,1.9-5.1,2.9l-0.5,0.3c-0.3,0.2-0.6,0.3-1,0.5
			c-0.6,0.3-1.2,0.6-1.9,1l-1,0.5c-0.5,0.3-1,0.5-1.5,0.8c-0.8,0.4-1.5,0.7-2.3,1.1l-0.1,0.1c-0.7,0.3-1.4,0.7-2,1
			c-0.8,0.4-1.6,0.7-2.4,1.1c-0.7,0.3-1.4,0.6-2.1,0.9c-0.8,0.3-1.6,0.7-2.4,1c-0.7,0.3-1.3,0.5-2,0.8l-0.7,0.3
			c-0.7,0.3-1.3,0.5-2,0.8c-0.7,0.3-1.4,0.5-2.1,0.8l-0.5,0.2c-1.2,0.4-2.4,0.9-3.6,1.3l-0.1,0c-1,0.3-2,0.7-3,1
			c-0.6,0.2-1.1,0.4-1.7,0.6l-0.8,0.3c-0.8,0.3-1.6,0.5-2.4,0.8c-0.7,0.2-1.5,0.4-2.2,0.7c0,0-1.1,0.3-1.5,0.4
			c17.2,10.4,32,23.3,44,38.6c13-10.9,28.6-21.3,46.5-31.1l0.2-0.1l0.2-0.1c1.7-0.8,3.4-1.2,5.1-1.2c3.8,0,7.2,2,9.1,5.4
			c1.6,2.8,2.1,6.4,1.8,10.4c19.4-17.3,38.7-31.4,57.8-42l4.7-2.6l4.4,3.2c2.3,1.7,5.1,4.8,5.9,10.4c1.9,14.1-11.8,38.1-24.1,56.4
			c4-0.7,8.1-1,12.3-1c8.2,0,16.6,1.4,25,4.1l2.8,0.9l1.6,2.4c1.7,2.6,2.2,5.8,1.2,9c-0.7,2.4-2.7,8.8-26.4,26.3c-1.3,1-2.7,2-4.1,3
			c2.8,1.7,4.6,4.5,4.9,7.8c0.4,4.3,1.1,11.7-41.3,46.2c1.6,2.7,2.6,7-0.4,13.2c-10.3,21.6-72.7,78-117,80.3
			c-8.9,72-30.5,99.3-47.3,109.5c-5.3,3.2-12.9,5.1-20.9,5.1c-10.3,0-19-3.1-24.1-8.4c-9-9.5-12-29.8-9.3-62.1
			c1-11.7,2.6-22.8,3.8-30.7c-14,2.2-28.6,3.3-43,3.3c-3.6,0-7.2-0.1-10.7-0.2c2.6,22,7.1,71-2.2,89.6
			C2221.6,711.5,2211,716.3,2197.1,716.3z"/>
		<path fill="#FFFFFF" d="M2464.1-148.9C2464.1-148.9,2464.2-148.9,2464.1-148.9c23.9,0.2,32.3,65.1,34.8,131.4l0,0v0
			c2.6,69.6-1.5,140.7-1.5,140.7l0,0c0,0.8,0,1.6-0.1,2.4c0,0.6,0,1.2,0,1.9c-0.1,2-0.1,4-0.3,6.1c-0.1,2.3-0.3,4.6-0.4,6.8
			c0,0.7-0.1,1.3-0.1,2c-0.1,1.8-0.3,3.5-0.4,5.2c0,0.6-0.1,1.1-0.1,1.7c-0.2,2.1-0.4,4.2-0.6,6.3c-0.1,0.7-0.1,1.5-0.2,2.2
			c-0.1,1.4-0.3,2.8-0.4,4.2c-0.1,0.9-0.2,1.7-0.3,2.6c-0.2,1.5-0.4,3.1-0.6,4.6c-0.2,1.3-0.3,2.5-0.5,3.8c-0.1,1-0.3,2-0.4,3.1
			c-0.2,1.1-0.3,2.2-0.5,3.3c-0.1,0.8-0.2,1.6-0.4,2.3c-0.4,2.4-0.8,4.8-1.2,7.2c0,0.3-0.1,0.6-0.1,0.8c-0.2,1.3-0.5,2.6-0.7,3.9
			c-0.1,0.4-0.2,0.9-0.3,1.3c-0.8,4.2-1.7,8.3-2.6,12.4c0,0.2-0.1,0.4-0.1,0.6c-0.5,2.4-1.1,4.7-1.7,7c0,0,0,0,0,0.1
			c-0.4,1.5-0.8,3-1.2,4.5c-0.1,0.3-0.2,0.7-0.3,1c-0.4,1.4-0.8,2.8-1.2,4.1c-0.1,0.4-0.2,0.8-0.3,1.1c-0.4,1.4-0.8,2.7-1.2,4
			c-0.1,0.3-0.2,0.6-0.3,0.9c-2,6.2-4.1,12.1-6.4,17.8c0,0.1-0.1,0.2-0.1,0.3c-0.5,1.2-1,2.5-1.5,3.7c-0.1,0.3-0.3,0.7-0.4,1
			c-0.5,1.2-1,2.3-1.5,3.4c-0.2,0.4-0.3,0.7-0.5,1.1c-0.5,1.1-1,2.2-1.6,3.4c-0.2,0.3-0.3,0.6-0.5,0.9c-0.6,1.2-1.1,2.3-1.7,3.5
			c0,0.1-0.1,0.1-0.1,0.2c-2,3.8-4.1,7.6-6.2,11.1c-0.1,0.2-0.2,0.4-0.4,0.6c-0.6,1-1.2,2-1.9,3c-0.2,0.3-0.4,0.7-0.7,1
			c-0.6,0.9-1.2,1.8-1.8,2.8c-0.2,0.4-0.5,0.7-0.7,1.1c-0.6,0.9-1.2,1.8-1.9,2.7c-0.2,0.3-0.5,0.7-0.7,1c-0.7,0.9-1.3,1.8-2,2.7
			c-0.1,0.1-0.2,0.3-0.3,0.4c-2.3,3-4.7,6-7.2,8.8c-0.2,0.3-0.5,0.6-0.7,0.8c-0.7,0.8-1.4,1.5-2.1,2.3c-0.3,0.4-0.7,0.7-1,1.1
			c-0.7,0.7-1.4,1.4-2.1,2.1c-0.4,0.4-0.7,0.7-1.1,1.1c-0.7,0.7-1.4,1.4-2.1,2c-0.4,0.3-0.7,0.7-1.1,1c-0.7,0.7-1.5,1.4-2.2,2
			c-0.3,0.2-0.5,0.5-0.8,0.7c-2.6,2.3-5.3,4.5-8,6.6c-0.4,0.3-0.8,0.6-1.2,0.9c-0.7,0.6-1.5,1.1-2.2,1.6c-0.5,0.3-0.9,0.7-1.4,1
			c-0.7,0.5-1.5,1-2.2,1.5c-0.5,0.3-1,0.7-1.5,1c-0.7,0.5-1.5,1-2.2,1.5c-0.5,0.3-1,0.7-1.6,1c-0.8,0.5-1.5,1-2.3,1.4
			c-0.5,0.3-1,0.6-1.5,0.9c-1.6,0.9-3.2,1.8-4.8,2.7c-0.5,0.2-0.9,0.5-1.3,0.7c-0.8,0.4-1.5,0.8-2.3,1.2c-0.6,0.3-1.2,0.6-1.8,0.9
			c-0.8,0.4-1.5,0.7-2.3,1.1c-0.6,0.3-1.3,0.6-2,0.9c-0.8,0.4-1.5,0.7-2.3,1c-0.7,0.3-1.4,0.6-2,0.9c-0.8,0.3-1.5,0.7-2.3,1
			c-0.7,0.3-1.4,0.6-2.2,0.9c-0.8,0.3-1.5,0.6-2.3,0.9c-0.8,0.3-1.6,0.6-2.5,0.9c-1.1,0.4-2.3,0.8-3.5,1.3c-1,0.4-2,0.7-3,1
			c-0.7,0.2-1.5,0.5-2.2,0.7c-0.8,0.3-1.7,0.5-2.5,0.8c-0.8,0.2-1.5,0.5-2.3,0.7c-0.8,0.3-1.7,0.5-2.6,0.7c-0.8,0.2-1.6,0.4-2.3,0.7
			c-0.9,0.2-1.8,0.5-2.6,0.7c-0.8,0.2-1.5,0.4-2.3,0.6c-0.9,0.2-1.9,0.5-2.9,0.7c-0.7,0.2-1.5,0.4-2.2,0.5c-1.2,0.3-2.5,0.5-3.7,0.8
			c-0.7,0.1-1.3,0.3-2,0.4c-0.5,0.1-0.9,0.2-1.4,0.3c-0.1,0.2-0.2,0.3-0.3,0.5c23.5,10.6,47.6,27.3,66.1,53.7
			c12.2-11.3,29-23.6,51.9-36.2c0.5-0.2,0.9-0.4,1.4-0.4c4.7,0,3.7,15.8-10.3,39.9c22.2-23.4,51.1-49.3,83.3-67.1
			c10.6,7.7-12.9,47.7-37,78.2c9.8-6.2,21.9-10.8,36.1-10.8c7,0,14.5,1.1,22.4,3.7c3.9,5.8-40.2,37.3-54.6,43.2
			c2.8-1.1,11.6-4.1,19.5-4.1c3,0,5.9,0.4,8.3,1.6c7.9,4-33.7,38.1-61.2,59.1c6.4-3.7,14-7.1,22-8.1c6.9,8.6-66.7,80.9-112.7,80.9
			c-1.7,0-3.3-0.1-4.9-0.3c-3.7,35.3-14.4,92.9-44.2,111c-4.1,2.5-10.3,3.8-16.5,3.8c-7.1,0-14.2-1.8-17.9-5.8
			c-17.1-18.1-1.1-97.5-1.1-97.5c-16.9,3.5-35.4,5.3-53.5,5.3c-6.9,0-13.8-0.3-20.4-0.8c0,0,10.6,73.6,0,94.9
			c-2.6,5.2-11.2,8.1-20.9,8.1c-9.7,0-20.4-2.9-27-9.3c-18.1-17.4-33.1-142-33.1-142c-4.3-65.9,12.6-115.9,31.2-150.1
			c-45.3,28.8-48.6,68.2-61.8,98c-0.7,1.5-1.7,2.9-2.9,4.1c0,0,0,0,0,0c-0.2,0.2-0.4,0.4-0.6,0.6c0,0,0,0-0.1,0.1
			c-0.2,0.2-0.4,0.3-0.6,0.5c0,0-0.1,0.1-0.1,0.1c-0.2,0.2-0.4,0.3-0.6,0.5c0,0-0.1,0.1-0.1,0.1c-0.2,0.1-0.4,0.3-0.6,0.4
			c-0.1,0-0.1,0.1-0.2,0.1c-0.2,0.1-0.4,0.3-0.6,0.4c-0.1,0-0.1,0.1-0.2,0.1c-0.2,0.1-0.4,0.2-0.6,0.3c-0.1,0-0.1,0.1-0.2,0.1
			c-0.2,0.1-0.4,0.2-0.7,0.3c-0.1,0-0.1,0.1-0.2,0.1c-0.2,0.1-0.4,0.2-0.7,0.3c-0.1,0-0.1,0.1-0.2,0.1c-0.2,0.1-0.5,0.2-0.7,0.3
			c-0.1,0-0.2,0.1-0.2,0.1c-0.2,0.1-0.5,0.2-0.7,0.2c-0.1,0-0.2,0-0.2,0.1c-0.2,0.1-0.5,0.1-0.7,0.2c-0.1,0-0.2,0-0.2,0.1
			c-0.2,0.1-0.5,0.1-0.7,0.2c-0.1,0-0.1,0-0.2,0c-0.3,0-0.5,0.1-0.8,0.1c-0.1,0-0.1,0-0.2,0c-0.3,0-0.5,0.1-0.8,0.1c0,0-0.1,0-0.1,0
			c-0.8,0.1-1.5,0.1-2.3,0.1c-0.8,0-1.7,0-2.5-0.1c0,0-0.1,0-0.1,0c-0.3,0-0.5-0.1-0.8-0.1c-0.1,0-0.2,0-0.3,0
			c-0.2,0-0.5-0.1-0.7-0.1c-0.1,0-0.2,0-0.3-0.1c-0.2,0-0.4-0.1-0.6-0.2c-0.1,0-0.2-0.1-0.4-0.1c-0.2-0.1-0.4-0.1-0.6-0.2
			c-0.1,0-0.3-0.1-0.4-0.1c-0.2-0.1-0.4-0.1-0.6-0.2c-0.1,0-0.3-0.1-0.4-0.2c-0.2-0.1-0.4-0.2-0.6-0.2c-0.1-0.1-0.3-0.1-0.4-0.2
			c-0.2-0.1-0.4-0.2-0.5-0.3c-0.1-0.1-0.3-0.1-0.4-0.2c-0.2-0.1-0.4-0.2-0.5-0.3c-0.1-0.1-0.3-0.2-0.4-0.2c-0.2-0.1-0.3-0.2-0.5-0.3
			c-0.1-0.1-0.3-0.2-0.4-0.3c-0.2-0.1-0.3-0.2-0.5-0.4c-0.1-0.1-0.3-0.2-0.4-0.3c-0.2-0.1-0.3-0.3-0.5-0.4c-0.1-0.1-0.2-0.2-0.4-0.3
			c-0.2-0.1-0.3-0.3-0.5-0.4c-0.1-0.1-0.2-0.2-0.4-0.4c-0.1-0.2-0.3-0.3-0.4-0.5c-0.1-0.1-0.2-0.3-0.3-0.4c-0.1-0.2-0.3-0.3-0.4-0.5
			c-0.1-0.1-0.2-0.3-0.3-0.4c-0.1-0.2-0.3-0.4-0.4-0.5c-0.1-0.1-0.2-0.3-0.3-0.4c-0.1-0.2-0.3-0.4-0.4-0.6c-0.1-0.2-0.2-0.3-0.3-0.5
			c-0.1-0.2-0.2-0.4-0.4-0.6c-0.1-0.2-0.2-0.3-0.3-0.5c-0.1-0.2-0.2-0.4-0.3-0.7c-0.1-0.2-0.2-0.3-0.2-0.5c-0.1-0.2-0.2-0.5-0.3-0.7
			c-0.1-0.2-0.1-0.4-0.2-0.5c-0.4-0.9-0.7-1.8-1-2.8c-0.1-0.2-0.1-0.5-0.2-0.7c-0.1-0.2-0.1-0.5-0.2-0.7c-0.1-0.3-0.1-0.5-0.2-0.8
			c-0.1-0.3-0.1-0.5-0.1-0.8c-0.1-0.3-0.1-0.5-0.1-0.8c0-0.3-0.1-0.5-0.1-0.8c0-0.3-0.1-0.6-0.1-0.9c0-0.3-0.1-0.5-0.1-0.8
			c0-0.3-0.1-0.6-0.1-0.9c0-0.3,0-0.6-0.1-0.9c0-0.3,0-0.7,0-1c0-0.3,0-0.6,0-0.9c0-0.3,0-0.7,0-1c0-0.3,0-0.6,0-0.9
			c0-0.4,0-0.7,0-1.1c0-0.3,0-0.6,0-0.9c0-0.4,0-0.8,0.1-1.2c0-0.3,0.1-0.6,0.1-1c0-0.4,0.1-0.8,0.1-1.2c0-0.3,0.1-0.7,0.1-1
			c0.1-0.4,0.1-0.9,0.2-1.3c0-0.3,0.1-0.7,0.1-1c0.1-0.4,0.1-0.9,0.2-1.4c0.1-0.3,0.1-0.7,0.2-1c0.1-0.5,0.2-1,0.3-1.4
			c0.1-0.3,0.1-0.7,0.2-1c0.1-0.5,0.2-1,0.3-1.5c0.1-0.3,0.1-0.7,0.2-1c0.1-0.5,0.3-1.1,0.4-1.6c0.1-0.3,0.2-0.7,0.3-1
			c0.2-0.6,0.3-1.2,0.5-1.8c0.1-0.3,0.2-0.6,0.3-0.9c0.2-0.6,0.4-1.3,0.6-2c0.1-0.3,0.2-0.6,0.3-0.9c0-0.1,0.1-0.2,0.1-0.4l0.1-0.3
			c0.9-2.8,1.8-5.4,2.9-8.4c23.7-62.6,73.7-89,113.5-100c-1.6-0.4-3.2-0.7-4.8-1.1c-0.7-0.2-1.4-0.3-2.1-0.5
			c-1.3-0.3-2.5-0.6-3.8-0.9c-0.8-0.2-1.6-0.4-2.3-0.6c-1.1-0.3-2.3-0.6-3.4-0.9c-0.8-0.2-1.6-0.5-2.4-0.7c-1.1-0.3-2.2-0.6-3.3-1
			c-0.8-0.2-1.7-0.5-2.5-0.8c-1.1-0.3-2.1-0.7-3.2-1c-0.8-0.3-1.6-0.5-2.5-0.8c-1-0.3-2.1-0.7-3.1-1.1c-0.8-0.3-1.6-0.6-2.4-0.9
			c-1-0.4-2-0.7-3.1-1.1c-0.8-0.3-1.6-0.6-2.4-0.9c-1-0.4-2-0.8-3-1.2c-0.8-0.3-1.5-0.6-2.3-0.9c-1-0.4-2.1-0.8-3.1-1.3
			c-0.7-0.3-1.5-0.6-2.2-0.9c-1.1-0.5-2.1-0.9-3.2-1.4c-0.7-0.3-1.3-0.6-2-0.9c-1.2-0.6-2.5-1.1-3.7-1.7c-0.5-0.2-1-0.4-1.4-0.7
			c-1.7-0.8-3.3-1.6-5-2.5c-0.4-0.2-0.8-0.4-1.2-0.6c-1.2-0.7-2.5-1.3-3.7-2c-0.6-0.3-1.2-0.7-1.8-1c-1-0.6-2-1.1-3-1.7
			c-0.7-0.4-1.3-0.8-2-1.2c-0.9-0.5-1.8-1.1-2.7-1.6c-0.7-0.4-1.3-0.8-2-1.2c-0.9-0.5-1.7-1.1-2.6-1.7c-0.7-0.4-1.3-0.9-2-1.3
			c-0.8-0.6-1.7-1.1-2.5-1.7c-0.7-0.5-1.3-0.9-2-1.4c-0.8-0.6-1.6-1.2-2.4-1.7c-0.6-0.5-1.3-0.9-1.9-1.4c-0.8-0.6-1.6-1.2-2.4-1.8
			c-0.2-0.2-0.4-0.3-0.6-0.5c-6.9,10.5-17.3,22-32.5,33.9c-60.5,47.4-93.3,117.3-93.3,117.3l-28.7-21.7
			c2.4-39.5,53.1-95.8,94.3-126.9c14.6-11,23.9-22.2,29.9-32c0,0,0-0.1-0.1-0.1c-7,2.4-14.9,4.6-23.7,6.3
			c-75.4,14.9-136.2,62.5-136.2,62.5l-15.8-32.4c20-34.2,90.7-61.5,141.4-70.6c4.2-0.8,8.1-1.7,11.8-2.7c-0.1-0.2-0.2-0.5-0.3-0.7
			c-0.1-0.3-0.2-0.5-0.4-0.8c-0.7-1.6-1.3-3.2-2-4.9c-0.2-0.6-0.4-1.1-0.6-1.7c-0.4-1.1-0.8-2.2-1.2-3.3c-0.2-0.7-0.5-1.4-0.7-2
			c-0.3-1-0.7-2-1-3c-0.2-0.7-0.4-1.5-0.7-2.2c-0.3-1-0.6-2-0.9-2.9c-0.2-0.8-0.4-1.5-0.6-2.3c-0.3-1-0.5-2-0.8-2.9
			c-0.2-0.8-0.4-1.6-0.6-2.4c-0.2-1-0.4-2-0.7-3c-0.2-0.8-0.3-1.6-0.5-2.4c-0.2-1-0.4-2-0.6-3c-0.1-0.8-0.3-1.6-0.4-2.5
			c-0.2-1-0.3-2.1-0.5-3.1c-0.1-0.8-0.2-1.6-0.3-2.5c-0.1-1.1-0.3-2.1-0.4-3.2c-0.1-0.8-0.2-1.6-0.3-2.4c-0.1-1.1-0.2-2.3-0.3-3.4
			c-0.1-0.8-0.1-1.6-0.2-2.3c-0.1-1.3-0.1-2.5-0.2-3.8c0-0.7-0.1-1.3-0.1-2c-0.1-1.9-0.1-3.9-0.1-5.9c-0.1-10.3,0.6-21,2.2-32.1
			c2.2-15.8,5.5-30.6,9.7-44.5l0,0c0,0,6.8-64.1,20-126.8l0,0c0,0,0,0,0,0c12.6-59.9,31-118.6,54.9-118.8c0,0,0,0,0,0
			c11.3,0,72.9,50.7,92.4,67c18.9-5.8,35.8-8.6,48.4-10c10.2-1.2,20.5-1.8,30.8-1.8c22.5,0,44.9,2.8,66.3,8.6
			C2367.3-97.6,2452.3-148.9,2464.1-148.9 M2362.2,427c0.2-0.2,0.4-0.4,0.6-0.6c0.9,0.2,1.7,0.4,2.5,0.7c-1.6-2.1-3.2-4.2-5-6.2
			C2361,422.9,2361.6,424.9,2362.2,427 M2377.1,451.1c0.3-0.7,0.6-1.5,0.9-2.3c-0.2-0.4-0.4-0.8-0.6-1.2
			C2377.4,448.6,2377.3,449.8,2377.1,451.1 M2464.1-165.9c-5.2,0-11.4,1.6-28.1,10c-9.2,4.6-21.3,11.2-35.7,19.4
			c-21.4,12.2-43.5,25.5-56.1,33.1c-20.5-4.9-41.8-7.3-63.6-7.3c-10.9,0-21.9,0.6-32.7,1.9c-14.4,1.6-28.6,4.4-42.5,8.1
			c-11.1-9.2-27.3-22.3-42.9-34.3c-37-28.3-46.2-30.8-53.3-30.9l0,0h-0.2h0h-0.1l-0.1,0c-11,0.1-21.1,5.6-29.9,16.4
			c-6.1,7.5-11.8,17.7-17.3,31c-8.5,20.7-16.7,49.2-24.1,84.8c-12.2,58.2-18.9,116.5-20.1,126.9c-4.3,14.6-7.6,29.9-9.8,45.5
			c-1.6,11.8-2.4,23.4-2.3,34.6c0,2.1,0.1,4.2,0.2,6.4c0,0.5,0,1,0.1,1.5l0,0.7l0,0.1c0.1,1.3,0.1,2.6,0.2,4c0,0.6,0.1,1.2,0.1,1.9
			l0.1,0.7l0,0.2c0.1,1.2,0.2,2.4,0.3,3.5c0.1,0.7,0.2,1.4,0.2,2.1l0.1,0.6c0.1,1.2,0.3,2.3,0.4,3.5c0.1,0.8,0.2,1.7,0.4,2.5l0,0.2
			c0.2,1.1,0.3,2.3,0.5,3.4c0.1,0.9,0.3,1.8,0.5,2.7c0.2,1.1,0.4,2.2,0.6,3.3c0.2,0.9,0.4,1.8,0.5,2.7c0.2,1.1,0.5,2.2,0.7,3.3
			c0.2,0.9,0.4,1.8,0.6,2.6c0.3,1.1,0.5,2.2,0.8,3.2l0.1,0.3c0.2,0.8,0.4,1.5,0.6,2.3c0.3,1.1,0.6,2.2,1,3.2l0.2,0.5
			c0.1,0.2,0.1,0.4,0.2,0.6c-26.4,5.5-54.5,14.6-78.4,25.7c-33.3,15.4-55.7,32.7-66.7,51.6l-4.6,7.9l4,8.2l15.8,32.4l9.2,18.9
			l16.5-12.9c0.5-0.4,38.7-29.9,90.6-48.4c-16.8,14.7-32.9,31.4-46,48c-22.7,28.7-34.9,54.3-36.2,76.1l-0.5,9.1l7.3,5.5l28.7,21.7
			l16.7,12.7l8.9-19c0.3-0.6,32-66.9,88.4-111.1c9.9-7.7,18.4-15.7,25.6-24c0.4,0.2,0.8,0.5,1.1,0.7c0.9,0.6,1.9,1.2,2.8,1.8
			l0.4,0.2c0.6,0.4,1.2,0.7,1.8,1.1c1,0.6,2,1.2,3,1.8l0.5,0.3c0.5,0.3,1,0.6,1.6,0.9c1,0.6,2.1,1.2,3.1,1.8l0.1,0.1l0.6,0.3
			c0.4,0.2,0.9,0.5,1.3,0.7c1.4,0.7,2.7,1.5,4,2.1l0.4,0.2c0.3,0.2,0.6,0.3,0.9,0.5c1.8,0.9,3.6,1.8,5.3,2.7c0.3,0.2,0.7,0.3,1,0.5
			l0.5,0.2c1.2,0.6,2.6,1.2,3.9,1.8c0.5,0.2,1,0.4,1.5,0.7l0.7,0.3l0.1,0c1.1,0.5,2.2,1,3.3,1.5c0.6,0.2,1.2,0.5,1.7,0.7l0.6,0.3
			c1.1,0.5,2.2,0.9,3.3,1.4c0.7,0.3,1.4,0.6,2.1,0.8l0.3,0.1c-30.9,17.2-61.3,45.4-78.8,91.7c-1.3,3.3-2.2,6.1-3.2,9.2l-0.1,0.2
			l-0.1,0.2l-0.1,0.2c0,0.2-0.1,0.3-0.1,0.5l0,0c-0.1,0.2-0.1,0.5-0.2,0.7l-0.1,0.3c-0.2,0.8-0.5,1.5-0.7,2.2
			c-0.1,0.3-0.1,0.5-0.2,0.8l-0.1,0.3c-0.2,0.7-0.4,1.4-0.6,2c-0.1,0.3-0.2,0.6-0.2,0.9l-0.1,0.2c-0.2,0.6-0.3,1.3-0.5,1.9
			c-0.1,0.3-0.2,0.7-0.2,1l0,0.2c-0.1,0.6-0.3,1.2-0.4,1.8c-0.1,0.4-0.2,0.8-0.2,1.2c-0.1,0.6-0.2,1.2-0.3,1.7
			c-0.1,0.4-0.1,0.8-0.2,1.2c-0.1,0.6-0.2,1.1-0.3,1.6c-0.1,0.4-0.1,0.8-0.2,1.2c-0.1,0.5-0.1,1.1-0.2,1.6c0,0.4-0.1,0.8-0.1,1.2
			c-0.1,0.5-0.1,1-0.1,1.5c0,0.4-0.1,0.8-0.1,1.2c0,0.5-0.1,1-0.1,1.5c0,0.4,0,0.8-0.1,1.2c0,0.5,0,1,0,1.4c0,0.4,0,0.8,0,1.2
			c0,0.5,0,0.9,0,1.4l0,0.1c0,0.3,0,0.7,0,1c0,0.4,0,0.9,0.1,1.3l0,0.2c0,0.3,0,0.7,0.1,1c0,0.4,0.1,0.8,0.1,1.2l0,0.1l0,0.2
			c0,0.3,0.1,0.7,0.1,1c0,0.4,0.1,0.7,0.1,1.1l0,0.1l0,0.2c0,0.3,0.1,0.7,0.1,1c0.1,0.4,0.1,0.7,0.2,1.1l0,0.1l0,0.1
			c0.1,0.3,0.1,0.7,0.2,1c0.1,0.4,0.2,0.7,0.2,1l0,0.1l0,0.1c0.1,0.3,0.2,0.7,0.2,1c0.1,0.3,0.2,0.7,0.3,1l0,0.1
			c0.4,1.6,1,3.1,1.5,4.5l0,0c0.1,0.3,0.2,0.6,0.3,0.8c0.2,0.4,0.3,0.7,0.5,1.1l0.1,0.1l0,0c0.1,0.3,0.3,0.6,0.4,0.8
			c0.2,0.3,0.3,0.7,0.5,1l0.1,0.1l0,0.1c0.1,0.3,0.3,0.5,0.4,0.8c0.2,0.3,0.4,0.7,0.6,1l0.1,0.1l0,0.1c0.2,0.3,0.3,0.5,0.5,0.8
			c0.2,0.3,0.4,0.7,0.7,1l0,0.1l0,0.1c0.2,0.2,0.3,0.5,0.5,0.7c0.2,0.3,0.5,0.6,0.7,1l0.1,0.1c0.2,0.2,0.4,0.5,0.5,0.7
			c0.3,0.3,0.5,0.6,0.8,0.9l0,0c0.2,0.2,0.4,0.5,0.6,0.7c0.3,0.3,0.6,0.6,0.8,0.9c0.2,0.2,0.4,0.4,0.7,0.7c0.3,0.3,0.6,0.6,0.9,0.8
			c0.2,0.2,0.5,0.4,0.7,0.6c0.3,0.3,0.6,0.5,0.9,0.8c0.2,0.2,0.5,0.4,0.7,0.6c0.3,0.2,0.6,0.5,1,0.7c0.2,0.2,0.5,0.3,0.7,0.5
			c0.3,0.2,0.7,0.4,1,0.6c0.2,0.1,0.5,0.3,0.7,0.4c0.4,0.2,0.7,0.4,1,0.6c0.2,0.1,0.5,0.3,0.7,0.4c0.4,0.2,0.7,0.4,1.1,0.5
			c0.2,0.1,0.5,0.2,0.7,0.3c0.4,0.2,0.7,0.3,1.1,0.5c0.2,0.1,0.5,0.2,0.7,0.3l0.1,0c0.4,0.1,0.7,0.3,1.1,0.4
			c0.2,0.1,0.4,0.1,0.7,0.2c0.4,0.1,0.8,0.3,1.2,0.4c0.2,0.1,0.4,0.1,0.7,0.2c0.4,0.1,0.8,0.2,1.2,0.3c0.2,0,0.4,0.1,0.6,0.1
			c0.4,0.1,0.8,0.2,1.2,0.2c0.2,0,0.4,0.1,0.6,0.1c0.4,0.1,0.9,0.1,1.3,0.2c0.1,0,0.2,0,0.4,0c1.4,0.2,2.9,0.2,4.3,0.2
			c1.3,0,2.6-0.1,3.9-0.2c0.1,0,0.2,0,0.3,0c0.4,0,0.9-0.1,1.3-0.2c0.1,0,0.3,0,0.4-0.1c0.4-0.1,0.8-0.1,1.3-0.2
			c0.2,0,0.3-0.1,0.4-0.1c0.4-0.1,0.9-0.2,1.3-0.3c0.2,0,0.3-0.1,0.4-0.1c0.4-0.1,0.8-0.2,1.3-0.3c0.1,0,0.3-0.1,0.4-0.1
			c0.4-0.1,0.8-0.3,1.2-0.4c0.1,0,0.3-0.1,0.4-0.1c0.4-0.1,0.8-0.3,1.2-0.4c0.2-0.1,0.3-0.1,0.4-0.2c0.4-0.2,0.8-0.3,1.2-0.5l0,0
			l0,0l0.3-0.2c0.4-0.2,0.8-0.4,1.2-0.6c0.1-0.1,0.3-0.1,0.4-0.2c0.4-0.2,0.8-0.4,1.2-0.6l0.3-0.2c0.4-0.2,0.8-0.5,1.2-0.7l0.3-0.2
			c0.4-0.3,0.8-0.5,1.2-0.8l0.3-0.2c0.4-0.3,0.8-0.6,1.2-0.9c0.1-0.1,0.1-0.1,0.2-0.2c0.4-0.3,0.8-0.6,1.2-1l0.1-0.1l0.1-0.1
			c0.4-0.4,0.8-0.7,1.2-1.1l0,0l0,0l0.1-0.1l0,0c1.7-1.7,3.3-3.6,4.5-5.6c-0.9,14-0.9,28.2,0,42.6l0,0.5l0.1,0.5
			c0.2,1.3,3.9,32,9.9,65.4c11.5,63.5,20.7,79.5,28.3,86.8c9.3,8.9,23.4,14,38.8,14c17.1,0,30.6-6.5,36.1-17.5
			c3.7-7.5,8.4-22.2,5.7-64c-0.5-7.4-1.1-14.5-1.7-20.6c0.4,0,0.8,0,1.2,0c10.9,0,22-0.6,32.9-1.9c-0.8,6.1-1.6,13-2.2,20.1
			c-3,35.3,0.7,57.1,11.6,68.6c9.1,9.6,22.9,11.1,30.3,11.1c5.6,0,16.3-0.8,25.3-6.3c16.8-10.1,30-29.8,39.2-58.3
			c4.8-14.8,8.6-31.8,11.2-50.7c24.4-3.7,49.9-19.6,67.8-33.3c19.4-14.7,42.1-36.2,49.2-51.1c2.7-5.6,3.2-10.3,2.6-14.1
			c4.4-3.6,8.8-7.4,13-11.1c21.4-18.9,27.9-28.4,26.9-38.7c-0.2-1.9-0.6-3.6-1.3-5.3c23.3-17.6,25.5-24.9,26.6-28.5
			c1.7-5.6,0.9-11.5-2.3-16.2l-3.3-4.9l-5.6-1.8c-8-2.6-16-4-23.9-4.4c1.1-1.9,2.2-3.8,3.2-5.6c13.7-24.5,14.1-36,13.2-42.5
			c-0.9-6.7-4.2-12.4-9.3-16.1l-8.8-6.4l-9.5,5.3c-16.1,8.9-32.4,20.3-48.7,33.9c-3.6-5.5-9.4-8.8-16-8.8c0,0,0,0,0,0
			c-3,0-6,0.7-8.8,2.1l-0.4,0.2l-0.3,0.2c-15.5,8.5-29.3,17.4-41.2,26.7c-7.8-8.9-16.5-16.9-26.1-24.1c0.6-0.2,1.3-0.5,1.9-0.7
			c0.7-0.3,1.4-0.5,2-0.8l0.5-0.2l0.2-0.1c0.7-0.3,1.5-0.6,2.2-0.9c0.8-0.4,1.7-0.7,2.5-1.1c0.8-0.3,1.5-0.7,2.2-1
			c0.8-0.4,1.7-0.8,2.5-1.1c0.7-0.3,1.4-0.7,2.1-1c0.8-0.4,1.7-0.8,2.5-1.2c0.5-0.3,1.1-0.5,1.6-0.8l0.4-0.2l0.5-0.2
			c0.7-0.4,1.4-0.7,2.1-1.1c0.4-0.2,0.7-0.4,1.1-0.6l0.4-0.2c1.8-1,3.6-2,5.3-3l0.5-0.3c0.4-0.2,0.8-0.5,1.2-0.7
			c0.8-0.5,1.6-1,2.3-1.4l0.2-0.1l0.3-0.2c0.5-0.3,1-0.6,1.4-0.9c0.8-0.5,1.7-1.1,2.5-1.6c0.6-0.4,1.1-0.8,1.7-1.1
			c0.8-0.6,1.6-1.1,2.5-1.7c0.5-0.4,1.1-0.8,1.6-1.1c0.8-0.6,1.7-1.2,2.5-1.8c0.3-0.3,0.7-0.5,1-0.8l0.4-0.3c3.1-2.3,6-4.8,8.9-7.3
			l0.2-0.2c0.2-0.2,0.4-0.4,0.6-0.6c0.8-0.7,1.6-1.5,2.5-2.3l0.3-0.3c0.3-0.3,0.6-0.6,0.9-0.9c0.8-0.7,1.6-1.5,2.3-2.3
			c0.4-0.4,0.8-0.8,1.2-1.2c0.8-0.8,1.5-1.6,2.3-2.3c0.3-0.3,0.6-0.7,1-1l0.2-0.2c0.7-0.8,1.5-1.6,2.3-2.5c0.2-0.2,0.4-0.4,0.6-0.7
			l0.2-0.3c2.8-3.1,5.5-6.4,8-9.7l0-0.1c0.1-0.1,0.2-0.3,0.3-0.4c0.8-1,1.5-2,2.2-3l0.2-0.3c0.2-0.3,0.4-0.5,0.6-0.8
			c0.6-0.9,1.3-1.9,2.1-3c0.3-0.4,0.6-0.8,0.8-1.2c0.7-1.1,1.4-2,2-3c0.2-0.3,0.4-0.6,0.6-0.9l0.2-0.3c0.6-0.9,1.3-2,2-3.2
			c0.1-0.2,0.2-0.3,0.3-0.5l0.1-0.2c2.4-3.9,4.6-8,6.8-12.1c0.1-0.1,0.1-0.2,0.1-0.3c0.7-1.3,1.4-2.7,1.9-3.7l0.1-0.3
			c0.1-0.2,0.2-0.5,0.4-0.7c0.5-1.1,1.1-2.3,1.7-3.6c0.2-0.4,0.4-0.8,0.5-1.2c0.6-1.3,1.1-2.5,1.6-3.7c0.1-0.3,0.2-0.5,0.3-0.8
			l0.1-0.3c0.7-1.5,1.2-2.8,1.7-4l0.1-0.3c2.4-6,4.7-12.4,6.8-19l0.1-0.3l0.2-0.7c0.4-1.3,0.8-2.7,1.3-4.3c0.1-0.4,0.2-0.8,0.4-1.2
			c0.4-1.5,0.9-3,1.2-4.4l0.2-0.7l0.1-0.3c0.5-1.8,0.9-3.3,1.2-4.7l0-0.1l0,0c0.6-2.3,1.2-4.7,1.8-7.3l0.1-0.5l0.1-0.2
			c1-4.2,1.9-8.6,2.7-13c0.1-0.5,0.2-0.9,0.3-1.4c0.3-1.4,0.5-2.7,0.7-4.1l0.1-0.6l0.1-0.3c0.4-2.4,0.8-4.9,1.2-7.5l0-0.2
			c0.1-0.8,0.2-1.5,0.3-2.3c0.2-1.1,0.3-2.3,0.5-3.4c0.1-1,0.3-2.1,0.4-3.2c0.2-1.3,0.3-2.6,0.5-3.9c0.2-1.6,0.4-3.2,0.6-4.8
			c0.1-0.9,0.2-1.7,0.3-2.6l0-0.1c0.2-1.4,0.3-2.9,0.5-4.3l0.1-0.7c0.1-0.5,0.1-1.1,0.2-1.6c0.2-2.2,0.4-4.4,0.6-6.5
			c0-0.4,0.1-0.7,0.1-1.1l0-0.6c0.1-1.8,0.3-3.6,0.4-5.4l0-0.1c0-0.6,0.1-1.3,0.1-1.9c0.2-2.7,0.3-4.9,0.4-7c0.1-2,0.2-4.1,0.3-6.5
			c0-0.5,0-1,0-1.5l0-0.5l0-0.8c0-0.5,0-0.9,0-1.4l0-0.5c0-0.6,0.1-1.4,0.1-2.4c0.1-2.1,0.3-5.2,0.4-9.1c0.3-7.1,0.8-18.6,1.1-32.4
			c0.6-24.3,1.1-60.9-0.2-97.2l0-0.3c-1.5-39.3-4.7-70.8-9.8-93.6c-3.3-14.8-7.3-26.1-12.2-34.6c-9.5-16.2-21.4-19.6-29.7-19.7l0,0
			L2464.1-165.9L2464.1-165.9L2464.1-165.9C2464.1-165.9,2464.1-165.9,2464.1-165.9L2464.1-165.9z"/>
	</g>
</g>
<g id="Layer_4" display="none">
	<path display="inline" fill="none" stroke="#4F4F4F" stroke-width="3" stroke-miterlimit="10" d="M2295,400.8c0,0,6.5-25.4-5-54.2"
		/>
	<path display="inline" fill="#2D2C2B" d="M2034.2,96.8c0,0,26-245.2,74.8-245.5c13.4-0.1,98.3,71.9,98.3,71.9l-28.7,112.9
		L2034.2,96.8z"/>
	<path display="inline" fill="#707071" d="M2232.1,355.6c0,0,9.4,16.7,15.2,36.1c0,0,14.8-27,35.4-35.6L2232.1,355.6z"/>
	<path display="inline" fill="#2D2C2B" d="M2497.5,123.4c0,0,15.5-271.9-33.3-272.2c-13.4-0.1-121.6,66.4-121.6,66.4l18,107.8
		L2497.5,123.4z"/>
	<g display="inline">
		<path fill="#9FACC6" d="M2024.5,141.3c23.2-166.1,166.4-226.3,225.3-233.1c135.2-15.5,255.4,82.5,247.2,225.5
			c-9.4,165.9-81.3,227.7-227.9,227.7C2123,361.5,2004.7,283.2,2024.5,141.3z"/>
	</g>
	<g display="inline">
		<path fill="#677CA0" d="M2334.1-86.6c-52.4,28.3-88,83.9-88,147.9c0,92.7,60.4,182.9,166.9,167.8c26-3.7,51.1-6.1,73.2-17
			c5.6-23,9.3-49.1,10.9-78.4C2503.5,21.5,2430.9-62.9,2334.1-86.6z"/>
	</g>
	
		<path display="inline" fill="#BDACAC" stroke="#66311A" stroke-width="4" stroke-linecap="round" stroke-linejoin="round" stroke-miterlimit="10" d="
		M2202.4,355.6"/>
	<g display="inline">
		
			<path fill="#CC816A" stroke="#262262" stroke-width="4" stroke-linecap="round" stroke-linejoin="round" stroke-miterlimit="10" d="
			M1305.2-192.2c0,0,45.5,6,88.4-11.2c0,0,6.9,60.2-8.6,76c-33.9,34.8-67,15-76-6S1302.2-187.9,1305.2-192.2z"/>
		
			<path fill="#EA9899" stroke="#262262" stroke-width="4" stroke-linecap="round" stroke-linejoin="round" stroke-miterlimit="10" d="
			M1394.9-164c0,0-70.7-17.9-80.5,39.5c0,0,0,0,0.1,0.1c13.2,16.7,41.6,26.8,70.6-2.9C1391.7-134.1,1394.2-149.1,1394.9-164
			L1394.9-164z"/>
		
			<path fill="#FFFFFF" stroke="#262262" stroke-width="4" stroke-linecap="round" stroke-linejoin="round" stroke-miterlimit="10" d="
			M1393.6-203.3c-38.3,15.3-78.6,12.2-86.8,11.3l0,0c0,0-8.3,18.3,21.3,19.9c21,1.1,25.2-8.1,26.1-14.9c1.4,3.1,3.4,6.2,6.1,6.9
			c27.4,7.4,34.7-3.1,34.7-3.1l0,0C1394.6-194.8,1393.6-203.3,1393.6-203.3z"/>
		<path fill="none" stroke="#262262" stroke-width="4" stroke-linecap="round" stroke-linejoin="round" stroke-miterlimit="10" d="
			M1393.6-203.3c-131.1,38.6-98.1-22.7-98.1-22.7"/>
	</g>
	
		<path display="inline" fill="none" stroke="#443818" stroke-width="4" stroke-linecap="round" stroke-linejoin="round" stroke-miterlimit="10" d="
		M2235,571.8"/>
	
		<path display="inline" fill="none" stroke="#443818" stroke-width="4" stroke-linecap="round" stroke-linejoin="round" stroke-miterlimit="10" d="
		M2252.5,571.8"/>
	
		<path display="inline" fill="none" stroke="#443818" stroke-width="4" stroke-linecap="round" stroke-linejoin="round" stroke-miterlimit="10" d="
		M2256.7,392.8"/>
	<path display="inline" fill="#E1DFD9" d="M2142.6,595.8"/>
	
		<text transform="matrix(0.9913 -0.1313 0.1313 0.9913 3171.7314 377.1173)" display="inline" font-family="'NeutraText-Bold'" font-size="27.6469">JS</text>
	<g display="inline">
		<path d="M2335.3,45.3c0,0-27.4,16.7-34.7,24.6c1.4,1.4,3,6.1,6.5,4.3c3.5-1.8,31.1-23.6,34.3-26.9
			C2340.1,46.2,2335.3,45.3,2335.3,45.3z"/>
		<path d="M2325.1,34.2c-4.2,2.6-24.2,15.1-32.3,22.5c-1.1,1-1.1,2.7,0.1,3.5c0.6,0.4,2.7,4,4.4,3.1c2.9-1.5,22.9-18.8,31.4-25.1
			c1.6-1.2,1.1-3.6-0.8-4.1c-0.4-0.1-0.8-0.2-1.2-0.3C2326.3,33.8,2325.7,33.9,2325.1,34.2z"/>
	</g>
	<g display="inline">
		<path d="M2181.3,46.1c0,0,31.3,18.1,39.8,26.8c-1.6,1.6-3.3,7-7.2,5.1c-4-1.9-35.6-25.8-39.3-29.4
			C2175.9,47.4,2181.3,46.1,2181.3,46.1z"/>
		<path d="M2192.5,33.2c4.9,2.8,27.6,16.4,37,24.5c1.2,1.1,1.3,3.1,0,4c-0.7,0.5-3,4.7-4.9,3.7c-3.4-1.6-26.3-20.6-36-27.4
			c-1.8-1.3-1.4-4.1,0.8-4.7c0.5-0.1,0.9-0.3,1.3-0.4C2191.2,32.8,2191.9,32.9,2192.5,33.2z"/>
	</g>
	<path display="inline" d="M2069.6,247.9c0,0,0.8,31.9-40.3,63c-41.2,31.1-91.9,87.4-94.3,126.9l28.7,21.7c0,0,32.8-69.9,93.3-117.3
		c60.5-47.4,43.7-87.7,43.7-87.7L2069.6,247.9z"/>
	<path display="inline" d="M2089.2,206.7c0,0-13.7,28.9-64.5,38c-50.8,9.1-121.5,36.5-141.4,70.6l15.8,32.4
		c0,0,60.8-47.6,136.2-62.5c75.4-14.9,78.6-58.5,78.6-58.5L2089.2,206.7z"/>
	<g display="inline">
		<path fill="#FFFFFF" d="M2068.4,128c0,42.3,29.5,77.6,71.8,77.6c64.6,0,76.6-31.7,76.6-74c0-31.4-29.8-74-80.9-74
			C2101.8,57.6,2068.4,85.7,2068.4,128z"/>
		<path fill="#2D2C2B" stroke="#2D2C2B" stroke-miterlimit="10" d="M2097.3,129.4c0,25.1,17,46.1,41.4,46.1
			c37.3,0,49.1-17.7,49.1-42.8c0-18.6-15.4-45.1-51.6-45.1C2116.6,87.6,2097.3,104.3,2097.3,129.4z"/>
	</g>
	<g display="inline">
		<path fill="#FFFFFF" d="M2377.1,205.8c42.3,0,77.6-29.5,77.6-71.8c0-64.6-31.7-76.6-74-76.6c-31.4,0-74,29.8-74,80.9
			C2306.7,172.4,2334.8,205.8,2377.1,205.8z"/>
		<path fill="#2D2C2B" stroke="#2D2C2B" stroke-miterlimit="10" d="M2378.6,176.9c25.1,0,46.1-17,46.1-41.4
			c0-37.3-17.7-49.1-42.8-49.1c-18.6,0-45.1,15.4-45.1,51.6C2336.8,157.6,2353.5,176.9,2378.6,176.9z"/>
	</g>
	<path display="inline" fill="#9FACC6" d="M2328.1,561.1c0,0-14.4-87.3,34.7-134.5c12.5,2.4,18.8,14.8,11.7,35.2
		c0,0,1.5-43.1,85-88.7c9.9-4.8,4,40.2-55.1,95.5c0,0,55.9-82.3,129.4-123.1c15.6,11.4-42.5,92.4-68,110.5c0,0,31.8-58,89.5-39.4
		c4,5.9-42.1,38.7-55.6,43.5c0,0,18.9-7.7,28.7-2.8c9.8,4.9-56.9,56.5-77.9,71.6c0,0,18.4-18,38.7-20.5
		c7.4,9.2-77.4,91.3-121.9,79.8C2322.8,576.6,2328.1,561.1,2328.1,561.1z"/>
	<path display="inline" fill="#677CA0" d="M2340.7,540.1c0,0-18-61.3,31.2-79.2c13.9-1.7,1.2,33.2,1.2,33.2s14.3-53,51.8-62.8
		c37.5-9.8-33.8,63.7-33.8,63.7s42.6-52.6,62-42.7c19.4,9.9-57.7,68.1-57.7,68.1s29.3-40.3,62.7-24c7.8,15.5-43.6,38.9-43.6,38.9
		s-5.8-18.5,28.5,5.4c6.3,11-74.5,30.6-88.5,15C2340.7,540.1,2340.7,540.1,2340.7,540.1z"/>
	<g display="inline">
		<path fill="#2D2C2B" d="M2497.1,118c-29.3-40.9-129.3-101.3-250.9-101.3c-92.6,0-159.9,25.6-211.6,80.4l-1.4,1.5l0.6-2
			c19.1-67,54.7-117.6,105.6-150.4c40.4-26.1,82.4-35.4,110.5-38.6c10.2-1.2,20.6-1.8,30.9-1.8c30.7,0,60.1,5.1,87.2,15.2
			c28.6,10.6,53.3,26.2,73.4,46.4c37.2,37.3,56.9,89.3,56.7,150.2l0,1.5L2497.1,118z"/>
		<g>
			<path fill="#2D2C2B" d="M2280.7-93.6c109.8,0,217.2,67.3,216.8,211.3c-27.7-38.7-126-101.5-251.3-101.5
				c-107.8,0-169.5,35.5-211.9,80.6C2078.4-57.8,2199.1-86,2249.9-91.8C2260.1-93,2270.4-93.6,2280.7-93.6 M2280.7-94.6
				c-10.3,0-20.7,0.6-30.9,1.8c-28.2,3.2-70.2,12.5-110.7,38.6c-51,32.9-86.6,83.6-105.8,150.7l-1.1,4l2.8-3
				c23.8-25.3,50.3-43.9,81.1-57c37-15.7,79.5-23.3,130.1-23.3c70.2,0,126.7,19.7,161.8,36.2c30.7,14.4,70.1,39.1,88.7,64.9l1.8,2.5
				l0-3.1c0.1-31.7-5.1-60.9-15.3-86.9c-9.5-24.2-23.5-45.6-41.5-63.7c-20.2-20.2-44.9-35.8-73.5-46.5
				C2340.8-89.4,2311.4-94.6,2280.7-94.6L2280.7-94.6z"/>
		</g>
	</g>
	<path display="inline" fill="none" stroke="#2D2C2B" stroke-width="6" stroke-linecap="round" stroke-miterlimit="10" d="
		M2235.7,208.7c0,0,22.9-58,43.3,0"/>
	<path display="inline" fill="#9FACC6" d="M2073,461.8c-18.8,60.2,26.2,59.1,33.4,42.9c2.7-6.1,5-12.6,7.3-19.3L2073,461.8z"/>
	<g display="inline">
		<path fill="#2D2C2B" d="M2255.6,337.4c0,0,128.3-4.9,170.9,108c26.1,69-22.9,68.6-30.4,51.6c-18.7-42.4-17.6-104-145.3-127.4
			L2255.6,337.4z"/>
		<path fill="#9FACC6" d="M2429.6,454.1c18.8,60.2-26.2,59.1-33.4,42.9c-2.7-6.1-5-12.6-7.3-19.3L2429.6,454.1z"/>
	</g>
	<g display="inline">
		<path fill="#2D2C2B" d="M2114.5,488c17.3-35.4,8.6-86.5,136.4-109.9l-4.7-32.1c0,0-128.3-4.9-170.9,108c-1.1,3-2.1,5.9-3,8.7
			l39.6,24.2L2114.5,488z"/>
	</g>
	<path display="inline" d="M2041.5,41.6c0,0,128.3-96.9,458.3,6.1l-0.8-64.9c0,0-222.8-101.2-444.8-12.7L2041.5,41.6z"/>
	<g display="inline">
		<path fill="#2D2C2B" d="M2333.8,356.8c-19.7,3.3-41.2,4.9-64.7,4.9c-22.1,0-43.6-1.8-64.1-5.4c-17.3,17.3-75.6,84.1-68.1,200.3
			c0,0,15,124.6,33.1,142c13.2,12.8,42.7,11.6,47.9,1.2c10.6-21.2,0-94.9,0-94.9c24.2,2,50.5,0.3,73.9-4.5c0,0-16,79.4,1.1,97.5
			c7,7.4,25.7,7.2,34.4,1.9c44-26.7,46.2-139.5,46.2-139.5c2.8-35-0.5-75.8-7.3-115.8C2361.1,413.5,2341.4,375.8,2333.8,356.8z"/>
	</g>
	<polygon display="inline" fill="#707071" points="2212,346.2 2250.9,416.5 2267.7,425.2 2297,409.4 2326.1,345.1 	"/>
	<path display="inline" fill="none" stroke="#4F4F4F" stroke-width="3" stroke-miterlimit="10" d="M2257,355.9c0,0-5.5,25.7,7.1,54"
		/>
	<path display="inline" fill="none" stroke="#4F4F4F" stroke-width="3" stroke-miterlimit="10" d="M2295,400.8c0,0,6.5-25.4-5-54.2"
		/>
	<path display="inline" fill="none" stroke="#4F4F4F" stroke-width="3" stroke-miterlimit="10" d="M2241.9,391.2
		c0,0,25.4,6.5,54.2-5"/>
	<path display="inline" fill="none" stroke="#4F4F4F" stroke-width="3" stroke-miterlimit="10" d="M2227.1,374.2
		c0,0,36.1,6.9,76.6-4.1"/>
	<path display="inline" fill="none" stroke="#4F4F4F" stroke-width="3" stroke-miterlimit="10" d="M2276.4,414.7
		c0,0,6.6-29.9-4.6-63.7"/>
	<path display="inline" fill="none" stroke="#4F4F4F" stroke-width="3" stroke-miterlimit="10" d="M2239,346.2c0,0-5.5,25.7,7.1,54"
		/>
	<path display="inline" fill="#E1AF25" stroke="#E1AF25" stroke-miterlimit="10" d="M2349.7,338.9c0,0-8,21-62.7,110.3l-23.3-27.3
		c0,0,49.3-52,54-83H2349.7z"/>
	<g display="inline">
		<path fill="#FEDA3F" d="M2373.3,503.7c-54.7-19.9-100.1-48-135.1-83.7c-29.9-30.5-45.6-59.8-53.5-79l-0.1-0.3l0.2-0.2
			c0.6-0.7,1.3-1.4,1.8-2l0.2-0.2l0.3,0c6.9,1.2,16.1,4.2,25,7.3l0.1,0l8.5,7.7l0,0.1c35.9,65.3,117.1,107.6,150.4,122.8l0.3,0.1
			l0,0.3c0.8,7.1,1.5,14.1,2.1,20.7l0.5,6.5L2373.3,503.7z"/>
		<g>
			<path fill="#FED940" d="M2187,338.9c6.7,1.2,15.4,4,24.9,7.3l8.4,7.6c36.1,65.7,118.3,108.3,150.6,123c0.8,6.9,1.5,13.9,2.1,20.7
				l0.4,5.7c-124.7-45.4-172.2-123.3-188.3-162.4C2185.9,340.1,2186.5,339.4,2187,338.9 M2186.7,337.8l-0.4,0.4
				c-0.6,0.6-1.2,1.3-1.9,2l-0.4,0.5l0.2,0.6c7.9,19.3,23.6,48.7,53.6,79.2c35,35.7,80.5,63.9,135.2,83.8l1.5,0.5l-0.1-1.5l-0.4-5.7
				c-0.5-6.6-1.2-13.6-2.1-20.8l-0.1-0.6l-0.5-0.2c-99.7-45.5-138.2-100.9-150.2-122.6l-0.1-0.1l-0.1-0.1l-8.4-7.6l-0.2-0.1
				l-0.2-0.1c-8.9-3.1-18.2-6.2-25.1-7.4L2186.7,337.8L2186.7,337.8z"/>
		</g>
	</g>
	<g display="inline">
		<path fill="#2D2C2B" d="M2022.4,173.4c1,121.6,112.1,188.1,246.8,188.1c125.5,0,196.2-45.3,219.9-162.4
			C2249.3,289.1,2058,193.3,2022.4,173.4z"/>
	</g>
	<g display="inline">
		<path fill="#FEDA3F" d="M2374.8,540.9c-119.5-2-201.9-6.2-238.4-12l-0.4-0.1l0-0.4c0.2-8.6,0.8-17.2,1.8-25.6l0.1-0.5l0.5,0.1
			c6,0.7,13,1.9,21.1,3.4c25,4.5,62.8,11.3,124.4,11.3c0,0,0,0,0,0c27.8,0,58.2-1.4,90.4-4.2l0.5,0l0,0.5c0.8,11.2,1,20.3,0.6,27.1
			l0,0.5L2374.8,540.9z"/>
		<g>
			<path fill="#FED940" d="M2138.3,502.9c24.3,2.8,63.8,14.7,145.6,14.7c25.7,0,55.6-1.2,90.4-4.2c0.6,8.4,1.1,18.7,0.6,27
				c-44.5-0.8-184.4-3.4-238.3-12C2136.7,519.6,2137.3,511.1,2138.3,502.9 M2137.4,501.8l-0.1,1c-1,8.4-1.5,17-1.8,25.6l0,0.9
				l0.9,0.1c36.5,5.8,119,10,238.5,12l1,0l0.1-1c0.4-6.8,0.2-15.9-0.6-27.1l-0.1-1l-1,0.1c-32.2,2.8-62.6,4.2-90.3,4.2
				c-61.6,0-99.4-6.8-124.4-11.3c-8.1-1.5-15.1-2.7-21.1-3.4L2137.4,501.8L2137.4,501.8z"/>
		</g>
	</g>
	<g display="inline">
		<path fill="#E1AF25" d="M2239,523.8c-44.9,0-79.1-4.4-101.6-12.9l-0.4-0.1l0-0.4c0.7-8.4,1.8-16.8,3.3-25l0.1-0.5l0.5,0.1
			c17.2,4.3,64.1,14.4,128.6,14.4c0,0,0,0,0,0c34.3,0,69-2.8,103-8.4l0.5-0.1l0,0.5c0.7,7.5,1.2,14.9,1.6,22.1l0,0.5l-0.5,0.1
			C2357.5,516.2,2298.1,523.8,2239,523.8C2239,523.8,2239,523.8,2239,523.8z"/>
		<g>
			<path fill="#E1AF25" d="M2140.9,485.4c17.8,4.5,64.5,14.4,128.8,14.4c30.7,0,65.5-2.3,103-8.4c0.7,7.4,1.2,14.8,1.6,22.1
				c-15.1,2.1-75.5,9.8-135.2,9.8c-38,0-75.8-3.1-101.4-12.9C2138.3,501.7,2139.5,493.4,2140.9,485.4 M2140.1,484.2l-0.2,1.1
				c-1.5,8.2-2.6,16.7-3.3,25l-0.1,0.8l0.7,0.3c22.6,8.6,56.8,13,101.8,13c59.2,0,118.6-7.5,135.4-9.8l0.9-0.1l0-0.9
				c-0.3-7.2-0.9-14.6-1.6-22.1l-0.1-1.1l-1.1,0.2c-34,5.6-68.6,8.4-102.9,8.4c-64.5,0-111.4-10-128.5-14.3L2140.1,484.2
				L2140.1,484.2z"/>
		</g>
	</g>
	
		<circle display="inline" fill="#FFFFFF" stroke="#E1AF25" stroke-width="4" stroke-miterlimit="10" cx="2197.8" cy="443.1" r="29.3"/>
	<path display="inline" fill="#2D2C2B" d="M2174.6,435.3c0,0,2.2,4.4,6.1,2.9c2.5-0.6,5.2,1,5.9,2.2c0.7,1.2,4.1,2.5,7.8,1.2
		c3.7-1.2,6.5-1,7.5-0.8c0,0,2.5-1.5,1.5-4c0,0-2.1,1.3-2.8,1.9c-0.7,0.6-3.2,1.4-3.2,1.4l-2.9,0.6c0,0-1,0-2.3-0.3
		c0,0,1.5,0.1,2.6-0.4c1.1-0.5,3.6-2.1,4.5-2c0,0,3.1-1.7,3.8-2.4c0,0-1.9,1.1-2.7,0.7c-0.8,0.4-0.8,0.9-1,1.1
		c-0.2,0.3-1.1,0.3-1.6-0.3c0,0-0.5,0.2-0.7-0.3c-0.2-0.4-1.3-0.3-1.3-0.3s1.2,0,1.3-0.5c0-0.5,0.7-1.1,1.2-1.2
		c0.5-0.1,1.9-0.3,1.9-1c0.1-0.6,0.8-1.6,2.1-1.4c1.3,0.1,3.2-0.9,3.5-1.5c0.3-0.6,2.4-0.6,2.8,0c0.4,0.6,0.6,1.4,1.1,1.6
		c0,0,0.7,1.1-0.5,1.7l-0.9,0.1l-0.3,1.1c0,0,1,0.7,2.5-0.1c1.4-0.7,4.7-2.1,5.6-3.1c0.9-1,2.8-1.4,2.8-1.4s-0.1,0.3,0.6-0.3
		c0.7-0.6,1.5-0.3,1.5-0.3l-0.5,0.9l-1.7,0.4c0,0-1.2,1-1.5,1.3c-0.3,0.3-3.5,2.3-4.1,2.6c-0.6,0.3-1.8,0.5-2,1.1
		c-0.2,0.5-1.3,1.1-1.7,1.1c-0.4,0-1.9,4.4-4.2,5.5c-1.4,2.6-4,3.9-4.7,4c-0.7,0.1-5.3,1.2-11-2.2c-4.7-3.9-3.8-2.8-4.9-3.5
		c-1.2-0.6-3,0.6-4.3,2.4c-0.9,1.2-1.4,2.6-1.2,3.2c0,0-2.5-2.9-0.6-5.8C2178.7,441.1,2174.6,440.3,2174.6,435.3z"/>
	
		<text transform="matrix(1 0 0 1 2174.5535 456.6126)" display="inline" fill="#2D2C2B" font-family="'HelveticaNeue'" font-size="7">N O R F O L K</text>
	<rect x="2227.7" y="-70.5" display="inline" fill="#FEDA3F" width="79" height="79"/>
	<text transform="matrix(1 0 0 1 2259.9126 1.4627)" display="inline" font-family="'HelveticaNeue'" font-size="37.4424">JS</text>
</g>
<g id="Layer_7">
	<polygon fill="#FEDA3F" points="0,294.6 510.3,0 1020.6,294.6 1020.6,883.8 510.3,1178.4 0,883.8 	"/>
	<polygon fill="#FEDA3F" points="510.5,616 866.2,972.3 1019.4,883.8 1019.4,616 	"/>
	<polygon fill="#E1AF25" points="1019.4,615.5 1019.4,294.6 901,226.3 511.7,615.5 	"/>
	<polygon fill="#FEDA3F" points="510.8,0.9 510.8,616.3 901,226.2 	"/>
	<polygon fill="#E1AF25" points="511,615.5 511,1.1 509.1,0 120.1,224.6 	"/>
	<polygon fill="#FEDA3F" points="510.3,616.8 119.7,225.5 0,294.6 0,616.8 	"/>
	<polygon fill="#E1AF25" points="0,615.3 0,883.8 155.1,973.4 512.7,615.1 	"/>
	<polygon fill="#E1AF25" points="511.3,1178 512,1178.4 869,972.4 511.7,615.1 	"/>
	<polygon fill="#FEDA3F" points="510.3,1178.4 511.7,1177.6 511.2,615.3 154.6,973.1 	"/>
	<g>
		<path fill="#FFFFFF" d="M461.8,1030.3c-13,0-25.3-4.4-32.9-11.7c-5.7-5.5-14.6-20-25.8-82.2c-6-33.2-9.8-64.6-9.9-65l0-0.2l0-0.2
			c-2.7-41.6,2.4-80.7,15.3-116.8c-10.7,14.6-16.1,30.4-21.4,45.8c-2.6,7.6-5.1,14.8-8.2,21.8c-1.1,2.5-2.7,4.8-4.8,6.8l-0.2,0.2
			c-0.2,0.2-0.4,0.4-0.7,0.6l-0.2,0.1c-0.3,0.2-0.6,0.5-0.9,0.8l-0.2,0.2c-0.2,0.2-0.5,0.4-0.9,0.6l-0.2,0.1
			c-0.3,0.2-0.6,0.4-0.9,0.6l-0.2,0.1c-0.3,0.2-0.6,0.4-0.9,0.6l-0.2,0.1c-0.3,0.2-0.6,0.4-1,0.5l-0.2,0.1c-0.3,0.2-0.6,0.3-0.9,0.4
			l-0.3,0.1c-0.3,0.1-0.6,0.3-0.9,0.4l-0.2,0.1l-3.1-7.9l3,7.9c-0.3,0.1-0.6,0.2-0.9,0.3l-0.3,0.1c-0.4,0.1-0.7,0.2-1,0.3
			c-0.1,0-0.2,0.1-0.4,0.1c-0.3,0.1-0.6,0.2-0.9,0.3l-0.4,0.1c-0.3,0.1-0.7,0.2-1,0.2l-0.3,0.1c-0.3,0.1-0.7,0.1-1,0.2l-0.3,0
			c-0.4,0.1-0.7,0.1-1.1,0.1l-0.2,0c-1,0.1-2.1,0.2-3.1,0.2c-1.2,0-2.3-0.1-3.5-0.2l-0.2,0c-0.3,0-0.7-0.1-1-0.2l-0.3,0
			c-0.4-0.1-0.7-0.1-1-0.2c0,0-0.4-0.1-0.5-0.1c-0.2-0.1-0.5-0.1-0.8-0.2l-0.6-0.2c-0.3-0.1-0.6-0.2-0.9-0.3
			c-0.3-0.1-0.4-0.1-0.6-0.2c-0.3-0.1-0.5-0.2-0.8-0.3c-0.2-0.1-0.4-0.2-0.6-0.2c-0.2-0.1-0.5-0.2-0.8-0.3c-0.2-0.1-0.4-0.2-0.6-0.3
			c-0.2-0.1-0.5-0.2-0.8-0.4c-0.2-0.1-0.4-0.2-0.6-0.3c-0.3-0.2-0.6-0.3-0.8-0.5c-0.2-0.1-0.4-0.2-0.6-0.3c-0.2-0.2-0.5-0.3-0.7-0.5
			c-0.2-0.1-0.4-0.3-0.6-0.4c-0.2-0.2-0.5-0.3-0.7-0.5c-0.2-0.2-0.4-0.3-0.6-0.5c-0.2-0.2-0.4-0.4-0.7-0.6c-0.2-0.1-0.6-0.5-0.6-0.5
			c-0.2-0.2-0.4-0.4-0.6-0.6c-0.2-0.2-0.3-0.3-0.5-0.5c-0.3-0.3-0.5-0.5-0.7-0.7c-0.1-0.1-0.3-0.3-0.4-0.5c-0.3-0.3-0.5-0.5-0.7-0.8
			c-0.1-0.1-0.2-0.3-0.4-0.5l-0.1-0.1c-0.2-0.3-0.4-0.5-0.6-0.8c-0.1-0.2-0.2-0.3-0.4-0.5l-0.1-0.1c-0.2-0.3-0.4-0.5-0.5-0.8
			c-0.1-0.2-0.2-0.4-0.3-0.5l-0.1-0.2c-0.2-0.3-0.3-0.5-0.5-0.8c-0.1-0.2-0.2-0.4-0.3-0.5l-0.1-0.2c-0.1-0.3-0.3-0.5-0.4-0.8
			c-0.1-0.2-0.2-0.4-0.3-0.6l-0.1-0.3c-0.1-0.3-0.2-0.5-0.4-0.8c-0.1-0.2-0.2-0.4-0.2-0.6l0-0.1c-0.5-1.2-0.9-2.4-1.2-3.7l0-0.2
			c-0.1-0.3-0.1-0.5-0.2-0.8c-0.1-0.3-0.1-0.5-0.2-0.8l-0.1-0.3c-0.1-0.3-0.1-0.6-0.2-0.9c-0.1-0.3-0.1-0.5-0.1-0.8l-0.1-0.3
			c-0.1-0.3-0.1-0.6-0.2-0.9c0-0.3-0.1-0.5-0.1-0.8l-0.1-0.4c0-0.3-0.1-0.6-0.1-0.9c0-0.3-0.1-1-0.1-1l0-0.1c0-0.3-0.1-0.6-0.1-1
			c0-0.3,0-0.6-0.1-0.9l0-0.1c0-0.5,0-0.8-0.1-1.2c0-0.3,0-1,0-1c0-0.4,0-0.8,0-1.2c0-0.4,0-0.7,0-1.1c0-0.4,0-0.8,0-1.2
			c0-0.4,0-0.7,0.1-1.1c0-0.4,0-0.9,0.1-1.3c0-0.4,0.1-0.7,0.1-1.1c0-0.5,0.1-0.9,0.1-1.4c0-0.3,0.1-0.7,0.1-1.1
			c0.1-0.5,0.1-1,0.2-1.4c0-0.4,0.1-0.7,0.2-1.1c0.1-0.5,0.2-1,0.2-1.5c0.1-0.4,0.1-0.7,0.2-1.1c0.1-0.5,0.2-1,0.3-1.6
			c0.1-0.4,0.1-0.7,0.2-1.1c0.1-0.5,0.2-1.1,0.4-1.6l0.3-1.1c0.1-0.6,0.3-1.2,0.4-1.8l0.3-1.1c0.2-0.6,0.3-1.3,0.5-1.9l0.3-1
			c0.2-0.7,0.4-1.4,0.6-2.1l0.4-1.5l0.1-0.2c0.9-2.9,1.8-5.6,3-8.8c20-52.8,57.7-81,92.7-96c-0.5-0.2-1.1-0.3-1.6-0.5
			c-0.8-0.3-1.7-0.6-2.5-0.8c-1.1-0.4-2.1-0.7-3.2-1.1c-0.8-0.3-1.7-0.6-2.5-0.9c-1.1-0.4-2.1-0.8-3.2-1.1c-0.8-0.3-1.7-0.6-2.5-0.9
			c-1.1-0.4-2.1-0.8-3.1-1.2l-0.3-0.1c-0.7-0.3-1.4-0.6-2.1-0.8c-1.1-0.4-2.1-0.9-3.2-1.3l-0.6-0.3c-0.5-0.2-1.1-0.5-1.6-0.7
			c-1.1-0.5-2.2-1-3.3-1.5l-0.7-0.3c-0.5-0.2-0.9-0.4-1.4-0.6c-1.3-0.6-2.5-1.2-3.8-1.8l-0.5-0.3c-0.3-0.1-0.6-0.3-0.9-0.4
			c-1.7-0.8-3.5-1.7-5.2-2.6c-0.3-0.1-1.2-0.7-1.2-0.7c-1.3-0.7-2.6-1.3-3.8-2c-0.4-0.2-0.8-0.5-1.2-0.7l-0.7-0.4
			c-1-0.6-2-1.1-3-1.7c-0.5-0.3-1-0.6-1.5-0.9l-0.6-0.3c-1-0.6-1.9-1.1-2.9-1.7c-0.6-0.4-1.2-0.7-1.8-1.1l-0.3-0.2
			c-0.9-0.6-1.8-1.1-2.7-1.7c-0.7-0.4-1.4-0.9-2.1-1.4c-0.9-0.6-1.7-1.2-2.6-1.8c-0.7-0.5-1.4-0.9-2.1-1.4c-0.2-0.1-0.4-0.3-0.6-0.4
			c-7.6,9.9-17.4,19.5-29.2,28.7c-58.1,45.5-90.5,113.5-90.8,114.2l-4.5,9.5l-40.7-30.8l0.3-4.5c2.7-45.7,59.9-104.7,97.7-133.2
			c4.5-3.4,8.5-6.9,12.2-10.5c-72.3,14.5-131.4,60.3-132,60.7l-8.3,6.5l-22.4-45.9l2.3-3.9c23.1-39.5,100.7-66.3,147.3-74.7
			c0.6-0.1,1.1-0.2,1.7-0.3c-0.3-0.8-0.6-1.7-0.9-2.5c-0.2-0.5-0.3-1-0.5-1.5l-0.3-0.8c-0.3-1-0.7-2-1-3c-0.2-0.6-0.4-1.2-0.5-1.8
			l-0.2-0.5c-0.3-1-0.6-2.1-0.9-3.1c-0.2-0.7-0.4-1.4-0.6-2.1l-0.1-0.3c-0.3-1-0.5-2.1-0.8-3.1c-0.2-0.8-0.4-1.7-0.6-2.5
			c-0.2-1-0.5-2.1-0.7-3.1c-0.2-0.9-0.4-1.7-0.5-2.6c-0.2-1-0.4-2.1-0.6-3.2c-0.2-0.9-0.3-1.7-0.4-2.6c-0.2-1.1-0.3-2.2-0.5-3.2
			c-0.1-0.9-0.3-1.7-0.4-2.6c-0.1-1.1-0.3-2.2-0.4-3.4l-0.1-0.5c-0.1-0.7-0.2-1.4-0.2-2.1c-0.1-1.1-0.2-2.3-0.3-3.4l-0.1-0.9
			c0-0.6-0.1-1.1-0.1-1.7c-0.1-1.3-0.2-2.6-0.2-4l0-0.7c0-0.5-0.1-0.9-0.1-1.4c-0.1-2.1-0.1-4.1-0.1-6.1c-0.1-10.8,0.7-22,2.2-33.4
			c2.2-15.4,5.4-30.6,9.7-45c0.8-7.5,7.7-67.9,20-126.5l0.1-0.3c7.4-35.1,15.3-63.1,23.7-83.3c11.7-28.3,24.6-42.1,39.5-42.2
			c0,0,0,0,0,0c4.2,0,15.2,0.1,94.4,66c14.8-4.2,30.1-7.3,45.5-9c10.5-1.2,21.2-1.8,31.7-1.8c22.3,0,44.1,2.7,65,7.9
			c11.8-7.2,35.8-21.6,59-34.8c49.8-28.3,56.2-28.3,59.6-28.3c23.3,0.1,31.1,35.8,33.7,47.6c4.9,22.3,8.1,53.3,9.6,92.1l0,0.2
			c2.5,67.4-1.3,137.2-1.5,141.2c0,0.5-0.1,3.8-0.1,4.2c-0.1,2.3-0.2,4.4-0.3,6.3c-0.1,2.3-0.3,4.6-0.4,6.9l-0.1,2
			c-0.1,1.8-0.3,3.6-0.4,5.3l-0.1,1.7c-0.2,2.2-0.4,4.3-0.6,6.4l-0.2,2.2c-0.1,1.4-0.3,2.8-0.4,4.2c-0.1,0.9-0.2,1.8-0.3,2.6
			c-0.2,1.6-0.4,3.1-0.6,4.7c-0.2,1.3-0.3,2.6-0.5,3.8c-0.1,1.1-0.3,2.1-0.4,3.1c-0.2,1.1-0.3,2.3-0.5,3.4c-0.1,0.8-0.2,1.6-0.4,2.3
			c-0.4,2.5-0.8,5-1.2,7.4l-0.1,0.9c-0.2,1.3-0.5,2.7-0.7,4l-0.3,1.4c-0.8,4.3-1.7,8.6-2.7,12.7l-0.2,0.7c-0.6,2.6-1.2,4.9-1.7,7.2
			c-0.4,1.6-0.8,3.1-1.2,4.6l-0.3,1c-0.4,1.4-0.8,2.8-1.2,4.2l-0.3,1.2c-0.4,1.4-0.8,2.8-1.3,4.2l-0.3,1c-2,6.4-4.2,12.6-6.6,18.4
			l-0.1,0.3c-0.5,1.3-1.1,2.6-1.6,3.8l-0.4,1c-0.5,1.2-1,2.4-1.6,3.6l-0.5,1.2c-0.5,1.2-1.1,2.3-1.6,3.5l-0.5,1
			c-0.6,1.2-1.2,2.4-1.8,3.6l-0.1,0.2c-2,4-4.2,7.9-6.5,11.7l-0.4,0.6c-0.6,1.1-1.3,2.1-1.9,3.1l-0.7,1.1c-0.6,1-1.3,1.9-1.9,2.9
			c-0.3,0.4-0.5,0.8-0.8,1.2c-0.6,0.9-1.3,1.9-2,2.8l-0.8,1.1c-0.7,0.9-1.4,1.9-2.1,2.8l-0.4,0.5c-2.4,3.2-5,6.3-7.6,9.3
			c0,0-0.6,0.7-0.8,0.9c-0.7,0.8-1.5,1.6-2.2,2.4c-0.3,0.4-0.7,0.7-1,1.1c-0.7,0.8-1.4,1.5-2.2,2.2c-0.4,0.4-0.8,0.8-1.1,1.1
			c-0.7,0.7-1.5,1.5-2.2,2.2c-0.3,0.3-1.1,1.1-1.1,1.1c-0.8,0.7-1.6,1.4-2.3,2.1c-0.2,0.2-0.8,0.7-0.8,0.7c-2.7,2.4-5.6,4.7-8.5,7
			l-0.4,0.3c-0.3,0.2-0.6,0.5-0.9,0.7c-0.8,0.6-1.6,1.2-2.4,1.7l-0.1,0.1c-0.5,0.3-0.9,0.7-1.4,1c-0.8,0.6-1.6,1.1-2.3,1.6
			c-0.5,0.4-1.1,0.7-1.6,1.1c-0.8,0.5-1.6,1-2.4,1.5c-0.4,0.3-0.9,0.5-1.3,0.8l-0.6,0.4c-0.7,0.5-1.5,0.9-2.2,1.3
			c-0.4,0.2-0.7,0.4-1.1,0.6l-0.5,0.3c-1.6,1-3.3,1.9-5.1,2.9l-0.5,0.3c-0.3,0.2-0.6,0.3-1,0.5c-0.6,0.3-1.2,0.6-1.9,1l-1,0.5
			c-0.5,0.3-1,0.5-1.5,0.8c-0.8,0.4-1.5,0.7-2.3,1.1l-0.1,0.1c-0.7,0.3-1.4,0.7-2,1c-0.8,0.4-1.6,0.7-2.4,1.1
			c-0.7,0.3-1.4,0.6-2.1,0.9c-0.8,0.3-1.6,0.7-2.4,1c-0.7,0.3-1.3,0.5-2,0.8l-0.7,0.3c-0.7,0.3-1.3,0.5-2,0.8
			c-0.7,0.3-1.4,0.5-2.1,0.8l-0.5,0.2c-1.2,0.4-2.4,0.9-3.6,1.3l-0.1,0c-1,0.3-2,0.7-3,1c-0.6,0.2-1.1,0.4-1.7,0.6l-0.8,0.3
			c-0.8,0.3-1.6,0.5-2.4,0.8c-0.7,0.2-1.5,0.4-2.2,0.7c0,0-1.1,0.3-1.5,0.4c17.2,10.4,32,23.3,44,38.6c13-10.9,28.6-21.3,46.5-31.1
			l0.2-0.1l0.2-0.1c1.7-0.8,3.4-1.2,5.1-1.2c3.8,0,7.2,2,9.1,5.4c1.6,2.8,2.1,6.4,1.8,10.4c19.4-17.3,38.7-31.4,57.8-42l4.7-2.6
			l4.4,3.2c2.3,1.7,5.1,4.8,5.9,10.4c1.9,14.1-11.8,38.1-24.1,56.4c4-0.7,8.1-1,12.3-1c8.2,0,16.6,1.4,25,4.1l2.8,0.9l1.6,2.4
			c1.7,2.6,2.2,5.8,1.2,9c-0.7,2.4-2.7,8.8-26.4,26.3c-1.3,1-2.7,2-4.1,3c2.8,1.7,4.6,4.5,4.9,7.8c0.4,4.3,1.1,11.7-41.3,46.2
			c1.6,2.7,2.6,7-0.4,13.2c-10.3,21.6-72.7,78-117,80.3c-8.9,72-30.5,99.3-47.3,109.5c-5.3,3.2-12.9,5.1-20.9,5.1
			c-10.3,0-19-3.1-24.1-8.4c-9-9.5-12-29.8-9.3-62.1c1-11.7,2.6-22.8,3.8-30.7c-14,2.2-28.6,3.3-43,3.3c-3.6,0-7.2-0.1-10.7-0.2
			c2.6,22,7.1,71-2.2,89.6C486.3,1025.5,475.6,1030.3,461.8,1030.3z"/>
		<path fill="#FFFFFF" d="M728.8,165.1C728.8,165.1,728.8,165.1,728.8,165.1c23.9,0.2,32.3,65.1,34.8,131.4l0,0v0
			c2.6,69.6-1.5,140.7-1.5,140.7l0,0c0,0.8,0,1.6-0.1,2.4c0,0.6,0,1.2,0,1.9c-0.1,2-0.1,4-0.3,6.1c-0.1,2.3-0.3,4.6-0.4,6.8
			c0,0.7-0.1,1.3-0.1,2c-0.1,1.8-0.3,3.5-0.4,5.2c0,0.6-0.1,1.1-0.1,1.7c-0.2,2.1-0.4,4.2-0.6,6.3c-0.1,0.7-0.1,1.5-0.2,2.2
			c-0.1,1.4-0.3,2.8-0.4,4.2c-0.1,0.9-0.2,1.7-0.3,2.6c-0.2,1.5-0.4,3.1-0.6,4.6c-0.2,1.3-0.3,2.5-0.5,3.8c-0.1,1-0.3,2-0.4,3.1
			c-0.2,1.1-0.3,2.2-0.5,3.3c-0.1,0.8-0.2,1.6-0.4,2.3c-0.4,2.4-0.8,4.8-1.2,7.2c0,0.3-0.1,0.6-0.1,0.8c-0.2,1.3-0.5,2.6-0.7,3.9
			c-0.1,0.4-0.2,0.9-0.3,1.3c-0.8,4.2-1.7,8.3-2.6,12.4c0,0.2-0.1,0.4-0.1,0.6c-0.5,2.4-1.1,4.7-1.7,7c0,0,0,0,0,0.1
			c-0.4,1.5-0.8,3-1.2,4.5c-0.1,0.3-0.2,0.7-0.3,1c-0.4,1.4-0.8,2.8-1.2,4.1c-0.1,0.4-0.2,0.8-0.3,1.1c-0.4,1.4-0.8,2.7-1.2,4
			c-0.1,0.3-0.2,0.6-0.3,0.9c-2,6.2-4.1,12.1-6.4,17.8c0,0.1-0.1,0.2-0.1,0.3c-0.5,1.2-1,2.5-1.5,3.7c-0.1,0.3-0.3,0.7-0.4,1
			c-0.5,1.2-1,2.3-1.5,3.4c-0.2,0.4-0.3,0.7-0.5,1.1c-0.5,1.1-1,2.2-1.6,3.4c-0.2,0.3-0.3,0.6-0.5,0.9c-0.6,1.2-1.1,2.3-1.7,3.5
			c0,0.1-0.1,0.1-0.1,0.2c-2,3.8-4.1,7.6-6.2,11.1c-0.1,0.2-0.2,0.4-0.4,0.6c-0.6,1-1.2,2-1.9,3c-0.2,0.3-0.4,0.7-0.7,1
			c-0.6,0.9-1.2,1.8-1.8,2.8c-0.2,0.4-0.5,0.7-0.7,1.1c-0.6,0.9-1.2,1.8-1.9,2.7c-0.2,0.3-0.5,0.7-0.7,1c-0.7,0.9-1.3,1.8-2,2.7
			c-0.1,0.1-0.2,0.3-0.3,0.4c-2.3,3-4.7,6-7.2,8.8c-0.2,0.3-0.5,0.6-0.7,0.8c-0.7,0.8-1.4,1.5-2.1,2.3c-0.3,0.4-0.7,0.7-1,1.1
			c-0.7,0.7-1.4,1.4-2.1,2.1c-0.4,0.4-0.7,0.7-1.1,1.1c-0.7,0.7-1.4,1.4-2.1,2c-0.4,0.3-0.7,0.7-1.1,1c-0.7,0.7-1.5,1.4-2.2,2
			c-0.3,0.2-0.5,0.5-0.8,0.7c-2.6,2.3-5.3,4.5-8,6.6c-0.4,0.3-0.8,0.6-1.2,0.9c-0.7,0.6-1.5,1.1-2.2,1.6c-0.5,0.3-0.9,0.7-1.4,1
			c-0.7,0.5-1.5,1-2.2,1.5c-0.5,0.3-1,0.7-1.5,1c-0.7,0.5-1.5,1-2.2,1.5c-0.5,0.3-1,0.7-1.6,1c-0.8,0.5-1.5,1-2.3,1.4
			c-0.5,0.3-1,0.6-1.5,0.9c-1.6,0.9-3.2,1.8-4.8,2.7c-0.5,0.2-0.9,0.5-1.3,0.7c-0.8,0.4-1.5,0.8-2.3,1.2c-0.6,0.3-1.2,0.6-1.8,0.9
			c-0.8,0.4-1.5,0.7-2.3,1.1c-0.6,0.3-1.3,0.6-2,0.9c-0.8,0.4-1.5,0.7-2.3,1c-0.7,0.3-1.4,0.6-2,0.9c-0.8,0.3-1.5,0.7-2.3,1
			c-0.7,0.3-1.4,0.6-2.2,0.9c-0.8,0.3-1.5,0.6-2.3,0.9c-0.8,0.3-1.6,0.6-2.5,0.9c-1.1,0.4-2.3,0.8-3.5,1.3c-1,0.4-2,0.7-3,1
			c-0.7,0.2-1.5,0.5-2.2,0.7c-0.8,0.3-1.7,0.5-2.5,0.8c-0.8,0.2-1.5,0.5-2.3,0.7c-0.8,0.3-1.7,0.5-2.6,0.7c-0.8,0.2-1.6,0.4-2.3,0.7
			c-0.9,0.2-1.8,0.5-2.6,0.7c-0.8,0.2-1.5,0.4-2.3,0.6c-0.9,0.2-1.9,0.5-2.9,0.7c-0.7,0.2-1.5,0.4-2.2,0.5c-1.2,0.3-2.5,0.5-3.7,0.8
			c-0.7,0.1-1.3,0.3-2,0.4c-0.5,0.1-0.9,0.2-1.4,0.3c-0.1,0.2-0.2,0.3-0.3,0.5c23.5,10.6,47.6,27.3,66.1,53.7
			c12.2-11.3,29-23.6,51.9-36.2c0.5-0.2,0.9-0.4,1.4-0.4c4.7,0,3.7,15.8-10.3,39.9c22.2-23.4,51.1-49.3,83.3-67.1
			c10.6,7.7-12.9,47.7-37,78.2c9.8-6.2,21.9-10.8,36.1-10.8c7,0,14.5,1.1,22.4,3.7c3.9,5.8-40.2,37.3-54.6,43.2
			c2.8-1.1,11.6-4.1,19.5-4.1c3,0,5.9,0.4,8.3,1.6c7.9,4-33.7,38.1-61.2,59.1c6.4-3.7,14-7.1,22-8.1c6.9,8.6-66.7,80.9-112.7,80.9
			c-1.7,0-3.3-0.1-4.9-0.3c-3.7,35.3-14.4,92.9-44.2,111c-4.1,2.5-10.3,3.8-16.5,3.8c-7.1,0-14.2-1.8-17.9-5.8
			c-17.1-18.1-1.1-97.5-1.1-97.5c-16.9,3.5-35.4,5.3-53.5,5.3c-6.9,0-13.8-0.3-20.4-0.8c0,0,10.6,73.6,0,94.9
			c-2.6,5.2-11.2,8.1-20.9,8.1c-9.7,0-20.4-2.9-27-9.3c-18.1-17.4-33.1-142-33.1-142c-4.3-65.9,12.6-115.9,31.2-150.1
			c-45.3,28.8-48.6,68.2-61.8,98c-0.7,1.5-1.7,2.9-2.9,4.1c0,0,0,0,0,0c-0.2,0.2-0.4,0.4-0.6,0.6c0,0,0,0-0.1,0.1
			c-0.2,0.2-0.4,0.3-0.6,0.5c0,0-0.1,0.1-0.1,0.1c-0.2,0.2-0.4,0.3-0.6,0.5c0,0-0.1,0.1-0.1,0.1c-0.2,0.1-0.4,0.3-0.6,0.4
			c-0.1,0-0.1,0.1-0.2,0.1c-0.2,0.1-0.4,0.3-0.6,0.4c-0.1,0-0.1,0.1-0.2,0.1c-0.2,0.1-0.4,0.2-0.6,0.3c-0.1,0-0.1,0.1-0.2,0.1
			c-0.2,0.1-0.4,0.2-0.7,0.3c-0.1,0-0.1,0.1-0.2,0.1c-0.2,0.1-0.4,0.2-0.7,0.3c-0.1,0-0.1,0.1-0.2,0.1c-0.2,0.1-0.5,0.2-0.7,0.3
			c-0.1,0-0.2,0.1-0.2,0.1c-0.2,0.1-0.5,0.2-0.7,0.2c-0.1,0-0.2,0-0.2,0.1c-0.2,0.1-0.5,0.1-0.7,0.2c-0.1,0-0.2,0-0.2,0.1
			c-0.2,0.1-0.5,0.1-0.7,0.2c-0.1,0-0.1,0-0.2,0c-0.3,0-0.5,0.1-0.8,0.1c-0.1,0-0.1,0-0.2,0c-0.3,0-0.5,0.1-0.8,0.1c0,0-0.1,0-0.1,0
			c-0.8,0.1-1.5,0.1-2.3,0.1c-0.8,0-1.7,0-2.5-0.1c0,0-0.1,0-0.1,0c-0.3,0-0.5-0.1-0.8-0.1c-0.1,0-0.2,0-0.3,0
			c-0.2,0-0.5-0.1-0.7-0.1c-0.1,0-0.2,0-0.3-0.1c-0.2,0-0.4-0.1-0.6-0.2c-0.1,0-0.2-0.1-0.4-0.1c-0.2-0.1-0.4-0.1-0.6-0.2
			c-0.1,0-0.3-0.1-0.4-0.1c-0.2-0.1-0.4-0.1-0.6-0.2c-0.1-0.1-0.3-0.1-0.4-0.2c-0.2-0.1-0.4-0.2-0.6-0.2c-0.1-0.1-0.3-0.1-0.4-0.2
			c-0.2-0.1-0.4-0.2-0.5-0.3c-0.1-0.1-0.3-0.1-0.4-0.2c-0.2-0.1-0.4-0.2-0.5-0.3c-0.1-0.1-0.3-0.2-0.4-0.2c-0.2-0.1-0.3-0.2-0.5-0.3
			c-0.1-0.1-0.3-0.2-0.4-0.3c-0.2-0.1-0.3-0.2-0.5-0.4c-0.1-0.1-0.3-0.2-0.4-0.3c-0.2-0.1-0.3-0.3-0.5-0.4c-0.1-0.1-0.2-0.2-0.4-0.3
			c-0.2-0.1-0.3-0.3-0.5-0.4c-0.1-0.1-0.2-0.2-0.4-0.4c-0.1-0.2-0.3-0.3-0.4-0.5c-0.1-0.1-0.2-0.3-0.3-0.4c-0.1-0.2-0.3-0.3-0.4-0.5
			c-0.1-0.1-0.2-0.3-0.3-0.4c-0.1-0.2-0.3-0.4-0.4-0.5c-0.1-0.1-0.2-0.3-0.3-0.4c-0.1-0.2-0.3-0.4-0.4-0.6c-0.1-0.2-0.2-0.3-0.3-0.5
			c-0.1-0.2-0.2-0.4-0.4-0.6c-0.1-0.2-0.2-0.3-0.3-0.5c-0.1-0.2-0.2-0.4-0.3-0.7c-0.1-0.2-0.2-0.3-0.2-0.5c-0.1-0.2-0.2-0.5-0.3-0.7
			c-0.1-0.2-0.1-0.4-0.2-0.5c-0.4-0.9-0.7-1.8-1-2.8c-0.1-0.2-0.1-0.5-0.2-0.7c-0.1-0.2-0.1-0.5-0.2-0.7c-0.1-0.3-0.1-0.5-0.2-0.8
			c-0.1-0.3-0.1-0.5-0.1-0.8c-0.1-0.3-0.1-0.5-0.1-0.8c0-0.3-0.1-0.5-0.1-0.8c0-0.3-0.1-0.6-0.1-0.9c0-0.3-0.1-0.5-0.1-0.8
			c0-0.3-0.1-0.6-0.1-0.9c0-0.3,0-0.6-0.1-0.9c0-0.3,0-0.7,0-1c0-0.3,0-0.6,0-0.9c0-0.3,0-0.7,0-1c0-0.3,0-0.6,0-0.9
			c0-0.4,0-0.7,0-1.1c0-0.3,0-0.6,0-0.9c0-0.4,0-0.8,0.1-1.2c0-0.3,0.1-0.6,0.1-1c0-0.4,0.1-0.8,0.1-1.2c0-0.3,0.1-0.7,0.1-1
			c0.1-0.4,0.1-0.9,0.2-1.3c0-0.3,0.1-0.7,0.1-1c0.1-0.4,0.1-0.9,0.2-1.4c0.1-0.3,0.1-0.7,0.2-1c0.1-0.5,0.2-1,0.3-1.4
			c0.1-0.3,0.1-0.7,0.2-1c0.1-0.5,0.2-1,0.3-1.5c0.1-0.3,0.1-0.7,0.2-1c0.1-0.5,0.3-1.1,0.4-1.6c0.1-0.3,0.2-0.7,0.3-1
			c0.2-0.6,0.3-1.2,0.5-1.8c0.1-0.3,0.2-0.6,0.3-0.9c0.2-0.6,0.4-1.3,0.6-2c0.1-0.3,0.2-0.6,0.3-0.9c0-0.1,0.1-0.2,0.1-0.4l0.1-0.3
			c0.9-2.8,1.8-5.4,2.9-8.4c23.7-62.6,73.7-89,113.5-100c-1.6-0.4-3.2-0.7-4.8-1.1c-0.7-0.2-1.4-0.3-2.1-0.5
			c-1.3-0.3-2.5-0.6-3.8-0.9c-0.8-0.2-1.6-0.4-2.3-0.6c-1.1-0.3-2.3-0.6-3.4-0.9c-0.8-0.2-1.6-0.5-2.4-0.7c-1.1-0.3-2.2-0.6-3.3-1
			c-0.8-0.2-1.7-0.5-2.5-0.8c-1.1-0.3-2.1-0.7-3.2-1c-0.8-0.3-1.6-0.5-2.5-0.8c-1-0.3-2.1-0.7-3.1-1.1c-0.8-0.3-1.6-0.6-2.4-0.9
			c-1-0.4-2-0.7-3.1-1.1c-0.8-0.3-1.6-0.6-2.4-0.9c-1-0.4-2-0.8-3-1.2c-0.8-0.3-1.5-0.6-2.3-0.9c-1-0.4-2.1-0.8-3.1-1.3
			c-0.7-0.3-1.5-0.6-2.2-0.9c-1.1-0.5-2.1-0.9-3.2-1.4c-0.7-0.3-1.3-0.6-2-0.9c-1.2-0.6-2.5-1.1-3.7-1.7c-0.5-0.2-1-0.4-1.4-0.7
			c-1.7-0.8-3.3-1.6-5-2.5c-0.4-0.2-0.8-0.4-1.2-0.6c-1.2-0.7-2.5-1.3-3.7-2c-0.6-0.3-1.2-0.7-1.8-1c-1-0.6-2-1.1-3-1.7
			c-0.7-0.4-1.3-0.8-2-1.2c-0.9-0.5-1.8-1.1-2.7-1.6c-0.7-0.4-1.3-0.8-2-1.2c-0.9-0.5-1.7-1.1-2.6-1.7c-0.7-0.4-1.3-0.9-2-1.3
			c-0.8-0.6-1.7-1.1-2.5-1.7c-0.7-0.5-1.3-0.9-2-1.4c-0.8-0.6-1.6-1.2-2.4-1.7c-0.6-0.5-1.3-0.9-1.9-1.4c-0.8-0.6-1.6-1.2-2.4-1.8
			c-0.2-0.2-0.4-0.3-0.6-0.5c-6.9,10.5-17.3,22-32.5,33.9c-60.5,47.4-93.3,117.3-93.3,117.3l-28.7-21.7
			c2.4-39.5,53.1-95.8,94.3-126.9c14.6-11,23.9-22.2,29.9-32c0,0,0-0.1-0.1-0.1c-7,2.4-14.9,4.6-23.7,6.3
			c-75.4,14.9-136.2,62.5-136.2,62.5L148,629.2c20-34.2,90.7-61.5,141.4-70.6c4.2-0.8,8.1-1.7,11.8-2.7c-0.1-0.2-0.2-0.5-0.3-0.7
			c-0.1-0.3-0.2-0.5-0.4-0.8c-0.7-1.6-1.3-3.2-2-4.9c-0.2-0.6-0.4-1.1-0.6-1.7c-0.4-1.1-0.8-2.2-1.2-3.3c-0.2-0.7-0.5-1.4-0.7-2
			c-0.3-1-0.7-2-1-3c-0.2-0.7-0.4-1.5-0.7-2.2c-0.3-1-0.6-2-0.9-2.9c-0.2-0.8-0.4-1.5-0.6-2.3c-0.3-1-0.5-2-0.8-2.9
			c-0.2-0.8-0.4-1.6-0.6-2.4c-0.2-1-0.4-2-0.7-3c-0.2-0.8-0.3-1.6-0.5-2.4c-0.2-1-0.4-2-0.6-3c-0.1-0.8-0.3-1.6-0.4-2.5
			c-0.2-1-0.3-2.1-0.5-3.1c-0.1-0.8-0.2-1.6-0.3-2.5c-0.1-1.1-0.3-2.1-0.4-3.2c-0.1-0.8-0.2-1.6-0.3-2.4c-0.1-1.1-0.2-2.3-0.3-3.4
			c-0.1-0.8-0.1-1.6-0.2-2.3c-0.1-1.3-0.1-2.5-0.2-3.8c0-0.7-0.1-1.3-0.1-2c-0.1-1.9-0.1-3.9-0.1-5.9c-0.1-10.3,0.6-21,2.2-32.1
			c2.2-15.8,5.5-30.6,9.7-44.5l0,0c0,0,6.8-64.1,20-126.8l0,0c0,0,0,0,0,0c12.6-59.9,31-118.6,54.9-118.8c0,0,0,0,0,0
			c11.3,0,72.9,50.7,92.4,67c18.9-5.8,35.8-8.6,48.4-10c10.2-1.2,20.5-1.8,30.8-1.8c22.5,0,44.9,2.8,66.3,8.6
			C632,216.4,717,165.1,728.8,165.1 M626.9,741c0.2-0.2,0.4-0.4,0.6-0.6c0.9,0.2,1.7,0.4,2.5,0.7c-1.6-2.1-3.2-4.2-5-6.2
			C625.6,736.9,626.3,738.9,626.9,741 M641.8,765c0.3-0.7,0.6-1.5,0.9-2.3c-0.2-0.4-0.4-0.8-0.6-1.2
			C642,762.6,641.9,763.8,641.8,765 M728.8,148.1c-5.2,0-11.4,1.6-28.1,10c-9.2,4.6-21.3,11.2-35.7,19.4
			c-21.4,12.2-43.5,25.5-56.1,33.1c-20.5-4.9-41.8-7.3-63.6-7.3c-10.9,0-21.9,0.6-32.7,1.9c-14.4,1.6-28.6,4.4-42.5,8.1
			c-11.1-9.2-27.3-22.3-42.9-34.3c-37-28.3-46.2-30.8-53.3-30.9l0,0h-0.2h0h-0.1l-0.1,0c-11,0.1-21.1,5.6-29.9,16.4
			c-6.1,7.5-11.8,17.7-17.3,31c-8.5,20.7-16.7,49.2-24.1,84.8c-12.2,58.2-18.9,116.5-20.1,126.9c-4.3,14.6-7.6,29.9-9.8,45.5
			c-1.6,11.8-2.4,23.4-2.3,34.6c0,2.1,0.1,4.2,0.2,6.4c0,0.5,0,1,0.1,1.5l0,0.7l0,0.2c0.1,1.3,0.1,2.6,0.2,4c0,0.6,0.1,1.3,0.1,1.9
			l0.1,0.7l0,0.2c0.1,1.2,0.2,2.4,0.3,3.5c0.1,0.7,0.2,1.4,0.2,2.1l0.1,0.6c0.1,1.2,0.3,2.3,0.4,3.5c0.1,0.8,0.2,1.7,0.4,2.5l0,0.2
			c0.2,1.1,0.3,2.3,0.5,3.4c0.1,0.9,0.3,1.8,0.5,2.7c0.2,1.1,0.4,2.2,0.6,3.3c0.2,0.9,0.4,1.8,0.5,2.7c0.2,1.1,0.5,2.2,0.7,3.3
			c0.2,0.9,0.4,1.8,0.6,2.6c0.3,1.1,0.5,2.2,0.8,3.2l0.1,0.3c0.2,0.8,0.4,1.5,0.6,2.3c0.3,1.1,0.6,2.2,1,3.2l0.2,0.5
			c0.1,0.2,0.1,0.4,0.2,0.6c-26.4,5.5-54.5,14.6-78.4,25.7c-33.3,15.4-55.7,32.7-66.7,51.6l-4.6,7.9l4,8.2l15.8,32.4l9.2,18.9
			l16.5-12.9c0.5-0.4,38.7-29.9,90.6-48.4c-16.8,14.7-32.9,31.4-46,48c-22.7,28.7-34.9,54.3-36.2,76.1l-0.5,9.1l7.3,5.5l28.7,21.7
			l16.7,12.7l8.9-19c0.3-0.7,32-66.9,88.4-111.1c9.9-7.7,18.4-15.7,25.6-24c0.4,0.2,0.8,0.5,1.1,0.7c0.9,0.6,1.9,1.2,2.8,1.8
			l0.4,0.2c0.6,0.4,1.2,0.7,1.8,1.1c1,0.6,2,1.2,3,1.8l0.5,0.3c0.5,0.3,1,0.6,1.6,0.9c1,0.6,2.1,1.2,3.1,1.8l0.1,0.1l0.6,0.3
			c0.4,0.3,0.9,0.5,1.3,0.7c1.4,0.7,2.7,1.5,4,2.1l0.4,0.2c0.3,0.2,0.6,0.3,0.9,0.5c1.7,0.9,3.5,1.8,5.3,2.7c0.3,0.2,0.7,0.3,1,0.5
			l0.5,0.2c1.2,0.6,2.6,1.2,3.9,1.9c0.5,0.2,1,0.4,1.5,0.7l0.7,0.3l0.1,0c1.1,0.5,2.2,1,3.3,1.5c0.6,0.2,1.2,0.5,1.7,0.7l0.6,0.3
			c1.1,0.5,2.2,0.9,3.3,1.4c0.7,0.3,1.4,0.6,2.1,0.8l0.3,0.1c-30.9,17.2-61.3,45.4-78.8,91.7c-1.3,3.3-2.2,6.1-3.2,9.2l-0.1,0.2
			l-0.1,0.2l-0.1,0.2c0,0.2-0.1,0.3-0.1,0.5l0,0c-0.1,0.2-0.1,0.5-0.2,0.7l-0.1,0.3c-0.2,0.8-0.5,1.5-0.7,2.2
			c-0.1,0.3-0.2,0.5-0.2,0.8l-0.1,0.3c-0.2,0.7-0.4,1.4-0.6,2c-0.1,0.3-0.2,0.6-0.2,0.9l-0.1,0.2c-0.2,0.6-0.3,1.3-0.5,1.9
			c-0.1,0.3-0.2,0.7-0.2,1l0,0.2c-0.1,0.6-0.3,1.2-0.4,1.8c-0.1,0.4-0.2,0.8-0.2,1.1l0,0.1c-0.1,0.6-0.2,1.2-0.3,1.7
			c-0.1,0.4-0.1,0.8-0.2,1.2c-0.1,0.6-0.2,1.1-0.3,1.6c-0.1,0.4-0.1,0.8-0.2,1.2c-0.1,0.5-0.1,1.1-0.2,1.6c0,0.4-0.1,0.8-0.1,1.2
			c-0.1,0.5-0.1,1-0.1,1.5c0,0.4-0.1,0.8-0.1,1.2c0,0.5-0.1,1-0.1,1.5c0,0.4,0,0.8-0.1,1.2c0,0.5,0,1,0,1.4c0,0.4,0,0.8,0,1.2
			c0,0.5,0,0.9,0,1.4l0,0.1c0,0.4,0,0.7,0,1.1c0,0.4,0,0.9,0.1,1.3l0,0.2c0,0.3,0,0.7,0.1,1c0,0.4,0.1,0.8,0.1,1.2l0,0.1l0,0.2
			c0,0.3,0.1,0.7,0.1,1c0,0.4,0.1,0.7,0.1,1.1l0,0.1l0,0.2c0,0.3,0.1,0.6,0.1,1c0.1,0.4,0.1,0.7,0.2,1.1l0,0.2l0,0.1
			c0.1,0.3,0.1,0.7,0.2,1c0.1,0.3,0.1,0.7,0.2,1l0,0.1l0,0.1c0.1,0.3,0.2,0.7,0.2,1c0.1,0.3,0.2,0.7,0.3,1l0,0.1
			c0.4,1.6,1,3.1,1.5,4.5l0,0c0.1,0.3,0.2,0.6,0.3,0.9c0.2,0.4,0.3,0.7,0.5,1.1l0.1,0.1l0,0c0.1,0.3,0.3,0.6,0.4,0.8
			c0.2,0.3,0.3,0.7,0.5,1l0.1,0.1l0,0.1c0.1,0.3,0.3,0.5,0.4,0.8c0.2,0.3,0.4,0.7,0.6,1l0.1,0.1l0,0.1c0.2,0.3,0.3,0.5,0.5,0.8
			c0.2,0.3,0.4,0.6,0.6,1l0,0.1l0.1,0.1c0.2,0.2,0.3,0.5,0.5,0.7c0.2,0.3,0.5,0.6,0.7,1l0.1,0.1c0.2,0.2,0.4,0.5,0.6,0.7
			c0.3,0.3,0.5,0.6,0.8,0.9l0,0c0.2,0.2,0.4,0.5,0.6,0.7c0.3,0.3,0.5,0.6,0.8,0.9c0.2,0.2,0.4,0.4,0.7,0.7c0.3,0.3,0.6,0.6,0.9,0.8
			c0.2,0.2,0.5,0.4,0.7,0.6c0.3,0.3,0.6,0.5,0.9,0.8c0.2,0.2,0.5,0.4,0.7,0.6c0.3,0.2,0.6,0.5,1,0.7c0.2,0.2,0.5,0.3,0.7,0.5
			c0.3,0.2,0.7,0.4,1,0.6c0.3,0.2,0.5,0.3,0.8,0.5c0.3,0.2,0.7,0.4,1,0.6c0.2,0.1,0.5,0.3,0.8,0.4c0.4,0.2,0.7,0.4,1,0.5
			c0.2,0.1,0.5,0.2,0.7,0.3c0.4,0.2,0.7,0.3,1.1,0.5c0.2,0.1,0.5,0.2,0.7,0.3l0.1,0c0.4,0.1,0.8,0.3,1.1,0.4
			c0.2,0.1,0.4,0.1,0.7,0.2l0.1,0c0.4,0.1,0.8,0.2,1.1,0.4c0.2,0.1,0.4,0.1,0.7,0.2c0.4,0.1,0.8,0.2,1.2,0.3
			c0.2,0.1,0.4,0.1,0.6,0.1l0,0c0.4,0.1,0.8,0.2,1.3,0.2c0.2,0,0.4,0.1,0.6,0.1c0.4,0.1,0.9,0.1,1.3,0.2c0.1,0,0.3,0,0.4,0
			c1.5,0.2,2.9,0.2,4.3,0.2c1.3,0,2.6-0.1,3.9-0.2c0.1,0,0.2,0,0.3,0c0.4,0,0.9-0.1,1.3-0.2c0.1,0,0.3,0,0.4-0.1
			c0.5-0.1,0.9-0.1,1.3-0.2c0.2,0,0.3-0.1,0.4-0.1c0.4-0.1,0.9-0.2,1.3-0.3c0.2,0,0.3-0.1,0.4-0.1c0.4-0.1,0.8-0.2,1.3-0.3
			c0.1,0,0.3-0.1,0.4-0.1c0.4-0.1,0.8-0.3,1.2-0.4c0.1,0,0.3-0.1,0.4-0.1c0.4-0.1,0.8-0.3,1.2-0.4c0.1-0.1,0.3-0.1,0.4-0.2
			c0.4-0.2,0.8-0.3,1.2-0.5c0.1-0.1,0.3-0.1,0.4-0.2c0.4-0.2,0.8-0.4,1.2-0.6l0.4-0.2c0.4-0.2,0.8-0.4,1.2-0.6l0.3-0.2
			c0.4-0.2,0.8-0.5,1.2-0.7l0.3-0.2c0.4-0.3,0.8-0.5,1.2-0.8l0.3-0.2c0.4-0.3,0.8-0.6,1.2-0.9l0.2-0.2l-0.1,0c0.4-0.3,0.8-0.7,1.2-1
			l0.1-0.1l0.1-0.1c0.4-0.4,0.8-0.7,1.2-1.1l0,0l0,0l0.2-0.2l0,0c1.7-1.7,3.2-3.6,4.5-5.6c-0.9,14-0.9,28.2,0,42.6l0,0.5l0.1,0.5
			c0.2,1.3,3.9,32,9.9,65.4c11.5,63.5,20.7,79.5,28.3,86.8c9.3,8.9,23.4,14,38.8,14c17.1,0,30.6-6.5,36.1-17.5
			c3.7-7.5,8.4-22.2,5.7-64c-0.5-7.4-1.1-14.5-1.7-20.6c0.4,0,0.8,0,1.2,0c10.9,0,22-0.6,32.9-1.9c-0.8,6.1-1.6,13-2.2,20.1
			c-3,35.3,0.7,57.1,11.6,68.6c9.1,9.6,22.9,11.1,30.3,11.1c5.6,0,16.3-0.8,25.3-6.3c16.8-10.1,30-29.8,39.2-58.3
			c4.8-14.8,8.6-31.8,11.2-50.7c24.4-3.7,49.9-19.6,67.8-33.3c19.4-14.7,42.1-36.2,49.2-51.1c2.7-5.6,3.2-10.3,2.6-14.1
			c4.4-3.6,8.8-7.4,13-11.1c21.4-18.9,27.9-28.4,26.9-38.7c-0.2-1.9-0.6-3.6-1.3-5.3c23.3-17.6,25.5-24.9,26.6-28.5
			c1.7-5.6,0.9-11.5-2.3-16.2l-3.3-4.9l-5.6-1.8c-8-2.6-16-4-23.9-4.4c1.1-1.9,2.2-3.8,3.2-5.6c13.7-24.5,14.1-36,13.2-42.5
			c-0.9-6.7-4.2-12.4-9.3-16.1l-8.8-6.4l-9.5,5.3c-16.1,8.9-32.4,20.3-48.7,33.9c-3.6-5.5-9.4-8.8-16-8.8c0,0,0,0,0,0
			c-3,0-6,0.7-8.8,2.1l-0.4,0.2L716,672c-15.5,8.5-29.3,17.4-41.2,26.7c-7.8-8.9-16.5-16.9-26.1-24.1c0.6-0.2,1.3-0.5,1.9-0.7
			c0.7-0.3,1.4-0.5,2-0.8l0.5-0.2l0.2-0.1c0.7-0.3,1.5-0.6,2.2-0.9c0.8-0.4,1.7-0.7,2.5-1.1c0.8-0.3,1.5-0.7,2.2-1
			c0.8-0.4,1.7-0.8,2.5-1.1c0.7-0.3,1.4-0.7,2.1-1c0.8-0.4,1.7-0.8,2.5-1.2c0.5-0.3,1.1-0.5,1.6-0.8l0.4-0.2l0.5-0.2
			c0.7-0.4,1.4-0.7,2.1-1.1c0.4-0.2,0.7-0.4,1.1-0.6l0.4-0.2c1.8-1,3.6-2,5.3-3l0.5-0.3c0.4-0.2,0.8-0.5,1.2-0.7
			c0.8-0.5,1.6-1,2.3-1.4l0.2-0.1l0.3-0.2c0.5-0.3,1-0.6,1.4-0.9c0.8-0.5,1.7-1.1,2.5-1.6c0.6-0.4,1.1-0.8,1.7-1.1
			c0.8-0.6,1.6-1.1,2.5-1.7c0.5-0.4,1.1-0.8,1.6-1.1c0.8-0.6,1.7-1.2,2.5-1.8c0.3-0.2,0.7-0.5,1-0.8l0.4-0.3c3.1-2.3,6-4.8,8.9-7.3
			l0.2-0.2c0.2-0.2,0.4-0.4,0.7-0.6c0.8-0.7,1.6-1.5,2.5-2.3l0.3-0.3c0.3-0.3,0.6-0.6,0.9-0.9c0.8-0.7,1.6-1.5,2.3-2.3
			c0.4-0.4,0.8-0.8,1.2-1.2c0.8-0.8,1.5-1.6,2.3-2.3c0.3-0.3,0.6-0.7,1-1l0.2-0.2c0.7-0.8,1.5-1.6,2.3-2.5c0.2-0.2,0.4-0.4,0.6-0.7
			l0.2-0.3c2.8-3.1,5.5-6.4,8-9.7l0-0.1c0.1-0.1,0.2-0.3,0.3-0.4c0.8-1,1.5-2,2.2-3l0.2-0.3c0.2-0.3,0.4-0.5,0.6-0.8
			c0.6-0.9,1.3-1.9,2.1-2.9c0.3-0.4,0.6-0.8,0.8-1.2c0.7-1.1,1.4-2.1,2-3c0.2-0.3,0.4-0.6,0.6-0.9l0.2-0.3c0.6-0.9,1.3-2,2-3.2
			c0.1-0.2,0.2-0.3,0.3-0.5l0.1-0.2c2.4-3.9,4.6-8,6.8-12.1c0.1-0.1,0.1-0.2,0.1-0.3c0.7-1.3,1.4-2.7,1.9-3.7l0.1-0.3
			c0.1-0.2,0.2-0.5,0.4-0.7c0.5-1.1,1.1-2.3,1.7-3.6c0.2-0.4,0.4-0.8,0.5-1.2c0.6-1.3,1.1-2.5,1.6-3.7c0.1-0.3,0.2-0.5,0.3-0.8
			l0.1-0.3c0.7-1.5,1.2-2.8,1.7-4l0.1-0.3c2.4-6,4.7-12.4,6.8-19l0.1-0.3l0.2-0.7c0.4-1.3,0.8-2.7,1.3-4.3c0.1-0.4,0.2-0.8,0.4-1.2
			c0.4-1.5,0.9-3,1.2-4.4l0.2-0.7l0.1-0.3c0.5-1.8,0.9-3.3,1.2-4.7l0-0.1l0,0c0.6-2.3,1.2-4.7,1.8-7.3l0.1-0.4l0.1-0.2
			c1-4.2,1.9-8.6,2.7-13c0.1-0.5,0.2-0.9,0.3-1.4c0.3-1.4,0.5-2.7,0.7-4.1l0.1-0.6l0.1-0.3c0.4-2.4,0.8-4.9,1.2-7.5l0-0.2
			c0.1-0.7,0.2-1.5,0.3-2.2c0.2-1.1,0.3-2.3,0.5-3.4c0.1-1,0.3-2.1,0.4-3.2c0.2-1.3,0.3-2.6,0.5-3.9c0.2-1.6,0.4-3.2,0.6-4.8
			c0.1-0.9,0.2-1.7,0.3-2.6l0-0.1c0.2-1.4,0.3-2.9,0.5-4.3l0.1-0.7c0.1-0.5,0.1-1.1,0.2-1.6c0.2-2.2,0.4-4.4,0.6-6.5
			c0-0.4,0.1-0.7,0.1-1.1l0-0.6c0.1-1.8,0.3-3.6,0.4-5.4l0-0.1c0-0.6,0.1-1.3,0.1-1.9c0.2-2.7,0.3-4.9,0.4-7c0.1-2,0.2-4.1,0.3-6.5
			c0-0.5,0-1,0-1.5l0-0.5l0-0.8c0-0.5,0-0.9,0-1.4l0-0.5c0-0.6,0.1-1.4,0.1-2.4c0.1-2.1,0.3-5.2,0.4-9.1c0.3-7.1,0.8-18.6,1.1-32.4
			c0.6-24.3,1.1-60.9-0.2-97.2l0-0.3c-1.5-39.3-4.7-70.8-9.8-93.6c-3.3-14.8-7.3-26.1-12.2-34.6c-9.5-16.2-21.4-19.6-29.7-19.7l0,0
			L728.8,148.1L728.8,148.1L728.8,148.1C728.8,148.1,728.8,148.1,728.8,148.1L728.8,148.1z"/>
	</g>
</g>
<g id="Layer_6">
	<path fill="none" stroke="#4F4F4F" stroke-width="3" stroke-miterlimit="10" d="M558,717c0,0,6.5-25.4-5-54.2"/>
	<path fill="#2D2C2B" d="M297.2,413c0,0,26-245.2,74.8-245.5c13.4-0.1,98.3,71.9,98.3,71.9l-28.7,112.9L297.2,413z"/>
	<path fill="#707071" d="M495.1,671.9c0,0,9.4,16.7,15.2,36.1c0,0,14.8-27,35.4-35.6L495.1,671.9z"/>
	<path fill="#2D2C2B" d="M760.5,439.6c0,0,15.5-271.9-33.3-272.2c-13.4-0.1-121.6,66.4-121.6,66.4l18,107.8L760.5,439.6z"/>
	<g>
		<path fill="#9FACC6" d="M287.5,457.5c23.2-166.1,166.4-226.3,225.3-233.1c135.2-15.5,255.4,82.5,247.2,225.5
			c-9.4,165.9-81.3,227.7-227.9,227.7C386,677.7,267.7,599.4,287.5,457.5z"/>
	</g>
	<g>
		<path fill="#677CA0" d="M597.1,229.6c-52.4,28.3-88,83.9-88,147.9c0,92.7,60.4,182.9,166.9,167.8c26-3.7,51.1-6.1,73.2-17
			c5.6-23,9.3-49.1,10.9-78.4C766.5,337.7,693.9,253.3,597.1,229.6z"/>
	</g>
	
		<path fill="#BDACAC" stroke="#66311A" stroke-width="4" stroke-linecap="round" stroke-linejoin="round" stroke-miterlimit="10" d="
		M465.4,671.9"/>
	<path fill="none" stroke="#443818" stroke-width="4" stroke-linecap="round" stroke-linejoin="round" stroke-miterlimit="10" d="
		M498,888"/>
	<path fill="none" stroke="#443818" stroke-width="4" stroke-linecap="round" stroke-linejoin="round" stroke-miterlimit="10" d="
		M515.5,888"/>
	<path fill="none" stroke="#443818" stroke-width="4" stroke-linecap="round" stroke-linejoin="round" stroke-miterlimit="10" d="
		M519.7,709"/>
	<path fill="#E1DFD9" d="M405.6,912"/>
	<g>
		<path d="M598.3,361.5c0,0-27.4,16.7-34.7,24.6c1.4,1.4,3,6.1,6.5,4.3c3.5-1.8,31.1-23.6,34.3-26.9
			C603.1,362.4,598.3,361.5,598.3,361.5z"/>
		<path d="M588.1,350.4c-4.2,2.6-24.2,15.1-32.3,22.5c-1.1,1-1.1,2.7,0.1,3.5c0.6,0.4,2.7,4,4.4,3.1c2.9-1.5,22.9-18.8,31.4-25.1
			c1.6-1.2,1.1-3.6-0.8-4.1c-0.4-0.1-0.8-0.2-1.2-0.3C589.3,350,588.7,350.1,588.1,350.4z"/>
	</g>
	<g>
		<path d="M444.3,362.3c0,0,31.3,18.1,39.8,26.8c-1.6,1.6-3.3,7-7.2,5.1c-4-1.9-35.6-25.8-39.3-29.4
			C438.9,363.6,444.3,362.3,444.3,362.3z"/>
		<path d="M455.5,349.4c4.9,2.8,27.6,16.4,37,24.5c1.2,1.1,1.3,3.1,0,4c-0.7,0.5-3,4.7-4.9,3.7c-3.4-1.6-26.3-20.6-36-27.4
			c-1.8-1.3-1.4-4.1,0.8-4.7c0.5-0.1,0.9-0.3,1.3-0.4C454.2,349,454.9,349.1,455.5,349.4z"/>
	</g>
	<path d="M332.6,564.1c0,0,0.8,31.9-40.3,63c-41.2,31.1-91.9,87.4-94.3,126.9l28.7,21.7c0,0,32.8-69.9,93.3-117.3
		c60.5-47.4,43.7-87.7,43.7-87.7L332.6,564.1z"/>
	<path d="M352.2,522.9c0,0-13.7,28.9-64.5,38c-50.8,9.1-121.5,36.5-141.4,70.6l15.8,32.4c0,0,60.8-47.6,136.2-62.5
		c75.4-14.9,78.6-58.5,78.6-58.5L352.2,522.9z"/>
	<g>
		<path fill="#FFFFFF" d="M331.4,444.2c0,42.3,29.5,77.6,71.8,77.6c64.6,0,76.6-31.7,76.6-74c0-31.4-29.8-74-80.9-74
			C364.8,373.8,331.4,401.9,331.4,444.2z"/>
		<path fill="#2D2C2B" stroke="#2D2C2B" stroke-miterlimit="10" d="M360.3,445.6c0,25.1,17,46.1,41.4,46.1
			c37.3,0,49.1-17.7,49.1-42.8c0-18.6-15.4-45.1-51.6-45.1C379.6,403.8,360.3,420.5,360.3,445.6z"/>
	</g>
	<g>
		<path fill="#FFFFFF" d="M640.1,522c42.3,0,77.6-29.5,77.6-71.8c0-64.6-31.7-76.6-74-76.6c-31.4,0-74,29.8-74,80.9
			C569.7,488.6,597.8,522,640.1,522z"/>
		<path fill="#2D2C2B" stroke="#2D2C2B" stroke-miterlimit="10" d="M641.6,493.1c25.1,0,46.1-17,46.1-41.4
			c0-37.3-17.7-49.1-42.8-49.1c-18.6,0-45.1,15.4-45.1,51.6C599.8,473.8,616.5,493.1,641.6,493.1z"/>
	</g>
	<path fill="#9FACC6" d="M591.1,877.3c0,0-14.4-87.3,34.7-134.5c12.5,2.4,18.8,14.8,11.7,35.2c0,0,1.5-43.1,85-88.7
		c9.9-4.8,4,40.2-55.1,95.5c0,0,55.9-82.3,129.4-123.1c15.6,11.4-42.5,92.4-68,110.5c0,0,31.8-58,89.5-39.4
		c4,5.9-42.1,38.7-55.6,43.5c0,0,18.9-7.7,28.7-2.8c9.8,4.9-56.9,56.5-77.9,71.6c0,0,18.4-18,38.7-20.5
		c7.4,9.2-77.4,91.3-121.9,79.8C585.8,892.8,591.1,877.3,591.1,877.3z"/>
	<path fill="#677CA0" d="M603.7,856.3c0,0-18-61.3,31.2-79.2c13.9-1.7,1.2,33.2,1.2,33.2s14.3-53,51.8-62.8
		c37.5-9.8-33.8,63.7-33.8,63.7s42.6-52.6,62-42.7c19.4,9.9-57.7,68.1-57.7,68.1s29.3-40.3,62.7-24c7.8,15.5-43.6,38.9-43.6,38.9
		s-5.8-18.5,28.5,5.4c6.3,11-74.5,30.6-88.5,15C603.7,856.3,603.7,856.3,603.7,856.3z"/>
	<g>
		<path fill="#2D2C2B" d="M760.1,434.2c-29.3-40.9-129.3-101.3-250.9-101.3c-92.6,0-159.9,25.6-211.6,80.4l-1.4,1.5l0.6-2
			c19.1-67,54.7-117.6,105.6-150.4c40.4-26.1,82.4-35.4,110.5-38.6c10.2-1.2,20.6-1.8,30.9-1.8c30.7,0,60.1,5.1,87.2,15.2
			c28.6,10.6,53.3,26.2,73.4,46.4C741.5,321,761.1,373,761,433.9l0,1.5L760.1,434.2z"/>
		<g>
			<path fill="#2D2C2B" d="M543.7,222.6c109.8,0,217.2,67.3,216.8,211.3c-27.7-38.7-126-101.5-251.3-101.5
				c-107.8,0-169.5,35.5-211.9,80.6c44.2-154.6,164.9-182.8,215.7-188.6C523.1,223.2,533.4,222.6,543.7,222.6 M543.7,221.6
				c-10.3,0-20.7,0.6-30.9,1.8c-28.2,3.2-70.2,12.5-110.7,38.6c-51,32.9-86.6,83.6-105.8,150.7l-1.1,4l2.8-3
				c23.8-25.3,50.3-43.9,81.1-57c37-15.7,79.5-23.3,130.1-23.3c70.2,0,126.7,19.7,161.8,36.2c30.7,14.4,70.1,39.1,88.7,64.9l1.8,2.5
				l0-3.1c0.1-31.7-5.1-60.9-15.3-86.9c-9.5-24.2-23.5-45.6-41.5-63.7c-20.2-20.2-44.9-35.8-73.5-46.5
				C603.8,226.8,574.4,221.6,543.7,221.6L543.7,221.6z"/>
		</g>
	</g>
	<path fill="none" stroke="#2D2C2B" stroke-width="6" stroke-linecap="round" stroke-miterlimit="10" d="M498.7,524.9
		c0,0,22.9-58,43.3,0"/>
	<path fill="#9FACC6" d="M336,778c-18.8,60.2,26.2,59.1,33.4,42.9c2.7-6.1,5-12.6,7.3-19.3L336,778z"/>
	<g>
		<path fill="#2D2C2B" d="M518.6,653.6c0,0,128.3-4.9,170.9,108c26.1,69-22.9,68.6-30.4,51.6c-18.7-42.4-17.6-104-145.3-127.4
			L518.6,653.6z"/>
		<path fill="#9FACC6" d="M692.6,770.3c18.8,60.2-26.2,59.1-33.4,42.9c-2.7-6.1-5-12.6-7.3-19.3L692.6,770.3z"/>
	</g>
	<g>
		<path fill="#2D2C2B" d="M377.5,804.2c17.3-35.4,8.6-86.5,136.4-109.9l-4.7-32.1c0,0-128.3-4.9-170.9,108c-1.1,3-2.1,5.9-3,8.7
			l39.6,24.2L377.5,804.2z"/>
	</g>
	<path d="M304.5,357.8c0,0,128.3-96.9,458.3,6.1l-0.8-64.9c0,0-222.8-101.2-444.8-12.7L304.5,357.8z"/>
	<g>
		<path fill="#2D2C2B" d="M596.8,673c-19.7,3.3-41.2,4.9-64.7,4.9c-22.1,0-43.6-1.8-64.1-5.4c-17.3,17.3-75.6,84.1-68.1,200.3
			c0,0,15,124.6,33.1,142c13.2,12.8,42.7,11.6,47.9,1.2c10.6-21.2,0-94.9,0-94.9c24.2,2,50.5,0.3,73.9-4.5c0,0-16,79.4,1.1,97.5
			c7,7.4,25.7,7.2,34.4,1.9c44-26.7,46.2-139.5,46.2-139.5c2.8-35-0.5-75.8-7.3-115.8C624.1,729.7,604.4,692,596.8,673z"/>
	</g>
	<polygon fill="#707071" points="475,662.4 513.9,732.7 530.7,741.4 560,725.6 589.1,661.3 	"/>
	<path fill="none" stroke="#4F4F4F" stroke-width="3" stroke-miterlimit="10" d="M520,672.1c0,0-5.5,25.7,7.1,54"/>
	<path fill="none" stroke="#4F4F4F" stroke-width="3" stroke-miterlimit="10" d="M558,717c0,0,6.5-25.4-5-54.2"/>
	<path fill="none" stroke="#4F4F4F" stroke-width="3" stroke-miterlimit="10" d="M504.9,707.4c0,0,25.4,6.5,54.2-5"/>
	<path fill="none" stroke="#4F4F4F" stroke-width="3" stroke-miterlimit="10" d="M490.1,690.4c0,0,36.1,6.9,76.6-4.1"/>
	<path fill="none" stroke="#4F4F4F" stroke-width="3" stroke-miterlimit="10" d="M539.4,730.9c0,0,6.6-29.9-4.6-63.7"/>
	<path fill="none" stroke="#4F4F4F" stroke-width="3" stroke-miterlimit="10" d="M502,662.4c0,0-5.5,25.7,7.1,54"/>
	<path fill="#E1AF25" stroke="#E1AF25" stroke-miterlimit="10" d="M612.7,655.1c0,0-8,21-62.7,110.3l-23.3-27.3c0,0,49.3-52,54-83
		H612.7z"/>
	<g>
		<path fill="#FEDA3F" d="M636.3,819.9c-54.7-19.9-100.1-48-135.1-83.7c-29.9-30.5-45.6-59.8-53.5-79l-0.1-0.3l0.2-0.2
			c0.6-0.7,1.3-1.4,1.8-2l0.2-0.2l0.3,0c6.9,1.2,16.1,4.2,25,7.3l0.1,0l8.5,7.7l0,0.1c35.9,65.3,117.1,107.6,150.4,122.8l0.3,0.1
			l0,0.3c0.8,7.1,1.5,14.1,2.1,20.7l0.5,6.5L636.3,819.9z"/>
		<g>
			<path fill="#FED940" d="M450,655.1c6.7,1.2,15.4,4,24.9,7.3l8.4,7.6c36.1,65.7,118.3,108.3,150.6,123c0.8,6.9,1.5,13.9,2.1,20.7
				l0.4,5.7C511.8,774.1,464.3,696.2,448.2,657C448.9,656.3,449.5,655.6,450,655.1 M449.7,654l-0.4,0.4c-0.6,0.6-1.2,1.3-1.9,2
				l-0.4,0.5l0.2,0.6c7.9,19.3,23.6,48.7,53.6,79.2c35,35.7,80.5,63.9,135.2,83.8l1.5,0.5l-0.1-1.5l-0.4-5.7
				c-0.5-6.6-1.2-13.6-2.1-20.8l-0.1-0.6l-0.5-0.2c-99.7-45.5-138.2-100.9-150.2-122.6l-0.1-0.1l-0.1-0.1l-8.4-7.6l-0.2-0.1
				l-0.2-0.1c-8.9-3.1-18.2-6.2-25.1-7.4L449.7,654L449.7,654z"/>
		</g>
	</g>
	<g>
		<path fill="#2D2C2B" d="M285.4,489.6c1,121.6,112.1,188.1,246.8,188.1c125.5,0,196.2-45.3,219.9-162.4
			C512.3,605.3,321,509.5,285.4,489.6z"/>
	</g>
	<g>
		<path fill="#FEDA3F" d="M637.8,857.1c-119.5-2-201.9-6.2-238.4-12l-0.4-0.1l0-0.4c0.2-8.6,0.8-17.2,1.8-25.6l0.1-0.5l0.5,0.1
			c6,0.7,13,1.9,21.1,3.4c25,4.5,62.8,11.3,124.4,11.3c0,0,0,0,0,0c27.8,0,58.2-1.4,90.4-4.2l0.5,0l0,0.5c0.8,11.2,1,20.3,0.6,27.1
			l0,0.5L637.8,857.1z"/>
		<g>
			<path fill="#FED940" d="M401.3,819.1c24.3,2.8,63.8,14.7,145.6,14.7c25.7,0,55.6-1.2,90.4-4.2c0.6,8.4,1.1,18.7,0.6,27
				c-44.5-0.8-184.4-3.4-238.3-12C399.7,835.8,400.3,827.3,401.3,819.1 M400.4,818l-0.1,1c-1,8.4-1.5,17-1.8,25.6l0,0.9l0.9,0.1
				c36.5,5.8,119,10,238.5,12l1,0l0.1-1c0.4-6.8,0.2-15.9-0.6-27.1l-0.1-1l-1,0.1c-32.2,2.8-62.6,4.2-90.3,4.2
				c-61.6,0-99.4-6.8-124.4-11.3c-8.1-1.5-15.1-2.7-21.1-3.4L400.4,818L400.4,818z"/>
		</g>
	</g>
	<g>
		<path fill="#E1AF25" d="M502,840c-44.9,0-79.1-4.4-101.6-12.9l-0.4-0.1l0-0.4c0.7-8.3,1.8-16.8,3.3-25l0.1-0.5l0.5,0.1
			c17.2,4.3,64.1,14.4,128.6,14.4c0,0,0,0,0,0c34.3,0,69-2.8,103-8.4l0.5-0.1l0,0.5c0.7,7.5,1.2,14.9,1.6,22.1l0,0.5l-0.5,0.1
			C620.5,832.4,561.1,840,502,840C502,840,502,840,502,840z"/>
		<g>
			<path fill="#E1AF25" d="M403.9,801.6c17.8,4.5,64.5,14.4,128.8,14.4c30.7,0,65.5-2.3,103-8.4c0.7,7.4,1.2,14.8,1.6,22.1
				c-15.1,2.1-75.5,9.8-135.2,9.8c-38,0-75.8-3.1-101.4-12.9C401.3,817.9,402.5,809.6,403.9,801.6 M403.1,800.4l-0.2,1.1
				c-1.5,8.2-2.6,16.7-3.3,25l-0.1,0.8l0.7,0.3c22.6,8.6,56.8,13,101.8,13c59.2,0,118.6-7.5,135.4-9.8l0.9-0.1l0-0.9
				c-0.3-7.2-0.9-14.6-1.6-22.1l-0.1-1.1l-1.1,0.2c-34,5.6-68.6,8.4-102.9,8.4c-64.5,0-111.4-10-128.5-14.3L403.1,800.4L403.1,800.4
				z"/>
		</g>
	</g>
	<circle fill="#FFFFFF" stroke="#E1AF25" stroke-width="4" stroke-miterlimit="10" cx="460.8" cy="759.3" r="29.3"/>
	<path fill="#2D2C2B" d="M437.6,751.5c0,0,2.2,4.4,6.1,2.9c2.5-0.6,5.2,1,5.9,2.2c0.7,1.2,4.1,2.5,7.8,1.2c3.7-1.2,6.5-1,7.5-0.8
		c0,0,2.5-1.5,1.5-4c0,0-2.1,1.3-2.8,1.9c-0.7,0.6-3.2,1.4-3.2,1.4l-2.9,0.6c0,0-1,0-2.3-0.3c0,0,1.5,0.1,2.6-0.4
		c1.1-0.5,3.6-2.1,4.5-2c0,0,3.1-1.7,3.8-2.4c0,0-1.9,1.1-2.7,0.7c-0.8,0.4-0.8,0.9-1,1.1c-0.2,0.3-1.1,0.3-1.6-0.3
		c0,0-0.5,0.2-0.7-0.3c-0.2-0.4-1.3-0.3-1.3-0.3s1.2,0,1.3-0.5c0-0.5,0.7-1.1,1.2-1.2c0.5-0.1,1.9-0.3,1.9-1
		c0.1-0.6,0.8-1.6,2.1-1.4c1.3,0.1,3.2-0.9,3.5-1.5c0.3-0.6,2.4-0.6,2.8,0c0.4,0.6,0.6,1.4,1.1,1.6c0,0,0.7,1.1-0.5,1.7l-0.9,0.1
		l-0.3,1.1c0,0,1,0.7,2.5-0.1c1.4-0.7,4.7-2.1,5.6-3.1c0.9-1,2.8-1.4,2.8-1.4s-0.1,0.3,0.6-0.3c0.7-0.6,1.5-0.3,1.5-0.3l-0.5,0.9
		l-1.7,0.4c0,0-1.2,1-1.5,1.3c-0.3,0.3-3.5,2.3-4.1,2.6c-0.6,0.3-1.8,0.5-2,1.1c-0.2,0.5-1.3,1.1-1.7,1.1c-0.4,0-1.9,4.4-4.2,5.5
		c-1.4,2.6-4,3.9-4.7,4c-0.7,0.1-5.3,1.2-11-2.2c-4.7-3.9-3.8-2.8-4.9-3.5c-1.2-0.6-3,0.6-4.3,2.4c-0.9,1.2-1.4,2.6-1.2,3.2
		c0,0-2.5-2.9-0.6-5.8C441.7,757.3,437.6,756.5,437.6,751.5z"/>
	<text transform="matrix(1 0 0 1 437.5536 772.8151)" fill="#2D2C2B" font-family="'HelveticaNeue'" font-size="7">N O R F O L K</text>
	<rect x="490.7" y="245.7" fill="#FEDA3F" width="79" height="79"/>
	<text transform="matrix(1 0 0 1 522.9126 317.6652)" font-family="'HelveticaNeue'" font-size="37.4424">JS</text>
</g>
<g id="Layer_2" display="none">
	<line display="inline" fill="none" stroke="#000000" stroke-miterlimit="10" x1="2275.5" y1="183.2" x2="2275.5" y2="782.2"/>
	<line display="inline" fill="none" stroke="#000000" stroke-miterlimit="10" x1="1775.5" y1="-316.8" x2="2775.5" y2="683.2"/>
	<line display="inline" fill="none" stroke="#000000" stroke-miterlimit="10" x1="2775.5" y1="-316.8" x2="1668.4" y2="790.3"/>
	<line display="inline" fill="none" stroke="#000000" stroke-miterlimit="10" x1="2275.5" y1="183.2" x2="2775.5" y2="183.2"/>
	<line display="inline" fill="none" stroke="#000000" stroke-miterlimit="10" x1="2275.5" y1="183.2" x2="1635.7" y2="183.2"/>
	<line display="inline" fill="none" stroke="#000000" stroke-miterlimit="10" x1="2275.5" y1="-316.8" x2="2275.5" y2="183.2"/>
</g>
</svg>
