<?xml version="1.0" encoding="UTF-8"?>
<svg width="1200px" height="1200px" viewBox="0 0 1200 1200" version="1.1" xmlns="http://www.w3.org/2000/svg" xmlns:xlink="http://www.w3.org/1999/xlink">
    <!-- Generator: Sketch 51 (57462) - http://www.bohemiancoding.com/sketch -->
    <title>logo@1x</title>
    <desc>Created with Sketch.</desc>
    <defs></defs>
    <g id="logo" stroke="none" stroke-width="1" fill="none" fill-rule="evenodd">
        <polygon id="Fill-1" fill="#ABDFF2" points="0 1199.85743 1199.21584 1199.85743 1199.21584 1.18336634 0 1.18336634"></polygon>
        <path d="M314.910891,1002.00475 L406.562376,946.538614 C424.24396,977.888317 440.328713,1004.41188 478.909307,1004.41188 C515.890693,1004.41188 539.206337,989.945347 539.206337,933.67604 L539.206337,551.006733 L651.752079,551.006733 L651.752079,935.277624 C651.752079,1051.84634 583.423366,1104.90535 483.733069,1104.90535 C393.699802,1104.90535 341.439208,1058.27644 314.910891,1002.00475" id="Fill-3" fill="#FFFFFF"></path>
        <path d="M712.859406,989.945347 L804.49901,936.886337 C828.622574,976.28198 859.974653,1005.22218 915.443168,1005.22218 C962.076832,1005.22218 991.813069,981.906535 991.813069,949.748911 C991.813069,911.161188 961.266535,897.493069 909.813861,874.990099 L881.68396,862.923564 C800.483168,828.361188 746.618614,784.949703 746.618614,693.30297 C746.618614,608.891881 810.931485,544.574257 911.42495,544.574257 C982.973465,544.574257 1034.42376,569.498614 1071.4004,634.61703 L983.771881,690.888713 C964.476832,656.32396 943.580198,642.658218 911.42495,642.658218 C878.464158,642.658218 857.560396,663.559604 857.560396,690.888713 C857.560396,724.65505 878.464158,738.323168 926.694653,759.226931 L954.829307,771.28396 C1050.49663,812.285941 1104.36119,854.086337 1104.36119,948.140198 C1104.36119,1049.43921 1024.77386,1104.90535 917.85505,1104.90535 C813.345743,1104.90535 745.815446,1055.06614 712.859406,989.945347" id="Fill-4" fill="#FFFFFF"></path>
        <polygon id="Path-2" fill="#FF1F00" points="281.86749 -201.980198 204.883029 80.1693163 -85.5445545 3.59976324 131.906576 213.721099 -85.5445545 427.029352 204.883029 342.974038 281.86749 632.079208 358.834339 342.974038 637.995438 421.056365 432.410072 213.721099 637.995438 3.59976324 358.834339 80.1693163"></polygon>
    </g>
</svg>