<svg xmlns="http://www.w3.org/2000/svg" version="1.1" viewBox="0 0 630 630">
<!--
The MIT License (MIT)

Copyright (c) 2011 Christopher Williams <chris@iterativedesigns.com>,
                     Manuel Strehl <boldewyn@gmail.com>

Permission is hereby granted, free of charge, to any person obtaining a copy
of this software and associated documentation files (the "Software"), to deal
in the Software without restriction, including without limitation the rights
to use, copy, modify, merge, publish, distribute, sublicense, and/or sell
copies of the Software, and to permit persons to whom the Software is
furnished to do so, subject to the following conditions:

The above copyright notice and this permission notice shall be included in
all copies or substantial portions of the Software.

THE SOFTWARE IS PROVIDED "AS IS", WITHOUT WARRANTY OF ANY KIND, EXPRESS OR
IMPLIED, INCLUDING BUT NOT LIMITED TO THE WARRANTIES OF MERCHANTABILITY,
FITNESS FOR A PARTICULAR PURPOSE AND NONINFRINGEMENT. IN NO EVENT SHALL THE
AUTHORS OR COPYRIGHT HOLDERS BE LIABLE FOR ANY CLAIM, DAMAGES OR OTHER
LIABILITY, WHETHER IN AN ACTION OF CONTRACT, TORT OR OTHERWISE, ARISING FROM,
OUT OF OR IN CONNECTION WITH THE SOFTWARE OR THE USE OR OTHER DEALINGS IN
THE SOFTWARE.
-->
<g id="logo">
  <rect id="background" x="0" y="0" width="630" height="630" fill="#f3df49" />
  <path fill="#2e2e2c" id="iceland"
     d="m 258.08256,608.28015 c 0,0 23.05428,-2.97474 42.39013,5.94949 19.33585,8.92426 22.31058,10.41162 22.31058,10.41162 0,0 14.13005,4.46213 36.44063,-4.46213 22.31061,-8.92423 23.79799,-5.2058 35.69692,-23.05427 11.89894,-17.84846 18.59216,-22.31058 39.41543,-23.05426 20.82323,-0.74369 21.56692,0 27.51645,-3.71843 5.94952,-3.71843 34.95335,-46.85224 51.31443,-52.05805 16.36108,-5.2058 39.41538,-5.2058 42.39014,-9.66793 2.97476,-4.46213 8.18048,-17.84848 16.36108,-20.07954 8.1806,-2.23105 8.92429,2.23106 10.41155,-12.64265 1.48738,-14.87373 11.89906,-22.3106 11.89906,-22.3106 0,0 -6.69322,-4.4621 -9.66799,-7.43686 -2.97476,-2.97474 -7.43678,-10.41161 -7.43678,-10.41161 0,0 4.46202,1.48738 9.66786,6.69318 5.20583,5.2058 2.23107,5.2058 7.43691,4.46213 5.20583,-0.7437 12.64262,-1.48739 11.89893,-5.9495 -0.74369,-4.46212 -0.74369,-6.69318 4.46214,-9.66792 5.20584,-2.97475 -0.74369,-2.23106 -0.74369,-2.23106 l -3.71845,-1.48737 c 0,0 11.89906,1.48737 11.89906,-2.23106 0,-3.71843 -13.5711,-8.16928 -13.5711,-8.16928 0,0 16.69621,2.7608 16.69621,-1.31467 0,-4.07546 -2.23491,-0.92027 -4.46983,-2.49786 -2.23503,-1.5776 -6.17901,-5.12719 -9.72854,-6.44185 -3.54965,-1.31467 -15.64451,-1.84054 -5.1272,-6.17893 10.51732,-4.33838 10.12287,7.09919 16.95913,6.44185 6.83626,-0.65733 8.54533,-8.80824 8.80825,-9.3341 0.26292,-0.52588 -0.39432,-0.13148 0.65737,-0.92027 1.0517,-0.7888 -1.05169,-10.64878 -1.05169,-10.64878 0,0 -2.49796,6.17891 -4.20703,5.25866 -1.70906,-0.92027 -1.18309,-10.38586 -1.18309,-10.38586 0,0 -11.83206,-0.78879 -18.40539,0.3944 -6.57334,1.18321 14.85573,-1.84052 15.90743,-3.54959 1.05182,-1.70905 4.33842,-5.12718 3.02381,-7.23065 -1.31475,-2.10346 -1.31475,-3.28666 -5.52165,-3.41813 -4.2069,-0.13146 -10.51731,0.13147 -10.51731,0.13147 0,0 7.36211,-2.36639 7.75655,-3.68106 0.39433,-1.31467 -5.25872,-2.7608 -1.70906,-4.20692 3.54953,-1.44613 4.60135,-3.28666 5.12719,-9.20265 0.52585,-5.91599 0.1314,-5.78453 1.0517,-7.49358 0.92029,-1.70907 0.65737,-2.10347 -1.31462,-3.68107 -1.97199,-1.57759 -2.36644,-4.99572 -4.86427,-3.68105 -2.49784,1.31465 -4.9958,0.52587 -6.96779,-3.41813 -1.97198,-3.94399 1.18322,-5.39012 -5.12719,-4.73279 -6.31029,0.65733 -10.38579,0.65733 -18.27375,-5.52159 -7.88795,-6.17892 -6.04749,-7.88798 -5.52164,-11.17464 0.52585,-3.28667 1.05169,-4.3384 -0.39432,-4.46986 -1.44615,-0.13147 -6.57334,3.54959 -9.59715,3.94399 -3.02368,0.3944 -4.99567,0.92027 -9.07117,3.15519 -4.07538,2.23493 -8.93965,4.20693 -5.65304,-1.18319 3.28673,-5.39013 -3.02369,-5.65305 1.05169,-10.12292 4.0755,-4.46986 8.54533,-9.59704 7.62516,-14.98717 -0.9203,-5.39012 -4.46995,-15.77596 -7.09919,-14.19837 -2.62936,1.57759 -3.9441,6.57332 -8.151,4.73279 -4.2069,-1.84053 -3.02368,-1.05174 -6.04737,-1.1832 -3.0238,-0.13146 -3.28673,-0.78879 -3.41813,-3.54959 -0.13152,-2.7608 1.0517,-3.15519 -1.84059,-3.54959 -2.89228,-0.3944 -8.93964,-0.3944 -0.39444,-5.78453 8.54532,-5.39012 8.151,-8.41384 8.151,-9.59705 0,-1.18319 -5.78457,-6.17891 -2.36644,-9.20264 3.41813,-3.02374 5.52165,-2.62933 9.99147,-5.78452 4.46983,-3.15519 12.62083,-7.0992 9.2027,-7.23066 -3.41813,-0.13146 -8.54533,1.18319 -10.78024,0.3944 -2.23504,-0.7888 -3.41813,-1.84053 -8.80837,2.49786 -5.39012,4.3384 -0.65725,5.78453 -6.44182,9.99145 -5.78444,4.20693 -13.14667,4.07546 -13.14667,4.07546 0,0 2.49796,13.67251 -0.78877,12.62077 -3.28661,-1.05173 -8.01948,-6.83624 -11.30609,-6.83624 -3.2866,0 -6.17889,0 -6.31041,-1.44613 -0.1314,-1.44615 0.78877,-3.02374 -0.52585,-3.28667 -1.31462,-0.26293 -4.2069,1.31467 -1.18322,-6.04745 3.02381,-7.36213 2.62936,-8.41386 -0.1314,-11.30611 -2.76088,-2.89226 -11.04316,-3.41814 -11.04316,-3.41814 0,0 0.78877,-11.04317 -4.0755,-12.22636 -4.86427,-1.18321 -4.99579,-3.54961 -11.04316,0.65732 -6.04761,4.20692 -3.28673,3.944 -7.09931,3.15519 -3.81258,-0.78879 -3.94398,-3.02372 -7.62503,-1.57759 -3.68105,1.44613 -3.02381,1.44613 -3.02381,3.02372 0,1.57761 2.76076,6.31039 2.76076,9.20266 0,2.89226 0.26305,6.04745 1.57767,10.25438 1.31462,4.20693 5.52164,11.43757 0.52585,17.09063 -4.99568,5.65305 -15.77591,10.91171 -19.58849,10.78025 -3.81258,-0.13146 -4.60135,-9.72852 -10.78029,-8.80825 -6.17889,0.92027 -7.62503,-2.7608 -10.64884,7.88798 -3.02368,10.64879 -1.84046,3.81253 -2.23491,6.17892 -0.39432,2.3664 -2.10339,13.80398 -10.38579,13.54104 -8.2824,-0.26292 -8.01948,-3.15519 -10.12299,-8.28238 -2.10339,-5.12719 -8.67673,-10.51731 -14.32977,-11.70051 -5.65304,-1.1832 -14.98714,-4.46986 -16.43328,-1.5776 -1.44614,2.89226 -0.52585,14.46131 0.65737,18.14237 1.18309,3.68106 4.60122,6.17892 4.60122,11.43757 0,5.25866 2.62936,4.46987 2.23504,3.28666 -0.39445,-1.18319 0.92017,-1.84053 1.57754,0.26294 0.65737,2.10346 3.54953,6.31038 3.68106,15.64451 0.1314,9.3341 1.05169,14.4613 0.26292,14.8557 -0.78877,0.3944 -5.52152,-11.43759 -6.44181,-16.56477 -0.9203,-5.1272 -1.0517,-7.49359 -3.94398,-9.33412 -2.89228,-1.84053 -0.7889,-7.09919 -6.04749,-9.46558 -5.25872,-2.36639 -8.4138,-3.1552 -8.4138,-3.1552 0,0 0.78877,-16.69623 -4.33843,-19.32555 -5.12719,-2.62933 0.52585,-1.05173 -3.0238,-4.07546 -3.54953,-3.02374 -5.39006,0.92027 -5.39006,0.92027 0,0 1.5776,-3.94401 -0.65734,-5.25866 -2.23492,-1.31467 -2.49786,-2.7608 -4.99572,1.57759 -2.49786,4.33839 -2.89226,4.33839 -2.89226,4.33839 0,0 0.92026,-6.57332 -1.1832,-6.17892 -2.10346,0.3944 -6.31039,4.33839 -7.09919,6.04746 -0.78879,1.70906 -0.26293,7.75651 -5.91599,7.88798 -5.65305,0.13147 -12.22637,-0.26293 -12.4893,6.17892 -0.26294,6.44185 1.97199,4.20693 -1.31467,6.57333 -3.28666,2.36638 -3.68105,0 -1.05173,6.31039 2.62933,6.31038 3.94399,5.91597 4.7328,13.14663 0.78879,7.23066 -0.92027,10.51732 -4.20693,10.64878 -3.28667,0.13147 -3.54959,-2.89226 -4.3384,-1.84053 -0.78879,1.05173 -5.39012,2.3664 -6.17891,-0.3944 -0.7888,-2.76079 -2.23494,-12.88371 -4.7328,-14.59277 -2.49786,-1.70906 -5.39012,-0.65733 -6.57331,-3.1552 -1.18321,-2.49786 -4.86426,-10.64878 -6.83626,-15.77596 -1.97199,-5.12719 -4.07546,-14.32984 -9.59705,-13.27811 -5.52159,1.05173 -12.88371,1.97199 -13.54104,10.12292 -0.65733,8.15091 6.83626,22.48076 6.70479,34.70712 -0.13147,12.22638 1.5776,20.11436 -10.38585,22.08636 -11.96344,1.97199 -7.23066,-2.23492 -8.28239,-6.17892 -1.05171,-3.94399 -0.92025,-8.01945 -10.25437,2.3664 -9.33411,10.38584 -9.59705,16.95916 -8.93971,21.82342 0.65733,4.86426 2.89226,13.80397 1.70906,13.93543 -1.1832,0.13148 -5.78453,-13.54103 -6.57332,-13.14663 -0.7888,0.39439 -1.44613,-1.44613 -1.44613,2.49786 0,3.94399 0,25.37301 -1.18319,25.50449 -1.18321,0.13146 -2.7608,-0.78881 -4.60133,-11.43759 -1.84054,-10.64877 -2.49787,-16.95916 -4.3384,-18.14237 -1.84052,-1.18319 -1.57759,-1.97199 -4.60132,-0.3944 -3.02372,1.57761 -3.41813,0.92027 0.26293,-3.81251 3.68106,-4.7328 5.39012,-13.01518 2.49787,-14.06691 -2.89226,-1.05173 -6.44186,3.02372 -6.44186,3.02372 0,0 6.24466,-6.17891 0.92026,-7.49358 -5.32438,-1.31466 -12.02917,-0.5916 -13.2781,-8.34811 -1.24893,-7.75652 2.89226,-1.84053 6.11319,-0.46014 3.22092,1.38041 7.29639,1.5776 9.20265,-1.57759 1.90626,-3.15519 3.61532,-4.7328 -0.85453,-6.90199 -4.46986,-2.1692 -0.65734,-0.65733 1.44613,-2.23493 2.10346,-1.57759 5.25865,-4.60133 5.98171,-9.59705 0.72307,-4.99572 2.30066,-8.08518 -1.77479,-10.12291 -4.07546,-2.03773 -3.02373,-0.26293 -5.65305,-1.84053 -2.62934,-1.57759 -0.72307,-1.972 -4.1412,-1.64333 -3.41812,0.32866 0.32867,-1.24893 4.79853,-2.23492 4.46985,-0.98601 6.31039,-0.98601 3.41812,-4.79854 -2.89226,-3.81251 -3.41812,0.46014 -5.58732,-0.1972 -2.1692,-0.65732 -5.58732,-2.30066 -3.35239,-3.61531 2.23492,-1.31467 1.90626,-3.1552 -0.26294,-4.46987 -2.1692,-1.31466 -3.94399,-0.52587 -4.20692,2.30067 -0.26294,2.82652 -0.72306,4.33838 -1.3804,4.07546 -0.65733,-0.26294 1.64333,-4.1412 -1.05173,-3.944 -2.69506,0.1972 -3.22093,-0.85454 -2.89226,-2.23493 0.32866,-1.38039 0.26293,-4.99572 -0.46013,-5.39012 -0.72307,-0.39439 0,-1.11746 0.46013,-2.10346 0.46013,-0.98601 0.32866,-4.40412 -2.56359,-6.17893 -2.89226,-1.77479 -3.81253,-1.11746 -6.17893,-3.74679 -2.36639,-2.62933 -4.20693,-0.32866 -4.20693,-0.32866 0,0 3.28667,-3.15519 2.30067,-4.7328 -0.986,-1.57759 -2.36639,-2.43212 -4.33839,-2.62932 -1.972,-0.1972 -2.49786,-2.82653 -3.1552,-1.24893 -0.65733,1.57759 -3.48385,3.74679 -3.35239,1.64333 0.13146,-2.10346 0.7888,-2.82653 -1.57759,-1.90626 -2.3664,0.92025 -1.18321,-2.43214 -0.78881,-5.45586 0.3944,-3.02373 1.38041,-3.35239 -0.72306,-3.74679 -2.10346,-0.3944 -1.11747,-0.78881 -1.05173,-1.70907 0.0658,-0.92027 -1.90626,-2.1692 -2.1692,-3.22093 -0.26293,-1.05173 -0.65733,-0.65733 -1.90626,-1.57759 -1.24893,-0.92027 -0.52586,-2.95799 -1.90627,-3.68107 -1.38039,-0.72305 -3.48385,-3.87825 -4.20692,-1.24893 -0.72307,2.62934 -3.02373,-2.36639 -4.46986,-3.28665 -1.44613,-0.92027 -3.68106,-3.87827 -4.33839,-0.5916 -0.65733,3.28666 -1.44613,2.30066 -2.3664,3.54959 -0.92026,1.24893 -2.43212,0.5916 -4.99572,-2.10346 -2.5636,-2.69506 -6.96772,-6.50759 -8.15091,-4.00973 -1.1832,2.49786 -1.1832,2.958 -5.25866,3.3524 -4.07546,0.39439 -6.50759,-0.1972 -4.46986,3.41813 2.03774,3.61531 3.41813,5.98171 1.70906,6.83625 -1.70906,0.85453 -3.74679,0 -5.12718,-0.32866 -1.3804,-0.32868 -3.7468,0.46012 -0.0658,3.28665 3.68105,2.82652 6.11318,4.20693 8.93971,3.81253 2.82653,-0.3944 9.13691,-6.50759 9.46558,-5.85025 0.32866,0.65733 -3.28665,3.87825 -1.18319,4.46984 2.10346,0.59161 2.82652,0.3944 3.87825,-0.39439 1.05173,-0.7888 3.81253,-2.43213 3.35239,0.59159 -0.46013,3.02374 -0.5916,3.5496 2.958,3.81253 3.54959,0.26294 6.24465,-1.84053 6.24465,-0.72306 0,1.11746 -3.68106,3.81253 -2.7608,4.14119 0.92027,0.32866 7.36212,-0.65733 6.17893,0.26294 -1.18319,0.92026 -4.20693,1.84052 -4.7328,2.49786 -0.52586,0.65733 -1.64333,2.82652 -1.97199,1.77479 -0.32867,-1.05173 -9.72851,-4.99572 -12.94943,-4.66705 -3.22093,0.32866 -4.93,2.03773 -6.50759,2.23492 -1.5776,0.1972 -4.27266,2.3664 -1.972,5.3244 2.30066,2.95798 7.23066,7.36211 12.16064,9.39985 4.92999,2.03772 0.7888,3.54959 3.41813,3.02372 2.62932,-0.52586 1.77479,1.11746 3.35239,2.03773 1.57759,0.92026 3.68106,2.69506 5.58732,2.62933 1.90626,-0.0658 4.20693,-0.65734 1.84053,1.11746 -2.36639,1.77479 -2.43213,5.58732 -1.05173,5.98172 1.3804,0.3944 5.06145,11.43758 3.944,14.98718 -1.11747,3.54959 -5.58733,12.8837 -4.3384,7.62505 1.24893,-5.25865 1.972,-12.94945 -1.1832,-12.55505 -3.15519,0.3944 -5.39011,4.7328 -5.06145,1.90626 0.32866,-2.82652 -3.94399,-16.36756 -7.82226,-14.92144 -3.87825,1.44613 -3.87825,13.54105 -4.27265,10.2544 -0.39439,-3.28667 -0.39439,-7.03346 -3.61533,-2.958 -3.22093,4.07545 1.64333,-3.41813 -0.13146,-5.1272 -1.7748,-1.70906 -4.00972,-0.72307 -5.25865,0.32867 -1.24894,1.05173 1.05173,-2.43213 0.65732,-4.73279 -0.3944,-2.30066 -0.0658,-7.03345 -3.87826,-5.06146 -3.81252,1.972 -1.38039,-1.57759 -4.33838,-5.52159 -2.958,-3.94399 -8.74253,-10.05718 -13.869711,-9.20265 -5.1272,0.85453 -10.05718,2.10346 -8.47959,5.39013 1.5776,3.28666 10.12292,3.28666 1.70906,2.36639 -8.41385,-0.92026 -6.90198,2.7608 -4.33838,5.91599 2.56358,3.15519 12.8837,10.58305 6.77051,8.15092 -6.11318,-2.43213 -15.11864,-9.20265 -16.69623,-4.99573 -1.57761,4.20693 -0.5916,10.12292 10.78025,20.3773 11.37183,10.25438 2.43212,3.54959 -1.44614,3.68105 -3.87826,0.13148 -6.44185,-6.37611 -10.05718,-6.11317 -3.61532,0.26292 -6.17892,-0.1972 -3.22092,7.88798 2.95799,8.08517 5.58732,10.58305 12.8837,12.22638 7.29639,1.64332 17.813701,-0.26294 18.076631,1.51186 0.26294,1.77479 0,2.49786 -7.296381,3.41812 -7.29638,0.92027 -8.08519,-0.3944 -7.75652,2.23494 0.32866,2.62932 5.65306,4.86424 5.39012,6.24465 -0.26293,1.38039 0.0658,4.73278 -2.03772,4.66706 -2.10347,-0.0658 -3.3524,-2.30066 -4.20693,-0.98601 -0.85453,1.31467 -1.38039,1.51187 -2.82653,-2.82652 -1.44612,-4.3384 -3.28666,-6.57332 -7.16491,-8.54531 -3.87827,-1.972 -16.69624,-13.54105 -18.7997,-12.42358 -2.10346,1.11746 -3.02373,3.28666 -1.44614,8.15091 1.57761,4.86426 3.41813,8.28238 7.03346,10.64878 3.61533,2.3664 5.71879,4.40413 4.40413,4.66706 -1.31467,0.26294 -10.51732,-4.99572 -11.17465,-3.41813 -0.65733,1.5776 8.08519,11.30611 7.03346,12.09492 -1.05173,0.78879 -3.41813,0.92026 -9.72852,-4.40413 -6.31039,-5.32439 -6.44185,-7.55931 -10.51731,-6.31038 -4.07546,1.24893 -1.97199,7.69078 -4.40413,9.13691 -2.43212,1.44613 -3.41813,0.72307 -4.73278,2.69506 -1.31467,1.97198 -3.94401,4.27265 -3.1552,4.73278 0.7888,0.46014 12.55504,-0.32866 15.97317,0.7888 3.41812,1.11746 12.35784,3.7468 13.01518,5.12719 0.65732,1.38039 -0.39441,5.52159 1.44613,6.44185 1.84052,0.92027 9.5313,1.64333 11.10891,0.46014 1.57759,-1.1832 3.02372,-4.53559 7.55932,-5.25866 4.53558,-0.72306 8.28237,-1.77479 9.26838,-2.69506 0.98599,-0.92027 0.85452,-1.64333 5.45586,-0.0658 4.60132,1.5776 6.639051,1.1832 7.099181,0.13147 0.46012,-1.05173 -0.1972,-12.62077 2.36639,-9.99144 2.5636,2.62932 6.57332,5.39012 7.95373,4.73279 1.38039,-0.65734 2.76078,-7.23065 4.27265,-6.31039 1.51186,0.92027 0.98599,3.54959 2.03772,3.02372 1.05174,-0.52586 3.81253,-3.41812 4.60134,-1.77479 0.7888,1.64333 -0.13147,6.83625 2.23492,5.45585 2.3664,-1.3804 4.99572,-0.39439 6.57333,1.3804 1.57759,1.7748 7.62504,-5.58732 8.01944,-2.89226 0.39439,2.69506 -0.0658,7.49358 1.972,6.77052 2.03772,-0.72307 7.75652,-3.28666 6.77052,-0.98599 -0.986,2.30066 -3.35239,2.23492 -2.1692,4.53558 1.1832,2.30066 6.70479,7.16492 8.01946,6.96772 1.31466,-0.19719 1.38039,-0.32867 1.38039,-0.32867 0,0 4.1412,-10.45158 7.42785,-8.93971 3.28666,1.51187 5.85026,1.64333 6.37613,5.52159 0.52586,3.87826 -2.7608,1.64333 1.18319,2.82653 3.94399,1.18319 9.66279,-0.32867 9.07119,1.84052 -0.5916,2.1692 -1.84053,1.18321 -6.57333,3.1552 -4.73278,1.972 -5.98171,1.51186 -7.23064,3.28667 -1.24893,1.77478 -6.04747,3.48385 -8.41385,5.25865 -2.3664,1.77479 -5.19294,4.00972 -8.61107,4.46985 -3.41811,0.46014 -4.79852,5.45586 -7.09918,6.83626 -2.30066,1.38039 -4.92998,4.92999 -5.32438,6.17892 -0.3944,1.24893 -2.1692,4.07546 0.0658,4.99572 2.23492,0.92027 3.74679,-0.92026 7.23064,1.1832 3.48387,2.10347 11.89771,6.37612 18.07664,5.78452 6.17892,-0.5916 11.56904,-6.77051 11.70051,-7.75652 0.13147,-0.98599 2.62933,-5.52158 5.06145,-2.49786 2.43214,3.02373 0.26294,5.71879 -0.32866,8.21665 -0.59159,2.49787 -3.08947,7.62506 -2.69506,11.24038 0.3944,3.61533 0,2.69507 -0.7888,2.62933 -0.7888,-0.0658 -16.17037,0.52586 -20.5745,-1.31467 -4.40412,-1.84052 -6.44185,-3.74679 -9.79424,-3.48385 -3.35239,0.26292 -12.6865,1.24893 -13.21237,3.02372 -0.52586,1.7748 -1.05173,4.1412 -2.7608,3.35239 -1.70906,-0.78879 -2.82652,-4.79852 -6.90198,-3.54959 -4.07545,1.24893 -6.96773,3.54959 -8.93971,2.958 -1.97201,-0.5916 -1.77481,-1.97199 -4.07547,-0.85454 -2.30066,1.11747 -2.10346,0.65734 -2.3664,2.30067 -0.26292,1.64332 2.49786,5.39013 0.98601,4.40412 -1.51187,-0.98599 -1.64333,-2.62932 -2.958,-2.16919 -1.31466,0.46013 -1.44613,1.51186 -1.90626,2.76079 -0.46014,1.24894 -0.46014,-0.13146 -0.26294,-2.23493 0.1972,-2.10346 0.986,-6.90198 -1.05173,-5.71879 -2.037721,1.18321 -4.272661,-1.31465 -5.653051,3.944 -1.3804,5.25866 0.46013,6.31039 -0.65734,6.04746 -1.11745,-0.26294 -2.30066,-2.5636 -4.20692,-3.7468 -1.90627,-1.1832 -8.41385,-1.64334 -9.72851,-0.26293 -1.31467,1.38039 -5.32439,5.25866 -8.93972,5.06146 -3.61533,-0.1972 -5.98172,-0.3944 -8.47958,-3.3524 -2.49786,-2.95799 -8.15093,1.70907 -8.67679,2.43213 -0.52587,0.72307 0.0658,1.5776 -1.70906,1.84052 -1.77479,0.26294 -4.27266,-0.78879 -2.10347,5.1272 2.1692,5.91599 3.81253,13.40957 10.64878,14.8557 6.83626,1.44613 8.15093,-1.57759 10.91171,-4.53558 2.7608,-2.958 3.94401,-3.81253 7.55932,-2.49787 3.61533,1.31466 4.7328,0.46013 6.24467,-1.05173 1.51185,-1.51186 3.28665,-1.44613 14.658501,0.986 11.37185,2.43212 18.93117,2.49786 20.83742,3.81253 1.90626,1.31466 5.98173,3.02372 7.55932,2.03772 1.5776,-0.98599 5.52159,-2.95799 7.55931,-2.1692 2.03774,0.78881 1.84054,2.7608 1.38041,3.87827 -0.46014,1.11747 0.39439,4.79852 2.10346,5.65305 1.70907,0.85453 0.32866,3.35239 -0.5916,4.73279 -0.92027,1.3804 -5.52159,1.44614 -0.52587,6.57332 4.99572,5.1272 1.972,8.74251 2.03773,9.79425 0.0658,1.05173 -0.92026,4.60133 1.5776,1.44614 2.49786,-3.1552 4.73279,4.00971 5.52159,7.09918 0.7888,3.08945 2.10347,5.58731 5.25866,3.61532 3.15518,-1.972 2.36639,-5.45585 5.58732,-6.70479 3.22093,-1.24893 4.92998,-1.18319 7.95372,-3.61532 3.02373,-2.43213 7.75651,-4.46986 5.85025,0.13147 -1.90626,4.60132 -6.50759,3.94399 -8.08518,6.37612 -1.5776,2.43211 -5.58733,6.5733 -6.24466,10.38583 -0.65734,3.81253 -1.11746,4.14119 0,5.45586 1.11747,1.31466 4.66706,-1.31467 1.90626,1.64332 -2.7608,2.958 -6.44185,5.78453 -4.73278,7.23066 1.70906,1.44613 3.87825,2.69506 7.55931,1.77479 3.68106,-0.92025 7.95372,-5.85025 9.99145,-6.96771 2.03772,-1.11747 3.08945,-5.52159 12.09491,-3.81253 9.00545,1.70907 7.69079,1.1832 5.06145,2.43213 -2.62932,1.24893 -1.90625,1.44613 -5.85025,1.1832 -3.94399,-0.26293 -4.53559,1.24893 -5.39012,2.03773 -0.85453,0.78879 -1.1832,1.84053 -4.40413,2.69506 -3.22093,0.85453 -9.07118,9.46559 -9.07118,10.12293 0,0.65733 -0.92026,1.44613 2.95799,3.41812 3.87827,1.972 5.85026,6.44186 3.22093,7.55931 -2.62933,1.11747 -9.99145,1.57761 -9.99145,2.69508 0,1.11745 1.24893,4.66705 -0.3944,4.73278 -1.64333,0.0658 -3.02372,-0.78879 -3.68105,2.1692 -0.65734,2.958 1.44613,3.74679 -2.5636,4.60133 -4.00973,0.85453 -7.55932,3.87825 -9.59704,3.54959 -2.03773,-0.32868 -5.19292,-1.972 -9.07119,1.90626 -3.87825,3.87825 -5.91599,3.22092 -6.57332,2.89226 -0.65733,-0.32866 -2.43212,0.7888 -4.53559,-5.19292 -2.10346,-5.98173 -5.85025,-9.66278 -7.36212,-7.88799 -1.51186,1.7748 -1.77479,4.1412 -2.10346,8.28239 -0.32866,4.14119 -3.02373,5.39012 -0.5916,6.57332 2.43213,1.1832 2.7608,2.10347 1.24893,4.79852 -1.51186,2.69506 -2.82653,3.48386 -2.36639,5.25866 0.46013,1.77479 0.92027,2.69506 0.26293,4.99572 -0.65733,2.30067 -2.82653,4.07546 1.44613,4.73279 4.27266,0.65733 11.43758,-0.986 13.34384,-1.51187 1.90626,-0.52586 5.78452,-4.14119 12.22637,-2.10345 6.44186,2.03773 8.80825,1.1832 10.64878,1.24893 1.84054,0.0658 10.25439,0 11.63478,-0.78881 1.38039,-0.78879 4.46986,-3.68105 6.31039,-1.24893 1.84053,2.43214 3.08946,5.5216 8.67679,4.79853 5.58732,-0.72306 4.73278,-1.31466 8.93971,-1.70906 4.20692,-0.39441 3.48385,-1.51186 4.86426,-2.69507 1.38039,-1.18319 2.89226,-2.49786 9.33411,-0.3944 6.44186,2.10347 5.32439,2.82654 8.67678,4.14121 3.3524,1.31465 22.21783,16.43329 22.21783,16.43329 z" />
  <path fill="#f3df49"
     id="j"
     d="m 165.65,526.47375 48.2125,-29.1775 C 223.16375,513.7875 231.625,527.74 251.92,527.74 c 19.45375,0 31.71875,-7.60975 31.71875,-37.21 l 0,-201.3 59.20375,0 0,202.1375 c 0,61.32 -35.94375,89.23125 -88.385,89.23125 -47.36125,0 -74.8525,-24.52875 -88.8075,-54.13" />
  <path fill="#f3df49"
     id="s"
     d="m 375,520.13 48.20625,-27.91125 c 12.69,20.72375 29.1825,35.9475 58.36125,35.9475 24.53125,0 40.17375,-12.26475 40.17375,-29.18125 0,-20.29875 -16.06875,-27.48875 -43.135,-39.32625 l -14.7975,-6.3475 c -42.715,-18.18125 -71.05,-41.0175 -71.05,-89.2275 0,-44.40375 33.83125,-78.2375 86.695,-78.2375 37.6375,0 64.7025,13.11125 84.15375,47.36625 l -46.09625,29.60125 c -10.15,-18.1825 -21.1425,-25.37125 -38.0575,-25.37125 -17.33875,0 -28.335,10.995 -28.335,25.37125 0,17.7625 10.99625,24.9525 36.3675,35.94875 l 14.8,6.3425 c 50.325,21.56875 78.66,43.5575 78.66,93.03375 0,53.2875 -41.86625,82.465 -98.11,82.465 -54.97625,0 -90.5,-26.2175 -107.83625,-60.47375" />
</g>
</svg>
