<svg xmlns="http://www.w3.org/2000/svg" version="1.2" width="1000" height="463.906" viewBox="-34366 -16378 10000 4639.0635"><path d="m-33306-16378l284 15 705 37 919 47 189 9 153 8 312 16 66 3 77 4 153 7 526 26 100 4 58 3 26 1 516 22 153 6 213 9 68 2 266 11 30 2 652 25 471 24 159 8 153 7 463 25h7l306 8 164 7 340 17 175 6 445 17 434 16 14 1 711 23 955 30h20l2299 46v40l618 25 414 13 2436 67 670 22 289 9 1731 54 615 18 3667 63 3889 54 643 2 2269 4 1594-6v-10l1619 6 2829-4 42-1 940-12 2283-4 3138-48 1453-13 1193-14 122-2 195-5h35l20 38 37 68 10 16 41 71 46 80 22 44 26 45 36 70 18 34 14 22 35 86 21 24 34 36 5 6 28 26 8 9 27 16 39 25 10 5 41 21 10 2 56 10 11 1 25 3 36-1 51 10 41 8 41 7 35 22 32 16 36 15 29 13 51 32 36 28 31 30 24 31 12 15 40 62 77 61 56 25 42 18 81 30 82 30 118 36v8l247 92 17 6 135 35 23 3 56 9 18 3 27 11 42 15 22 12 73 44 68 42 18 13 92 66 23 14 34 17 53 23 8 4 57 25 66 24 47 14 9 2 36 9 6 1 40 1 21-2 50-5 26-4 31-5 21 2-17-29 165 220 125 70 155 158 221 153 93 154 179 69 182 16 175-36 18-10 156-36 119-46 98-44 63-41 52-53 80-63 42-48 163-237 28-70 44-75 30-106 5-68 23-35v-38l-11-32 4-44 36-31 118-63 142-37 77-7 23 3 65 50 67 68 164 188 34 22 49 12 66 5 58-12 59-21 48-41 47-53 71-85 55-78 36-10h48l64 16 43 21 75 55 29 32 9 40 18 49 32 46 56 54 35 19 32 5 42 1 38-12 52-32 32-38 56-89 22-35 76-124 36-28 51-27 79-12 53 7 17 11 10 29 6 41-4 58 7 41 17 33 22 19 32 11 41 2 58-5 168-26 167-31 30-20 66-58 54-61 27-19 230-74 55-16 27-2 19 5 13 27v65l4 42 12 14 61-3 29 6 27 25 30 43 32 14 53 6 49-11 87-60 33-49 55-57 55-35 47-19 51 1 54 12 114-5 4-1 44-20 21-35 10-28 15-9 100-17 73 9 90 30 67 18 84-12 10 5 47 33 35 8 36-1 5 2 97 88 183 32 152-41 246 94 19 34 5 170 67 207 80 41 233 20 110 30 6 1 60 18 6 3 42 19 8 6 26 23 14 33 15 25 12 94 9 35 6 25 26 15 32 8 31 7 44 11 42 13 46 15 24 3 28 6 66 15 18 5 108 14 79 8 18-1 33-2 51-7 46-7 51-8 82-5 33 3 13 3 46-2 51 10 26 5h40l26-10 15-5 31 4 39-10 32 4 41 4 19 3 76 40 35 33 7 7 29 44 22 33 7 34 9 21-4 34-3 21-13 37-4 6-8 58-5 35 1 10 50 36 19 11 77 3 40-15 28-23 51-63 16-13 26-18 32-15 41-21 6-1 30 2 117 4 23 1 29 7 76 19 52 12 21 4 34 11 62 20 57 18 45 33 28 12 96 74 66 35 10 3 46 6 41 7 41 21 36 42 35 53 1 11 4 48v7l1 46 3 22v13l6 52 5 39 34 25 7 6 39 28 40 28 51 10 49 12h18l46 1 43 2 8-2 147-29 23-4 14-3 50-10 14-2h63l18 2h13l31 1 36 1h30l31 9 36 15 36 10 47 16 10 9 11 19 60 90-4 8-61 114-16 29-19 21-26 30-6 8-24 37-26 40-15 27-3 13-17 95-7 37 34 44 63 81 11 10 85 67 31 31 12 7 66 41 44 29 23 17 44 32 28 22 40 32 60 47 70 70 12 10 18 16 31 26 33 29 19 16 20 34 4 7 18 32 19 34 2 10 9 40 6 44 4 26-2 20-8 45-10 32-7 18-2 13 1 13 2 31 49 49 8 5 48 26 38 22 32-3 17-1 24-9 40-16 29-19 17-11 57-49 5-4 45-28 47-29 10-6 24-8 32-10 24-8 32-7 10-2 77 10 19 6 42 13 36 30 40 35 45 68 10 19 21 31 36 54 31 45 19 22 22 23 38 40 31 15 33 16 8 1h79l20-7 48-17 29-11 7-4 39-22 59-21 56-21 14 1 126-22 112-13 94 19 68 17 69 39 45 57 30 70 23 88 3 129-5 91-8 70-26 62-32 45-43 52-18 18-126 161-1 183 76 201-65 126-15 122 90 158 216 122 79 76 3 15 18 32 13 85 32 184 89 139 34 28 122 67 72 99 27 120-2 86 56 83-112 167-171 34-3 7-2 31 7 30 13 34 23 44 27 69 5 30-2 26 1 20 2 30-3 25 2 46v25l11 40 13 34 5 8 9 36 61 80 123 65 68 63 25 67 24 53 62 69 160 36 82 40 12 23 58 53 26 130-21 125-59 131-10 133 15 110 34 92 12 31 7 13 20 35 102 46 160-37 43 28 17 6 62 40 8 34 18 29-3 35-6 20-45 67-78 55-25 103 3 30 41 52 100 13 74-141 76-31 113 3 37 25 18 8 5 12 3 48 4 42 1 38v36l18 46 18 34 26 20 28 22 28 3h36l36-10 41-5 41-1 44 12 38 3 41 27 41 49 6 38-11 57-18 37-23 39-10 41-4 39-3 35 13 40 14 54 17 43 15 36v45l-10 46-20 35-26 25-29 27-32 14-33 11-18 14-15 21 2 28 3 35 28 39 29 39 45 57 16 38 11 46 3 45 19 49 30 59 28 27 12 11 47 31 51 29 45 25 43 27 20 23 15 36 16 50 1 39-7 51-6 62 7 45 20 34 17 29 23 28 38 29 38 32 23 14 30 7 37 13 36 4 32 11 24 19 42 47 15 44v60l-10 61-26 61-72 120-54 100-41 73-36 61-27 55-12 47-2 49 6 51 25 35 39 27 28 13 62 21 41 19 29 26 32 34 15 49 3 45-8 31-19 22-31 10-46 10-45-2-50 9-43-1-41-5-28 9-35 23-29 29-4 24-7 31-5 76 6 20 9 45 29 43 39 43 44 52 49 43 36 57 20 49 11 55-4 66-17 51-15 50-19 44-28 33-39 60-24 56-22 50 5 40 16 40 25 41 48 46 40 24 88 48 80 39 32 38 20 50 8 24-14 27-14 16-31 19-23 20-27 43-26 28-16 40-7 41-7 51v40l20 55 21 44 52 77 34 38 43 32 40 15h46l24 8 5 2 48 15 36 5 35-5 71-11 27-25 25-34 22-47 3-31 2-51 14-54 15-44 48-34 66-9 42 12 54 44 35 45 27 65 28 63 18 53 16 61-10 50-15 40-31 31-40 32-37 24-36 32-25 18-18 26-18 35-5 30 16 51 15 30 30 23 37 22 56 20 57 5 49 9 42 12 42 13 43 27 34 18 46 27 52 1 39-18 30-17 43-4h56l36 5 30 12 37 23 24 38 34 43 24 50-7 45-13 37-26 24-31 30-23 37-17 44-7 54 13 40 15 64 10 64-5 30-20 41-19 35-12 41-10 35v36l21 39 32 54 23 43 27 44 1 51-13 41-13 24-35 41-37 27-35 23-38 33-34 18-15 16-10 30 5 40 16 45 20 29 48 32 19 20 69 54 69 36 83 20 53 6 51-4 50-9 52 7 44 13 8 5 33 21 47 45 25 45 15 40 7 101-15 77-27 47-63 50-158 87-18 3-16-10-9-91 14-56 33-68 2-46-20-32-36-15h-77l-66 31-21 56 6 95 31 121 36 136 9 38 17 33 15 35 26 35 24 47 25 49 8 45 5 65-8 41-27 55-46 76-36 61-18 40-1 46-1 60 23 39 38 48h7l37 16 39 18 56-1 60-2 76-11 59-3 35-3 16-2h82l51-6 67 20 51 35 25 38 16 28 11 45-16 35-25 26-37 16-40 4-32-14-40-16-44-5h-5l-16-7-19 17-29 27-10 39-5 23-10 38v54l9 55 30 58 23 44 24 44 40 52 19 45 7 34 4 46-7 51 10 70 10 60 13 44 15 58 5 40-10 51-20 35-29 51-32 35-25 30-38 38-14 33-2 29 27 74 51 51 3 2 108 100 26 62v87l-38 76-41 118 10 48 26 45 23 21 4 9 31 23 34 23 42 17 58 21 50 19 25 22 32 38 15 39 19 49 2 48v46l-10 50-20 40-17 47-14 50-5 60-5 45 10 73 16 63 47 96 45 56 47 44 46 45 40 43 12 33v101l-15 65-31 41-24 27-37 23-53 8-45 19-40 14-24 21-17 40-10 35-10 46 12 42 14 33 31 51 32 57-1 46 16 90-11 48-27 60-7 46-1 41 10 55 22 49 13 39 30 54 23 44 9 39 1 22-30 98-46 62-225 136-89 103-51 166 24 127 35 79 205 95 62 60 92 274 178 103 229 41 174 162 40 79 33 204 156 129 25 60-35 128-98 79-67 85-5 56 105 212 2 59-43 134 24 55 56 36 95 21 98-2 89-20 40-17 70 7 37 37 13 23 93-81 11-318 59-43 128-29 88 138 55 34 35 93-21 161-47 73-313 150 29 54 20 51 3 56-4 94-2 86 26 55 130 91 60 36 64 69 36 49 23 48 21 54 6 43-1 49-9 37-33 103 24 79 142 237 36 227 125 144 44 131-19 73-38 39-197 102-31 79 7 55 50 41 55 9 230-100 64-8 100 42 147 107 170 17 79 65 22 55-37 171 1 44 10 32 23 24 79 36 184 87 277-11 114 62 55 89 17 72-5 116-90 189 7 94 32 77 166 171 154 56 77 67 23 176 44 69 62 44 64 7 39-3 43 6 46 21 25 27 22 33 11 40 6 48-3 39-12 37-30 31-45 41-20 22-21 37-10 41 3 42 14 52 10 36-4 42-14 37-28 38-32 33-14 37-13 52 15 74 15 55 29 69 39 58 73 58 65 23 51 9 71-3 82-34 70-27 124 17 115 106 186 65 45 59 19 77-271 7-850 42-97 7-809 31-2055 103-1820 87-87 4-1946 85-1925 66-31 1-2897 116-953 33-707 22-2840 81-297 7-21 1-3813 104-32 1-926 26-545 16-304 6-2101 34-1956 37-1666 29-249 5-2312 41-576 5-962 8h-171l-711 5-2930 15h-13l-3143 5-1561-1h-138l-4192-28-465-5-145-1-24-1-2057-25-2548-41-200-3-401-7-353-8-1149-18-667-11-1327-23-704-15-1599-37 84-3836 23-1006 62-2868 13-565 65-2805-4794-145-280-10-2787-88-122-5-3238-121-1596-65-4019-164 14-243 199-4121 88-1893 69-1466 1-31 155-3304 3-49 45-949 279-5827 169-3559 37-754z" transform="matrix(.134 0 0 .134 -29727.874 -14149.422)" fill="#f0db4f" stroke="#000" stroke-linejoin="round"/><text x="-27659.449" y="-14359.148" transform="matrix(1.02 -.021 .022 .98 0 0)" style="line-height:125%" font-size="1894.41" letter-spacing="0" word-spacing="0" font-family="Sans"><tspan x="-27659.449" y="-14359.148" style="line-height:125%;-inkscape-font-specification:Arial Bold" font-size="2008.074" font-weight="bold" font-family="Arial">NE</tspan></text><text x="-28003.85" y="-12478.192" transform="rotate(-1.037)" style="line-height:125%" font-size="408.421" letter-spacing="0" word-spacing="0" font-family="Sans"><tspan x="-28003.85" y="-12478.192" style="-inkscape-font-specification:Arial Bold" font-size="2164.633" font-weight="bold" font-family="Arial">JS</tspan></text><text x="-25222.848" y="-13169.698" transform="rotate(-2)" style="line-height:125%" font-size="400" letter-spacing="0" word-spacing="0" font-family="Sans"><tspan x="-25222.848" y="-13169.698" style="-inkscape-font-specification:Arial Bold" font-size="1400" font-weight="bold" font-family="Arial">;</tspan></text></svg>