<?xml version="1.0" encoding="utf-8"?>
<!DOCTYPE svg PUBLIC "-//W3C//DTD SVG 1.1//EN" "http://www.w3.org/Graphics/SVG/1.1/DTD/svg11.dtd">
<svg version="1.1" xmlns="http://www.w3.org/2000/svg" xmlns:xlink="http://www.w3.org/1999/xlink" x="0px" y="0px"
	 viewBox="0 0 300 300" enable-background="new 0 0 300 300" xml:space="preserve">
<g id="Compiled">
	<path id="Eagle" fill="#343432" d="M247,100.1c0,0,6.3,4.4,15.3,3.5c10.6-1,24.2-8.5,25.3-26.7c0,0-13.2,20.6-37,8
		c0,0,6.4,1.4,15-2.2c7-2.9,17.3-12.3,15.5-28.3c0,0-8.1,19.7-30.7,15.4c0,0,23.7-5.5,20.6-31.2c0,0-5.2,16.5-23.9,17.8
		c0,0,16.7-10,13-28.3c0,0-3.2,13.2-18,17.9c0,0,10.7-9.4,6.5-24.9c0,0-1.2,12-11.8,18.4c0,0,5-11.9-4.3-24.5c0,0,5.6,17.7-12,29.8
		c-17.5,12-22.2,11.1-21.8,17.1c0.3,3.9,4.2,5.8,6.4,5.8l9.6,0c0,0,2.7,0,2.6,2.7c-0.1,1.3-2.3,4-2.3,4c-8,9-17.2,8.2-17.2,8.2
		s-17.3,0.3-21.5-17.2c0,0-2.7-7.6,3.2-12.7c3.4-3,6.8-3,6.8-3s0.3-0.3,9.5,0.8c1,0.1,7.4,1.4,9.2-2c0.6-1.2,1-3.7-0.6-5.2
		c0,0-3.2,3.4-7.2,2.4c-4.7-1.2-6.2-4.8-6.1-8l11.1,3.1c0,0,20.5,6.9,20.5-5.9c0-3.4-3-6.8-7.1-6.8c-4.2,0-4,2.7-4,2.7s3.4-0.4,4,3
		c0.9,5.5-7.2,5-12.5,4.4c-5.3-0.6-11.3-3.2-11.3-3.2s2.2-5.2,8.1-4.4c1.5,0.2,4.8,1.8,5.8,4.4c0,0,2.8-1.1,3.7-4.3
		c0.7-2.6,0.1-5.5-2.5-7.5c0,0-3-2.4-7.2-0.7c0,0-2.9,1.6-6.6-2.6c-2.2-2.4-6-4.5-12.3-1.8c-6.4,2.6-11.8,0-11.8,0s-2.8-1.4,0.1,4
		s-10.6,32.6-19.7,32.6h0c-9.1,0-22.6-27.2-19.7-32.6s0.1-4,0.1-4s-5.5,2.6-11.8,0c-6.4-2.6-10.1-0.6-12.3,1.8
		c-3.7,4.2-6.6,2.6-6.6,2.6c-4.2-1.7-7.2,0.7-7.2,0.7c-2.6,2-3.3,4.8-2.5,7.5c0.9,3.2,3.7,4.3,3.7,4.3c1-2.6,4.2-4.2,5.8-4.4
		c5.9-0.8,8.1,4.4,8.1,4.4s-6,2.6-11.3,3.2c-5.3,0.6-13.4,1-12.5-4.4c0.6-3.4,4-3,4-3s0.1-2.7-4-2.7c-4.1,0-7.1,3.4-7.1,6.8
		c0,12.8,20.5,5.9,20.5,5.9l11.1-3.1c0.1,3.2-1.4,6.8-6.1,8c-4,1-7.2-2.4-7.2-2.4c-1.7,1.5-1.3,4-0.6,5.2c1.8,3.4,8.2,2.2,9.2,2
		c9.1-1.2,9.5-0.8,9.5-0.8s3.4,0.1,6.8,3c5.8,5.1,3.2,12.7,3.2,12.7c-4.2,17.5-21.5,17.2-21.5,17.2s-9.2,0.9-17.2-8.2
		c0,0-2.3-2.7-2.3-4c-0.1-2.7,2.6-2.7,2.6-2.7l9.6,0c2.2,0.1,6.1-1.9,6.4-5.8c0.4-6-4.3-5.1-21.8-17.1c-17.6-12-12-29.8-12-29.8
		c-9.2,12.6-4.3,24.5-4.3,24.5C50.8,33,49.6,21,49.6,21c-4.2,15.5,6.5,24.9,6.5,24.9c-14.8-4.6-18-17.9-18-17.9
		c-3.7,18.4,13,28.3,13,28.3c-18.8-1.3-23.9-17.8-23.9-17.8c-3.1,25.7,20.6,31.2,20.6,31.2C25.1,74.1,17,54.4,17,54.4
		c-1.8,16.1,8.6,25.4,15.5,28.3c8.6,3.6,15,2.2,15,2.2c-23.8,12.6-37-8-37-8c1,18.3,14.7,25.7,25.3,26.7c9,0.9,15.3-3.5,15.3-3.5
		c-16.3,21.8-37.2,7.9-37.2,7.9c5,12.3,13.7,16.3,18.1,17.6c18,5.2,28.9-8.8,28.9-8.8c-9.8,22.3-31.8,16.5-31.8,16.5
		c13.1,14.2,29.9,9.5,37.1,3.5c5.5-4.6,7.3-8.8,7.3-8.8c-4.1,19.3-22,21.7-22,21.7c13,6.7,26.1,1.7,32.1-4.3
		c4.4-4.4,6.2-9.3,6.2-9.3c1.3,12.5-6.4,20.3-6.4,20.3c10.6-3.1,14.4-7.2,18.3-14.7c1.7-3.2,8.2-4.8,10.9,0.5
		c2.6,5.3-2.1,20.2-14.4,20.4c-10.1,0.2-13.8,3-14.2,8.5c-0.5,6.2,7.7,6.9,7.7,6.9c-2.5-2.4-1.7-7.1,2.1-8.3c4-1.3,8.8,3.6,5.1,8.2
		c-3.8,4.6-11.6,11.4-18.9,11.4c-2.2,0-2.9-0.4-4-1.1c-2.7-1.8-2.4-5.3-2.4-5.3s2.7-2.7,2.7-5.3c0-5.5-2.7-7.2-2.7-7.2
		c-0.2-2.8-1.7-4.6-3.6-5.5c-2.9-1.4-5.6,0.2-5.6,0.2c3.5,1.4,2.8,4.5,2.8,4.5c-5.3,4.6-1.2,12-1.2,12c-3.3-0.3-3.9-2.4-4.7-8.6
		c-0.7-5.5-5.9-4-5.9-4c-2.9-2.8-6.3-2.3-8.4-0.6c-2.3,1.8-2.4,4.4-2.4,4.4c0.8-1,2.2-1.6,3-1.5c7.7,0.4,1,9,9.1,10.2
		c5.2,0.8,3.3,7.2,3.3,7.2c-3.9-3.9-9-1.8-9-1.8c-1.5,0.6-3,1.9-3.7,3c-4.3,6.9,2.2,11.5,2.2,11.5s-1.1-4.4,3.4-6.1
		c3.8-1.4,5.5,2.4,7.8,3c6.2,1.6,7.8-2.2,10.6-0.4c3.9,2.4,5,2.7,7.6,6.2c2.6,3.5,0.5,5.5,2.1,8.3c1.6,2.9,4.2,3.6,4.2,3.6
		c0.6,3.7-2.9,4.7-2.9,4.7c3.7,1.3,6-0.8,6.8-2.3c0.7-1.3,0.7-2.5,0.7-2.5c4-2.8,3-7.7,0-10.1c-1.9-1.5-6.6-3.6-1.7-10.2
		c2.1-2.9,10-8.7,15.8-12.1c5.9-3.4,9.6,1.2,8.6,4.8c-1.2,4.9-6.2,3.8-6.2,3.8c2.8,3.8,8.5,4.8,12.7,1c1.5-1.4,3.1-3.6,2.6-10.2
		l0-7.4c0.6-9.2,9.1-9.1,9.1-9.1c9.1,0.6,9.1,9.1,9.1,9.1s0,4.5-4.6,4.9c-3.8,0.3-4.8-3.7-4.8-3.7s-2,6.8,7.8,6.8
		c1,0,1.6,0.7,1.6,1.8c-0.1,4-3.1,14.2-10.2,21.1c-10,9.7-15.2,7.6-16.7,4.2c-0.9-2.1,0.4-5.5,3.5-6c2.5-0.3,5.1,1.3,5.2,4.6
		c0,0,4-4.5,0-7.5c-3.2-2.4-8.2-1.8-11,1.1c-2.3,2.3-3.3,5.9-1.6,9.8c2.2,4.9,7.9,6.2,13.6,3.9c10.6-4.3,12.7-10.9,17.2-14.6
		c0,0-0.1,9.6-5.6,12.9c-3.5,2.1-11.3,4.7-13.9,8c-1.7,2.2-2.5,6.3,0,9.6c0,0,2.5,3.6,7.4,2.8c0,0-3.2-0.3-4.2-4.1
		c-0.6-2.3,0.7-4.8,5.3-6.5c7.6-2.8,10.9-6.7,10.9-6.7c0,25.8-16.6,27.5-23.7,27.9c-6.1,0.3-10.6-3.8-8.6-9c0.9-2.4,3.8-3.6,6-3.2
		c2.6,0.4,3.9,2.4,3.9,2.4s0.2-7.1-5.4-7.1c-5,0-8.3,3.2-9.6,5.7c-2.9,5.3-0.2,10-0.2,10c-8-4.4-14.5,0.3-14.5,0.3
		c-3.8,2.6-4.5,7-3.5,10.1c1,3.2,5.9,5.2,5.9,5.2s-1.5-1.3-1.5-4c0-2.7,2.5-5.2,5.4-5.2c3.4,0,5.7,3.3,5.4,5.6c-0.4,2.9-0.2,5,1.9,7
		c1.6,1.6,3.6,1.9,4.7,1.8c3.2-0.2,4.6-2,4.6-2s-3.4,0.1-4.9-2.5c-1.5-2.7-0.5-6.9,3.9-7.6c2.9-0.5,6.1-1,11.6-2.1
		c11.9-2.5,18.6-9.4,18.6-9.4s-0.1,7.3-5,11.6c0,0-3.8,3.7-8.2,4.1c-7.8,0.8-10.2,7.3-10.2,7.3c-2.8,7.9,2.3,12.5,2.3,12.5
		c-0.4-4.2,3.1-7,3.1-7c6.3-4.1,11.7,1.7,11.7,1.7l15.6,14.8l15.6-14.8c0,0,5.4-5.8,11.7-1.7c0,0,3.5,2.8,3.1,7c0,0,5-4.6,2.3-12.5
		c0,0-2.4-6.5-10.2-7.3c-4.4-0.4-8.2-4.1-8.2-4.1c-4.9-4.3-5-11.6-5-11.6s6.7,6.9,18.6,9.4c5.5,1.1,8.6,1.6,11.6,2.1
		c4.4,0.7,5.4,4.9,3.9,7.6c-1.4,2.6-4.9,2.5-4.9,2.5s1.4,1.8,4.6,2c1.1,0.1,3.1-0.2,4.7-1.8c2.1-2.1,2.3-4.1,1.9-7
		c-0.3-2.4,2-5.6,5.4-5.6c2.9,0,5.4,2.5,5.4,5.2c0,2.7-1.5,4-1.5,4s4.8-2.1,5.9-5.2c1-3.1,0.3-7.5-3.5-10.1c0,0-6.5-4.8-14.5-0.3
		c0,0,2.6-4.7-0.2-10c-1.3-2.5-4.6-5.7-9.6-5.7c-5.6,0-5.4,7.1-5.4,7.1s1.3-2,3.9-2.4c2.1-0.3,5.1,0.9,6,3.2c1.9,5.2-2.5,9.3-8.6,9
		c-7.1-0.4-23.7-2-23.7-27.9c0,0,3.3,3.9,10.9,6.7c4.6,1.7,5.9,4.2,5.3,6.5c-1,3.8-4.2,4.1-4.2,4.1c4.9,0.8,7.4-2.8,7.4-2.8
		c2.6-3.2,1.7-7.4,0-9.6c-2.6-3.4-10.4-5.9-13.9-8c-5.5-3.3-5.6-12.9-5.6-12.9c4.5,3.7,6.6,10.3,17.2,14.6c5.7,2.3,11.4,1,13.6-3.9
		c1.7-3.9,0.7-7.5-1.6-9.8c-2.8-2.9-7.8-3.5-11-1.1c-3.9,2.9,0,7.5,0,7.5c0-3.3,2.7-4.9,5.2-4.6c3.2,0.4,4.4,3.9,3.5,6
		c-1.5,3.5-6.6,5.5-16.7-4.2c-7.1-6.9-10.2-17-10.2-21.1c0-1.1,0.6-1.8,1.6-1.8c9.8,0,7.8-6.8,7.8-6.8s-1,4-4.8,3.7
		c-4.6-0.3-4.6-4.9-4.6-4.9s0-8.5,9.1-9.1c0,0,8.5-0.1,9.1,9.1l0,7.4c-0.5,6.6,1.1,8.8,2.6,10.2c4.2,3.8,9.9,2.8,12.7-1
		c0,0-4.9,1.1-6.2-3.8c-0.9-3.6,2.7-8.3,8.6-4.8c5.8,3.4,13.7,9.1,15.8,12.1c4.9,6.7,0.2,8.7-1.7,10.2c-3,2.4-4,7.3,0,10.1
		c0,0,0,1.2,0.7,2.5c0.8,1.4,3.1,3.6,6.8,2.3c0,0-3.6-1-2.9-4.7c0,0,2.6-0.8,4.2-3.6c1.6-2.9-0.4-4.8,2.1-8.3
		c2.6-3.5,3.7-3.8,7.6-6.2c2.8-1.8,4.3,2,10.6,0.4c2.3-0.6,3.9-4.4,7.8-3c4.5,1.7,3.4,6.1,3.4,6.1s6.5-4.6,2.2-11.5
		c-0.7-1.2-2.2-2.4-3.7-3c0,0-5.1-2.1-9,1.8c0,0-2-6.4,3.3-7.2c8.1-1.2,1.4-9.8,9.1-10.2c0.8,0,2.2,0.5,3,1.5c0,0-0.1-2.6-2.4-4.4
		c-2.1-1.6-5.5-2.2-8.4,0.6c0,0-5.2-1.5-5.9,4c-0.8,6.2-1.4,8.4-4.7,8.6c0,0,4.1-7.4-1.2-12c0,0-0.6-3.1,2.8-4.5
		c0,0-2.7-1.6-5.6-0.2c-1.9,0.9-3.3,2.7-3.6,5.5c0,0-2.7,1.7-2.7,7.2c0,2.6,2.7,5.3,2.7,5.3s0.3,3.5-2.4,5.3c-1.1,0.7-1.8,1.1-4,1.1
		c-7.3,0-15.1-6.7-18.9-11.4c-3.8-4.6,1-9.5,5.1-8.2c3.8,1.2,4.6,5.9,2.1,8.3c0,0,8.1-0.7,7.7-6.9c-0.4-5.5-4.1-8.3-14.2-8.5
		c-12.3-0.2-17-15.2-14.4-20.4c2.7-5.3,9.2-3.7,10.9-0.5c3.9,7.5,7.7,11.7,18.3,14.7c0,0-7.7-7.7-6.4-20.3c0,0,1.8,4.9,6.2,9.3
		c6.1,6,19.1,11,32.1,4.3c0,0-17.9-2.4-22-21.7c0,0,1.9,4.2,7.3,8.8c7.2,6,24,10.7,37.1-3.5c0,0-21.9,5.8-31.8-16.5
		c0,0,10.9,13.9,28.9,8.8c4.4-1.3,13-5.3,18.1-17.6C284.3,108,263.4,121.9,247,100.1z M185.8,22.8c0,0,2.2,0.1,3.5,1l-2.9,3.5
		l-3.2-1.8L185.8,22.8z M111.7,27.3l-2.9-3.5c1.3-0.9,3.5-1,3.5-1l2.6,2.8L111.7,27.3z"/>
	<g id="Shield">
		<path fill="#FBDD33" d="M182.2,125.2L182.2,125.2l0-39.1h-65.1v38.6c0,0.3,0,0.5,0,0.8c0,17.6,14.6,31.9,32.6,31.9
			c18,0,32.6-14.3,32.6-31.9C182.2,125.4,182.2,125.3,182.2,125.2z M145.9,125.9c0,7-4.1,10.2-10.1,10.2c-5.4,0-8.6-2.8-10.2-6.2
			l5.5-3.3c1.1,1.9,2,3.5,4.4,3.5c2.2,0,3.6-0.9,3.6-4.3v-23.1h6.8V125.9z M162,136.2c-6.3,0-10.4-3-12.4-6.9l5.5-3.2
			c1.5,2.4,3.3,4.1,6.7,4.1c2.8,0,4.6-1.4,4.6-3.3c0-2.3-1.8-3.2-4.9-4.5l-1.7-0.7c-4.9-2.1-8.1-4.7-8.1-10.2c0-5.1,3.9-9,9.9-9
			c4.3,0,7.4,1.5,9.7,5.4l-5.3,3.4c-1.2-2.1-2.4-2.9-4.4-2.9c-2,0-3.2,1.3-3.2,2.9c0,2,1.3,2.9,4.2,4.1l1.7,0.7c5.8,2.5,9,5,9,10.7
			C173.3,132.8,168.5,136.2,162,136.2z"/>
	</g>
</g>
</svg>
