<?xml version="1.0" standalone="no"?>
<!-- Generator: Adobe Fireworks 10, Export SVG Extension by Aaron Beall (http://fireworks.abeall.com) . Version: 0.6.1  -->
<!DOCTYPE svg PUBLIC "-//W3C//DTD SVG 1.1//EN" "http://www.w3.org/Graphics/SVG/1.1/DTD/svg11.dtd">
<svg id="logo-francejs.fw-page%201" viewBox="0 0 165 196"  version="1.1"
	xmlns="http://www.w3.org/2000/svg" xmlns:xlink="http://www.w3.org/1999/xlink" xml:space="preserve"
	x="0px" y="0px" width="100%" height="100%"
	>
	<defs>

		<radialGradient id="fill1" cx="51.4286%" cy="16.5468%" r="78.7632%">
			<stop stop-color="#faeb0f" stop-opacity="1" offset="0%"/>
			<stop stop-color="#f1c309" stop-opacity="1" offset="100%"/>
		</radialGradient>

		<linearGradient id="stroke-gradient" x1="50%" y1="16.5%" x2="50%" y2="100%">
			<stop stop-color="#ffffff" stop-opacity="1" offset="0%"/>
			<stop stop-color="#f1c309" stop-opacity="1" offset="100%"/>
		</linearGradient>

		<linearGradient id="gradient-gloss" x1="68%" y1="0" x2="68%" y2="100%">
			<stop stop-color="#ffffff" stop-opacity="0.7" offset="0%"/>
			<stop stop-color="#ffffff" stop-opacity="0" offset="100%"/>
		</linearGradient>

		<filter id="js-dropshadow" x="-100%" y="-100%" width="300%" height="300%">
			<!-- Ombre portée -->
			<feOffset result="out" in="SourceGraphic" dx="0" dy="2"/>
			<feColorMatrix result="out" in="out" type="matrix" values="0 0 0 0.549 0  0 0 0 0.4118 0  0 0 0 0 0  0 0 0 0.4 0"/>
			<feGaussianBlur result="out" in="out" stdDeviation="1"/>
			<feBlend in="SourceGraphic" in2="out" mode="normal" result="js-dropshadow"/>
		</filter>

		<filter id="filter-blur" x="-100%" y="-100%" width="300%" height="300%">
			<!-- Flou gaussien... -->
			<feGaussianBlur in="SourceGraphic" stdDeviation="5" result="Flou_gaussien___1"/>
		</filter>

	</defs>
	<g id="logo">
		<!-- fond gris -->
		<path id="fond" d="M 159.661 57.4845 C 162.0574 56.1123 164 57.2385 164 60 L 164 143.3333 C 164 146.0948 162.0574 149.4457 159.661 150.8178 L 86.839 192.5155 C 84.4426 193.8877 80.5574 193.8877 78.161 192.5155 L 5.339 150.8178 C 2.9426 149.4457 1 146.0948 1 143.3333 L 1 60 C 1 57.2385 2.9426 56.1123 5.339 57.4845 L 78.161 99.1822 C 80.5574 100.5543 84.4426 100.5543 86.839 99.1822 L 159.661 57.4845 Z" stroke="#acac9d" stroke-width="1" fill="#dcdccb"/>

		<!-- ombre hexagone -->
		<path id="ombre" d="M 83.5 88.565 L 130.225 107.0325 L 130.225 143.9675 L 83.5 162.435 L 36.775 143.9675 L 36.775 107.0325 L 83.5 88.565 Z" fill="#8a8a7b" filter="url(#filter-blur)" />

		<!-- hexagone -->
		<path id="hexagone" d="M 78.1677 43.4962 C 80.5604 42.1176 84.4396 42.1176 86.8323 43.4962 L 130.6677 68.7538 C 133.0604 70.1324 135 73.4885 135 76.25 L 135 126.75 C 135 129.5115 133.0604 132.8676 130.6677 134.2462 L 86.8323 159.5038 C 84.4396 160.8824 80.5604 160.8824 78.1677 159.5038 L 34.3323 134.2462 C 31.9396 132.8676 30 129.5115 30 126.75 L 30 76.25 C 30 73.4885 31.9396 70.1324 34.3323 68.7538 L 78.1677 43.4962 Z" stroke="#c5a807" stroke-width="2" fill="url(#fill1)"/>

		<!-- reflect -->
		<path id="glossy" opacity="0.7" d="M 86.8324 43.496 C 84.4397 42.1175 80.5604 42.1176 78.1677 43.4962 L 34.3323 68.7538 C 31.9396 70.1324 30 73.4885 30 76.25 L 30 126.75 C 30 129.5115 31.9396 132.8676 34.3323 134.2462 L 43.85 139.73 C 58.6701 105.9756 84.4664 78.131 116.72 60.715 L 86.8324 43.496 Z" fill="url(#gradient-gloss)"/>

		<!-- light Stroke -->
		<path id="stroke_light" d="M 31.5 77.115 C 31.5 74.3535 33.4396 70.9974 35.8323 69.6188 L 78.1677 45.2262 C 80.5604 43.8476 84.4396 43.8476 86.8323 45.2262 L 129.1677 69.6188 C 131.5604 70.9974 133.5 74.3535 133.5 77.115 L 133.5 125.885 C 133.5 128.6465 131.5604 132.0026 129.1677 133.3812 L 86.8323 157.7738 C 84.4396 159.1524 80.5604 159.1524 78.1677 157.7738 L 35.8323 133.3812 C 33.4396 132.0026 31.5 128.6465 31.5 125.885 L 31.5 77.115 ZM 86.8323 43.4962 C 84.4396 42.1176 80.5604 42.1176 78.1677 43.4962 L 34.3323 68.7538 C 31.9396 70.1324 30 73.4885 30 76.25 L 30 126.75 C 30 129.5115 31.9396 132.8676 34.3323 134.2462 L 78.1677 159.5038 C 80.5604 160.8824 84.4396 160.8824 86.8323 159.5038 L 130.6677 134.2462 C 133.0604 132.8676 135 129.5115 135 126.75 L 135 76.25 C 135 73.4885 133.0604 70.1324 130.6677 68.7538 L 86.8323 43.4962 Z" fill="url(#stroke-gradient)"/>

		<!-- JS text -->
		<g id="JS" filter="url(#js-dropshadow)">
			<path d="M 68.2969 121.9219 C 70.1406 121.2031 71.7344 120.125 73.0625 118.7188 C 74.3906 117.3125 75.375 115.6406 76.0313 113.7031 C 76.6719 111.7656 77 109.4688 77 106.8125 L 77 80 L 66 80 L 66 107.0156 C 66 109.0156 65.5625 110.5156 64.7031 111.5156 C 63.8438 112.5156 62.6719 113 61.2031 113 C 59.9219 113 58.7656 112.6719 57.75 111.9844 C 56.7188 111.3125 55.6875 110.3594 54.6563 109.1094 L 47.1563 116.0938 C 47.875 117.0781 48.7031 117.9844 49.6719 118.8281 C 50.6406 119.6719 51.7188 120.3906 52.9219 121.0156 C 54.1094 121.6406 55.4531 122.125 56.9375 122.4844 C 58.4063 122.8125 60.0781 123 61.9219 123 C 64.3125 123 66.4375 122.625 68.2969 121.9219 L 68.2969 121.9219 Z" fill="#ffffff"/>
			<path d="M 107.7813 122.0625 C 109.8906 121.4375 111.7031 120.5313 113.2188 119.3438 C 114.7188 118.1563 115.8906 116.7188 116.7344 115.0313 C 117.5781 113.3438 118 111.4063 118 109.2344 L 118 109.1094 C 118 107.1406 117.6406 105.4531 116.9531 104.0156 C 116.2656 102.5781 115.2656 101.3594 113.9688 100.3594 C 112.6563 99.3594 111.0781 98.5 109.2188 97.7969 C 107.3438 97.0938 105.2656 96.4688 102.9688 95.9375 C 101.5781 95.625 100.4375 95.3281 99.5313 95.0156 C 98.625 94.7188 97.9219 94.4219 97.4063 94.1094 C 96.8906 93.8125 96.5313 93.4844 96.3125 93.1094 C 96.0938 92.75 96 92.3281 96 91.8438 L 96 91.7188 C 96 90.9531 96.3438 90.3125 97.0469 89.7813 C 97.7344 89.2656 98.7969 89 100.2031 89 C 102.0781 89 104.0156 89.3594 106.0469 90.0625 C 108.0625 90.7656 110.0313 91.7969 111.9531 93.1406 L 117.7813 84.7813 C 115.5 82.875 112.9375 81.4375 110.125 80.4688 C 107.3125 79.5 104.0938 79 100.5 79 C 97.9688 79 95.6875 79.3438 93.6563 80 C 91.625 80.6719 89.875 81.6094 88.4375 82.8125 C 86.9844 84.0156 85.875 85.4375 85.125 87.0938 C 84.375 88.75 84 90.5625 84 92.5313 L 84 92.6406 C 84 94.8281 84.3906 96.6406 85.1719 98.1094 C 85.9531 99.5781 87.0313 100.8125 88.4063 101.7969 C 89.7656 102.7969 91.375 103.5938 93.2188 104.2188 C 95.0625 104.8438 97.0469 105.4219 99.2031 105.9375 C 100.5781 106.2656 101.7031 106.5781 102.5781 106.875 C 103.4375 107.1875 104.125 107.5 104.6406 107.8125 C 105.1563 108.1406 105.5156 108.4688 105.7031 108.8125 C 105.8906 109.1563 106 109.5469 106 109.9844 L 106 110.0938 C 106 111.0313 105.5781 111.75 104.7656 112.25 C 103.9531 112.75 102.7656 113 101.2031 113 C 96.3125 113 91.7656 111.3281 87.5781 107.9531 L 81.1094 115.7969 C 83.7031 118.2031 86.6875 120 90.0625 121.2031 C 93.4375 122.3906 97.0156 123 100.7813 123 C 103.3438 123 105.6719 122.6875 107.7813 122.0625 L 107.7813 122.0625 Z" fill="#ffffff"/>
		</g>

		<!-- France text -->
		<g id="France">
			<path d="M -0.065 27 L 5.935 27 L 5.935 17 L 18.2788 17 L 18.2788 12 L 5.935 12 L 5.935 6 L 19.9506 6 L 19.9506 1 L -0.065 1 L -0.065 27 L -0.065 27 Z" fill="#575748"/>
			<path d="M 31.748 14 L 31.748 6 L 37.3261 6 C 38.7168 6 39.7949 6.3438 40.5761 7 C 41.3574 7.6563 41.748 8.6563 41.748 9.9844 L 41.748 10.0625 C 41.748 11.25 41.373 12.2031 40.6386 12.9219 C 39.8886 13.6406 38.8261 14 37.4355 14 L 31.748 14 L 31.748 14 ZM 25.748 27 L 31.748 27 L 31.748 19 L 36.1386 19 L 36.2168 19 L 41.748 27 L 48.0761 27 L 41.748 17.7188 C 43.5293 17.0938 44.9824 16.125 46.0918 14.7969 C 47.1855 13.4844 47.748 11.7656 47.748 9.6563 L 47.748 9.5781 C 47.748 7.1094 46.9824 5.125 45.4824 3.6406 C 43.7011 1.8906 41.1386 1 37.8105 1 L 25.748 1 L 25.748 27 L 25.748 27 Z" fill="#575748"/>
			<path d="M 62.6548 16 L 66.1079 7.6094 L 69.5454 16 L 62.6548 16 L 62.6548 16 ZM 52.4516 27 L 58.2641 27 L 60.6235 21 L 71.5766 21 L 73.9516 27 L 79.9048 27 L 68.7954 1 L 63.5454 1 L 52.4516 27 L 52.4516 27 Z" fill="#575748"/>
			<path d="M 85.374 27 L 91.374 27 L 91.374 10.4688 L 103.6396 27 L 108.374 27 L 108.374 1 L 102.374 1 L 102.374 17.0156 L 90.5146 1 L 85.374 1 L 85.374 27 L 85.374 27 Z" fill="#575748"/>
			<path d="M 131.9058 26.7031 C 132.9214 26.5156 133.8589 26.2188 134.7026 25.8281 C 135.5464 25.4375 136.3276 24.9688 137.0464 24.4375 C 137.7651 23.9063 138.4526 23.2813 139.1245 22.5938 L 135.4995 18.9688 C 134.4839 19.9063 133.4683 20.6563 132.4526 21.1875 C 131.4214 21.7344 130.1714 22 128.687 22 C 127.5776 22 126.562 21.7969 125.6401 21.375 C 124.7026 20.9531 123.9214 20.375 123.2651 19.6406 C 122.6089 18.9219 122.1089 18.0625 121.7339 17.0938 C 121.3589 16.125 121.187 15.0938 121.187 14 L 121.187 13.9219 C 121.187 12.8438 121.3589 11.8281 121.7339 10.8594 C 122.1089 9.9063 122.6245 9.0625 123.2964 8.3281 C 123.9526 7.6094 124.7495 7.0313 125.6714 6.625 C 126.5933 6.2188 127.5933 6 128.687 6 C 129.9995 6 131.1714 6.2656 132.2183 6.7813 C 133.2651 7.3125 134.2964 8.0156 135.312 8.9219 L 138.937 4.7969 C 138.3433 4.2344 137.7026 3.7188 137.0151 3.25 C 136.3276 2.7813 135.5776 2.3906 134.7651 2.0625 C 133.9526 1.7344 133.0464 1.4688 132.0464 1.2813 C 131.0464 1.0938 129.937 1 128.7339 1 C 126.7339 1 124.9058 1.3438 123.2495 2.0313 C 121.5933 2.7188 120.1714 3.6406 118.9839 4.8281 C 117.7964 6.0156 116.8589 7.4063 116.187 8.9688 C 115.5151 10.5313 115.187 12.2188 115.187 14 L 115.187 14.0781 C 115.187 15.875 115.5151 17.5625 116.187 19.1406 C 116.8589 20.7188 117.7964 22.0938 118.9839 23.25 C 120.1714 24.4063 121.5933 25.3281 123.2183 26 C 124.8433 26.6719 126.6089 27 128.5151 27 C 129.7651 27 130.8901 26.9063 131.9058 26.7031 L 131.9058 26.7031 Z" fill="#575748"/>
			<path d="M 145 27 L 165.0625 27 L 165.0625 22 L 151 22 L 151 16 L 163.2188 16 L 163.2188 11 L 151 11 L 151 6 L 164.875 6 L 164.875 1 L 145 1 L 145 27 L 145 27 Z" fill="#575748"/>
		</g>
	</g>
</svg>