<?xml version="1.0" encoding="utf-8"?>
<!-- Generator: Adobe Illustrator 16.0.0, SVG Export Plug-In . SVG Version: 6.00 Build 0)  -->
<!DOCTYPE svg PUBLIC "-//W3C//DTD SVG 1.1//EN" "http://www.w3.org/Graphics/SVG/1.1/DTD/svg11.dtd">
<svg version="1.1" id="Layer_1" xmlns="http://www.w3.org/2000/svg" xmlns:xlink="http://www.w3.org/1999/xlink" x="0px" y="0px"
	 width="720px" height="720px" viewBox="0 0 720 720" enable-background="new 0 0 720 720" xml:space="preserve">
<g>
	<linearGradient id="SVGID_1_" gradientUnits="userSpaceOnUse" x1="360.0005" y1="612.251" x2="360.0005" y2="107.7495">
		<stop  offset="0" style="stop-color:#5B7DBE"/>
		<stop  offset="1" style="stop-color:#55A4DB"/>
	</linearGradient>
	<rect x="107.665" y="107.749" fill="url(#SVGID_1_)" width="504.67" height="504.502"/>
	<g>
		<path fill="#FFFFFF" d="M375.983,547.076l22.89-13.852c4.416,7.829,8.434,14.453,18.069,14.453
			c9.235,0,15.059-3.613,15.059-17.666v-95.573h28.107v95.974c0,29.112-17.065,42.363-41.962,42.363
			C395.659,572.775,382.609,561.132,375.983,547.076"/>
		<path fill="#FFFFFF" d="M475.371,544.064l22.887-13.251c6.024,9.838,13.854,17.068,27.707,17.068
			c11.647,0,19.073-5.824,19.073-13.856c0-9.637-7.628-13.051-20.479-18.67l-7.025-3.013c-20.281-8.635-33.731-19.475-33.731-42.364
			c0-21.083,16.061-37.144,41.159-37.144c17.869,0,30.719,6.226,39.953,22.486l-21.884,14.054
			c-4.82-8.632-10.039-12.045-18.069-12.045c-8.231,0-13.452,5.222-13.452,12.045c0,8.434,5.221,11.847,17.264,17.068l7.028,3.012
			c23.894,10.24,37.346,20.68,37.346,44.168c0,25.3-19.877,39.152-46.58,39.152C500.466,572.775,483.6,560.328,475.371,544.064"/>
		<g>
			<path fill="#FFFFFF" d="M152.134,502.378h4.766l26.662,60.407l26.79-60.407h4.508l-29.624,65.431h-3.349L152.134,502.378z"/>
			<path fill="#FFFFFF" d="M223.501,549.004v-0.258c0-13.524,12.236-20.866,28.722-20.866c9.016,0,16.873,1.546,23.184,3.606v-4.379
				c0-14.683-8.758-21.896-23.184-21.896c-7.985,0-14.683,2.189-21.123,5.409l-1.545-3.606c7.212-3.478,14.296-5.667,22.926-5.667
				c8.887,0,15.842,2.318,20.608,7.084c4.122,4.25,6.44,10.433,6.44,18.418v40.443h-4.122v-13.524
				c-3.349,7.084-12.365,15.07-27.306,15.07C235.608,568.839,223.501,562.141,223.501,549.004z M275.536,543.336v-7.985
				c-6.311-2.061-13.781-3.606-23.441-3.606c-14.296,0-24.214,6.054-24.214,16.744v0.258c0,10.69,9.66,16.229,20.479,16.229
				C264.073,564.975,275.536,554.928,275.536,543.336z"/>
			<path fill="#FFFFFF" d="M302.198,502.378h4.122v15.456c2.962-7.728,11.077-17.002,24.987-17.002
				c17.13,0,26.791,11.593,26.791,28.465v37.996h-4.122v-37.352c0-15.069-8.114-25.245-23.184-25.245
				c-13.653,0-24.472,11.206-24.472,26.018v36.579h-4.122V502.378z"/>
		</g>
	</g>
</g>
</svg>
