<?xml version="1.0" encoding="utf-8"?>
<!-- Generator: Adobe Illustrator 16.0.0, SVG Export Plug-In . SVG Version: 6.00 Build 0)  -->
<!DOCTYPE svg PUBLIC "-//W3C//DTD SVG 1.1//EN" "http://www.w3.org/Graphics/SVG/1.1/DTD/svg11.dtd">
<svg version="1.1" id="Layer_1" xmlns="http://www.w3.org/2000/svg" xmlns:xlink="http://www.w3.org/1999/xlink" x="0px" y="0px"
	 width="1800px" height="1800px" viewBox="0 0 1800 1800" enable-background="new 0 0 1800 1800" xml:space="preserve">
<rect x="0" fill="#E67E22" width="1800" height="1800"/>
<path fill="#FFFFFF" d="M1209.143,1406.257c36.258,59.2,83.429,102.715,166.857,102.715c70.086,0,114.856-35.027,114.856-83.429
	c0-58-46-78.543-123.143-112.286l-42.286-18.143c-122.059-52-203.145-117.144-203.145-254.857
	c0-126.855,96.658-223.429,247.715-223.429c107.543,0,184.857,37.429,240.571,135.429l-131.714,84.571
	c-29-52-60.286-72.485-108.857-72.485c-49.543,0-80.942,31.43-80.942,72.485c0,50.743,31.43,71.286,104,102.715l42.286,18.114
	c143.714,61.629,224.856,124.457,224.856,265.714c0,152.286-119.629,235.715-280.286,235.715
	c-157.086,0-258.57-74.857-308.229-172.972L1209.143,1406.257z M611.629,1420.914c26.57,47.144,50.741,87,108.856,87
	c55.57,0,90.628-21.742,90.628-106.285V826.485h169.145v577.429c0,175.145-102.688,254.857-252.572,254.857
	c-135.428,0-213.857-70.086-253.742-154.5L611.629,1420.914z"/>
</svg>
