<?xml version="1.0" encoding="UTF-8" standalone="no"?>
<!-- Created with Inkscape (http://www.inkscape.org/)
               by Andrea Giammarchi (http://webreflection.co.uk/) -->

<svg
   xmlns:dc="http://purl.org/dc/elements/1.1/"
   xmlns:cc="http://creativecommons.org/ns#"
   xmlns:rdf="http://www.w3.org/1999/02/22-rdf-syntax-ns#"
   xmlns:svg="http://www.w3.org/2000/svg"
   xmlns="http://www.w3.org/2000/svg"
   xmlns:sodipodi="http://sodipodi.sourceforge.net/DTD/sodipodi-0.dtd"
   xmlns:inkscape="http://www.inkscape.org/namespaces/inkscape"
   width="320"
   height="320"
   viewBox="0 0 320 320.00001"
   id="svg2"
   version="1.1"
   inkscape:version="0.91 r13725"
   sodipodi:docname="UniversalJS.svg"
   inkscape:export-filename="./UniversalJS.png"
   inkscape:export-xdpi="36"
   inkscape:export-ydpi="36">
  <defs
     id="defs4" />
  <sodipodi:namedview
     id="base"
     pagecolor="#ffffff"
     bordercolor="#666666"
     borderopacity="1.0"
     inkscape:pageopacity="0.0"
     inkscape:pageshadow="2"
     inkscape:zoom="4.0722739"
     inkscape:cx="162.01321"
     inkscape:cy="159.25162"
     inkscape:document-units="px"
     inkscape:current-layer="g4309"
     showgrid="false"
     units="px"
     inkscape:window-width="3200"
     inkscape:window-height="1671"
     inkscape:window-x="0"
     inkscape:window-y="55"
     inkscape:window-maximized="1" />
  <metadata
     id="metadata7">
    <rdf:RDF>
      <cc:Work
         rdf:about="">
        <dc:format>image/svg+xml</dc:format>
        <dc:type
           rdf:resource="http://purl.org/dc/dcmitype/StillImage" />
        <dc:title></dc:title>
      </cc:Work>
    </rdf:RDF>
  </metadata>
  <g
     inkscape:label="Layer 1"
     inkscape:groupmode="layer"
     id="layer1"
     transform="translate(0,-732.3622)">
    <g
       id="g4309"
       transform="matrix(0.75332807,0,0,0.75332807,-35.650068,669.31948)">
      <path
         d="M 433.20351,396.24053 259.71429,496.40457 86.225075,396.24052 86.225076,195.91243 259.7143,95.748383 433.20351,195.91243 Z"
         inkscape:randomized="0"
         inkscape:rounded="0"
         inkscape:flatsided="true"
         sodipodi:arg2="1.0471976"
         sodipodi:arg1="0.52359878"
         sodipodi:r2="173.4892"
         sodipodi:r1="200.32809"
         sodipodi:cy="296.07648"
         sodipodi:cx="259.71429"
         sodipodi:sides="6"
         id="path4140"
         style="fill:#f3df49;fill-opacity:1;stroke:#2e2e2c;stroke-width:18.42759895;stroke-miterlimit:4;stroke-dasharray:none;stroke-opacity:1"
         sodipodi:type="star" />
      <g
         style="fill:#2e2e2c;fill-opacity:1"
         transform="matrix(0.3221469,0,0,0.3221469,238.35902,126.868)"
         id="g4294">
        <path
           style="fill:#2e2e2c;fill-opacity:1"
           d="m 64.989607,772.25016 48.212503,-29.1775 c 9.30125,16.49125 17.7625,30.44375 38.0575,30.44375 19.45375,0 31.71875,-7.60975 31.71875,-37.21 l 0,-201.3 59.20375,0 0,202.1375 c 0,61.32 -35.94375,89.23125 -88.385,89.23125 -47.36125,0 -74.852503,-24.52875 -88.807503,-54.13"
           id="j"
           inkscape:connector-curvature="0" />
        <path
           style="fill:#2e2e2c;fill-opacity:1"
           d="m 274.33961,765.90641 48.20625,-27.91125 c 12.69,20.72375 29.1825,35.9475 58.36125,35.9475 24.5313,0 40.17382,-12.26475 40.17382,-29.18125 0,-20.29875 -16.06882,-27.48875 -43.13502,-39.32625 l -14.7975,-6.3475 c -42.71505,-18.18125 -71.05005,-41.0175 -71.05005,-89.2275 0,-44.40375 33.83125,-78.2375 86.69505,-78.2375 37.63752,0 64.70252,13.11125 84.15372,47.36625 l -46.0962,29.60125 c -10.15,-18.1825 -21.14252,-25.37125 -38.05752,-25.37125 -17.3388,0 -28.33505,10.995 -28.33505,25.37125 0,17.7625 10.99625,24.9525 36.36755,35.94875 l 14.8,6.3425 c 50.32502,21.56875 78.66002,43.5575 78.66002,93.03375 0,53.2875 -41.8663,82.465 -98.11002,82.465 -54.9763,0 -90.50005,-26.2175 -107.8363,-60.47375"
           id="s"
           inkscape:connector-curvature="0" />
      </g>
    </g>
  </g>
</svg>
