<?xml version="1.0" encoding="utf-8"?>
<!-- Generator: Adobe Illustrator 15.1.0, SVG Export Plug-In  -->
<!DOCTYPE svg PUBLIC "-//W3C//DTD SVG 1.1//EN" "http://www.w3.org/Graphics/SVG/1.1/DTD/svg11.dtd" [
	<!ENTITY ns_flows "http://ns.adobe.com/Flows/1.0/">
]>
<svg version="1.1"
	 xmlns="http://www.w3.org/2000/svg" xmlns:xlink="http://www.w3.org/1999/xlink" xmlns:a="http://ns.adobe.com/AdobeSVGViewerExtensions/3.0/"
	 x="0px" y="0px" width="283px" height="283px" viewBox="279.2129 155.9551 283 283"
	 overflow="visible" enable-background="new 279.2129 155.9551 283 283" xml:space="preserve">
<defs>
</defs>
<rect x="279.2129" y="155.9551" fill="#FDDF13" width="283.4648" height="283.3701"/>
<g>
	<defs>
		<rect id="SVGID_1_" width="841.8896" height="595.2803"/>
	</defs>
	<clipPath id="SVGID_2_">
		<use xlink:href="#SVGID_1_"  overflow="visible"/>
	</clipPath>
	<path clip-path="url(#SVGID_2_)" fill="#383632" d="M353.6494,392.5244l21.6641-13.1113
		c4.1792,7.4111,7.9819,13.6797,17.1011,13.6797c8.7422,0,14.2529-3.4189,14.2529-16.7197v-90.4531h26.603v90.8311
		c0,27.5547-16.1509,40.0967-39.7148,40.0967C372.2734,416.8477,359.9204,405.8262,353.6494,392.5244"/>
	<path clip-path="url(#SVGID_2_)" fill="#383632" d="M447.7148,389.6738l21.6602-12.542
		c5.7031,9.3125,13.1133,16.1533,26.2256,16.1533c11.0225,0,18.0518-5.5117,18.0518-13.1123
		c0-9.1221-7.2207-12.3525-19.3818-17.6719l-6.6504-2.8516c-19.1934-8.1709-31.9258-18.4316-31.9258-40.0947
		c0-19.9531,15.2021-35.1558,38.9561-35.1558c16.9131,0,29.0742,5.8921,37.8145,21.2837l-20.7139,13.3018
		c-4.5605-8.1699-9.5-11.4004-17.1006-11.4004c-7.791,0-12.7324,4.9404-12.7324,11.4004c0,7.9814,4.9414,11.2129,16.3418,16.1533
		l6.6504,2.8506c22.6133,9.6904,35.3457,19.5713,35.3457,41.8037c0,23.9443-18.8125,37.0557-44.0859,37.0557
		C471.4668,416.8477,455.5039,405.0674,447.7148,389.6738"/>
	<path clip-path="url(#SVGID_2_)" fill="#69645C" d="M315.7407,338.4346h0.3286v-14.9023
		c-0.1089-0.0117-0.2188-0.0225-0.3286-0.0342V338.4346z"/>
	<path clip-path="url(#SVGID_2_)" fill="#69645C" d="M325.3818,314.7939v12.6846h0.3291v-12.665
		c-0.0801-0.0049-0.1494,0.0049-0.2363-0.0098C325.4409,314.7988,325.4146,314.7988,325.3818,314.7939"/>
	<path clip-path="url(#SVGID_2_)" fill="#69645C" d="M328.5674,338.4346h0.3286v-28.0234
		c-0.1309,0.2949-0.2388,0.6035-0.3286,0.9121V338.4346z"/>
	<path clip-path="url(#SVGID_2_)" fill="#69645C" d="M360.0723,327.4785h0.3291v-12.4111c-0.1074,0.0732-0.2153,0.1445-0.3291,0.209
		V327.4785z"/>
	<path clip-path="url(#SVGID_2_)" fill="#69645C" d="M346.4165,338.4346h0.3291v-14.6748
		c-0.1089-0.0293-0.2188-0.0566-0.3291-0.0889V338.4346z"/>
	<path clip-path="url(#SVGID_2_)" fill="#69645C" d="M311.4404,338.4346h0.3291V321.875c-0.1318-0.1758-0.2407-0.3428-0.3291-0.4902
		V338.4346z"/>
	<path clip-path="url(#SVGID_2_)" fill="#69645C" d="M366.1279,341.7217h0.3291v-31.8926c-0.106,0.0664-0.2144,0.1289-0.3291,0.1865
		V341.7217z"/>
	<polygon clip-path="url(#SVGID_2_)" fill="#69645C" points="301.1333,197.584 301.2661,197.4229 291.5103,197.4229 
		291.5103,197.752 301.2148,197.752 	"/>
	<polygon clip-path="url(#SVGID_2_)" fill="#69645C" points="370.4292,197.752 389.0771,197.752 389.0771,197.4229 
		371.145,197.4229 	"/>
	<polygon clip-path="url(#SVGID_2_)" fill="#69645C" points="374.1875,181.9268 366.4575,181.9268 366.4575,180.7646 
		366.1274,180.7646 366.1274,181.9268 360.4014,181.9268 360.4014,169.8066 360.0728,169.8066 360.0728,181.9268 346.7466,181.9268 
		346.7466,168.7119 346.4165,168.7119 346.4165,181.9268 328.8965,181.9268 328.8965,168.7119 328.5674,168.7119 328.5674,181.9268 
		325.7104,181.9268 325.7104,163.2339 325.3818,163.2339 325.3818,181.9268 316.0693,181.9268 316.0693,169.8066 315.7407,169.8066 
		315.7407,181.9268 311.7695,181.9268 311.7695,174.1899 311.4404,174.1899 311.4404,181.9268 298.5337,181.9268 298.5337,182.2559 
		311.4404,182.2559 311.4404,191.6807 311.7695,191.6958 311.7695,182.2559 315.7407,182.2559 315.7407,187.0566 316.0693,186.8179 
		316.0693,182.2559 325.3818,182.2559 325.3818,183.4751 325.7104,183.519 325.7104,182.2559 327.9937,182.2559 328.2124,182.0898 
		328.5674,182.1709 328.8965,182.2461 328.9395,182.2559 346.4165,182.2559 346.4165,187.2241 346.7466,187.2959 346.7466,182.2559 
		360.0728,182.2559 360.0728,189.8008 360.4014,189.6338 360.4014,182.2559 366.1274,182.2559 366.1274,190.8066 366.4575,190.8857 
		366.4575,182.2559 374.1875,182.2559 	"/>
	<rect x="301.085" y="259.1123" clip-path="url(#SVGID_2_)" fill="#69645C" width="10.3301" height="0.3291"/>
	<rect x="366.3169" y="259.1123" clip-path="url(#SVGID_2_)" fill="#69645C" width="25.7612" height="0.3291"/>
	<path clip-path="url(#SVGID_2_)" fill="#69645C" d="M300.2329,287.2144h10.1729c0.0679-0.1738,0.0889-0.2891,0.0889-0.2891v-0.0396
		h-10.2617V287.2144z"/>
	<path clip-path="url(#SVGID_2_)" fill="#69645C" d="M382.0322,286.8853h-11.0591c0.0361,0.1099,0.061,0.2188,0.0923,0.3286h10.9668
		V286.8853z"/>
	<polygon clip-path="url(#SVGID_2_)" fill="#69645C" points="304.2339,299.9521 291.4668,299.9521 291.4668,300.2812 
		304.3809,300.2812 304.3091,300.1201 	"/>
	<path clip-path="url(#SVGID_2_)" fill="#69645C" d="M371.9756,300.2822h15.5347v-0.3291h-15.4751
		C372.0352,300.0039,372.0254,300.126,371.9756,300.2822"/>
	<path clip-path="url(#SVGID_2_)" fill="#383632" d="M332.4248,303.4521h-0.0171c-0.2046-0.0283-0.397-0.0439-0.5708-0.0439
		c-0.9019,0-1.2212,0.4053-1.3301,0.7471c-0.3228,1.0059,0.7939,2.7646,1.1411,3.0127c0.0552,0.04,0.1182,0.0596,0.188,0.0596
		c0.6382,0,1.8262-1.8994,2.1328-2.708c0.104-0.2783,0.0332-0.4746-0.0469-0.5889
		C333.6201,303.4941,332.7207,303.4521,332.4248,303.4521 M333.7119,304.4238c-0.356,0.9385-1.481,2.5293-1.876,2.5293
		l-0.0303-0.0068c-0.2397-0.1729-1.3257-1.8115-1.0376-2.708c0.1196-0.374,0.4697-0.5557,1.0688-0.5557
		c0.1611,0,0.3398,0.0137,0.5332,0.042l0.04,0.001c0.3857,0,1.0898,0.0762,1.2866,0.3604
		C333.7588,304.1768,333.7637,304.2861,333.7119,304.4238"/>
	<path clip-path="url(#SVGID_2_)" fill="#383632" d="M366.1406,308.5c0.0527,0.0381,0.1147,0.0566,0.1821,0.0566
		c0.605,0,1.731-1.7979,2.022-2.5625c0.1011-0.2666,0.0308-0.4531-0.0449-0.5635c-0.292-0.4229-1.167-0.4658-1.4351-0.4551
		c-0.1953-0.0264-0.376-0.042-0.54-0.042c-0.856,0-1.1602,0.3877-1.2642,0.709C364.7544,306.5967,365.8115,308.2646,366.1406,308.5
		 M365.3218,305.7275c0.1108-0.3496,0.4399-0.5195,1.0029-0.5195c0.1509,0,0.3198,0.0137,0.502,0.04l0.0391,0.001
		c0.3628,0,1.0249,0.0703,1.209,0.3379c0.0571,0.082,0.062,0.1836,0.0127,0.3115c-0.3276,0.8623-1.4028,2.3857-1.7646,2.3857
		l-0.0239-0.0068C366.0728,308.1152,365.0508,306.5713,365.3218,305.7275"/>
	<path clip-path="url(#SVGID_2_)" fill="#383632" d="M349.0161,224.9634l7.8721,1.1543v-8.6211l-7.8721-1.3389V224.9634z
		 M349.5083,216.7417l6.8877,1.1719v7.6328l-6.8877-1.0078V216.7417z"/>
	<path clip-path="url(#SVGID_2_)" fill="#383632" d="M336.2759,223.0718l7.8721,1.1538v-8.6216l-7.8721-1.3394V223.0718z
		 M336.7681,214.8486l6.8877,1.1724v7.6338l-6.8877-1.0078V214.8486z"/>
	<path clip-path="url(#SVGID_2_)" fill="#383632" d="M349.106,258.832l7.811,0.7827V231.937l-7.811-1.1084V258.832z
		 M349.5981,231.396l6.8267,0.9688v26.7041l-6.8267-0.6821V231.396z"/>
	<path clip-path="url(#SVGID_2_)" fill="#383632" d="M336.3081,257.5254l7.9312,0.7939v-27.9009l-7.9312-1.124V257.5254z
		 M336.8003,229.8613l6.9478,0.9849v26.9282l-6.9478-0.6948V229.8613z"/>
	<path clip-path="url(#SVGID_2_)" fill="#383632" d="M371.4712,289.8613c0.3374-1.6289-0.0967-3.3931-1.291-5.249
		c-1.0669-1.6611-0.7769-4.3359-0.7739-4.3628l0.0161-0.1372l-0.1021-0.0947c-0.6538-0.6021-1.0361-3.1162-0.2881-4.73
		c0.6621-1.4292,0.2939-2.5142,0.0884-2.9414l1.064-1.1206l0.1128-0.1191l0.0972-0.103l-0.312-0.1709
		c-1.3101-0.7153-1.293-2.4121-0.8804-3.6479c0.3921-1.1782-0.0967-1.998-0.4907-2.3472v-1.9741l-2.145-2.124v-9.5249l0.5518-0.9478
		l-0.5518-0.8643v-33.561c0.4951-0.7568,0.4639-1.356,0.3921-1.6621c0.6147-0.6206,0.2979-2.1299,0.1348-2.7437
		c1.1982-0.8691,1.0459-2.1821,0.7373-2.9131l2.1968-2.2681l-2.1938-0.3608v-1.3369l-0.0972-0.082
		c-0.8931-0.7554-0.6899-2.5601-0.603-3.1084c1.2231-0.418,1.3589-1.8887,1.3662-2.4209l3.9751-1.834v-1.791l3.7417-2.3672
		l-15.5718-3.751l-1.1431,0.5811l-14.8721-3.2266l0.4038-0.2202l-1.2188-0.9302l-15.5381-3.582l-0.124-0.0278l-1.9878,1.5049
		c-0.7222-0.0967-4.7153-0.6348-4.7153-0.6348l-0.1079-0.0132l-8.1729,5.9409l-1.355,1.4961l1.314,0.187l-0.0659,0.2612
		l1.2217,0.1387l0.626,0.4263l-0.6958,0.436l-5.4009-0.2544l-6.6353,4.6274l-1.4609,1.751l1.6812,0.9648l1.269,1.249l0.8149,1.5371
		h2.4878l1.0693,0.5059c-0.1943,0.314-0.4272,0.8418-0.2451,1.3701c0.0791,0.23,0.2617,0.4668,0.4951,0.769
		c0.5347,0.6919,1.2646,1.6357,1.0659,2.998l-0.1362,0.2578l-0.0317,1.4761l-2.332,1.8047l0.8477,0.481l0.8994,1.1304
		c-0.1333,0.3228-0.2983,1.0317,0.2817,1.9287c0.6201,0.957,0.6499,1.6733,0.6543,1.6724
		c-0.0093,0.0537-0.1343,0.9629,0.4487,1.6499v0.7817c-0.0049,0.1001-0.0332,0.937,0.4702,1.2061
		c0.1519,0.1973,0.875,1.2842,0.875,4.0659v13.5513l-0.6313,0.4727v1.3262l0.6313-0.4419v0.3438
		c-0.1621,0.0952-0.4189,0.2554-0.5522,0.3872c-0.0728,0.0742-0.311,0.3442-0.271,0.7002c0.0181,0.1616,0.1021,0.395,0.4028,0.5869
		l0.0903,0.0361c0.001,0,0.0781,0.0239,0.0781,0.1729v0.6318c-0.0474,0.0239-0.0962,0.0571-0.145,0.1011
		c-0.1621,0.147-0.2593,0.377-0.2881,0.6831c-0.207,0.0879-0.4473,0.2617-0.5601,0.5591c-0.1362,0.3647-0.2451,1.2129,0.272,1.9009
		c-0.0132,0.5029,0.1357,1.2939,0.7632,1.5161v6.8921l-0.7363,0.3936v2.1084l0.7573-0.4414v8.6152l-0.9624,0.6309v0.5239
		l-1.5928,1.3252v0.8262l-0.8828,0.5347v0.9893l1.187,0.356c-0.2593,0.519-0.5483,1.6089,0.4209,3.0869v2.4263l0.8857,1.3726
		c-0.1357,0.415-0.4526,1.6914,0.1562,3.2661v1.8223c-0.439,0.3149-1.8022,1.4497-1.4731,3.1826
		c0.106,0.3794,0.519,1.063,1.3472,1.1904l0.0029,1.7446c-0.002,0.0103-0.1812,1.0259-1.7451,1.9043
		c-1.5928,0.894-1.7197,1.4561-1.8682,2.106c-0.021,0.0928-0.043,0.188-0.0708,0.2871c-0.0508,0.1846-0.2832,0.3506-0.5518,0.5439
		c-0.5254,0.376-1.2354,0.8838-1.3022,2.0391l-2.0352,0.875v2.3779l1.582,3.6045l0.188-0.0098
		c1.0659-0.0576,2.3403,0.0889,2.4692,0.3838c0.1787,0.4082,1.7588,3.875,4.0137,4.1416v15.7646l0.0225,0.1084
		c0.0386,0.0889,0.9629,2.2041,2.7749,2.4746l0.4077,0.0635c1.8413,0.2842,4.3213,0.6709,4.9321-0.4053
		c0.2241,0.0098,0.4893-0.0371,0.7202-0.2432c0.522-0.4658,0.603-1.4863,0.2456-3.1182c0.5571-0.793,1.8594-2.6104,2.2031-2.9248
		c0.106-0.0957,0.228-0.1748,0.3481-0.2529c0.3818-0.252,0.855-0.5645,0.8418-1.3428c0.1851-0.125,0.7529-0.3887,2.0322-0.1865
		c1.8447,0.2969,2.4717-1.166,2.8481-2.0381c0.0469-0.1084,0.0908-0.2119,0.1328-0.3018c0.103-0.2168,0.188-0.5273,0.2861-0.8857
		c0.272-0.998,0.644-2.3643,1.6108-2.3643c1.0718,0,2.7358-1.0703,3.7319-2.8721l9.5142,0.2979v15.6816l1.6089,0.8906
		c1.5029,0.7061,3.105,0.8916,4.3789,0.8916c1.3853,0,2.3833-0.2207,2.437-0.2344c1.228-0.0664,1.291-1.4199,1.3472-2.6162
		c0.0117-0.2617,0.0249-0.5283,0.0469-0.7881c0.0723-0.8291,1.2471-1.8633,2.105-2.6182c0.6211-0.5469,0.9492-0.8447,1.0361-1.1025
		c0.0879-0.2676,0.8569-0.6406,1.4551-0.8232c3.0801-0.1367,4.8628-3.1035,4.9219-4.1045c0.0381-0.666,0.688-1.1318,0.8838-1.2568
		c1.5483-0.0176,2.8062-0.5195,3.7373-1.4971c1.6719-1.7549,1.7681-4.4697,1.7607-5.1787c0.7061-0.4531,0.7852-1.2764,0.6963-1.8613
		h0.731v-0.6777c1.269-0.3271,1.5317-1.1406,1.584-1.5186c0.8301-0.4375,0.9917-1.2812,1.02-1.6895
		c1.1641-0.3369,1.8657-1.2388,2.0918-1.5757l2.5781,0.207v-1.4731h0.7881v-1.0508h0.6421v-1.6641
		c0.7046-0.668,0.7739-1.7222,0.7769-1.769l0.0151-0.2603L371.4712,289.8613z M368.5361,275.0576
		c-0.7856,1.6978-0.481,4.3477,0.3145,5.2607c-0.0503,0.585-0.1743,2.9629,0.8706,4.5889c1.1323,1.7622,1.5283,3.4141,1.1899,4.9199
		l-6.1606-0.6738c0.2661-1.9629,0.1807-2.9658-1.0972-4.9717c-1.314-2.0625-0.7012-4.0913-0.6948-4.1113l0.021-0.0679l-0.042-0.0562
		c-0.543-0.709-0.46-3.4189-0.042-5.5039c0.2598-1.3018-0.2671-2.0562-0.6621-2.4258l6.3027,0.4067l0.02,0.0312
		C368.5854,272.4976,369.2441,273.5273,368.5361,275.0576 M361.6465,262.8755v1.6797l-0.8901,0.4624v-1.6602L361.6465,262.8755z
		 M360.7563,263.0454v-48.918l0.8901-0.375v48.814h-0.0029L360.7563,263.0454z M361.6465,264.8643v5.5942l-0.8901,0.3657v-5.4971
		L361.6465,264.8643z M361.6562,270.7505v1.0029l-0.8999,0.3169v-0.9512L361.6562,270.7505z M361.7803,271.9995
		c0.231,0.1387,1.1621,0.8081,0.8452,2.3887c-0.3599,1.8052-0.5742,4.7153,0.0527,5.667c-0.103,0.3823-0.521,2.2881,0.7441,4.2744
		c1.2378,1.9409,1.3179,2.8638,1.0562,4.7939l-2.5723-0.2812l-1.1499,0.1641v-16.645L361.7803,271.9995z M368.5522,272.1504
		l-6.623-0.4292v-1.0278l7.5444,0.4858L368.5522,272.1504z M368.6826,267.0112c-0.4141,1.2422-0.4482,2.8872,0.584,3.8804
		l-7.3374-0.4731v-0.0762l-0.0088,0.0039v-5.563l6.2441,0.311v0.02l0.1177,0.0811
		C368.2915,265.2012,369.0962,265.7715,368.6826,267.0112 M368.1646,264.8184l-6.2441-0.3101v-1.6577l6.2441,0.2529V264.8184z
		 M367.8872,262.8184l-5.9668-0.2422v-47.8047c0.0288,1.6621,0.2349,4.5757,1.2817,5.665c0.2783,0.29,0.603,0.437,0.9634,0.437
		c0.4678,0,0.873-0.1772,1.2036-0.5273c0.2861-0.2998,0.4951-0.7056,0.6494-1.1519v30.3682l0.458,0.7168l-0.458,0.7871v9.9019
		L367.8872,262.8184z M361.9204,213.8066v-0.1074h0.002C361.9214,213.7295,361.9214,213.7676,361.9204,213.8066 M362.1963,213.7295
		l4.1929,0.4629l0.0063,0.0122c0.0107,0.022,0.252,0.5566-0.3281,1.3979l-0.0488,0.0698v2.3608
		c-0.1313,0.8052-0.3794,1.6323-0.8481,2.125c-0.2822,0.2974-0.6099,0.4414-1.0049,0.4414c-0.2871,0-0.5381-0.1152-0.7661-0.353
		C362.1392,218.9365,362.1772,214.5576,362.1963,213.7295 M366.6313,211.0874l-0.1758,0.1099l0.0601,0.2002
		c0.2559,0.8647,0.4229,2.1968-0.0122,2.4468l-0.1191,0.0723l-4.5859-0.5063l-0.0361-0.0039l-1.0059,0.4233v-5.2354
		c0-0.0029-0.001-0.0039-0.001-0.0068l1.063-0.7642l5.4292,0.748l0.0127,0.0249
		C367.2944,208.6602,368.0806,210.1816,366.6313,211.0874 M367.7202,206.4282l1.187,0.1963l-1.623,1.6748l-5.5356-0.7632
		l-1.0513,0.7554c-0.1338-0.541-0.5718-0.8779-0.813-1.0151v-0.7559l1.752-1.1094l5.6499,0.9453v0.001l0.4263,0.0698
		L367.7202,206.4282z M336.1611,300.3496c-0.0205-0.0547-0.0596-0.1172-0.1309-0.168v-0.29h1.02v-0.5391
		c0.562-0.1211,1.332-0.5391,1.3599-1.5122c0.2651-0.0938,0.7251-0.3149,0.9102-0.7529c0.1211-0.2852,0.106-0.604-0.0449-0.9482
		c0.416-0.1426,1.1558-0.4766,1.6118-1.1299l17.6353,1.1382l0.7607-0.0933l-15.478,5.0952l-7.6489-0.4873
		C336.1885,300.5527,336.2012,300.4463,336.1611,300.3496 M341.1372,294.5322c0.0439-0.1167,0.084-0.2358,0.1084-0.3667
		l2.8379,0.1587v-2.2119l0.7988,0.063v-0.8438l0.8833,0.063v-1.1934c0.2158-0.1709,0.7246-0.6108,1.1289-1.2129l11.3521,0.8101
		v5.8408L341.1372,294.5322z M358.5112,289.3286l-11.3589-0.8164c0.042-0.0889,0.0981-0.167,0.1328-0.2598l0.1172-0.312
		l-8.686-0.519c0.0469-0.1392,0.0889-0.2808,0.1401-0.415c0.4038-1.0718,0.8218-2.1812-1.0571-4.061
		c-2.041-2.04-1.0537-5.1729-1.0439-5.2051l0.0391-0.123l-0.0781-0.104c-0.0098-0.0127-0.9819-1.2998-0.5132-2.5708
		c0.1021-0.2729,0.2002-0.5151,0.2925-0.7358c0.3809-0.9272,0.6548-1.5962,0.3599-2.9663
		c-0.1299-0.6079-0.3252-1.3218-0.5669-1.6758l0.355-0.5068l23.6206,2.4609v17.5586L358.5112,289.3286z M320.3184,287.0293
		c-0.3208-0.583-0.3892-1.3208-0.1831-1.9751c0.3721-1.1836,1.604-2.0376,1.6592-2.082c1.6167-1.7388,1.8359-4.377,1.8608-4.7979
		c0.147-0.3149,0.7642-1.9238-0.416-4.6401c-0.5977-1.3809-0.5039-2.1626-0.3501-2.5889c0.188-0.52,0.8521-0.8262,0.8521-0.8262
		l1.835-0.7158l2.561-0.2129v17.5981l-3.229-0.1934l-0.0508-0.0029l-3.6172,1.2891l0.0161-0.0581
		C320.8784,287.7236,320.5464,287.4424,320.3184,287.0293 M320.6235,194.2266c-0.0073,0.189,0,0.4038,0.0229,0.6289l-4.7002,3.125
		c-0.3501-1.7891-2.0352-4.0669-2.5137-4.6821l0.0596-0.0762l2.3193-1.4839c0.3076,0.291,0.478,0.5962,0.5679,0.8613
		c0.064,0.3467,0.0059,0.6187,0.001,0.6387l-0.062,0.2593L320.6235,194.2266z M335.7754,198.4556
		c-0.8501-0.5742-0.624-2.0781-0.5298-2.5474c1.3926-0.376,1.7549-1.564,1.7539-2.4448l22.9917,4.9058v7.4932l-0.5366,0.3511
		l-22.563-4.3062l1.5957-1.333l-2.604-0.5508v-1.4941L335.7754,198.4556z M335.3916,198.7842v1.293l-5.9102-1.1416l-0.0488-0.0093
		l-0.582,0.334v-6.731l0.9316-0.813l6.6934,1.3579c0.04,0.25,0.2598,2.0142-1.4893,2.3901l-0.1489,0.0332l-0.0381,0.146
		C334.7744,195.7354,334.2354,197.8594,335.3916,198.7842 M336.9834,193.1802c-0.002-0.019-0.001-0.043-0.0039-0.062l1.8979-1.0039
		l20.1997,4.3501c0,0,0.7632,0.689,0.8872,1.6191L336.9834,193.1802z M336.5195,192.8052l-6.75-1.3696l-0.0664-0.0142
		l-0.9829,0.8589l-1.3496-2.208l2.1406-1.6938l10.9253,2.353L336.5195,192.8052z M327.6006,200.9233
		c0.0918,0.2119,0.27,0.6753,0.396,1.123l-3.7461-0.2222l-0.0474-0.002l-2.8979,1.9761c-0.3389-0.4619-0.8657-0.8701-1.208-1.105
		l4.0342-2.8101l3.4492,0.2422v0.6997L327.6006,200.9233z M327.6045,199.8525l-3.5483-0.249l-1.918,1.2778v-1.4629
		c0.8281-1.0801,0.4824-2.2231,0.4673-2.2729l-0.0293-0.0889l-0.0806-0.0483c-1.2734-0.7559-1.4473-2.0308-1.3682-2.9678
		l0.019-0.2251c0,0,0.043-0.3179,0.207-0.5791l2.374-1.5269l4.6309,0.9429v6.7393L327.6045,199.8525z M328.1772,192.3364
		l-4.3848-0.8931l-1.0542-2.0518l4.1641,0.8599L328.1772,192.3364z M323.5225,191.5166l-2.73,1.7397
		c-0.0581,0.1753-0.0952,0.3369-0.1201,0.478l-3.5728-0.605l5.3369-3.729L323.5225,191.5166z M320.6904,195.1562
		c0.1357,0.7661,0.5171,1.6211,1.4648,2.2202c0.0542,0.2568,0.1543,1.0571-0.4531,1.7998l-0.0557,0.0693v1.7666l-2.4419,1.7031
		l0.3247,0.1948c0.6509,0.395,1.665,1.2173,1.6079,1.748c-0.001,0.0054-0.001,0.0112-0.002,0.0161l-5.1328,3.1582v-9.5601
		L320.6904,195.1562z M321.0854,205.0273c-0.0679,0.7979,0.1328,1.9731,1.252,2.5488c-0.0669,0.478-0.1499,1.7134,0.604,2.5723
		c0.0059,0.0098,0.6538,1.022,0.6538,2.0259l-0.001,0.2163c-0.001,0.3105-0.002,0.7148,0.0171,1.1455l-6.7158,4.1191l-0.0649,0.04
		v12.876l7.2227-4.5239v1.9761l-7.1577,4.4092l-0.0649,0.0396v31.061l3.8989-1.7188l1.0439,1.2368
		c-0.2812,1.9292,0.1768,2.7163,0.5459,3.3511c0.1621,0.2793,0.3022,0.52,0.355,0.8223c0.1133,0.6548-0.377,1.3179-0.6929,1.6699
		l-5.978,2.7041l-0.001-63.4443L321.0854,205.0273z M317.8794,233.9844v27.3818l5.1011-2.3389l-2.001,2.377l-3.875,1.71v-30.4897
		l6.9487-4.2793v1.8413L317.8794,233.9844z M324.0532,230.7656v15.4517l-1.1519,1.5293l1.3252,1.0518v8.748l-0.5044,0.5991
		l-5.3506,2.4531v-26.3384L324.0532,230.7656z M321.7222,261.2861l2.9961-3.5596v-9.165l-1.1338-0.9033l0.9609-1.2769v-30.3237
		c0.1099,0.1025,0.23,0.1968,0.3701,0.2676l0.083,0.043l0.0698-0.0615c0.0508-0.0454,0.2012-0.2661,0.3398-1.2964v44.6279
		L321.7222,261.2861z M325.4082,259.9375v1.4648l-3.23,1.3652l-0.8486-1.0054L325.4082,259.9375z M318.0386,219.0972l-0.1152,0.0732
		v9.0308l6.1299-3.877v1.4014l-6.9487,4.3516v-12.2275l6.5249-4.0044c0.0371,0.5571,0.1118,1.1343,0.271,1.6069L318.0386,219.0972z
		 M324.0532,215.9385v7.8027l-5.6377,3.5664v-7.8643L324.0532,215.9385z M324.9253,216.0166
		c-0.207-0.1323-0.3608-0.3262-0.4888-0.5474c-0.355-0.792-0.353-2.2617-0.3491-3.0767v-0.2183c0-0.7959-0.335-1.561-0.5601-1.9849
		l1.8799-1.3291C325.3955,214.2964,325.0444,215.6992,324.9253,216.0166 M322.8354,270.1665
		c-0.1372,0.127-0.2842,0.312-0.394,0.5718c-0.0312,0.0723-0.0381,0.1592-0.061,0.2373l-6.377,2.8037v-1.8789l5.5142-2.4951
		L322.8354,270.1665z M322.2954,271.3125c-0.082,0.6587,0.0801,1.4668,0.4932,2.4189c1.188,2.7368,0.4146,4.248,0.4077,4.2607
		l-0.0298,0.1094c-0.001,0.0278-0.1323,2.814-1.6919,4.5c-0.0571,0.0376-1.3843,0.9561-1.8091,2.3047
		c-0.2461,0.7803-0.1631,1.6621,0.2217,2.3623c0.1982,0.3579,0.4663,0.6328,0.7729,0.8198l-4.6567,1.6611v-15.6709
		L322.2954,271.3125z M325.5332,269.1313l-2.0947,0.813l-1.1123-0.6421l3.2534-1.376l2.5576-0.2471v1.2363L325.5332,269.1313z
		 M325.5322,267.6562l-2.9038,1.2222c0.3247-0.4468,0.646-1.0771,0.5308-1.7378c-0.0669-0.3901-0.2358-0.6792-0.4136-0.9863
		c-0.354-0.6079-0.7554-1.2988-0.4692-3.1309l3.3081-1.3989l2.5527,0.228v5.5527L325.5322,267.6562z M325.6826,261.3584v-1.4922
		l2.4546,0.2192v1.4932L325.6826,261.3584z M325.6826,259.5923v-50.8511l2.4546,0.1782v50.8921L325.6826,259.5923z
		 M325.5552,208.4575l-0.0498-0.0029l-2.1118,1.4946c-0.0303-0.0498-0.0532-0.0869-0.061-0.0977
		c-0.7871-0.9004-0.4829-2.3511-0.48-2.3662l0.0439-0.2002l-0.188-0.0786c-1.4893-0.6294-1.104-2.3921-1.0869-2.4673l0.0059-0.0298
		c0.0239-0.2271-0.0513-0.4561-0.1763-0.6792l2.8291-1.9297l3.7939,0.2246c0.0391,0.1743,0.063,0.335,0.063,0.4673v5.8521
		L325.5552,208.4575z M328.0723,200.7754v-0.6318l0.7783-0.4761v-0.0923l0.6289-0.3599l5.9121,1.1421v0.0659l2.001,0.4219
		l-1.9321,1.6162l-5.8779-1.0889l-1.0962,0.5747C328.3442,201.4326,328.1382,200.9316,328.0723,200.7754 M329.6245,201.6582
		l5.7837,1.0723l0.0181,0.0298c0.0371,0.063,0.9033,1.5552-0.375,2.48l-0.1318,0.0972l0.0371,0.1602
		c0.166,0.71,0.4609,2.7886-0.333,3.019l-0.2109,0.0605l0.001,0.0054l-4.5-0.5342l-0.0391-0.0049l-1.2451,0.6079v-5.8589
		c0-0.1699-0.0298-0.3672-0.0752-0.5713L329.6245,201.6582z M334.5562,211.8345l11.7925,2.0059v12.3511l-11.7925-1.771V211.8345z
		 M336.4404,267.9775l-6.4062-0.4712v-6.2271l6.0464,0.4551l0.0288,0.0352c0.0059,0.0088,0.6528,0.8101,0.4829,1.9497
		c-0.0391,0.2612-0.1147,0.5791-0.1948,0.917C336.1245,265.7734,335.8062,267.1416,336.4404,267.9775 M336.5986,268.2642
		l-0.8213,1.1694l-5.7432-0.418v-1.2363L336.5986,268.2642z M336.0713,261.4585l-6.0371-0.4541v-1.5718l6.2251,0.5596
		L336.0713,261.4585z M331.4575,215.4834c0.2837,0.2979,0.6011,0.4502,0.9419,0.4502c0.3638,0,0.687-0.1431,0.9609-0.4233
		c0.3252-0.332,0.5459-0.8389,0.7061-1.3896l-0.002,31.3848l0.5078,0.48l-0.709,1.792l-0.0171,10.0322l2.0962,1.8799l-5.9082-0.5312
		v-48.0269C330.2432,212.7944,330.6675,214.6494,331.4575,215.4834 M330.1343,208.3516l4.3232,0.5107
		c0.061,0.4229,0.1001,1.4253-0.3271,1.897l-0.063,0.0713l-0.001,1.9326c-0.1211,0.9482-0.374,2.0171-0.9019,2.5562
		c-0.2241,0.229-0.4741,0.3398-0.7651,0.3398c-0.2671,0-0.5103-0.1196-0.7432-0.3647
		C330.4585,214.0312,330.0894,209.9194,330.1343,208.3516 M336.0923,259.1626l-1.7539-1.5732v-9.6738l0.8159-2.0601l-0.5981-0.561
		v-18.4541l11.8882,1.7041v31.6792L336.0923,259.1626z M328.6294,267.4023v-5.6201l1.1309-0.4756v6.1797L328.6294,267.4023z
		 M329.7603,267.7583v1.2373l-1.1309-0.083v-1.2373L329.7603,267.7583z M328.6294,261.4854v-1.48l1.1309-0.541v1.5449
		L328.6294,261.4854z M328.6294,259.7002v-50.7456h0.002l1.1289-0.5513v50.7559L328.6294,259.7002z M328.6294,269.1885
		l6.9111,0.5029l0.3027,0.1011c0.0093,0.0088,0.2461,0.2261,0.5312,1.5527c0.2617,1.2192,0.0381,1.7671-0.3359,2.6733
		c-0.0933,0.2271-0.1934,0.4727-0.2974,0.7529c-0.4849,1.313,0.2593,2.5698,0.5093,2.938c-0.1782,0.6357-0.8442,3.541,1.1997,5.585
		c1.6553,1.6548,1.3262,2.5269,0.9453,3.5371c-0.0674,0.1787-0.1289,0.3687-0.188,0.5591l-9.5781-0.5732V269.1885z
		 M336.8232,268.8013l0.5029-0.7158l-0.2178-0.1392c-0.2588-0.1641-0.3999-0.416-0.4761-0.7109l23.6318,2.4619v1.5459
		L336.8232,268.8013z M336.5771,266.9546c-0.0679-0.6602,0.126-1.4844,0.2993-2.2041c0.083-0.3472,0.1611-0.6753,0.2041-0.959
		c0.1689-1.1333-0.3364-1.9771-0.5244-2.2451l0.2271-1.7651l-0.3447-0.3091l22.208,2.2773l0.1509,0.0161v-31.7271l-24.2412-3.4751
		v-1.8652l24.2412,3.6411v-12.6592l-24.2412-4.1235v-0.2363l0.0024-0.3047c0.4966-0.6333,0.4478-1.6753,0.4009-2.1084
		c1.0088-0.5508,0.645-2.7168,0.5107-3.3667c1.0581-0.8721,0.8223-2.1411,0.48-2.8472l0.6689-0.5591l22.7734,4.3452v1.1108
		l0.1489,0.064c0.0068,0.0029,0.7227,0.3179,0.7227,0.9399v60.8281L336.5771,266.9546z M346.7183,260.2515v-31.668l11.8052,1.6929
		v31.1851L346.7183,260.2515z M346.6226,226.2324v-12.3452l11.9009,2.0239v12.1104L346.6226,226.2324z M366.8296,200.8853
		l-0.1694,0.041l-0.0356,0.1699c-0.022,0.1069-0.5181,2.564,0.6616,3.708v1.1343l-5.6968-0.9482l-0.0518-0.0078l-1.0542,0.689
		v-7.3638l1.106-0.5771l6.3618,1.1309C367.9556,199.1934,367.9062,200.6274,366.8296,200.8853 M367.9692,198.5874l-6.3789-1.1353
		l-0.0459-0.0078l-1.0952,0.5723c-0.123-0.9062-0.6187-1.4683-0.9077-1.7173l2.0479-1.3198l9.9409,1.9639L367.9692,198.5874z
		 M374.8306,193.1816l-2.9033,1.8379v1.7227l-10.23-2.022c0.041-2.0576-0.5078-4.0708-0.7617-4.8848L374.8306,193.1816z
		 M359.5332,190.3516l1.1094-0.5332c0.231,0.7148,0.834,2.8071,0.7817,4.9409l-2.001,1.291
		c-0.2061-2.2148-0.9829-4.3398-1.248-5.0098L359.5332,190.3516z M358.7715,190.1855l-1.2261,0.6211l0.0898,0.2119
		c0.0112,0.0259,1.0811,2.5728,1.3071,5.145l-19.6899-4.2471l1.8628-0.9863c0.083-0.0439,0.1123-0.1299,0.1133-0.2178v-2.3389
		l2.626-1.4263L358.7715,190.1855z M328.2783,182.3862l15.251,3.4922l0.501,0.3809l-3.2769,1.8213v2.4399l-11.1392-2.3989
		l-0.002-1.5513c-0.0137-0.0879-0.353-2.1709-1.4277-3.939c-0.019-0.0342-0.0532-0.0562-0.0913-0.064
		c-0.0278-0.0039-0.0537,0.0078-0.0791,0.02L328.2783,182.3862z M325.9604,184.4956l2.0688-1.5913
		c0.9839,1.6953,1.3091,3.687,1.311,3.687v1.5752l-2.0718,1.6387c-0.269-2.6528-1.145-4.6929-1.3794-5.1958L325.9604,184.4956z
		 M314.5342,190.1865l-0.79-0.1211l0.061-0.2441l-0.897-0.1279l0.624-0.6938l7.9531-5.7749c2.6411,0.355,3.8071,0.5117,4.3271,0.582
		l-0.4131,0.6567c-0.0469,0.0752-0.0342,0.1592,0.0029,0.2329l-0.0142,0.0083c0.0112,0.0229,1.1191,2.2827,1.4004,5.2446
		l-4.2754-0.8848c-0.0386-0.0103-0.0757,0-0.106,0.022l-5.5049,3.8472c0.001-0.4312-0.1211-1.1123-0.7769-1.6772l-0.2144-0.1348
		l0.0015-0.001L314.5342,190.1865z M314.4043,192.0645l1.0439-0.6533l0.1289,0.0801l0.042,0.0464l-1.6108,1.0298L314.4043,192.0645z
		 M304.8105,200.8672l-0.6802-1.2847l-1.374-1.3691l-1.2041-0.7021l0.9683-1.1709l6.4517-4.499l4.8032,0.2251l-0.9712,1.2339
		l0.124,0.1528c0.0229,0.0283,2.209,2.7524,2.5522,4.6465l-5.3301-0.6484l-0.0498-0.0059l-5.2832,3.4219H304.8105z
		 M308.7212,203.7246c-0.1938-0.251-0.3599-0.4673-0.4106-0.6123c-0.1753-0.5117,0.3418-1.1128,0.3467-1.1182l0.2383-0.2739
		l-1.7461-0.8257l-1.8379-0.021l4.856-3.144l5.3438,0.6499v9.6279l-4.5088-0.3848l-0.0532-0.0044l-1.2148,0.9263v-1.0332
		l0.126-0.2388l0.0288-0.085C310.1465,205.5684,309.2896,204.4585,308.7212,203.7246 M310.4014,217.0913
		c-0.4141-0.499-0.3242-1.1968-0.3198-1.2427c0-0.0352-0.0083-0.8823-0.7383-2.0093c-0.5776-0.894-0.207-1.4888-0.1919-1.5112
		l0.1128-0.167l-1.1655-1.4658l-0.2583-0.1699l1.894-1.4648l1.459-1.146l4.3179,0.3677v7.6753l-2.626-0.5464L310.4014,217.0913z
		 M313.1304,263.3345v-47.5933l2.3809,0.4951v47.2778L313.1304,263.3345z M315.5112,263.7896v1.563l-2.3809-0.1792v-1.564
		L315.5112,263.7896z M310.7275,264.5332l0.9619-0.6309v-9.8638l-0.7568,0.4409v-0.8262l0.7358-0.395v-7.686l-0.2471-0.0249
		c-0.583-0.0562-0.5122-1.082-0.5112-1.0928l0.0083-0.1133l-0.0723-0.0859c-0.4009-0.4702-0.3667-1.1191-0.2456-1.4399
		c0.083-0.2241,0.3579-0.2793,0.3579-0.2793l0.2271-0.0396v-0.23c0-0.3574,0.0977-0.499,0.1416-0.5044l0.2993,0.0283v-1.1431
		c0-0.4229-0.2661-0.625-0.4492-0.6899c-0.0767-0.0552-0.1177-0.1113-0.125-0.166c-0.0098-0.085,0.0542-0.1919,0.1162-0.2529
		c0.1011-0.1021,0.4028-0.2842,0.5679-0.374l0.1431-0.0781v-1.7183v-13.856c0-3.353-1.0122-4.4351-1.0552-4.479l-0.0977-0.0649
		c-0.1431-0.0557-0.2051-0.4487-0.1934-0.7129v-0.9229l2.3232-1.5723v47.6201l-2.1289,1.1992V264.5332z M309.1353,266.2192
		l1.5923-1.3247l2.1289-1.1992v1.5142l-3.7212,1.5918V266.2192z M308.2515,268.0293v-0.395l4.7651-2.1948l2.4946,0.189v1.7891
		l-2.5078-0.1719l-0.0278-0.0015l-3.4414,1.1704L308.2515,268.0293z M309.8135,271.6436c-1.1802-1.7422-0.3291-2.7891-0.293-2.8301
		l0.1309-0.1499l3.3599-1.1431l2.5,0.1719v5.332l-2.5366-0.2461l-3.1143,1.1973v-2.2612L309.8135,271.6436z M309.9224,274.2432
		l3.0898-1.1865l2.499,0.2417v1.3223l-2.542-0.1553l-2.2856,0.9561L309.9224,274.2432z M306.3145,292.1724
		c0.3379-0.2432,0.6577-0.4722,0.7607-0.8418c0.0303-0.1094,0.0542-0.2134,0.0771-0.314c0.1289-0.5664,0.2222-0.9751,1.6011-1.75
		c1.8208-1.021,2.0132-2.251,2.022-2.3413v-2.313h-0.2739c-0.8452,0-1.084-0.7778-1.0869-0.7871
		c-0.3071-1.6187,1.3418-2.6709,1.3579-2.6816l0.1289-0.0801v-2.1689l-0.019-0.1011c-0.6729-1.6948-0.1338-3.0293-0.1279-3.042
		l0.0308-0.0771l2.2314-0.9312l2.4946,0.1523v15.0288l-10.2207,3.645C305.4175,292.8535,305.8613,292.4966,306.3145,292.1724
		 M304.5884,300.0586l-1.3828-3.0991v-1.958l2.0298-0.873l19.6929-7.0381l21.7554,1.3003c-0.4551,0.8677-1.2993,1.481-1.3071,1.4888
		l-0.103,0.0742v0.9126l-0.8828-0.063v0.8394l-0.7993-0.063v2.2227l-2.7881-0.1558l-0.019,0.2407
		c-0.0269,0.3511-0.1558,0.6401-0.334,0.8784l-14.0288-0.769l-0.0469-0.0024l-19.4453,6.3623
		C306.2744,300.0518,305.1636,300.043,304.5884,300.0586 M322.2632,316.1475c-0.1426,0.0938-0.2856,0.1914-0.4136,0.3057
		c-0.4712,0.4287-2.1611,2.8408-2.3521,3.1152l-0.0703,0.0996l0.0273,0.1182c0.4517,1.9883,0.1177,2.5537-0.0464,2.7041
		c-0.1846,0.166-0.4297,0.0908-0.438,0.0879l-0.2759-0.0957l-0.0781,0.2822c-0.2446,0.8896-2.957,0.4697-4.417,0.2441
		l-0.4087-0.0635c-0.314-0.0469-0.5942-0.1719-0.8481-0.332c0.1802-0.5869,0.5972-2.1426,0.2202-3.0127l1.8398-0.458l0.0488-0.0107
		l3.812-5.457c0.124-0.2432,0.5459-0.8682,1-0.8682h0.0039c0.312,0.001,0.6162,0.293,0.8921,0.8389
		c0.0132,0.0518,0.3521,1.2188,2.0933,1.5752C322.8765,315.7314,322.6333,315.9043,322.2632,316.1475 M333.6704,306.2246
		l-0.0249-0.0137c-0.8779,1.6855-2.4111,2.7285-3.3281,2.7285c-1.3848,0-1.8398,1.665-2.1392,2.7656
		c-0.0908,0.335-0.1699,0.624-0.252,0.7959c-0.0459,0.0967-0.0928,0.2041-0.1421,0.3213c-0.457,1.0605-0.9307,1.9229-2.2588,1.7129
		c-1.8931-0.3047-2.5078,0.3125-2.6001,0.4219c-1.583-0.3145-1.8892-1.3359-1.9111-1.4062
		c-0.3369-0.6748-0.7217-1.0166-1.146-1.0186h-0.0049c-0.7129,0-1.2227,0.9746-1.2349,1.001l-3.7412,5.3564l-2.144,0.5342
		l0.1011,0.1592c0.4321,0.6816,0.0562,2.2041-0.1367,2.8613c-0.7163-0.5576-1.1489-1.3916-1.249-1.6006v-16.2363h-0.2729
		c-1.6714,0-3.207-2.5059-3.7871-3.8301c-0.0068-0.0166-0.0239-0.0293-0.0332-0.0449l19.0752-6.2422l13.5181,0.7412
		c-0.5171,0.3711-1.084,0.5127-1.0942,0.5151l-0.3379,0.0757l0.1812,0.2939c0.1929,0.3101,0.2456,0.5732,0.1597,0.7783
		c-0.1338,0.3198-0.5947,0.4858-0.7598,0.5239l-0.208,0.0469l0.0151,0.21c0.0757,1.0767-1.0083,1.2104-1.1323,1.2222l-0.2236,0.0195
		v0.4824h-1.02v0.9404l0.0146,0.2021l0.125,0.0273c-0.0508,0.1191-0.1899,0.3242-0.2876,0.4688
		c-0.2451,0.3613-0.5215,0.7705-0.5654,1.166c-0.0459,0.4141-0.187,0.5293-0.2178,0.5391h-0.2612l0.0151,0.2598
		C334.4253,304.1357,334.1934,305.2197,333.6704,306.2246 M356.0034,316.8428c-0.0488,0.1357-0.5093,0.541-0.8789,0.8652
		c-0.978,0.8623-2.1963,1.9355-2.2871,2.9824c-0.0239,0.2666-0.0371,0.54-0.0479,0.8086c-0.0659,1.3984-0.168,2.0605-0.876,2.1016
		c-0.0312,0.0059-2.624,0.5732-5.2251-0.1436c0.1938-0.3223,0.4541-0.8721,0.3677-1.4121
		c-0.0459-0.2881-0.1826-0.5352-0.4087-0.7373l1.856-0.9121l4.8911-6.583c0.1211-0.0771,0.8169-0.498,1.395-0.333
		c0.2856,0.085,0.5049,0.3076,0.6538,0.6631c0.4321,1.0381,1.0669,1.5791,1.6719,1.8008
		C356.6484,316.1504,356.1323,316.4561,356.0034,316.8428 M372.9844,297.9282l-0.229,0.0503l0.0132,0.2339
		c0.0029,0.0439,0.0537,1.0747-0.8423,1.4546l-0.1807,0.0771l0.0146,0.1953c0,0.0088,0.0503,0.9111-1.3779,1.1904l-0.2212,0.043
		v0.5752h-0.8999l0.1133,0.3574c0.0161,0.0488,0.375,1.2139-0.4922,1.6494l-0.1577,0.0791l0.0068,0.1777
		c0.0029,0.0303,0.127,3.1299-1.6089,4.9473c-0.8384,0.8799-1.9883,1.3252-3.415,1.3252l-0.1333,0.0342
		c-0.0469,0.0273-1.1577,0.6543-1.2207,1.7383c-0.0483,0.8193-1.7354,3.4717-4.4644,3.5996
		c-0.064,0.0195-0.1909,0.0596-0.3457,0.1143c-0.6201-0.0947-1.3662-0.5742-1.8481-1.7324
		c-0.1821-0.4365-0.4609-0.7129-0.8301-0.8203c-0.7646-0.2266-1.6079,0.3555-1.644,0.3818l-4.8687,6.5645l-2.2363,1.0996
		l0.1982,0.1318c0.2681,0.1787,0.4268,0.4121,0.4707,0.6904c0.0781,0.4893-0.1958,1.0146-0.3696,1.29
		c-0.334-0.1035-0.668-0.2266-0.9941-0.3799l-1.3101-0.7256v-15.8877l-9.8379-0.3096c0.4067-0.915,0.6172-1.9082,0.5879-2.9131
		c0.1763-0.1006,0.3911-0.3408,0.4531-0.8994c0.0308-0.2764,0.2827-0.6475,0.4849-0.9473c0.041-0.0605,0.0762-0.1152,0.1143-0.1719
		l7.9556,0.5059l17.9272-5.9009l0.188-0.0229l12.7949,1.0317C374.4712,297.1353,373.8633,297.7363,372.9844,297.9282
		 M378.9653,292.5186l-0.0991,0.0811v1.3687h-0.6416v1.0513h-0.7881v1.4287l-2.1621-0.1738l-0.2729,0.002v0.002l-13.0269-1.0459
		l-3.2363,0.396v-5.8408l3.1753-0.457l8.9326,0.9849l-0.0029,0.0278l8.7642,0.9663
		C379.5454,291.6284,379.3813,292.1743,378.9653,292.5186"/>
</g>
</svg>
