<?xml version="1.0" encoding="UTF-8" standalone="no"?>
<svg
   xmlns:dc="http://purl.org/dc/elements/1.1/"
   xmlns:cc="http://creativecommons.org/ns#"
   xmlns:rdf="http://www.w3.org/1999/02/22-rdf-syntax-ns#"
   xmlns:svg="http://www.w3.org/2000/svg"
   xmlns="http://www.w3.org/2000/svg"
   xmlns:sodipodi="http://sodipodi.sourceforge.net/DTD/sodipodi-0.dtd"
   xmlns:inkscape="http://www.inkscape.org/namespaces/inkscape"
   version="1.1"
   viewBox="0 0 630 630"
   id="svg2"
   inkscape:version="0.91 r13725"
   sodipodi:docname="uppsalajs.svg"
   enable-background="new">
  <title
     id="title4730">Uppsala.js</title>
  <g
     inkscape:groupmode="layer"
     id="layer2"
     inkscape:label="Yellow square"
     style="display:inline">
    <rect
       style="fill:#f7df1e"
       height="630"
       width="630"
       y="0"
       x="0"
       id="background" />
  </g>
  <g
     inkscape:groupmode="layer"
     id="layer5"
     inkscape:label="Dome"
     style="display:inline">
    <path
       inkscape:connector-curvature="0"
       style="display:inline;fill:#000000"
       d="m 508.19727,45.666019 -35.76172,274.283201 -0.69336,13.54101 -14.23633,13.54102 2.08398,2.42969 -2.43164,66.66211 -4.85937,8.33203 -0.34766,13.19336 -84.71484,6.94531 -0.34766,-46.17773 7.63867,0.34765 -0.69531,-3.47265 -6.25,-1.04102 -0.69336,-4.51367 -15.27734,-134.36524 -20.13672,133.66993 -0.69531,4.51367 -6.94336,1.04297 0.34765,2.77734 7.29102,-0.34766 -0.69531,47.21875 c 0,0 -58.32848,-5.90234 -60.06446,-5.90234 -1.73597,0 -7.98437,15.27539 -7.98437,15.27539 l -15.9707,0.34766 0.69335,-5.90235 1.73633,-3.4707 -1.04101,-6.94531 -2.43164,0 -4.51368,9.375 1.38868,10.76367 -20.13672,32.28906 -4.16602,0.34571 -1.04101,22.91601 -5.90235,11.10938 -52.42773,27.08203 -8.33203,-0.69532 -3.47266,1.73633 L 144.34766,630 630,630 l 0,-154.3125 -0.97852,-40.46875 -3.82031,-7.98633 0.34766,-27.42773 -2.42969,-4.86133 0.3457,-32.28906 1.73633,-1.04102 -13.19336,-12.49805 0,-12.15234 -33.33008,-266.994137 -34.02539,269.076167 -3.125,-3.81836 0,-17.70703 -33.33007,-271.853511 z"
       id="background-4" />
  </g>
  <metadata
     id="metadata12">
    <rdf:RDF>
      <cc:Work
         rdf:about="">
        <dc:format>image/svg+xml</dc:format>
        <dc:type
           rdf:resource="http://purl.org/dc/dcmitype/StillImage" />
        <dc:title>Uppsala.js</dc:title>
        <dc:creator>
          <cc:Agent>
            <dc:title>Peter Jaric</dc:title>
          </cc:Agent>
        </dc:creator>
        <dc:rights>
          <cc:Agent>
            <dc:title></dc:title>
          </cc:Agent>
        </dc:rights>
        <dc:subject>
          <rdf:Bag>
            <rdf:li>uppsala js logo</rdf:li>
          </rdf:Bag>
        </dc:subject>
        <dc:description>The official Uppsala.js logo. Derived from the (un)official JavaScript logo by voodootikigod (https://github.com/voodootikigod/logo.js/)</dc:description>
        <dc:contributor>
          <cc:Agent>
            <dc:title>Johan Olsson
Josef Henryson</dc:title>
          </cc:Agent>
        </dc:contributor>
      </cc:Work>
    </rdf:RDF>
  </metadata>
  <defs
     id="defs10" />
  <sodipodi:namedview
     pagecolor="#ffffff"
     bordercolor="#666666"
     borderopacity="1"
     objecttolerance="10"
     gridtolerance="10"
     guidetolerance="10"
     inkscape:pageopacity="0"
     inkscape:pageshadow="2"
     inkscape:window-width="1857"
     inkscape:window-height="1057"
     id="namedview8"
     showgrid="false"
     inkscape:zoom="1"
     inkscape:cx="292.37401"
     inkscape:cy="397.39314"
     inkscape:window-x="55"
     inkscape:window-y="-8"
     inkscape:window-maximized="1"
     inkscape:current-layer="layer5"
     inkscape:showpageshadow="false"
     showborder="false" />
  <g
     style="display:inline;opacity:1;"
     inkscape:label="JS"
     id="g4778"
     inkscape:groupmode="layer">
    <g
       style="fill:#f7df1e;fill-opacity:1"
       id="g4780"
       transform="matrix(0.47571874,0,0,0.47571874,330.21376,332.18671)">
      <path
         style="fill:#f7df1e;fill-opacity:1"
         inkscape:connector-curvature="0"
         d="m 165.65,526.47375 48.2125,-29.1775 C 223.16375,513.7875 231.625,527.74 251.92,527.74 c 19.45375,0 31.71875,-7.60975 31.71875,-37.21 l 0,-201.3 59.20375,0 0,202.1375 c 0,61.32 -35.94375,89.23125 -88.385,89.23125 -47.36125,0 -74.8525,-24.52875 -88.8075,-54.13"
         id="path4782" />
      <path
         style="fill:#f7df1e;fill-opacity:1"
         inkscape:connector-curvature="0"
         d="m 375,520.13 48.20625,-27.91125 c 12.69,20.72375 29.1825,35.9475 58.36125,35.9475 24.53125,0 40.17375,-12.26475 40.17375,-29.18125 0,-20.29875 -16.06875,-27.48875 -43.135,-39.32625 l -14.7975,-6.3475 c -42.715,-18.18125 -71.05,-41.0175 -71.05,-89.2275 0,-44.40375 33.83125,-78.2375 86.695,-78.2375 37.6375,0 64.7025,13.11125 84.15375,47.36625 l -46.09625,29.60125 c -10.15,-18.1825 -21.1425,-25.37125 -38.0575,-25.37125 -17.33875,0 -28.335,10.995 -28.335,25.37125 0,17.7625 10.99625,24.9525 36.3675,35.94875 l 14.8,6.3425 c 50.325,21.56875 78.66,43.5575 78.66,93.03375 0,53.2875 -41.86625,82.465 -98.11,82.465 -54.97625,0 -90.5,-26.2175 -107.83625,-60.47375"
         id="path4784" />
    </g>
  </g>
</svg>
