<svg xmlns:dc="http://purl.org/dc/elements/1.1/" xmlns:cc="http://creativecommons.org/ns#" xmlns:rdf="http://www.w3.org/1999/02/22-rdf-syntax-ns#" xmlns:svg="http://www.w3.org/2000/svg" xmlns="http://www.w3.org/2000/svg" version="1.1" viewBox="0 0 630 630" enable-background="new"><title>Uppsala.js</title><rect height="630" width="630" y="0" x="0" fill="#f7df1e"/><path d="m508.2 45.7-35.8 274.3-0.7 13.5-14.2 13.5 2.1 2.4-2.4 66.7-4.9 8.3-0.3 13.2-84.7 6.9-0.3-46.2 7.6 0.3-0.7-3.5-6.2-1-0.7-4.5-15.3-134.4-20.1 133.7-0.7 4.5-6.9 1 0.3 2.8 7.3-0.3-0.7 47.2c0 0-58.3-5.9-60.1-5.9-1.7 0-8 15.3-8 15.3l-16 0.3 0.7-5.9 1.7-3.5-1-6.9-2.4 0-4.5 9.4 1.4 10.8-20.1 32.3-4.2 0.3-1 22.9-5.9 11.1-52.4 27.1-8.3-0.7-3.5 1.7L144.3 630 630 630l0-154.3-1-40.5-3.8-8 0.3-27.4-2.4-4.9 0.3-32.3 1.7-1-13.2-12.5 0-12.2-33.3-267-34 269.1-3.1-3.8 0-17.7-33.3-271.9z" fill="#000"/><metadata><rdf:RDF><cc:Work rdf:about=""><dc:format>image/svg+xml</dc:format><dc:type rdf:resource="http://purl.org/dc/dcmitype/StillImage"/><dc:title>Uppsala.js</dc:title><dc:creator><cc:Agent><dc:title>Peter Jaric</dc:title></cc:Agent></dc:creator><dc:subject><rdf:Bag><rdf:li>uppsala js logo</rdf:li></rdf:Bag></dc:subject><dc:description>The official Uppsala.js logo. Derived from the (un)official JavaScript logo by voodootikigod (https://github.com/voodootikigod/logo.js/)</dc:description><dc:contributor><cc:Agent><dc:title>Johan Olsson
Josef Henryson</dc:title></cc:Agent></dc:contributor></cc:Work></rdf:RDF></metadata><g transform="matrix(0.47571874,0,0,0.47571874,330.21376,332.18671)" fill="#f7df1e"><path d="m165.7 526.5 48.2-29.2C223.2 513.8 231.6 527.7 251.9 527.7c19.5 0 31.7-7.6 31.7-37.2l0-201.3 59.2 0 0 202.1c0 61.3-35.9 89.2-88.4 89.2-47.4 0-74.9-24.5-88.8-54.1M375 520.1l48.2-27.9M375 520.1l48.2-27.9c12.7 20.7 29.2 35.9 58.4 35.9 24.5 0 40.2-12.3 40.2-29.2 0-20.3-16.1-27.5-43.1-39.3l-14.8-6.3c-42.7-18.2-71-41-71-89.2 0-44.4 33.8-78.2 86.7-78.2 37.6 0 64.7 13.1 84.2 47.4l-46.1 29.6c-10.1-18.2-21.1-25.4-38.1-25.4-17.3 0-28.3 11-28.3 25.4 0 17.8 11 25 36.4 35.9l14.8 6.3c50.3 21.6 78.7 43.6 78.7 93 0 53.3-41.9 82.5-98.1 82.5-55 0-90.5-26.2-107.8-60.5" fill="#f7df1e"/></g></svg>
