<svg width="630" height="630" xmlns="http://www.w3.org/2000/svg">
 <!--

The MIT License (MIT)

Copyright (c) 2011 Christopher Williams <chris@iterativedesigns.com>,
                     Manuel Strehl <boldewyn@gmail.com>

Permission is hereby granted, free of charge, to any person obtaining a copy
of this software and associated documentation files (the "Software"), to deal
in the Software without restriction, including without limitation the rights
to use, copy, modify, merge, publish, distribute, sublicense, and/or sell
copies of the Software, and to permit persons to whom the Software is
furnished to do so, subject to the following conditions:

The above copyright notice and this permission notice shall be included in
all copies or substantial portions of the Software.

THE SOFTWARE IS PROVIDED "AS IS", WITHOUT WARRANTY OF ANY KIND, EXPRESS OR
IMPLIED, INCLUDING BUT NOT LIMITED TO THE WARRANTIES OF MERCHANTABILITY,
FITNESS FOR A PARTICULAR PURPOSE AND NONINFRINGEMENT. IN NO EVENT SHALL THE
AUTHORS OR COPYRIGHT HOLDERS BE LIABLE FOR ANY CLAIM, DAMAGES OR OTHER
LIABILITY, WHETHER IN AN ACTION OF CONTRACT, TORT OR OTHERWISE, ARISING FROM,
OUT OF OR IN CONNECTION WITH THE SOFTWARE OR THE USE OR OTHER DEALINGS IN
THE SOFTWARE.
-->
 <g>
  <title>stahlstadt.js</title>
  <g id="logo">
   <rect id="background" x="0" y="0" width="630" height="630" fill="#f7df1e"/>
   <path id="j" d="m165.649994,526.473755l48.212509,-29.17749c9.301254,16.491211 17.762497,30.443726 38.057495,30.443726c19.453751,0 31.718765,-7.609741 31.718765,-37.209991l0,-201.300018l59.203735,0l0,202.137512c0,61.320007 -35.943756,89.231262 -88.384995,89.231262c-47.361267,0 -74.852509,-24.528748 -88.80751,-54.130005"/>
   <path id="s" d="m375,520.130005l48.206238,-27.911255c12.690002,20.723755 29.182526,35.94751 58.361267,35.94751c24.53125,0 40.173767,-12.264771 40.173767,-29.181274c0,-20.298737 -16.068787,-27.488739 -43.13501,-39.326233l-14.797516,-6.347504c-42.714996,-18.181244 -71.049988,-41.017487 -71.049988,-89.227478c0,-44.403778 33.831238,-78.237518 86.694977,-78.237518c37.637512,0 64.702515,13.111237 84.153748,47.366241l-46.096252,29.601257c-10.149994,-18.182495 -21.142487,-25.371246 -38.057495,-25.371246c-17.338745,0 -28.334991,10.994995 -28.334991,25.371246c0,17.762512 10.996246,24.952484 36.367493,35.948761l14.800018,6.342499c50.325012,21.568726 78.660034,43.557495 78.660034,93.033752c0,53.287506 -41.866272,82.464996 -98.110016,82.464996c-54.976257,0 -90.5,-26.217529 -107.836273,-60.473755"/>
  </g>
  <path stroke="#000000" fill="#000000" stroke-width="5" d="m338.894592,116.562614c-0.514252,0.005867 -1.020508,0.02346 -1.534882,0.044022c-8.343292,0.328636 -15.708984,2.432487 -19.444824,5.566246l-1.982147,2.37088c0.424316,-0.823547 1.087708,-1.618729 1.982147,-2.37088c-6.664734,-2.746452 -16.020569,-4.014053 -25.273041,-3.418373c-9.244385,0.595634 -17.274811,2.978218 -21.672729,6.435768c-12.390717,-3.032074 -27.839172,-2.848175 -39.789474,0.476318c-11.951614,3.330383 -18.311478,9.220398 -16.380432,15.164215l1.26767,2.415833c-0.57338,-0.790253 -0.999084,-1.596237 -1.26767,-2.415833l-0.193344,0.223969c-10.385834,0.448944 -18.906433,3.651184 -21.114105,7.936172c-2.214432,4.285919 2.386292,8.684372 11.399704,10.899719l14.067978,1.358566c-4.912216,0.159439 -9.811066,-0.313965 -14.067978,-1.358566c-6.948059,3.092697 -8.559509,7.672089 -3.966858,11.455307c4.585892,3.783249 14.374161,5.960419 24.469925,5.467499l6.142303,-0.646545c-1.968628,0.327652 -4.017853,0.542862 -6.142303,0.646545c5.739441,4.194 15.252426,7.254425 26.406357,8.4702c11.168686,1.219666 23.022263,0.499771 32.908554,-1.992371c8.058594,5.05278 22.380432,7.708267 36.731781,6.814316c14.359467,-0.894943 26.191559,-5.182861 30.396057,-10.999527l1.469116,-3.251144c-0.230957,1.105225 -0.700958,2.190903 -1.469116,3.251144c9.878265,2.572372 22.29184,2.716125 32.490997,0.377518c10.199127,-2.338593 16.565735,-6.796692 16.662445,-11.654831l-3.660675,-7.258347l-14.403748,-4.910934c11.139221,2.773849 18.161133,6.998154 18.064423,12.169281c13.240784,0.054779 24.491425,-4.454178 29.537964,-9.631149c5.047882,-5.173065 3.139679,-11.074814 -5.008942,-15.507492c3.377319,-3.300079 3.182678,-7.053925 -0.55191,-10.286514c-3.727844,-3.233505 -10.616821,-5.636688 -18.884918,-6.578568c-1.855865,-4.28598 -9.490143,-7.732719 -19.57785,-8.863403c-10.094391,-1.129677 -20.837402,0.264091 -27.592102,3.586624l-4.101166,2.748444c1.051453,-0.99472 2.415863,-1.92099 4.101166,-2.748444c-4.764526,-2.611473 -12.226929,-4.085457 -20.018372,-3.985664l0,0z" id="svg_1" transform="rotate(-89.0887 313.126 153.417)"/>
 </g>
</svg>