<svg viewBox="0 0 432 432" xmlns="http://www.w3.org/2000/svg" fill-rule="evenodd" clip-rule="evenodd" stroke-linejoin="round" stroke-miterlimit="1.414"><path fill="#f7df1e" d="M0 0h432v432H0z"/><path d="M366.63 237.096c.146-.511.31-1.016.466-1.525-.888 1.223-1.738 2.512-2.957 3.433-1.701 1.386-3.799 2.163-5.936 2.57-3.046.889-6.264 1.047-9.415.83-1.812-.147-3.615-.507-5.262-1.299-8.281 6.649-16.729 13.086-25.048 19.684a21.856 21.856 0 0 1-1.427-2.207c1.829-1.457 3.802-2.726 5.66-4.148 5.813-4.459 11.836-8.63 17.579-13.179-4.209 2.336-8.164 5.106-12.317 7.542-.276-.489-.546-.982-.815-1.471 2.887-2 5.959-3.717 8.923-5.605a911.053 911.053 0 0 1 9.256-5.731c.475-.301.877-.706 1.258-1.119-3.608 1.114-7.026 2.773-10.523 4.188-12.074 4.866-24.224 9.539-36.292 14.425-5.933 2.351-11.813 4.84-17.77 7.132-1.169.422-2.321.903-3.4 1.524 1.653.252 3.365.323 4.916 1.009a18.858 18.858 0 0 1 6.715 5c.417.434.818.991 1.457 1.1 7.091 1.225 13.807 4.83 18.626 10.197.785.906 2.104.765 3.177 1.015.636-2.603 2.072-4.89 3.52-7.106 3.541-4.992 7.777-9.438 11.488-14.298 2.09-2.759 4.265-5.5 5.742-8.648.349-.788.842-1.515 1.566-2.005-1.132 4.667-3.6 8.888-6.385 12.754-3.626 5.394-8.275 10.037-11.678 15.592-1.099 1.618-1.811 3.447-2.714 5.173a106.62 106.62 0 0 1-4.274-.384c-1.199-.099-1.823-1.245-2.582-2.019-3.606-3.793-8.322-6.669-13.534-7.525-1.234-.246-2.535-.24-3.708-.718-1.19-.736-2.122-1.806-3.201-2.682-1.882-1.721-4.159-3.063-6.68-3.55-2.023-.425-4.095-.275-6.144-.328-1.621-.018-3.072-.818-4.564-1.352-4.426-1.688-8.82-3.491-13.393-4.754-1.328-.39-2.873-.405-3.916-1.433 5.297.413 10.476 1.785 15.541 3.344 1.604.457 3.125 1.173 4.737 1.598 1.308.193 2.641.132 3.96.079-.14-.557-.287-1.111-.431-1.665 21.064-8.436 42.187-16.726 63.319-24.998 1.817-.718 3.64-1.425 5.437-2.201-2.703.343-5.314 1.128-7.967 1.714-2.949.701-5.892 1.413-8.844 2.093a19.908 19.908 0 0 1-.463-2.136c4.174-.842 8.363-1.621 12.525-2.53 1.613-.34 3.26-.548 4.822-1.091-3.564-.152-7.114.329-10.675.39-11.511.871-23.052 1.264-34.574 1.926-.666.029-1.331.021-1.994.009a91.98 91.98 0 0 1 .033-2.231c13.366-.375 26.724-1.087 40.09-1.55 1.777-.003 3.533-.326 5.309-.376-7.346-.612-14.695-1.196-22.055-1.618-2.316-.176-4.634-.313-6.941-.551.029-.733.076-1.462.143-2.192 5.59.571 11.177 1.169 16.785 1.571 4.517.516 9.081.659 13.569 1.436.181-.525.36-1.049.533-1.58-8.058-3.019-16.16-5.927-24.25-8.864.196-.668.404-1.331.627-1.99 2.36.735 4.62 1.75 6.944 2.597 4.362 1.679 8.738 3.327 13.088 5.045 1.384.539 2.762 1.128 4.218 1.453a13.44 13.44 0 0 0-1.984-1.354c-5.561-3.227-11.121-6.449-16.65-9.726-3.919-2.374-7.967-4.543-11.81-7.041.299-.609.604-1.219.915-1.826 7.07 4.189 14.076 8.495 21.128 12.713 1.589.979 3.146 2.017 4.825 2.835-2.553-2.389-5.534-4.254-8.26-6.435-2.579-1.884-5.182-3.731-7.692-5.707.402-.466.818-.923 1.24-1.374 3.028 2.145 5.898 4.502 8.882 6.709 2.999 2.281 5.898 4.708 9.022 6.821-2.35-3.092-5.358-5.604-7.961-8.471-.782-.879-1.732-1.601-2.453-2.53-.05-.653.683-1.023 1.023-1.501 2.031 1.835 3.916 3.826 5.842 5.772 1.591 1.914 3.447 3.585 5.138 5.414.616.601 1.158 1.31 1.92 1.744.883-.413 1.689-.973 2.545-1.445-.695-2.53-1.786-4.924-2.568-7.428-.56-1.838-1.425-3.59-1.724-5.502.481-.149.965-.296 1.451-.439 1.22 2.781 1.952 5.745 3.195 8.518-.659-3.805-1.732-7.525-2.518-11.303.531-.135 1.064-.273 1.598-.405.932 3.6 1.53 7.279 2.571 10.849-.091-5.537-1.349-10.978-1.706-16.494.486-.396 1.166-.372 1.755-.525.17.953.293 1.914.349 2.879.343 4.822.985 9.617 1.442 14.427.34-2.738.208-5.505.252-8.257.05-1.882-.046-3.758-.158-5.637a48.117 48.117 0 0 1 1.829-.149c-.032 6.059-.12 12.123.032 18.182.686-2.749.947-5.581 1.454-8.366.534.1 1.07.209 1.607.32-.343 2.82-.924 5.607-1.214 8.436 1.009-2.058 1.612-4.28 2.322-6.452.662-2.101 1.357-4.194 2.028-6.296.619.091 1.24.188 1.862.299-.49 1.999-1.387 3.863-2.003 5.821-.691 2.202-1.577 4.339-2.186 6.564.873-1.533 1.586-3.149 2.433-4.696.521.246 1.049.489 1.571.744a500.256 500.256 0 0 0-1.744 3.318c.574.285 1.149.584 1.715.894-.528.798-.786 2.099-1.747 2.413-1.789-1.099-3.773-2.483-5.992-2.002-3.57.264-6.393 3.605-6.466 7.114-.241 2.837 1.521 5.613 4.018 6.888 2.196 1.021 4.907.968 6.983-.331 2.749-1.542 4.285-4.974 3.464-8.043-.187-.994-.952-1.782-1.081-2.782.51-.756 1.263-1.293 1.92-1.911 2.321-2.181 4.801-4.186 7.129-6.355.586.164.932.718 1.368 1.105-2.318 2.348-5.062 4.25-7.284 6.704 2.061-1.064 3.858-2.556 5.813-3.796 2.41-1.568 4.652-3.406 7.22-4.722.243.521.486 1.046.73 1.574-3.113 2.207-6.505 4.033-9.474 6.44 1.017-.343 1.981-.824 2.91-1.36 2.372-1.372 4.855-2.542 7.273-3.829 1.495-.703 2.814-1.788 4.447-2.186.158.542.316 1.084.46 1.632-5.021 2.685-10.177 5.109-15.172 7.841-1.642.938-3.532 1.492-4.931 2.809 1.873-.153 3.623-.886 5.414-1.404 2.656-.763 5.25-1.736 7.924-2.439.199.586.392 1.175.58 1.767-4.306 1.346-8.697 2.407-12.977 3.826 5.162-.311 10.26-1.287 15.386-1.947 4.679-.519 9.336-1.205 14.018-1.685.132.568.272 1.137.413 1.709-9.231 1.166-18.473 2.28-27.706 3.432a7.27 7.27 0 0 0-1.34.396c6.188.457 12.399.422 18.602.645-.129.592-.026 1.298-.387 1.805-2.011.027-4.019-.234-6.033-.155-1.84-.205-3.687-.243-5.537-.246-1.187-.167-1.544 1.246-2.125 2.008 6.631 1.477 13.211 3.165 19.842 4.631a67.501 67.501 0 0 1-.701 2.152c-5.505-1.275-10.963-2.756-16.415-4.233-1.357-.343-2.685-.888-4.095-.941-.252.325-.463.68-.674 1.029 9.324 4.212 18.499 8.764 27.897 12.812-.185.407-.38.807-.578 1.206l-.236.478-.118.239a2013.025 2013.025 0 0 1-24.869-11.862c-1.14-.619-2.292-1.229-3.55-1.578-.035.437-.064.877-.079 1.314l.022.002c.919.081 1.652.702 2.385 1.208 2.937 2.178 5.985 4.207 8.984 6.297.135.595-.463 1.029-.698 1.512-4.139-2.506-7.882-5.613-11.968-8.201-1.864 2.271-3.667 4.602-5.739 6.689-.695.683-1.361 1.518-2.369 1.717-4.315.947-8.369 2.75-12.537 4.169-.689.219-1.483.504-1.683 1.292-3.722 9.527-7.354 19.095-11.264 28.551-1.141 2.952-2.451 5.927-4.723 8.201-1.615 1.51-3.174 3.081-4.78 4.603-1.51 1.662-2.249 3.948-4.04 5.364-1.38.762-3.048.29-4.441-.2-1.717-.647-3.482-1.163-5.293-1.471-6.997-1.516-14.071-2.65-21.147-3.732-5.056-.762-9.904-2.435-14.738-4.045.018 3.673-.196 7.367-.973 10.963-.548 2.55-1.577 4.957-2.594 7.346-1.082 2.946-1.906 5.983-3.084 8.893-1.111 3.28-2.656 6.385-3.916 9.603-.888 1.495.442 3.096 1.893 3.488 1.161.516 2.43 1.006 3.225 2.055.712.935.615 2.205 1.175 3.207.393.487.932.824 1.369 1.269.642.751.062 2.249 1.164 2.653.785.44 1.811.689 2.222 1.577.278.701.252 1.472.331 2.213 5.625.841 11.235 1.838 16.743 3.28 4.989 1.448 9.885 3.295 14.431 5.828 2.316 1.313 4.687 2.523 6.982 3.875 6.962 3.857 13.071 9.512 16.832 16.579 2.28 3.866 2.623 8.779.809 12.892-1.009 1.767-2.662 3.036-4.21 4.312-4.584 3.482-9.849 5.944-15.204 7.987-.994.419-2.084.537-3.151.414-4.3-.469-8.58-1.132-12.889-1.536-5.766-.44-11.526-1-17.303-1.276-2.682-.09-5.37-.035-8.044-.281-3.377-.079-6.745-.431-10.124-.378-1.659-.006-3.321.059-4.975-.082-2.679-.235-5.37.035-8.046-.176-2.99-.214-5.974.149-8.961.082-3.028.026-6.059-.059-9.087.038-2.277.243-4.57.059-6.85.211-4.162.147-8.313.528-12.478.575-5.086.343-10.163.785-15.249 1.117-2.925.14-5.789.797-8.691 1.131-1.935.226-3.866.478-5.798.712-1.741.238-3.512.493-5.265.238-1.011-.126-1.92-.607-2.814-1.058-2.937-1.551-6.003-2.873-8.799-4.682-1.316-.785-2.542-1.791-3.222-3.198-1.958-3.863-3.456-7.958-4.599-12.132-.636-2.492-1.011-5.25.006-7.692 1.908-3.441 4.631-6.378 7.75-8.755l.096-.081c4.071-3.414 8.603-6.264 13.318-8.699a65.218 65.218 0 0 1 10.209-4.411c2.36-.742 4.611-1.803 7.026-2.363 2.533-.571 5.013-1.392 7.595-1.732 3.412-.454 6.783-1.281 10.242-1.307l.076-.01c3.22-.418 6.472-.597 9.697-.987 1.211-4.075 2.254-8.287 4.508-11.936.411-.56-.123-1.167-.313-1.697-1.334-2.685-2.375-5.529-3.955-8.082-3.121-4.332-5.156-9.298-7.398-14.102-2.413 2.913-5.03 5.66-7.935 8.09-3.005 2.627-6.364 4.787-9.638 7.05-1.744 1.187-3.673 2.122-5.224 3.579-1.489 1.228-2.664 2.829-4.329 3.846-1.501.941-3.043 1.884-4.766 2.345-1.184.328-2.416.093-3.606-.062-3.822-.431-7.524-1.553-11.18-2.705-6.762-2.052-13.205-4.989-19.627-7.903-3.113-1.313-6.15-2.799-9.184-4.291-1.577-.719-3.104-1.58-4.784-2.052-1.788-.546-3.69-.73-5.387-1.557-1.314-.595-2.489-1.451-3.779-2.093-.949-.495-2.09-.322-3.051-.78-1.149-.803-1.841-2.069-2.694-3.154-2.923-4.092-6.106-7.987-9.034-12.073-.475-.549-.287-1.29-.299-1.947.041-.697-.223-1.372-.185-2.066.323-.692.991-1.334 1.794-1.331 1.404-.029 2.791.258 4.18.413 1.044.173 2.225.311 2.972 1.149 1.979 2.278 2.826 5.227 4.16 7.874.278.721 1.143.624 1.764.779-.199-4.103-.064-8.213-.12-12.32.103-.973-1.078-1.117-1.606-1.694-.789-.838-1.595-1.662-2.626-2.201.263-.528.542-1.047.829-1.56-.736-.548-1.685-1.278-1.231-2.321.325-1.431 2.005-1.448 3.18-1.513.672-.853 1.662-1.507 1.906-2.629-1.243-.645-2.75-1.149-3.442-2.474-.782-1.727-1.052-3.623-1.289-5.485-.165-1.55-.428-3.095-.455-4.657.61.275 1.316.501 1.68 1.113 1.234 1.677 1.504 3.791 2.301 5.67.504 1.195 1.809 1.747 3.004 1.993 1.443-.537 2.721-1.935 4.389-1.583 1.286.381 1.571 1.844 1.884 2.963.247-.126.493-.255.739-.381-.589-2.169-1.442-4.429-.821-6.698.167-1.011.839-1.811 1.571-2.482.223 2.008.396 4.062 1.24 5.927 1.583-2.448 2.568-5.262 4.409-7.554.372-.364.915-.457 1.384-.651-.358 1.448-.877 2.858-1.114 4.335-.563 2.976-.786 6.153-2.445 8.777-.742 1.213-1.979 1.969-3.213 2.603.035.402.079.804.124 1.205l.039.344c.046.402.09.803.125 1.206.167 1.724-.522 3.4-.402 5.124.208 1.014.888 1.844 1.208 2.817.598 1.814.721 3.737.738 5.631.194 2.752-.014 5.51.129 8.26.018 1.351.974 2.48 2.09 3.131 4.374 1.949 9.137 2.696 13.81 3.564 4.613.897 9.277 1.492 13.911 2.26 4.33.762 8.642 1.647 12.986 2.319 2.242-1.299 2.79-4.051 3.406-6.361 1.811-5.587 6.27-9.679 10.145-13.865.056-2.16-.094-4.47 1.017-6.425 1.519-2.662 3.749-4.805 5.954-6.898 2.462-2.142 5.428-3.588 8.453-4.757 1.393-.554 2.744-1.275 4.256-1.463-.68 1.357-2.133 1.923-3.353 2.668-1.395.873-2.946 1.591-3.986 2.913 2.819-.152 5.71-.961 8.491-.052 2.07.615 3.166 2.623 4.306 4.288.1-2.993.071-5.994.487-8.97-.698-.606-1.369-1.248-2.137-1.764-.932-.625-2.251-.27-3.11-1.003-.457-3.444.305-6.9.51-10.335-.601-1.17-2.207-1.425-2.661-2.703-.809-2.131-1.293-4.368-1.935-6.554-2.307-.639-4.382-2.105-5.602-4.18-1.037-1.803-1.366-3.887-2.113-5.807-.381-1.009-.953-1.926-1.419-2.893 1.222.035 2.509.149 3.579.794.777.495 1.419 1.161 2.102 1.773.111-.46.229-.914.349-1.371 1.14 1.149 2.227 2.488 3.837 2.981 2.216.806 4.493-.176 6.712-.428-.952 1.802-3.039 2.192-4.766 2.887 3.189 1.234 6.516-.554 9.767-.111 1.639.158 2.925 1.791 4.643 1.284-.357-.918-.574-2.187-1.627-2.551-1.723-.155-3.388.724-5.112.481-.838-.152-1.395-.873-1.647-1.641-.56-1.363-.528-2.858-.586-4.304.797.651 1.427 1.704 2.529 1.83 2.307-.088 4.605-1.202 6.912-.475 2.134.504 3.661 2.236 5.696 2.963-.601-2.058-2.712-3.086-4.567-3.778-1.697-.671-3.576-.375-5.282-.965 1.934-1.002 4.194-.999 6.299-.668 1.852.229 3.221 1.636 4.916 2.287.146-.235.436-.701.58-.936-1.554-1.348-3.561-1.955-5.517-2.462-1.237-.322-2.582-.322-3.705-1.002 3.154-.631 6.613-.613 9.48 1.023 1.533.873 3.254 2.096 5.092 1.348-.253-1.228-.739-2.442-1.648-3.333-.982-.955-2.081-1.808-2.864-2.949 2.674.414 4.611 2.545 6.414 4.38 2.125 2.409 3.755 5.244 4.945 8.219.551 1.811 1.469 3.526 1.659 5.435.238 2.221 1.337 4.352 1.044 6.621-.897 1.967-2.196 3.735-3.025 5.743-.724 1.703-1.621 3.385-1.871 5.241-.082 2.412 1.296 4.54 2.724 6.369.759.988 1.905 1.545 2.984 2.114-.871 1.97-2.53 3.388-4.054 4.839-1.261 1.176-2.803 2.128-3.644 3.682-.334.528-.566 1.249-1.257 1.389-1.56.499-3.275 1.102-4.157 2.594-1.167 1.944-.75 4.277-.63 6.414-2.369 2.055-5.238 3.482-7.399 5.781-1.055 1.084-1.884 2.485-1.961 4.027.167 1.237.672 2.413 1.322 3.471.592.982 1.841 1.202 2.893 1.31 4.175.302 8.164-1.205 12.203-1.993 3.005-.886 6.05.24 9.037.627 3.87.742 8.126 1.208 11.772-.621 3.011-1.765 5.03-4.872 5.977-8.182 1.073-3.781 1.357-7.729 1.595-11.634.14-2.055.516-4.142 1.501-5.974.949-1.726 2.491-3.001 3.752-4.487 2.148-2.721 3.054-6.147 3.567-9.512 2.333 2.139 4.098 4.827 6.437 6.967.592.545 1.43.601 2.19.718 4.291.549 8.641 1.185 12.666 2.847a13.399 13.399 0 0 1 4.748 3.195c.672.612 1.255 1.495 2.246 1.568 2.213.334 4.438.56 6.656.847.821-2.245 2.082-4.3 3.521-6.197 2.829-3.983 6.068-7.659 8.89-11.648a471.206 471.206 0 0 0 5.541-9.738c1.946-3.544 3.52-7.284 5.672-10.714.709-1.149 2.04-1.937 3.409-1.835 1.908.112 3.816.255 5.727.39 1.372.1 2.779-.012 4.122.343.41.325.735.742 1.099 1.126.161-.554.313-1.111.472-1.668.838.308 1.638.703 2.386 1.193.205-.657.407-1.313.607-1.97 1.518-.425 3.095-.797 4.405-1.718 1.536-.949 2.764-2.31 3.702-3.843l.015-.049zM211.367 393.212a26.982 26.982 0 0 1 3.054-3.887c.452.923.487 2.028-.149 2.884-.551 1.049-1.885 1.032-2.905 1.003zm63.773-45.664c.252-.557.932-.401 1.424-.395 4.066.431 8.111 1.07 12.106 1.937 6.294 1.272 12.517 3.069 18.341 5.798 2.524 1.258 5.145 2.336 7.525 3.867 1.767 1.163 3.64 2.172 5.276 3.52 1.466 1.178 3.028 2.234 4.429 3.491 1.639 1.604 3.4 3.101 4.74 4.98-1.976.191-4.007.294-5.877 1.012-1.697.653-2.202 2.702-3.779 3.523-.413.167-.873-.003-1.289-.062-2.489-.618-4.758-1.984-7.32-2.339-4.69-.615-9.365-1.345-14.081-1.744-3.389-.284-6.742-1.02-10.146-1.034 1.009.782 2.304.938 3.509 1.231 5.15 1.339 9.735 4.438 13.226 8.421 1.252 1.351 2.254 2.92 3.028 4.588.387.864.674 1.832.513 2.79-.375.921-1.211 1.583-2.069 2.037-2.961 1.58-6.335 2.09-9.618 2.539-6.405.404-12.865.768-19.252-.029-4.318-.434-8.569-1.355-12.822-2.187-4.042-.718-7.985-1.911-12.018-2.674-1.876-.325-3.734-.864-5.651-.841-1.463.018-2.929-.214-4.386-.026-3.142.384-6.314.05-9.468.258-1.823.114-3.649-.062-5.475-.03-2.462.003-4.766-.961-7.144-1.442-1.799-.366-3.333.868-4.816 1.674-2.374 1.193-3.462 3.834-5.683 5.241-.739-.677-1.545-1.527-1.322-2.623.307-1.489 1.172-3.172 2.778-3.547 1.252-.323 2.574-.581 3.585-1.457 2.313-1.841 5.151-3.28 8.19-3.046 4.339.018 7.704 3.506 12.001 3.732 3.658.056 7.108-1.398 10.347-2.949 7.214-3.163 14.237-7.07 22.076-8.477-.159.95-.343 1.899-.428 2.864 1.028-.927 1.911-2.055 3.154-2.715 2.394-1.336 5.1-1.914 7.729-2.597 2.123-.536 4.394-.305 6.458-1.105-2.328-.571-4.752-.504-7.103-.941-1.911-.369-4.053-.199-5.71-1.375-1.77-1.395-2.603-3.872-1.972-6.047.765-2.48 1.984-4.784 3.18-7.073 1.149-2.316 2.392-4.587 3.814-6.748zm-84.772 42.501c2.611-.484 5.129-1.44 7.776-1.718 1.724.117 3.43.437 5.124.768 1.178.088 1.082 1.53 1.307 2.392-3.124.082-6.252.196-9.362.519-1.859.073-3.717.009-5.575.026-2.29-.038-4.6.153-6.862-.281 2.512-.642 5.082-1.035 7.592-1.706zm73.752-60.225c-2.843.84-5.594 1.983-8.497 2.625-3.698.972-7.476 1.337-11.268 1.341h-.049c-4.387 0-8.795-.483-13.122-1.073l-.095-.013c-.505 1.343-1.179 2.653-1.334 4.098-.07 1.164.785 2.111 1.644 2.785 2.846 2.153 6.423 3.204 9.979 3.202h.025a18.027 18.027 0 0 0 2.393-.165c3.277-.381 6.513-1.123 9.649-2.137 1.689-.528 3.269-1.357 5.001-1.747-1.102 1.035-2.453 1.729-3.775 2.436-2.69 1.457-5.565 2.542-8.484 3.428l-.035.01c-5.912 1.586-12.056 1.944-18.135 2.325a2.038 2.038 0 0 1-.231.013h-.01c-1.514-.003-2.454-1.703-3.948-1.714h-.01c-.081 0-.164.005-.248.015l-.048.003-.016.001-.032.001-.02.001-.028.002-.021.001-.028.002-.021.001-.027.001-.022.001-.026.002-.022.001-.026.001-.022.001-.026.002-.023.001-.025.001-.023.001-.025.002-.023.001-.025.001-.023.001-.026.001-.023.002-.025.001-.023.001-.025.001-.023.001-.025.001-.023.002-.025.001-.023.001-.025.001-.024.001-.024.001-.024.002-.024.001-.024.001-.025.001-.023.001-.025.001-.023.001-.025.001-.023.002-.025.001-.024.001-.022.001-.049.002-.049.002-.047.002-.05.003-.046.002-.05.002-.047.002-.049.002-.047.002-.05.002-.047.002-.049.002-.047.002-.049.003-.047.002-.049.002-.048.002-.049.002-.047.002-.049.002-.048.001-.048.002-.048.002-.049.002-.047.002-.049.002-.048.002-.048.002-.048.002-.049.002-.048.002-.048.002-.048.002-.048.002-.049.001-.044.002-.104.004-.094.004-.104.004-.091.003-.135.006-.067.002-.052.002-.112.005h-.011l-.018.001-.069.002-.094.004-.013.001h-.017l-.072.003-.09.004h-.022l-.01.001-.03.001-.034.001-.016.001-.016.001-.03.001-.034.001-.016.001h-.017l-.03.002-.033.001-.017.001h-.017l-.029.001-.033.002h-.017l-.017.001-.03.001-.032.002h-.017l-.018.001-.029.001-.031.001-.019.001-.018.001-.028.001-.031.001-.019.001-.018.001-.029.001-.03.001-.019.001-.019.001-.028.001-.03.001-.019.001-.02.001-.027.001-.03.001-.02.001-.019.001-.028.001-.029.001-.02.001-.02.001-.027.001-.029.001-.02.001-.021.001-.026.001-.029.002h-.021l-.02.001-.026.001-.029.002-.021.001-.021.001-.026.001-.027.001-.022.001-.022.001-.025.001-.027.001-.022.001-.022.001-.025.001-.027.001-.023.002-.072.003h-.001l-.029.001-.016.001h-.003l-.031.001-.015.001h-.002l-.032.002h-.015l-.001.001-.034.001-.012.001h-.002l-.038.002H217.576l-.044.002h-.003l-.193.01h-.003l-.044.002H217.279l-.038.002h-.002l-.011.001-.035.002h-.002l-.013.001-.033.001h-.002l-.015.001-.031.002h-.003l-.015.001-.03.001h-.003l-.016.001-.029.002h-.003l-.017.001-.028.001h-.003l-.017.001-.028.002h-.004l-.017.001-.026.001h-.005l-.017.001-.026.002h-.005l-.018.001-.025.001h-.003l-.003.001-.017.001-.025.001h-.006l-.018.001-.024.002h-.006l-.018.001-.024.001h-.004l-.002.001-.018.001-.024.001h-.007l-.017.001-.024.002h-.007l-.018.001-.023.001h-.004l-.003.001-.018.001-.023.001h-.007l-.018.001-.022.002H216.37l-.017.001-.022.001-.005.001h-.004l-.017.001-.022.001-.005.001h-.004l-.017.001-.022.001h-.005l-.004.001-.018.001-.021.001h-.005l-.005.001-.017.001-.021.001h-.01l-.017.001-.021.002h-.01l-.017.001-.021.002h-.011l-.016.001-.02.002h-.012l-.016.001-.02.002h-.012l-.016.001-.02.002h-.012l-.017.001-.019.002h-.012l-.017.001-.019.002h-.007l-.006.001-.016.001-.019.001h-.007l-.006.001-.016.001-.019.001h-.007l-.006.001-.016.001-.019.001h-.007l-.006.001-.016.001-.018.001-.008.001h-.007l-.015.001-.018.001-.008.001h-.007l-.015.001-.018.002h-.008l-.007.001-.015.001-.018.001h-.008l-.007.001-.015.001-.018.001-.008.001h-.008l-.014.001-.018.001-.008.001-.008.001-.014.001-.017.001h-.009l-.008.001-.015.001-.016.001-.009.001h-.008l-.015.001-.016.002h-.009l-.008.001-.015.001-.016.001-.009.001h-.009l-.014.001-.016.001-.009.001-.009.001-.014.001-.016.001-.009.001h-.009l-.014.001-.015.001-.01.001-.009.001-.014.001-.015.001-.011.001h-.009l-.013.001-.015.002h-.011l-.009.001-.013.001-.015.001-.011.001-.009.001-.013.001-.015.001-.011.001h-.009l-.013.001-.015.001-.011.001-.009.001-.013.001-.014.001-.012.001-.01.001-.012.001-.014.001-.012.001-.01.001-.012.001-.014.001-.012.001h-.01l-.012.001-.014.002h-.012l-.01.001-.012.001-.014.001-.012.001-.01.001-.012.001-.013.001-.013.001-.01.001-.012.001-.013.001-.013.001-.011.001-.011.001-.013.001-.013.001-.011.001-.011.001-.013.001-.013.001-.011.001-.011.001-.013.001-.013.001-.011.001-.011.001-.012.001-.014.001-.011.001-.011.001-.012.001-.014.001-.011.001-.011.001-.012.001-.014.002-.012.001-.01.001-.012.001-.014.001-.012.001-.01.001-.012.001-.014.001-.012.001-.01.001-.011.001-.015.001-.012.001-.01.001-.011.001-.014.002-.013.001-.01.001-.011.001-.014.001-.013.001-.01.001-.011.001-.014.001-.014.002h-.009l-.01.001-.015.002-.014.001-.009.001-.01.001-.015.001-.014.002h-.009l-.01.001-.015.002-.014.001-.009.001-.01.001-.015.001-.014.002-.009.001h-.01l-.015.002-.014.001-.009.001-.009.001-.016.002-.014.001-.009.001-.009.001-.016.001-.014.002h-.009l-.009.001-.016.002-.015.001-.008.001-.009.001-.016.002-.015.001-.008.001-.008.001-.017.002-.015.001-.007.001-.009.001-.017.001-.015.002-.007.001-.009.001-.017.001-.015.002-.007.001h-.008l-.018.002-.015.002-.007.001h-.008l-.018.002-.015.002h-.007l-.008.001-.018.002-.015.002-.007.001h-.008l-.018.002-.015.002-.007.001h-.007l-.018.002-.017.002-.006.001h-.007l-.018.002-.017.002-.006.001-.007.001-.018.002-.017.001-.006.001-.006.001-.019.002-.017.002h-.006l-.006.001-.019.002-.017.002-.006.001h-.006l-.019.002-.017.002-.005.001-.007.001-.019.002-.017.002h-.005l-.006.001-.02.002-.017.002-.005.001h-.006l-.02.003-.017.002h-.005l-.006.001-.02.002-.017.002-.005.001h-.005l-.021.003-.017.002h-.005l-.005.001-.02.002-.018.003h-.005l-.005.001-.02.002-.018.002-.005.001h-.004l-.021.003-.018.002h-.005l-.004.001-.021.003-.018.002h-.004l-.005.001-.021.002-.019.003h-.003l-.004.001-.022.002-.019.002-.003.001h-.004l-.022.003-.019.002-.003.001h-.004l-.022.003-.019.002-.003.001h-.003l-.023.003-.019.002-.003.001h-.003l-.022.003-.02.002-.003.001h-.003l-.022.003-.02.003h-.005l-.023.003-.02.003h-.005l-.023.004-.02.002h-.002l-.003.001-.023.003-.02.002-.002.001h-.002l-.024.003-.02.003h-.004l-.024.003-.02.003h-.002l-.002.001-.024.003-.02.003h-.003l-.025.003-.02.003h-.003l-.025.004-.02.003h-.002l-.026.003-.02.003h-.001l-.001.001-.026.003-.02.003h-.002l-.026.004-.02.003h-.001l-.028.004-.019.002-.001.001-.029.004-.018.002-.033.005-.015.002-.048.007-.095.014c-8.188 1.114-16.439 2.442-24.163 5.49-2.468 1.058-5.021 1.917-7.448 3.075-4.749 2.369-9.436 4.977-13.554 8.345l-.091.078-.044.038-.016.014-.029.025-.019.016-.026.022-.02.017-.025.022-.021.017-.024.021-.021.018-.024.02-.022.018-.023.02-.022.019-.023.02-.022.018-.023.02-.023.019-.023.019-.022.019-.023.019-.022.019-.023.019-.023.019-.022.019-.023.02-.022.018-.023.02-.023.018-.023.02-.022.019-.023.019-.022.019-.024.019-.019.017-.05.041-.044.037-.049.042-.043.035-.178.15-.01.009-.029.024-.043.036-.009.007-.011.009-.03.026-.04.033-.016.013-.005.005-.011.009-.013.011-.011.009-.011.01-.011.008-.012.011-.011.009-.012.01-.01.009-.012.01-.012.01-.011.009-.01.009-.012.009-.012.011-.012.01-.01.008-.011.009-.012.011-.013.01-.009.008-.011.009-.013.011-.012.011-.009.007-.011.009-.013.011-.013.011-.009.008-.009.008-.014.011-.013.012-.009.007-.009.008-.014.012-.014.011-.008.007-.009.008-.015.012-.014.012-.007.007-.009.007-.015.012-.014.012-.008.007-.008.007-.015.013-.015.012-.007.006-.007.007-.016.013-.015.013-.007.006-.007.006-.016.013-.015.013-.007.006-.007.006-.016.014-.016.013-.006.005-.007.006-.016.014-.016.014-.006.005-.006.005-.017.015-.017.014-.005.004-.006.005-.017.015-.017.015-.008.006-.002.003-.003.002a1.184 1.184 0 0 0-.039.034l-.003.002-.006.005-.007.006-.004.004-.005.004-.007.006-.006.005-.005.004-.004.004-.007.006-.007.006-.004.004-.005.003-.007.006-.006.006-.005.004-.004.004-.007.006-.007.006-.004.003-.004.004-.007.006-.008.006-.003.004-.004.003-.008.007-.007.006-.004.003-.004.003-.007.007-.008.006-.003.003-.004.004-.008.006-.007.007-.003.003-.004.003-.008.007-.008.007-.003.002-.003.003-.008.007-.008.007-.003.003-.003.002-.009.008-.008.007-.002.002-.003.003-.009.007-.008.007-.003.003-.002.002-.009.008-.009.007-.002.002-.003.002-.008.008-.009.008-.002.002-.003.002-.009.008-.008.007-.003.002-.002.002-.009.008-.009.008-.002.002-.002.001-.009.009-.009.008-.002.001-.002.002-.01.008-.009.008-.001.002-.002.001-.01.009-.009.008-.001.001-.002.001-.01.009-.009.009-.002.001-.001.001-.01.009-.01.008-.001.001-.001.001-.011.01-.009.008-.001.001-.001.001-.011.009-.009.009-.001.001h-.001l-.011.01-.01.009-.001.001-.012.01-.009.008v.001h-.001l-.013.012-.008.007-.001.001-.017.016-.005.003-.003.003-.018.017h-.001l-.008.007-.013.012h-.001v.001l-.009.008-.012.011h-.001v.001l-.01.008-.011.01-.001.001v.001l-.01.008-.011.01-.001.001h-.001l-.009.009-.011.01h-.001l-.001.001-.009.009-.01.009-.002.001-.001.001-.009.009-.01.009-.002.001-.001.001-.009.009-.01.009-.001.001-.002.001-.009.008-.01.009-.001.002-.002.001-.009.008-.009.009-.002.002-.002.001-.009.008-.009.009-.002.001-.002.002-.009.008-.009.008-.002.002-.002.002-.009.008-.008.008-.003.002-.002.003-.008.007-.009.008-.003.002-.002.003-.008.007-.009.008-.002.002-.003.003-.008.007-.008.008-.003.002-.003.003-.008.007-.008.007-.003.003-.003.003-.008.007-.007.007-.004.003-.003.003-.007.007-.008.007-.003.003-.004.003-.007.007-.008.007-.003.003-.004.004-.007.006-.007.007-.004.003-.004.004-.006.006-.008.007-.003.003-.004.004-.007.006-.007.007-.004.004-.004.003-.007.006-.006.007-.005.004-.004.004-.006.006-.007.006-.004.004-.005.004-.006.006-.006.006-.005.004-.004.004-.007.006-.006.006-.004.004-.005.005-.006.005-.006.006-.005.005-.005.004-.006.005-.005.006-.005.005-.006.005-.005.005-.006.005-.005.005-.005.005-.006.005-.005.005-.005.005-.006.005-.005.005-.005.005-.006.006-.005.005-.005.005-.006.004-.005.006-.006.005-.005.005-.005.005-.006.005-.006.006-.004.004-.005.005-.006.006-.006.005-.005.005-.004.004-.006.006-.007.006-.004.004-.004.004-.007.007-.006.006-.004.004-.004.004-.007.006-.007.006-.004.004-.004.004-.006.007-.007.006-.004.004-.004.003-.007.007-.006.007-.004.003-.004.004-.007.007-.007.006-.003.004-.004.003-.007.007-.007.007-.003.003-.004.003-.007.008-.007.007-.004.003-.003.003-.007.007-.008.008-.003.002-.003.003-.008.008-.007.007-.003.003-.003.003-.008.008-.007.007-.003.003-.003.002-.008.008-.008.008-.002.002-.002.003-.009.008-.008.008-.002.002-.002.002-.009.009-.008.008-.002.002-.002.002-.009.009-.008.008-.002.002-.002.002-.009.008-.008.009-.002.001-.002.002-.009.009-.008.009-.002.001-.002.002-.009.009-.008.009-.002.001-.001.002-.01.009-.008.009-.002.001-.001.001-.01.01-.008.009-.002.001-.001.001-.01.01-.008.009-.001.001-.001.001-.011.01-.008.009-.001.001-.001.001-.01.01-.009.009-.001.001h-.001l-.011.012-.008.008-.001.001-.012.012-.008.008v.001h-.001l-.013.013-.007.008-.019.02-.002.001-.001.001-.019.02-.007.008-.014.013v.001l-.008.008-.012.012-.001.001-.008.009-.011.011-.001.001h-.001l-.008.009-.011.011v.001l-.001.001-.009.009-.01.01-.001.001-.001.001-.008.009-.01.01-.001.002-.001.001-.009.009-.009.009-.002.002-.001.001-.008.009-.01.01-.001.001-.002.002-.008.008-.009.01-.001.002-.002.001-.008.009-.009.009-.002.002-.001.002-.008.008-.009.009-.002.002-.002.003-.008.008-.008.009-.002.002-.002.002-.008.008-.008.009-.002.003-.003.002-.007.008-.008.009-.003.002-.002.003-.007.007-.008.009-.003.003-.002.002-.008.008-.007.008-.003.003-.003.003-.007.008-.007.008-.003.003-.003.003-.007.007-.007.008-.003.004-.003.003-.007.007-.007.008-.003.003-.003.004-.007.007-.007.007-.003.004-.003.004-.007.007-.007.007-.003.004-.003.004-.007.006-.006.008-.004.004-.003.004-.007.006-.006.007-.004.005-.004.004-.005.006-.007.007-.004.004-.004.005-.005.006-.006.007-.004.004-.004.005-.006.006-.006.007-.004.004-.004.005-.006.006-.006.006-.004.005-.004.005-.006.006-.005.006-.005.005-.004.005-.005.006-.006.006-.004.005-.005.005-.005.006-.005.006-.005.005-.005.006-.005.005-.005.006-.005.006-.004.005-.005.005-.005.006-.005.006-.005.005-.005.006-.004.005-.006.006-.005.006-.004.005-.005.005-.005.006-.005.006-.005.005-.004.005-.006.006-.005.007-.004.004-.004.005-.006.007-.006.006-.004.005-.004.004-.005.007-.006.007-.004.004-.004.004-.006.007-.006.007-.003.004-.004.005-.006.007-.006.007-.004.004-.003.004-.006.007-.006.007-.004.004-.003.004-.007.008-.006.007-.003.004-.003.004-.007.007-.006.008-.003.003-.003.004-.007.008-.006.008-.003.003-.003.003-.007.009-.007.007-.002.004-.003.003-.007.008-.007.008-.002.003-.003.003-.007.009-.007.008-.002.003-.003.003-.007.009-.007.008-.002.003-.003.002-.007.009-.007.009-.002.002-.002.003-.008.009-.007.009-.002.002-.002.003-.008.009-.007.009-.002.002-.002.002-.008.01-.007.009-.002.002-.002.002-.008.01-.007.009-.002.002-.001.002-.009.01-.007.009-.001.002-.002.001-.008.011-.008.009-.002.002v.001l-.002.002-.016.02-.001.001-.001.002-.017.02v.001l-.001.001-.017.021-.001.001-.001.001a.313.313 0 0 1-.017.021v.001l-.001.001-.017.022-.001.001-.018.022-.005.006-.003.005h-.001v.001l-.005.006-.004.005-.006.008-.003.003v.001a.106.106 0 0 0-.009.011c1.57-.421 3.098-1.149 4.753-1.149h.047a1.09 1.09 0 0 1 .08-.003h.008c.644.005 1.159.471 1.625.868.915.85 1.803 1.741 2.536 2.755.603.815.73 1.85.952 2.811.311.032.621.047.93.047h.023c1.613-.006 3.2-.418 4.734-.908 2.723-.748 5.188-2.193 7.9-2.981 2.288-.805 4.7-1.155 7.119-1.155h.026c2.093.003 4.191.266 6.221.724 1.694.407 3.359.967 4.91 1.77.533.25 1.128.607 1.72.607h.005c.246-.001.491-.063.731-.22 3.518-1.817 6.962-3.816 10.641-5.294l-.005.014c-.786 2.413-2.272 4.714-1.974 7.358l.012-.002c1.004-.162 1.988-.528 2.747-1.229 2.239-2.025 3.933-4.581 5.203-7.307l.002.02c.47 3.461-.069 6.98.54 10.432l.005-.022c.811-3.789.477-7.7 1.015-11.524.302-2.066.516-4.148.879-6.205.669-3.046 1.229-6.179 2.794-8.923 5.505-.135 10.945-1.158 16.28-2.448 1.34-.331 2.668-.694 3.969-1.152l.046-.015c3.909-1.298 7.791-2.801 11.304-4.98 1.682-1.025 3.072-2.523 4.945-3.221-1.633 2.242-3.755 4.077-5.994 5.693-7.672 5.798-17.104 8.72-26.525 10.071-1.425.185-2.853.334-4.271.563a24.66 24.66 0 0 1 .979 4.233l.029-.003c4.947-.432 9.817-1.551 14.492-3.21 6.856-2.556 12.956-6.727 18.722-11.165 1.882-1.492 3.553-3.271 5.637-4.497l-.008.015c-1.349 2.497-3.428 4.48-5.265 6.607-1.402 1.63-3.061 3.002-4.567 4.523-6.294 5.781-14.252 9.489-22.495 11.526-2.09.434-4.189.835-6.261 1.357.528 2.242.683 4.549.56 6.847l.028-.006c4.764-1.04 9.193-3.282 13.297-5.862 2.34-1.697 4.943-3.007 7.156-4.875 2.101-1.709 4.32-3.271 6.308-5.115 1.993-1.82 4.112-3.505 5.965-5.472 1.002-1.056 2.122-1.982 3.154-3.002 1.993-2.061 3.684-4.42 5.883-6.279-.759 1.994-1.99 3.749-3.078 5.57-2.94 4.549-5.757 9.192-9.128 13.445-3.362 4.309-7.05 8.416-11.397 11.761-3.646 2.875-7.817 5.121-12.282 6.422-1.758.487-3.596.621-5.326 1.214.982.838 2.084 1.664 3.395 1.867l.012-.001c1.003-.077 1.903-.616 2.834-.958 4.353-1.726 8.521-3.96 12.267-6.771 3.814-2.782 7.1-6.232 9.94-9.99 1.146-1.574 1.979-3.374 3.339-4.789l-.002.018c-.317 3.171-1.658 6.123-2.07 9.277l.015-.022c1.318-1.862 2.352-3.902 3.482-5.879 1.937-3.702 4.177-7.24 5.97-11.016 1.097-2.251 2.299-4.449 3.251-6.768.317-.871.692-1.773.654-2.714-.437-.953-1.307-1.639-1.686-2.624-.401-.908-.51-1.949-1.081-2.776-.97-.776-2.31-.903-3.251-1.726-.759-.701-1.227-1.639-1.744-2.515l-.012-.021-.033.01zm-73.081-30.307c1.216-1.812 2.427-3.641 3.913-5.247 1.225 1.676 2.53 3.459 2.72 5.598.159 1.437-.738 2.659-1.448 3.817.979.876 1.944 1.867 2.272 3.183.314 1.205.941 2.489.451 3.735-.9 2.403-2.638 4.376-4.47 6.126a31.217 31.217 0 0 1-3.728 3.309c-1.651 1.249-3.198 2.791-5.25 3.351-1.035.355-2.04-.498-2.366-1.436-.34-1.018-.401-2.096-.58-3.149-8.551.08-17.01-1.714-25.142-4.241-3.667-1.319-7.483-2.19-11.097-3.664-2.331-.938-4.708-1.756-6.991-2.802.463-.387.929-.774 1.389-1.164 3.318 1.741 6.927 2.831 10.567 3.67 9.213 1.527 18.523 2.348 27.788 3.473.777.041 1.642.293 2.36-.126 1.838-1.017 3.295-2.565 4.772-4.027 1.202-1.322 2.489-2.574 3.541-4.025-.583-.041-1.166-.07-1.747-.111.554-2.281 1.821-4.3 3.046-6.27zm-72.608-7.279c1.331.654 1.859 2.085 2.545 3.295.741 1.334 1.354 2.735 2.066 4.083.29.481.578 1.094 1.187 1.223 2.046.527 4.216.393 6.226 1.087 2.381.821 4.981 1.313 6.986 2.943-.411.399-.771 1.023-1.431.959-2.354.073-4.593-.78-6.809-1.457-1.609-.551-3.289-.935-4.816-1.7-1.46-.745-1.949-2.421-2.644-3.782-1.014-2.26-2.322-4.379-3.31-6.651zm-2.96-.287c1.123 1.442 1.808 3.148 2.524 4.813.738 1.897 1.547 3.787 1.893 5.804a14.576 14.576 0 0 1-1.794-3.248c-.985-2.415-1.879-4.868-2.623-7.369zm16.764-6.553c-.476.527-.889 1.103-1.302 1.678l.464.114.309.075.464.113c.308 2.046.771 4.066 1.029 6.115.173 2.245.299 4.716 1.85 6.504.017-1.436-.273-2.843-.452-4.259-.302-2.869-.771-5.73-1.459-8.533-.226-.627-.253-1.453-.892-1.82l-.011.013zm2.743 1.379c.73 1 .877 2.252 1.053 3.439.269 2.055.513 4.124.393 6.199-.648-2.336-1.24-4.695-1.616-7.09-.164-.853 0-1.712.17-2.548zm-10.59-6.703c.782.642 1.342 1.486 1.814 2.371 1.988.021 3.981.211 5.898.753-.361.387-.704.804-1.146 1.103-1.78-.182-3.538-.71-5.347-.428-.422-1.261-.888-2.51-1.219-3.799zm9.04.281c-.208-1.427-.32-2.919.193-4.303.973 1.307 1.41 2.937 1.331 4.558-.51-.085-1.017-.173-1.524-.255zm-3.741-3.066c.053-1.249.531-2.427 1.018-3.559.477.346.935.722 1.392 1.094-1.199 1.457-.577 3.362-.765 5.071-.425-.012-.853-.021-1.278-.032-.12-.859-.334-1.706-.367-2.574zm109.791-22.245c1.102-.73 2.459-1.108 3.781-.971.959.299 1.378 1.281 1.812 2.093-.786-.234-1.554-.56-2.375-.645-1.676.03-3.069 1.05-4.49 1.806.278-.821.486-1.788 1.272-2.283zm7.797-.208a10.97 10.97 0 0 1 1.709-1.302c-.352.683-.806 1.492-1.709 1.302zm-13.528-2.856c1.639-.466 3.072-1.445 4.708-1.92-.783 1.663-2.48 2.662-4.256 2.9-1.132.105-2.398.404-3.406-.282.984-.234 1.987-.399 2.954-.698zm10.365-.735a20.123 20.123 0 0 1 3.081-2.759c-.088.733.012 1.686-.692 2.155-.715.44-1.583.481-2.389.604zm-2.403-3.697c1.333-.873 2.787-1.55 4.059-2.518-.228.648-.384 1.402-.982 1.824-.867.677-2.028.703-3.077.694zm-21.431-5.569c2.02.106 3.998-.381 6.012-.399 1.595-.055 2.899 1.076 4.004 2.093.566.46.683 1.193.795 1.873-1.633-.196-2.076-2.063-3.368-2.82-1.402-.949-3.137-.255-4.67-.155-.976.194-1.917-.17-2.773-.592zm-13.706-2.412c-.209-1.636.779-3.011 1.855-4.119.454 1.222.686 2.586 1.58 3.591.853 1.085 2.078 1.797 2.896 2.914-2.339-.194-3.957-2.307-6.331-2.386zm3.074-1.853c.411-1.407 1.17-2.7 2.301-3.646.124 1.242-.202 2.6.464 3.731.732 1.146 2.013 1.768 2.887 2.791-2.298.246-4.218-1.261-5.652-2.876zm136.415 1.463a18.276 18.276 0 0 1 2.099-1.651c.381.42.762.836 1.146 1.261a15.576 15.576 0 0 1-3.245.39zm-129.948-5.403c4.444-1.43 8.641-3.904 13.396-4.162 2.037-.062 4.335-.158 6.023 1.187-1.621.103-3.245-.158-4.86.068-3.889.533-7.504 2.151-11.115 3.602-1.234.487-2.544.818-3.664 1.557 1.146.348 2.345.425 3.526.583-.413.34-.815.75-1.363.856-1.911.404-3.805-.337-5.499-1.158.413-1.806 1.853-3.025 3.213-4.145.117.537.226 1.073.343 1.612zm152.147-2.418c.399.024.8.05 1.208.079-.408.302-.818.595-1.229.885l.021-.964z" fill="#040404"/></svg>