<?xml version="1.0" encoding="utf-8"?>
<!-- Generator: Adobe Illustrator 15.1.0, SVG Export Plug-In . SVG Version: 6.00 Build 0)  -->
<!DOCTYPE svg PUBLIC "-//W3C//DTD SVG 1.1//EN" "http://www.w3.org/Graphics/SVG/1.1/DTD/svg11.dtd">
<svg version="1.1" xmlns="http://www.w3.org/2000/svg" xmlns:xlink="http://www.w3.org/1999/xlink" x="0px" y="0px" width="1024px"
	 height="1024px" viewBox="0 0 1024 1024" enable-background="new 0 0 1024 1024" xml:space="preserve">
<g id="bg">
	<rect x="-11.5" y="-13.5" fill="#323330" width="1046" height="1046"/>
</g>
<g id="mi">
	<path fill="#EDD769" d="M-196.043-342.468l19.856-22.341l23.619-8.7l58.454-42.263L-69.311-422l5.016,5.028l-55.911,55.799
		l-36.055,21.123l-22.364,9.987L-196.043-342.468z M740.793,6.422l6.967,27.23l35.149,1.74l14.108-13.188
		c0,0-0.871-15.747-4.39-17.486c-3.483-1.862-17.522-20.235-17.522-20.235l-23.688,2.662l-17.627,1.723l-3.588,12.318L740.793,6.422
		z M1067.621,691.083l-35.149-89.468l-24.594-98.393l-26.336-35.094l-28.147-19.313l-17.557,12.336l-42.151,19.313l-21.11,54.372
		l-29.889,40.437l-12.332,6.994l-15.815-6.994c0,0-28.078-15.816-26.336-22.863c1.812-6.994,5.226-54.425,5.226-54.425
		l36.926-14.041l8.848-36.834l7.002-28.082l26.336-17.608l-3.518-108.85l-17.627-24.551l-14.004-8.769l-8.849-22.88l8.849-8.734
		l17.557,3.497l1.742-17.503l-26.406-24.62l-14.004-28.048h-28.146l-49.258-15.815l-59.709-36.817h-29.889l-7.037,7.029
		l-10.52-5.271L598.35,85.536l-31.666,19.278L535.053,129.4l3.484,38.626l10.52,3.532l22.957,5.237l5.19,8.752l-28.147,8.769
		l-28.042,3.498l-15.815,19.348l-3.554,22.845l3.554,17.573l3.483,59.68l-38.667,22.845l-7.037-1.792v-45.638l14.143-26.308
		l7.037-26.325l-8.778-8.804l-21.181,8.804l-10.59,45.638l-29.854,12.267l-19.299,21.088l-1.742,10.544l7.037,8.77l-7.037,28.082
		l-24.629,5.272v12.336l8.778,26.29l-12.297,66.674l-17.522,43.863l6.933,50.963l5.26,12.318l-8.778,26.308l-3.483,8.805
		l-3.554,29.856l38.668,64.882l31.631,70.311l15.815,52.668l-8.709,50.91l-10.59,64.934l-26.336,56.165l-3.554,29.893
		l-33.512,33.771l-8.151,8.352l50.512-1.827l238.973-24.55l66.815-6.978l3.413,13.137l84.442-13.137l110.707-17.573l56.713-5.028
		l-14.562-12.579l1.742-15.781l22.956-40.366l21.633-18.861l-2.334-54.877l17.313-17.312l11.845-3.775l2.438-38.557l16.721-32.954
		l11.427,6.629l1.741,6.977l8.778,1.775L1071,794.817L1067.621,691.083z M-362-20.982l20.1-11.188l29.889-8.769l38.667-24.55
		v-10.579l6.932-6.977l65.073-10.527l26.336-21.088l47.516-22.81l1.742-14.111l21.041-31.562l19.299-8.804l14.143-19.313
		l24.594-24.516l47.516-26.377l50.93-5.237l12.262,12.301l-3.483,10.544L20.147-234.07L4.262-200.646l-24.594,8.769l-5.225,26.342
		l-26.371,35.095l-3.449,28.082l8.709,5.272l10.59-12.336l38.667-31.58l14.039,14.059h24.559l35.184,10.509l15.815,12.318
		l15.815,33.389l29.889,29.822l42.151-1.74l15.815-10.544l17.627,14.042l17.557,5.237l14.004-8.734h12.401l17.488-10.544
		l43.963-38.626l36.891-12.301l72.075-3.549l49.257-21.07l28.078-14.111l15.815,1.844v61.437l5.26,3.498l31.562,8.769l21.215-5.237
		l66.745-17.503l12.332-12.319l15.78,5.272v75.46l35.114,33.39l14.108,6.959l14.074,10.614l-14.074,3.497l-8.778-3.497
		l-40.444-5.272l-22.922,6.977l-24.559-1.705l-35.185,15.746h-19.299l-63.296-14.076l-56.226,1.792l-21.04,28.065l-75.594,7.029
		l-26.371,8.769l-12.297,33.389l-14.108,12.284l-5.26-1.775l-15.781-17.573l-49.188,26.377h-7.106l-12.192-17.608l-8.849,1.775
		l-21.041,47.43l-10.625,43.898l-40.758,88.301l-17.697-12.423l-14.91-14.858L82.189,154.089l-39.748-12.44l-14.91-24.794
		l-136.695-29.788l-27.346-12.475l-89.528-24.759l-89.493-12.44L-362-20.982z"/>
</g>
<g id="js">
	<g>
		<path fill="#323330" d="M615,911.477l38.774-23.46c7.48,13.26,14.286,24.479,30.607,24.479c15.646,0,25.51-6.119,25.51-29.919
			V720.721h47.614V883.25c0,49.304-28.907,71.746-71.083,71.746c-38.09,0-60.2-19.723-71.423-43.523l0,0"/>
		<path fill="#323330" d="M783.369,906.376l38.77-22.442c10.205,16.663,23.47,28.904,46.937,28.904
			c19.729,0,32.31-9.861,32.31-23.463c0-16.322-12.924-22.103-34.691-31.621l-11.9-5.104c-34.354-14.619-57.143-32.98-57.143-71.743
			c0-35.703,27.209-62.907,69.725-62.907c30.27,0,52.037,10.542,67.681,38.085l-37.073,23.801
			c-8.163-14.62-17.004-20.399-30.607-20.399c-13.944,0-22.788,8.84-22.788,20.399c0,14.282,8.844,20.063,29.248,28.905
			l11.903,5.099C926.212,831.232,949,848.913,949,888.694C949,931.54,915.329,955,870.096,955
			C825.881,955,797.312,933.92,783.369,906.376L783.369,906.376z"/>
	</g>
</g>
</svg>
