<?xml version="1.0" encoding="UTF-8" standalone="no"?>
<svg
   xmlns:dc="http://purl.org/dc/elements/1.1/"
   xmlns:cc="http://creativecommons.org/ns#"
   xmlns:rdf="http://www.w3.org/1999/02/22-rdf-syntax-ns#"
   xmlns:svg="http://www.w3.org/2000/svg"
   xmlns="http://www.w3.org/2000/svg"
   xmlns:sodipodi="http://sodipodi.sourceforge.net/DTD/sodipodi-0.dtd"
   xmlns:inkscape="http://www.inkscape.org/namespaces/inkscape"
   version="1.1"
   viewBox="0 0 630 630"
   id="svg3047"
   inkscape:version="0.48.4 r9939"
   width="100%"
   height="100%"
   sodipodi:docname="logo.png">
  <metadata
     id="metadata3057">
    <rdf:RDF>
      <cc:Work
         rdf:about="">
        <dc:format>image/svg+xml</dc:format>
        <dc:type
           rdf:resource="http://purl.org/dc/dcmitype/StillImage" />
        <dc:title></dc:title>
      </cc:Work>
    </rdf:RDF>
  </metadata>
  <defs
     id="defs3055">
    <inkscape:perspective
       id="perspective4876"
       inkscape:persp3d-origin="279.81235 : 124.43199 : 1"
       inkscape:vp_z="559.62469 : 186.64798 : 1"
       inkscape:vp_y="0 : 1000 : 0"
       inkscape:vp_x="0 : 186.64798 : 1"
       sodipodi:type="inkscape:persp3d" />
  </defs>
  <sodipodi:namedview
     pagecolor="#ffffff"
     bordercolor="#666666"
     borderopacity="1"
     objecttolerance="10"
     gridtolerance="10"
     guidetolerance="10"
     inkscape:pageopacity="0"
     inkscape:pageshadow="2"
     inkscape:window-width="1600"
     inkscape:window-height="827"
     id="namedview3053"
     showgrid="false"
     inkscape:zoom="0.5"
     inkscape:cx="124.02581"
     inkscape:cy="449.92496"
     inkscape:window-x="0"
     inkscape:window-y="0"
     inkscape:window-maximized="1"
     inkscape:current-layer="layer2" />
  <g
     inkscape:groupmode="layer"
     id="layer2"
     inkscape:label="Background">
    <g
       id="logo"
       transform="translate(0,1)">
      <rect
         id="background"
         x="0"
         y="0"
         width="630"
         height="630"
         style="fill:#f7df1e" />
      <path
         id="j"
         d="m 165.65,526.47375 48.2125,-29.1775 C 223.16375,513.7875 231.625,527.74 251.92,527.74 c 19.45375,0 31.71875,-7.60975 31.71875,-37.21 l 0,-201.3 59.20375,0 0,202.1375 c 0,61.32 -35.94375,89.23125 -88.385,89.23125 -47.36125,0 -74.8525,-24.52875 -88.8075,-54.13"
         inkscape:connector-curvature="0" />
      <path
         id="s"
         d="m 375,520.13 48.20625,-27.91125 c 12.69,20.72375 29.1825,35.9475 58.36125,35.9475 24.53125,0 40.17375,-12.26475 40.17375,-29.18125 0,-20.29875 -16.06875,-27.48875 -43.135,-39.32625 l -14.7975,-6.3475 c -42.715,-18.18125 -71.05,-41.0175 -71.05,-89.2275 0,-44.40375 33.83125,-78.2375 86.695,-78.2375 37.6375,0 64.7025,13.11125 84.15375,47.36625 l -46.09625,29.60125 c -10.15,-18.1825 -21.1425,-25.37125 -38.0575,-25.37125 -17.33875,0 -28.335,10.995 -28.335,25.37125 0,17.7625 10.99625,24.9525 36.3675,35.94875 l 14.8,6.3425 c 50.325,21.56875 78.66,43.5575 78.66,93.03375 0,53.2875 -41.86625,82.465 -98.11,82.465 -54.97625,0 -90.5,-26.2175 -107.83625,-60.47375"
         inkscape:connector-curvature="0" />
    </g>
  </g>
  <!--
  DO WHAT THE FUCK YOU WANT TO PUBLIC LICENSE
  Version 2, December 2004

  Copyright (C) 2011 Christopher Williams <chris@iterativedesigns.com>,
                     Manuel Strehl <boldewyn@gmail.com>

  Everyone is permitted to copy and distribute verbatim or modified
  copies of this license document, and changing it is allowed as long
  as the name is changed.

  DO WHAT THE FUCK YOU WANT TO PUBLIC LICENSE
  TERMS AND CONDITIONS FOR COPYING, DISTRIBUTION AND MODIFICATION

  0. You just DO WHAT THE FUCK YOU WANT TO.
-->
  <g
     inkscape:groupmode="layer"
     id="layer1"
     inkscape:label="Rocket">
    <g
       transform="matrix(1.7036929,0,0,1.7036929,-84.40101,-360.36074)"
       id="layer1-7"
       inkscape:label="Layer 1">
      <path
         sodipodi:nodetypes="cccc"
         id="path3297"
         d="m 93.61355,471.51228 23.2884,22.54978 c 29.93617,-25.09163 68.01862,-46.94612 70.09871,-95.69533 -48.65688,3.64968 -70.23939,41.75306 -93.38711,73.14555 z"
         style="fill:#ffff00;fill-rule:evenodd;stroke:#000000;stroke-width:6;stroke-linecap:butt;stroke-linejoin:round;stroke-miterlimit:4;stroke-opacity:1;stroke-dasharray:none"
         inkscape:connector-curvature="0" />
      <path
         transform="matrix(0.5969466,0.5780136,-0.5780136,0.5969466,152.08201,361.57283)"
         d="m 69.18364,36.691319 c 0,4.800083 -3.846689,8.69132 -8.59182,8.69132 -4.745132,0 -8.591821,-3.891237 -8.591821,-8.69132 0,-4.800084 3.846689,-8.691321 8.591821,-8.691321 4.745131,0 8.59182,3.891237 8.59182,8.691321 z"
         sodipodi:ry="8.6913204"
         sodipodi:rx="8.5918207"
         sodipodi:cy="36.691319"
         sodipodi:cx="60.59182"
         id="path3301"
         style="fill:#008080;fill-opacity:1;fill-rule:evenodd;stroke:#000000;stroke-width:3.61041164;stroke-linecap:butt;stroke-linejoin:round;stroke-miterlimit:4;stroke-opacity:1;stroke-dasharray:none;stroke-dashoffset:0;marker:none;visibility:visible;display:inline;overflow:visible;enable-background:accumulate"
         sodipodi:type="arc" />
      <path
         sodipodi:type="arc"
         style="fill:#008080;fill-opacity:1;fill-rule:evenodd;stroke:#000000;stroke-width:3.61041164;stroke-linecap:butt;stroke-linejoin:round;stroke-miterlimit:4;stroke-opacity:1;stroke-dasharray:none;stroke-dashoffset:0;marker:none;visibility:visible;display:inline;overflow:visible;enable-background:accumulate"
         id="path3303"
         sodipodi:cx="60.59182"
         sodipodi:cy="36.691319"
         sodipodi:rx="8.5918207"
         sodipodi:ry="8.6913204"
         d="m 69.18364,36.691319 c 0,4.800083 -3.846689,8.69132 -8.59182,8.69132 -4.745132,0 -8.591821,-3.891237 -8.591821,-8.69132 0,-4.800084 3.846689,-8.691321 8.591821,-8.691321 4.745131,0 8.59182,3.891237 8.59182,8.691321 z"
         transform="matrix(0.5969466,0.5780136,-0.5780136,0.5969466,137.91113,376.20788)" />
      <path
         transform="matrix(0.5969466,0.5780136,-0.5780136,0.5969466,123.54612,391.04344)"
         d="m 69.18364,36.691319 c 0,4.800083 -3.846689,8.69132 -8.59182,8.69132 -4.745132,0 -8.591821,-3.891237 -8.591821,-8.69132 0,-4.800084 3.846689,-8.691321 8.591821,-8.691321 4.745131,0 8.59182,3.891237 8.59182,8.691321 z"
         sodipodi:ry="8.6913204"
         sodipodi:rx="8.5918207"
         sodipodi:cy="36.691319"
         sodipodi:cx="60.59182"
         id="path3305"
         style="fill:#008080;fill-opacity:1;fill-rule:evenodd;stroke:#000000;stroke-width:3.61041164;stroke-linecap:butt;stroke-linejoin:round;stroke-miterlimit:4;stroke-opacity:1;stroke-dasharray:none;stroke-dashoffset:0;marker:none;visibility:visible;display:inline;overflow:visible;enable-background:accumulate"
         sodipodi:type="arc" />
      <path
         sodipodi:nodetypes="ccscc"
         id="path3307"
         d="m 93.613548,471.51228 -19.773017,6.85797 c 4.276515,-12.6792 11.043815,-29.06983 20.176115,-34.6695 6.000244,-3.6792 20.324764,-0.93816 20.324764,-0.93816 l -20.727862,28.74969 z"
         style="fill:#ff0000;fill-rule:evenodd;stroke:#000000;stroke-width:6;stroke-linecap:butt;stroke-linejoin:round;stroke-miterlimit:4;stroke-opacity:1;stroke-dasharray:none"
         inkscape:connector-curvature="0" />
      <path
         style="fill:#ff0000;fill-rule:evenodd;stroke:#000000;stroke-width:6;stroke-linecap:butt;stroke-linejoin:round;stroke-miterlimit:4;stroke-opacity:1;stroke-dasharray:none"
         d="m 117.61194,493.32881 -6.21735,19.98371 c 12.53484,-4.68281 28.69891,-11.97469 34.00146,-21.28267 3.48394,-6.11567 0.28282,-20.34443 0.28282,-20.34443 l -28.06693,21.64339 z"
         id="path3309"
         sodipodi:nodetypes="ccscc"
         inkscape:connector-curvature="0" />
    </g>
    <path
       style="fill:#f7df1e;fill-opacity:1"
       d="m 50.347366,445.35871 c 0.134835,-0.3329 0.631378,-1.61693 1.103429,-2.85341 4.624769,-12.11398 11.777539,-25.876 16.927551,-32.56883 3.632153,-4.72025 7.838908,-8.61264 11.102559,-10.27288 0.804295,-0.40915 2.564878,-0.97583 3.912406,-1.25929 3.067258,-0.64522 11.408246,-0.99393 14.901424,-0.62298 l 2.636945,0.28002 -14.585898,20.21619 -14.585903,20.2162 -10.705363,3.72865 c -5.887949,2.05076 -10.760925,3.73156 -10.828834,3.73512 -0.06791,0.004 -0.01315,-0.26589 0.121684,-0.59879 z"
       id="path3032"
       inkscape:connector-curvature="0" />
    <path
       style="fill:#f7df1e;fill-opacity:1"
       d="m 113.88565,504.68622 c 0.0838,-0.24397 1.61065,-5.1553 3.39291,-10.91406 l 3.24045,-10.47049 19.73506,-15.213 19.73507,-15.213 0.27867,1.81863 c 0.15327,1.00025 0.28792,4.7758 0.29922,8.39012 0.0233,7.44049 -0.38982,9.60671 -2.51662,13.19692 -1.52826,2.57982 -7.28686,8.40146 -11.09406,11.21551 -6.11245,4.51795 -14.20645,9.11002 -24.1501,13.70137 -6.9891,3.22713 -9.11688,4.0591 -8.9206,3.488 l 0,0 z"
       id="path3034"
       inkscape:connector-curvature="0" />
    <path
       style="fill:#f7df1e;fill-opacity:1"
       d="m 50.176219,445.69327 c 0,-0.61435 4.215838,-10.65695 6.770221,-16.12743 5.089299,-10.89927 9.911069,-18.51303 15.240877,-24.06593 6.082587,-6.33719 8.967586,-7.51717 19.147129,-7.83128 3.328975,-0.10273 6.879519,-0.0564 7.890102,0.10297 l 1.837422,0.28974 -14.61287,20.26719 -14.612867,20.26719 -10.370507,3.59766 c -11.724775,4.06748 -11.289507,3.93254 -11.289507,3.49989 z"
       id="path3036"
       inkscape:connector-curvature="0" />
    <path
       style="fill:#f7df1e;fill-opacity:1"
       d="m 49.830352,446.14017 c 0,-0.35719 2.785195,-7.44445 4.437567,-11.29191 2.371808,-5.52264 7.217852,-15.04179 9.571698,-18.80182 4.790903,-7.65297 10.985123,-14.37352 15.119769,-16.40451 3.57866,-1.75789 6.433895,-2.19367 14.323069,-2.18607 3.8297,0.004 7.202655,0.14144 7.495445,0.3061 0.4294,0.24147 -2.240539,4.14584 -13.804348,20.18676 -7.885186,10.93805 -14.604404,20.14113 -14.931594,20.45129 -0.327189,0.31015 -5.39029,2.21674 -11.251335,4.23687 -11.066953,3.81446 -10.960271,3.78036 -10.960271,3.50329 z"
       id="path3038"
       inkscape:connector-curvature="0" />
    <path
       style="fill:#f7df1e;fill-opacity:1"
       d="m 113.4749,505.19378 c 0.003,-0.14267 1.52872,-5.16207 3.39113,-11.15422 l 3.38618,-10.89483 19.84439,-15.31142 c 10.91441,-8.42128 19.96172,-15.19163 20.10513,-15.04523 0.1434,0.1464 0.41069,2.44515 0.59398,5.10833 0.37982,5.5191 0.0211,12.21199 -0.80088,14.94268 -1.66287,5.5242 -8.91872,12.70544 -19.72014,19.51736 -4.0954,2.58277 -17.06324,9.17982 -22.55718,11.47539 -4.12677,1.72431 -4.25026,1.76395 -4.24261,1.36194 z"
       id="path3040"
       inkscape:connector-curvature="0" />
    <path
       style="fill:#f7df1e;fill-opacity:1"
       d="m 113.46996,505.03421 c 0,-0.62695 6.58127,-21.8545 6.85456,-22.10903 1.33252,-1.24105 39.06176,-30.03331 39.65261,-30.26004 0.47657,-0.18287 0.6713,1.19336 1.05831,7.4794 0.26686,4.33441 -0.3052,10.79843 -1.17456,13.2719 -2.3733,6.75247 -12.46832,15.52295 -26.29231,22.84259 -7.22962,3.828 -18.7522,9.19415 -19.74232,9.19415 -0.19596,0 -0.35629,-0.18853 -0.35629,-0.41897 z"
       id="path3042"
       inkscape:connector-curvature="0" />
    <path
       style="fill:#f7df1e;fill-opacity:1"
       d="m 49.830352,445.93629 c 0,-0.72638 4.542428,-11.80618 6.712946,-16.37407 5.712734,-12.02256 10.251545,-18.95833 16.432887,-25.11114 6.281705,-6.25271 8.402902,-6.99429 20.15718,-7.047 4.584543,-0.0206 7.639525,0.10079 7.849485,0.3118 0.32785,0.32948 -8.203708,12.51959 -23.310168,33.30617 l -5.533879,7.61465 -4.842145,1.79491 c -5.437359,2.01554 -16.721584,5.87824 -17.172315,5.87824 -0.161695,0 -0.293991,-0.16811 -0.293991,-0.37356 z"
       id="path3044"
       inkscape:connector-curvature="0" />
    <path
       style="fill:#f7df1e;fill-opacity:1"
       d="m 113.46996,504.97567 c 0,-0.54275 3.8841,-13.5012 5.60569,-18.70216 l 1.13959,-3.44269 8.99212,-6.94527 c 13.93897,-10.76606 30.6223,-23.35009 30.95648,-23.35009 0.55349,0 0.83643,3.22469 0.84973,9.68429 0.0198,9.6341 -0.62196,12.01607 -4.57934,16.99602 -3.37092,4.24195 -9.01129,8.87531 -16.40134,13.47312 -5.9896,3.7265 -24.43512,12.76429 -26.05105,12.76429 -0.28153,0 -0.51188,-0.21488 -0.51188,-0.47751 z"
       id="path3046"
       inkscape:connector-curvature="0" />
    <path
       style="fill:#f7df1e;fill-opacity:1"
       d="m 49.830352,445.79894 c 0,-1.49482 6.038833,-15.42321 9.644535,-22.24484 5.092369,-9.63425 7.747404,-13.39782 13.488966,-19.12091 4.414319,-4.40011 6.772681,-5.86845 10.588576,-6.59253 2.319906,-0.44022 16.252367,-0.61419 17.226211,-0.2151 0.54847,0.22476 0.34011,0.66726 -1.710061,3.6316 -3.324392,4.80675 -20.822713,29.28103 -24.174482,33.81199 l -2.814397,3.80455 -2.737388,0.98483 c -7.301653,2.62694 -18.57446,6.45132 -19.01601,6.45132 -0.272773,0 -0.49595,-0.22991 -0.49595,-0.51091 z"
       id="path3048"
       inkscape:connector-curvature="0" />
    <path
       style="fill:#f7df1e;fill-opacity:1"
       d="m 49.995723,445.01284 c 0.396331,-2.12103 4.88911,-12.63197 8.389749,-19.62797 4.728136,-9.44916 8.92618,-15.50428 14.674357,-21.16582 6.213622,-6.11998 8.005359,-6.74937 19.379325,-6.80754 5.197575,-0.0266 8.325576,0.0879 8.552026,0.31306 0.46825,0.46553 -0.22337,1.48168 -15.824591,23.25014 l -12.912277,18.01656 -5.072832,1.78525 c -8.604746,3.02823 -16.230204,5.53333 -16.843293,5.53333 -0.488298,0 -0.544819,-0.21407 -0.342464,-1.29701 z"
       id="path3050"
       inkscape:connector-curvature="0" />
    <path
       style="fill:#f7df1e;fill-opacity:1"
       d="m 49.830352,445.60301 c 0,-1.77401 5.589539,-14.8583 9.597475,-22.46628 4.380145,-8.31452 8.301,-13.77163 13.767463,-19.16178 3.600125,-3.54986 6.090821,-5.19962 9.032932,-5.98314 2.408778,-0.64148 18.157308,-0.86936 18.758758,-0.27144 0.50825,0.50527 -0.8424,2.51551 -15.53228,23.11756 l -12.97003,18.19002 -2.766939,1.0034 c -6.239007,2.26248 -18.500951,6.2785 -19.169925,6.2785 -0.491986,0 -0.717454,-0.22214 -0.717454,-0.70684 z"
       id="path3052"
       inkscape:connector-curvature="0" />
    <path
       style="fill:#f7df1e;fill-opacity:1"
       d="m 49.830352,445.38766 c 0,-1.47523 4.008367,-11.09945 7.826746,-18.79226 5.477778,-11.03597 8.715342,-15.79917 15.17344,-22.32363 3.095644,-3.12745 4.289421,-4.08284 6.406814,-5.12745 2.381534,-1.17492 2.980649,-1.31405 7.062956,-1.64028 5.307581,-0.42414 14.187312,-0.28748 14.699632,0.22623 0.24917,0.24986 -0.0353,0.9937 -0.92592,2.42107 -1.297616,2.07964 -15.137568,21.73572 -23.215857,32.97213 l -4.373493,6.08326 -6.225614,2.16412 c -7.256347,2.52241 -15.009147,4.939 -15.845122,4.939 -0.401615,0 -0.583582,-0.28755 -0.583582,-0.92219 z"
       id="path3054"
       inkscape:connector-curvature="0" />
    <path
       style="fill:#f7df1e;fill-opacity:1"
       d="m 98.15711,458.37508 -16.513027,-15.96945 0.813585,-1.07423 c 0.447472,-0.59083 5.299811,-7.29985 10.782976,-14.90893 12.219916,-16.95779 15.587326,-21.55249 20.025156,-27.32353 15.01963,-19.53181 30.35958,-35.52628 44.4752,-46.37286 17.83091,-13.70145 36.6919,-22.40762 58.07551,-26.80747 3.23539,-0.66571 11.67427,-2.04584 12.50938,-2.04584 0.74501,0 -0.23297,9.04464 -1.81381,16.77457 -4.95018,24.20513 -15.48009,44.9068 -33.68975,66.23362 -7.75471,9.08218 -22.95877,23.46724 -37.5024,35.48227 -7.8812,6.51095 -39.7601,31.77825 -40.22838,31.88512 -0.23178,0.0529 -7.85228,-7.09008 -16.93444,-15.87327 z m 58.45652,-41.88155 c 3.08982,-1.13748 6.42753,-4.06911 7.93268,-6.96754 2.14278,-4.12631 1.98145,-10.18762 -0.37833,-14.21428 -1.07042,-1.82652 -3.82611,-4.40384 -5.77259,-5.39892 -7.47711,-3.82245 -16.32046,-0.76781 -19.96604,6.89662 -4.82611,10.14639 3.2163,21.55478 14.4695,20.52539 1.04625,-0.0957 2.7179,-0.47428 3.71478,-0.84127 z m 23.78169,-25.08523 c 9.03102,-2.81924 13.05859,-13.77126 7.97706,-21.69174 -5.14373,-8.01743 -16.01851,-9.04518 -22.7751,-2.15241 -2.97244,3.03233 -4.22668,6.50845 -3.98815,11.0531 0.49404,9.41252 9.64651,15.64422 18.78619,12.79105 z m 25.8053,-25.56919 c 2.80299,-1.3148 5.74348,-4.15509 7.03538,-6.79564 4.90092,-10.01714 -2.75515,-21.67209 -13.73306,-20.90603 -11.36744,0.79324 -17.62516,13.22478 -11.40965,22.66633 2.84303,4.31866 6.96783,6.35916 12.53527,6.20109 2.83902,-0.0806 3.59658,-0.2391 5.57206,-1.16575 l 0,0 z"
       id="path3056"
       inkscape:connector-curvature="0" />
    <path
       style="fill:#f7df1e;fill-opacity:1"
       d="m 172.83245,386.81006 c -2.45732,-0.73614 -5.11459,-3.45326 -6.04404,-6.18017 -1.20798,-3.54409 0.27043,-8.26953 3.31441,-10.59377 3.97406,-3.03442 8.8595,-2.88816 12.48766,0.37387 2.04485,1.8385 3.16593,4.37839 3.16551,7.17167 -5.4e-4,3.53384 -2.58946,7.36843 -6.0298,8.93102 -1.50499,0.68356 -5.0886,0.83815 -6.89374,0.29738 z"
       id="path3066"
       inkscape:connector-curvature="0" />
    <path
       style="fill:#f7df1e;fill-opacity:1"
       d="m 196.69518,361.77387 c -1.87732,-0.69387 -3.67067,-2.2306 -4.88624,-4.18706 -0.95396,-1.53541 -1.0376,-1.923 -1.0376,-4.80847 0,-2.77771 0.10578,-3.31734 0.92028,-4.69485 1.79988,-3.04402 4.48516,-4.78633 7.84654,-5.09113 5.25433,-0.47644 9.8539,3.45724 10.32482,8.83008 0.3306,3.7719 -2.05887,7.85315 -5.60281,9.5697 -1.77769,0.86105 -5.72874,1.06042 -7.56499,0.38173 z"
       id="path3068"
       inkscape:connector-curvature="0" />
    <path
       style="fill:#ff0000;fill-opacity:1"
       d="m 176.08278,361.95061 c -7.20489,-0.008 -14.14564,5.63906 -15.28302,12.78629 -0.25226,3.81199 -0.35846,7.93596 2.05359,11.15423 3.74338,6.05793 11.80021,8.92469 18.47148,6.29046 7.27113,-2.50768 11.67509,-10.82787 9.84632,-18.27934 -1.37711,-6.87873 -8.1388,-12.03218 -15.08837,-11.95164 z m 0,7.10109 c 5.40368,-0.27297 9.94331,5.67095 8.12789,10.78675 -1.1409,3.41245 -4.39237,6.33027 -8.14951,6.16076 -5.53364,0.67943 -10.07877,-5.83804 -8.06303,-10.91644 1.00464,-3.5046 4.50454,-5.97769 8.08465,-6.03107 z"
       id="path3086"
       inkscape:connector-curvature="0" />
    <path
       style="fill:#ff0000;fill-opacity:1"
       d="m 149.34247,412.3996 c -2.86664,-0.71104 -5.26117,-2.52971 -6.58296,-4.99984 -1.09832,-2.05251 -1.0707,-6.65632 0.0529,-8.81962 1.76877,-3.40543 4.5985,-5.24785 8.4047,-5.47222 4.08632,-0.24088 7.71074,1.99258 9.3885,5.78542 0.92277,2.08608 0.91117,5.61456 -0.0254,7.73188 -1.90419,4.30474 -6.87181,6.8573 -11.23773,5.77438 l 0,0 z"
       id="path3104"
       inkscape:connector-curvature="0" />
    <path
       style="fill:#000000;fill-opacity:1"
       d="m 172.75227,392.89786 c -7.47607,-1.69597 -12.25167,-7.70739 -12.24059,-15.40815 0.006,-4.08474 1.15769,-7.13286 3.8489,-10.18568 3.33732,-3.78574 7.70828,-5.59193 12.876,-5.32069 2.52433,0.13249 3.31439,0.33792 5.5511,1.44336 6.05358,2.99184 9.15527,8.26905 8.76306,14.90945 -0.20175,3.41573 -1.16928,6.055 -3.21956,8.78248 -3.55391,4.72774 -9.8759,7.07298 -15.57891,5.77923 z m 6.20937,-7.59035 c 2.85289,-1.19201 4.98175,-4.1106 5.30865,-7.27793 0.45252,-4.38454 -3.62882,-8.84818 -8.09037,-8.84818 -1.57466,0 -3.98792,0.94461 -5.41183,2.11831 -2.73143,2.25147 -3.70705,6.30584 -2.30287,9.56994 0.81802,1.90155 2.51287,3.64718 4.29413,4.4228 1.39491,0.60739 4.76505,0.61557 6.20229,0.0151 l 0,0 z"
       id="path3106"
       inkscape:connector-curvature="0" />
    <path
       style="fill:#000000;fill-opacity:1"
       d="m 199.95844,337.19947 c -8.17373,-0.0874 -15.30312,7.28715 -15.21816,15.3911 -0.2568,7.73449 6.11521,15.00935 13.91035,15.41272 5.14868,0.48111 10.36184,-1.72421 13.53207,-5.8257 5.56911,-6.26745 4.19699,-16.78554 -2.39946,-21.76803 -2.77345,-2.17097 -6.31391,-3.29826 -9.8248,-3.21009 z m 0.42153,6.78765 c 5.90703,-0.12775 10.37873,6.78488 7.68474,12.10536 -1.53009,3.61074 -5.55304,5.50114 -9.30599,5.05831 -4.67299,-0.32527 -7.92822,-5.42419 -6.97139,-9.93288 0.49829,-4.2241 4.48363,-7.1846 8.59264,-7.23079 z"
       id="path3108"
       inkscape:connector-curvature="0" />
    <path
       style="fill:#000000;fill-opacity:1"
       d="m 151.12628,387.35025 c -9.66124,0.12658 -17.5318,10.72754 -14.43996,19.97385 1.99267,6.51919 8.56049,11.75342 15.56369,10.82543 7.88677,-0.0286 14.94332,-7.26126 14.77537,-15.17039 0.41336,-8.64181 -7.38312,-15.99781 -15.8991,-15.62889 z m 1.58883,7.04705 c 4.59035,0.26669 7.89691,4.90605 7.23079,9.33842 -0.28462,4.84558 -5.19154,8.15405 -9.75994,7.56586 -3.08703,-0.38941 -5.91091,-2.93352 -6.78765,-5.90137 -0.62915,-3.14943 0.006,-6.64705 2.55229,-8.84236 1.72637,-1.92265 4.32288,-2.17415 6.76451,-2.16055 z"
       id="path3110"
       inkscape:connector-curvature="0" />
    <path
       style="fill:#f7df1e;fill-opacity:1"
       d="m 228.2223,323.98085 c -24.25054,2.61054 -47.65524,11.90124 -67.25949,26.38782 -12.53723,9.02748 -23.32885,20.20439 -33.66784,31.61394 -16.54877,19.06649 -30.664579,40.05326 -45.623196,60.34976 10.990179,10.74825 21.972606,21.58968 33.268126,31.97112 16.14753,-12.44012 32.20727,-25.02194 47.74779,-38.21914 20.55392,-17.59546 40.07649,-37.38164 52.199,-61.88747 7.74805,-15.56322 12.80249,-32.65374 13.70309,-50.0539 0.0147,-0.21833 -0.22508,-0.17718 -0.36748,-0.16213 z m -28.03688,13.38075 c 7.33184,-0.30962 14.46037,5.619 15.12089,12.95922 0.22505,3.66684 0.1418,7.56802 -2.24814,10.59219 -4.24563,6.56076 -13.67843,9.33253 -20.49264,5.12316 -7.07914,-3.79982 -9.98437,-13.55009 -5.86894,-20.50345 2.66489,-4.90737 7.76212,-8.46465 13.48883,-8.17112 z m -24.02698,24.5674 c 8.44278,-0.11678 16.17393,7.73018 15.36948,16.27738 -0.23343,8.98578 -9.30864,16.58365 -18.21777,14.72658 -8.37152,-1.1985 -14.41091,-10.12419 -12.51039,-18.34738 1.25134,-7.17753 8.16324,-12.61326 15.35868,-12.65658 z M 152.834,387.69612 c 5.19275,-0.0587 9.93443,3.61844 12.39719,8.0198 3.99626,7.14562 0.79452,17.02467 -6.53906,20.61154 -5.95291,3.35818 -14.1066,2.22094 -18.52552,-3.14523 -4.65719,-4.87735 -5.4809,-12.85214 -1.52398,-18.40663 2.7515,-4.30341 7.59537,-7.70764 12.89437,-7.07948 0.43233,0 0.86467,0 1.297,0 z"
       id="path3114"
       inkscape:connector-curvature="0" />
    <path
       style="fill:#f7df1e;fill-opacity:1"
       d="m 151.67751,394.36488 c -4.66538,-0.47017 -8.80166,3.92053 -8.50618,8.49537 -0.61028,4.00446 2.8385,7.6178 6.52825,8.45213 5.0142,1.01682 10.3808,-2.91609 10.46249,-8.11707 0.3258,-4.66823 -3.60181,-9.33164 -8.48456,-8.83043 z"
       id="path3116"
       inkscape:connector-curvature="0" />
    <path
       style="fill:#f7df1e;fill-opacity:1"
       d="m 175.36943,369.24625 c -4.33462,0.76258 -8.10503,4.76346 -7.42534,9.33843 0.46304,4.32747 4.8135,8.20226 9.26276,6.97139 5.75665,-0.46607 9.29658,-8.43326 5.36095,-12.89437 -1.64873,-2.23466 -4.41501,-3.59531 -7.19837,-3.41545 z"
       id="path3118"
       inkscape:connector-curvature="0" />
    <path
       style="fill:#f7df1e;fill-opacity:1"
       d="m 199.76389,344.13844 c -6.16978,0.0303 -10.34979,7.85827 -6.80926,12.97003 2.50711,5.3912 10.98141,5.25681 14.02925,0.45395 2.91192,-3.08523 2.21305,-7.96131 -0.67012,-10.79755 -1.61144,-1.95104 -4.06628,-2.80807 -6.54987,-2.62643 z"
       id="path3120"
       inkscape:connector-curvature="0" />
    <path
       style="fill:#f7df1e;fill-opacity:1"
       d="m 150.72637,394.37569 c -6.85349,-0.0314 -10.16219,9.74546 -5.52307,14.37511 3.75676,4.42931 11.54595,3.11796 14.01844,-2.02116 2.94242,-5.00523 -0.91169,-12.73507 -6.97139,-12.34315 -0.50759,-0.0296 -1.01598,-0.0263 -1.52398,-0.0108 z"
       id="path3122"
       inkscape:connector-curvature="0" />
    <path
       style="fill:#f7df1e;fill-opacity:1"
       d="m 151.4073,394.31084 c -4.75207,-0.35361 -8.80921,4.30286 -8.2792,8.96013 -0.40162,5.23094 5.34077,9.57988 10.30036,7.93333 4.96151,-0.93866 8.13889,-6.54889 6.36613,-11.30554 -1.15321,-3.62354 -4.57474,-5.97555 -8.38729,-5.58792 z"
       id="path3124"
       inkscape:connector-curvature="0" />
    <path
       style="fill:#f7df1e;fill-opacity:1"
       d="m 175.96389,369.09494 c -5.25289,0.3292 -9.84273,6.05237 -7.74959,11.22988 1.10623,3.33305 4.40619,6.13634 8.08465,5.43661 6.4241,0.25961 10.79052,-8.87604 6.04187,-13.49964 -1.60109,-1.79445 -3.88049,-3.27074 -6.37693,-3.16685 z"
       id="path3126"
       inkscape:connector-curvature="0" />
    <path
       style="fill:#f7df1e;fill-opacity:1"
       d="m 175.41266,369.12736 c -5.98724,0.418 -9.89491,8.01389 -6.36612,13.02407 1.63253,3.03046 5.20474,4.30013 8.48456,3.57757 5.48616,-0.79748 9.04972,-8.36172 5.41499,-12.87275 -1.66926,-2.36665 -4.57837,-4.00999 -7.53343,-3.72889 z"
       id="path3128"
       inkscape:connector-curvature="0" />
    <path
       style="fill:#f7df1e;fill-opacity:1"
       d="m 200.07734,343.97631 c -5.65263,-0.0486 -10.01417,6.10561 -8.11708,11.42444 1.15655,4.05544 5.50669,6.79667 9.66267,5.63115 5.79852,-0.63633 9.48381,-8.22232 5.90136,-13.04569 -1.57806,-2.48215 -4.47677,-4.09962 -7.44695,-4.0099 z"
       id="path3130"
       inkscape:connector-curvature="0" />
    <path
       style="fill:#f7df1e;fill-opacity:1"
       d="m 199.99087,343.90065 c -5.70859,-0.0693 -9.89495,6.24661 -8.06304,11.54333 1.04651,3.98403 5.26346,6.61945 9.30397,5.66944 4.95886,-0.22991 8.37816,-5.32218 7.5895,-10.06844 -0.57866,-3.9347 -4.80514,-7.48301 -8.83043,-7.14433 z"
       id="path3132"
       inkscape:connector-curvature="0" />
    <path
       inkscape:connector-curvature="0"
       id="path3134"
       d="m 199.99087,343.90065 c -5.70859,-0.0693 -9.89495,6.24661 -8.06304,11.54333 1.04651,3.98403 5.26346,6.61945 9.30397,5.66944 4.95886,-0.22991 8.37816,-5.32218 7.5895,-10.06844 -0.57866,-3.9347 -4.80514,-7.48301 -8.83043,-7.14433 z"
       style="fill:#f7df1e;fill-opacity:1" />
  </g>
  <path
     style="fill:#f9f9f9;fill-opacity:1"
     d="m 221.91138,324.56127 c -33.79644,5.51752 -64.43372,24.21236 -87.10671,49.58586 -19.90584,20.68437 -36.903532,44.21417 -52.414295,68.23581 9.991488,11.24918 21.104335,22.50837 33.101435,31.24528 26.94773,-20.26359 54.03703,-41.05069 76.76528,-66.11448 20.51722,-23.31565 34.7641,-52.69506 36.99052,-83.92474 -2.44541,0.32409 -4.89081,0.64818 -7.33623,0.97227 z m -21.30159,13.39084 c 15.68919,-1.10828 19.53465,24.32447 4.64039,28.41685 -11.73049,4.87447 -24.02971,-8.48267 -18.42897,-19.7106 2.293,-5.36947 7.99524,-8.8632 13.78858,-8.70625 z m -24.79293,24.57196 c 12.8805,-0.28272 21.17426,17.48148 10.25305,26.03036 -9.29967,10.81781 -27.88017,-0.55814 -24.39519,-13.6118 0.31044,-6.7397 7.74459,-12.29879 14.14214,-12.41856 z M 151.2007,388.0683 c 11.84601,-0.62025 19.88158,13.71152 12.1534,23.20194 -7.37249,11.36933 -27.68887,5.1307 -26.60489,-8.75045 -0.26034,-7.79332 6.61698,-14.75998 14.45149,-14.45149 z"
     id="path3136"
     inkscape:connector-curvature="0" />
  <path
     style="fill:#cccccc;fill-opacity:1"
     d="m 91.955451,396.25273 c -5.424807,0.068 -11.510917,-0.0652 -15.898437,3.64843 -7.273686,6.03801 -13.060903,13.7307 -17.265625,22.16407 -3.685848,7.27868 -7.379219,14.60772 -9.843208,22.38282 -0.329214,1.08567 -0.720867,3.19139 1.03634,2.93579 4.455822,-0.73444 8.686172,-2.51801 12.997273,-3.81922 3.40666,-1.23784 7.003261,-2.10805 10.290722,-3.5766 9.221553,-12.93111 18.543535,-25.78718 27.437374,-38.93734 0.66168,-1.18266 2.34365,-2.94963 0.84712,-4.16514 -2.424029,-1.03237 -5.212044,-0.45803 -7.781246,-0.64063 -0.606793,-0.002 -1.213545,0.003 -1.820313,0.008 z"
     id="path3170"
     inkscape:connector-curvature="0" />
  <path
     style="fill:#cccccc;fill-opacity:1"
     d="m 160.00233,451.66679 c -3.08398,1.33809 -5.53977,3.8251 -8.30323,5.71027 -10.77535,8.2174 -21.66167,16.3341 -32.2649,24.74249 -2.47664,6.71125 -4.46116,13.64379 -6.4475,20.53161 -0.27987,1.21607 -1.20674,3.2451 0.35156,3.89063 2.15506,0.0132 4.08725,-1.37655 6.07032,-2.10156 11.24387,-5.30604 22.72351,-10.61098 32.21875,-18.85938 4.03797,-3.68112 8.39458,-7.80607 9.71875,-13.28906 1.04287,-6.06849 0.9641,-12.323 0.36718,-18.4375 -0.11607,-0.95965 -0.41123,-2.41407 -1.71093,-2.1875 z"
     id="path3172"
     inkscape:connector-curvature="0" />
  <path
     style="fill:#f2f2f2;fill-opacity:1"
     d="m 228.76795,322.60429 c -25.13219,2.87624 -49.35556,12.66031 -69.59889,27.81346 -16.66691,12.41122 -30.6373,28.03191 -43.6834,44.0682 -10.40025,12.76757 -19.81106,26.29665 -29.230083,39.7828 -1.790921,2.59156 -3.826086,5.05936 -5.479865,7.71821 -0.189787,1.55751 1.833792,2.34766 2.63697,3.52391 8.772784,8.84963 17.597348,17.65231 26.905858,25.92737 1.4628,1.25619 2.72737,2.83984 4.44941,3.73636 1.67636,-0.0177 2.72951,-1.79279 4.12937,-2.54616 25.28649,-19.75962 51.0771,-39.13107 72.74299,-62.94374 21.196,-23.30748 35.91162,-53.15421 38.49082,-84.76764 0.097,-0.96556 0.006,-2.4756 -1.36318,-2.31277 z m -27.6875,16.45312 c 5.31788,-0.53904 9.92893,3.62653 11.50781,8.45313 1.95302,5.44003 0.94808,12.50911 -3.95312,16.05469 -3.18961,2.16747 -7.28877,3.12956 -11.08594,2.51562 -6.84354,-1.55652 -12.24864,-8.84938 -10.80469,-15.90625 1.09849,-4.37049 3.96362,-8.45207 8.3125,-10.04687 1.87631,-0.90108 3.96578,-1.09955 6.02344,-1.07032 z m -24.67969,24.55469 c 8.00768,0.11125 14.35235,8.22475 13.54688,16.01563 -0.28495,4.40276 -3.72022,7.75132 -7.02051,10.2793 -4.46102,3.04494 -10.74802,2.1194 -14.81543,-1.16212 -3.57206,-2.66036 -6.13937,-7.03848 -5.63281,-11.60937 0.0169,-3.60338 1.36474,-7.33425 4.21875,-9.66406 2.65418,-2.35323 6.14834,-3.84 9.70312,-3.85938 z m -25.17187,25.48438 c 5.81971,-0.31034 11.31063,3.67754 13.25,9.07031 1.69995,4.34428 0.7304,9.4408 -2.34794,12.94019 -3.00029,4.33271 -8.89676,5.90483 -13.83956,4.48168 -4.36294,-1.00332 -8.67407,-4.04308 -9.875,-8.53906 -1.91752,-5.78003 0.28159,-12.79091 5.65625,-15.92969 2.12062,-1.32579 4.64039,-2.01332 7.15625,-2.02343 z"
     id="path3174"
     inkscape:connector-curvature="0" />
</svg>
