<svg xmlns="http://www.w3.org/2000/svg" viewBox="0 0 1000 1000" preserveAspectRatio="xMinYMin"><g clip-path="url(#__vecs_clipped_drawing_group_path_1426783221277)"><polygon x="0" y="0" fill="#f7df1e" points="500 1060 1502 500 1454.75 804.072"/><polygon x="50" y="50" fill="#F7941E" points="500 1060 1461.41 782.296 1330.41 1060.74"/><polygon x="100" y="100" fill="#f7df1e" points="500 1060 1342.94 1041.72 1138.79 1271.98"/><polygon x="150" y="150" fill="#F7941E" points="500 1060 1156.17 1257.26 895.425 1420.68"/><polygon x="200" y="200" fill="#f7df1e" points="500 1060 916.246 1411.45 620.024 1494.79"/><polygon x="250" y="250" fill="#F7941E" points="500 1060 642.599 1491.8 334.898 1488.3"/><polygon x="300" y="300" fill="#f7df1e" points="500 1060 357.401 1491.8 63.1486 1401.76"/><polygon x="350" y="350" fill="#F7941E" points="500 1060 83.7542 1411.45 -173.21 1242.15"/><polygon x="400" y="400" fill="#f7df1e" points="500 1060 -156.17 1257.26 -355.029 1022.43"/><polygon x="450" y="450" fill="#F7941E" points="500 1060 -342.936 1041.72 -467.579 760.375"/><polygon x="500" y="500" fill="#f7df1e" points="500 1060 -461.412 782.296 -501.741 477.229"/><polygon x="550" y="550" fill="#F7941E" points="500 1060 -502 500 -454.748 195.928"/><polygon x="600" y="600" fill="#f7df1e" points="500 1060 -461.412 217.704 -330.408 -60.7382"/><polygon x="650" y="650" fill="#F7941E" points="500 1060 -342.936 -41.7221 -138.792 -271.977"/><polygon x="700" y="700" fill="#f7df1e" points="500 1060 -156.17 -257.261 104.575 -420.675"/><polygon x="750" y="750" fill="#F7941E" points="500 1060 83.7542 -411.451 379.976 -494.786"/><polygon x="800" y="800" fill="#f7df1e" points="500 1060 357.401 -491.801 665.102 -488.304"/><polygon x="850" y="850" fill="#F7941E" points="500 1060 642.599 -491.801 936.851 -401.757"/><polygon x="900" y="900" fill="#f7df1e" points="500 1060 916.246 -411.451 1173.21 -242.154"/><polygon x="950" y="950" fill="#F7941E" points="500 1060 1156.17 -257.261 1355.03 -22.4262"/><polygon x="1000" y="1000" fill="#f7df1e" points="500 1060 1342.94 -41.7221 1467.58 239.625"/><polygon x="1050" y="1050" fill="#F7941E" points="500 1060 1461.41 217.704 1501.74 522.771"/><path fill-opacity="0" stroke-width="68" stroke="black" stroke-linecap="round" d="M 250 150 l 0 1000"/><path fill-opacity="0" stroke-width="60" stroke="black" stroke-linecap="round" d="M 250 450 q -105,60 -105,-180 l 0 -30"/><path fill-opacity="0" stroke-width="60" stroke="black" stroke-linecap="round" d="M 250 485 q 105,60 105,-200 l 0 -30"/><polygon stroke-width="1" stroke="black" fill="black" x="0" y="300" points="0 600 166.667 680 333.333 600 500 680 666.667 600 833.333 680 1000 600 1001 1001 -1 1001"/><svg version="1.1" width="1000px" height="1000px" x="34.428571428571445" y="740" viewBox="0 0 700 700"><path fill="#C00" d="M 0 0  M 23.2 22.8 L 23.2 142.2 L 46.2 142.2 L 46.2 22.8 L 69.2 22.8 L 69.2 1.2 L 0.0 1.2 L 0.0 22.8 Z M 115.8 144.6 C 142.6 144.6 151.4 128.0 151.4 89.6 L 151.4 1.2 L 129.4 1.2 L 129.4 91.6 C 129.4 113.6 127.4 123.6 116.0 123.6 C 104.8 123.6 102.8 113.6 102.8 91.6 L 102.8 1.2 L 80.2 1.2 L 80.2 89.6 C 80.2 128.4 88.6 144.6 115.8 144.6 Z M 163.6 71.6 C 163.6 126.0 191.6 143.0 215.2 143.0 C 218.4 143.0 221.6 142.6 224.4 141.8 L 221.8 120.4 C 219.8 120.8 218.0 120.8 216.4 120.8 C 197.0 120.8 186.2 101.0 186.2 72.0 C 186.2 42.6 197.0 23.4 216.4 23.4 C 218.2 23.4 220.0 23.6 221.8 23.8 L 224.4 1.6 C 221.6 1.0 218.4 0.6 215.0 0.6 C 191.6 0.6 163.6 17.2 163.6 71.6 Z M 259.4 143.2 C 281.2 143.2 295.4 132.4 295.4 110.4 C 295.4 79.8 255.6 51.0 255.6 32.6 C 255.6 25.2 260.4 21.8 267.4 21.8 C 272.4 21.8 278.6 23.2 283.2 25.0 L 290.0 5.0 C 286.2 3.0 277.0 0.0 266.6 0.0 C 250.4 0.0 233.0 7.4 233.0 32.6 C 233.0 63.2 272.6 90.8 272.6 110.4 C 272.6 117.8 268.0 122.6 259.0 122.6 C 250.8 122.6 241.4 119.2 236.8 116.8 L 229.4 135.8 C 236.4 139.6 247.2 143.2 259.4 143.2 Z M 343.6 143.4 C 367.0 143.4 382.6 121.8 382.6 71.8 C 382.6 21.4 367.0 0.0 343.6 0.0 C 320.0 0.0 304.2 21.6 304.2 71.8 C 304.2 122.0 320.0 143.4 343.6 143.4 Z M 343.6 122.0 C 331.2 122.0 327.0 99.4 327.0 72.0 C 327.0 44.4 331.2 22.6 343.6 22.6 C 356.0 22.6 360.0 44.4 360.0 72.0 C 360.0 99.6 356.0 122.0 343.6 122.0 Z M 459.4 142.4 L 468.8 142.4 L 468.8 1.2 L 448.4 1.2 L 448.4 75.6 L 408.4 1.0 L 397.2 1.0 L 397.2 142.2 L 417.4 142.2 L 417.4 62.2 Z Z"/></svg><svg version="1.1" width="1000px" height="1000px" viewBox="0 0 700 700" x="729.8571428571429" y="740"><path fill="#C00" d="M 0 0  M 21.0 143.6 C 40.2 143.6 61.0 138.2 61.0 101.4 L 61.0 1.4 L 30.6 1.4 L 30.6 97.2 C 30.6 111.6 27.0 115.4 15.8 115.4 C 12.4 115.4 8.2 114.8 3.0 113.8 L 0.0 141.2 C 6.4 142.6 14.2 143.6 21.0 143.6 Z M 116.2 143.6 C 149.6 143.6 165.0 129.6 165.0 104.8 C 165.0 83.0 147.0 70.4 131.6 60.0 C 120.2 52.4 110.0 46.0 110.0 38.0 C 110.0 31.6 114.6 28.2 124.0 28.2 C 133.2 28.2 143.0 30.0 150.2 32.4 L 158.8 5.6 C 154.0 3.2 141.2 0.0 125.4 0.0 C 100.8 0.0 79.8 9.2 79.8 38.6 C 79.8 61.0 98.0 73.6 113.4 83.8 C 124.8 91.4 134.6 97.6 134.6 105.4 C 134.6 113.4 129.0 116.6 118.6 116.6 C 105.0 116.6 91.6 112.6 84.6 109.6 L 75.6 135.2 C 84.8 139.8 99.6 143.6 116.2 143.6 Z Z"/></svg></g><defs><clipPath id="__vecs_clipped_drawing_group_path_1426783221277"><rect width="1000" height="1000" x="0" y="0"/></clipPath></defs></svg>