<?xml version="1.0" encoding="utf-8"?>
<!-- Generator: Adobe Illustrator 17.1.0, SVG Export Plug-In . SVG Version: 6.00 Build 0)  -->
<!DOCTYPE svg PUBLIC "-//W3C//DTD SVG 1.1//EN" "http://www.w3.org/Graphics/SVG/1.1/DTD/svg11.dtd">
<svg version="1.1" id="Layer_1" xmlns="http://www.w3.org/2000/svg" xmlns:xlink="http://www.w3.org/1999/xlink" x="0px" y="0px"
	 viewBox="0 0 1052 1052" style="enable-background:new 0 0 1052 1052;" xml:space="preserve">
<style type="text/css">
	.st0{fill:#F0DB4F;}
	.st1{fill:#F42A41;stroke:#F42A41;}
	.st2{fill:#323330;}
</style>
<rect class="st0" width="1052" height="1052"/>
<path class="st1" d="M269.449,130.387c19.876-19.333,33.399-24.232,79.128-28.672c24.853-2.41,31.57-5.574,48.811-23.007
	c15.521-15.685,25.502-22.689,42.969-30.154c21.558-9.205,36.322-11.107,80.86-10.404c42.976,0.675,67.162,3.5,96.952,11.329
	c36.053,9.486,53.851,16.428,76.669,29.931c24.973,14.773,44.071,29.44,30.241,23.218c-1.778-0.793-3.882-1.853-4.678-2.342
	c-1.217-0.749-11.682-4.117-31.677-10.193c-34.042-10.353-69.734-12.271-104.15-5.585c-48.867,9.49-88.989,28.62-119.924,57.185
	l-7.611,7.029h-50.46c-27.759,0-73.249-0.106-101.101-0.244c-29.162-0.146-50.633-0.615-50.633-1.113
	C254.841,146.067,262.627,137.013,269.449,130.387z M132.807,367.919c1.403-12.331,4.977-25.204,9.346-33.657l1.517-2.924
	l6.386,6.267c5.938,5.824,16.919,13.834,23.67,17.262c1.589,0.807,6.554,2.646,11.04,4.105c7.373,2.382,9.598,2.646,23.039,2.746
	c16.626,0.119,21.894-0.9,34.371-6.658c9.683-4.469,14.156-8.28,17.506-14.917c4.852-9.611,3.384-21.187-3.581-28.149
	c-7.729-7.732-21.828-11.219-45.417-11.239c-28.951-0.028-51.315,3.859-62.288,10.815c-2.377,1.509-4.68,2.741-5.117,2.741
	c-0.914,0-1.303-0.875-6.406-14.396c-13.428-35.635-13.542-35.988-13.542-43.484c0-5.091,0.563-8.414,1.946-11.544
	c4.228-9.557,10.042-13.667,24.515-17.34c11.742-2.981,13.389-4.507,12.45-11.55c-0.344-2.62-0.882-5.17-1.185-5.659
	c-0.874-1.424-11.729-0.126-18.049,2.157c-10.405,3.752-9.505,3.971-8.784-2.166c1.172-9.935,4.084-15.812,11.576-23.304
	c4.991-4.996,8.732-7.725,14.006-10.225c13.238-6.267,15.441-6.473,68.926-6.473h47.913l3.549,5.744
	c7.936,12.854,21.239,16.694,34.826,10.046c5.069-2.481,8.12-5.744,12.026-12.839l1.647-3.005l164.685,0.528l5.077,2.292
	c13.179,5.958,19.248,22.364,13.588,36.72c-2.245,5.692-4.096,8.479-10.59,15.898c-14.938,17.077-34.251,24.888-59.68,24.147
	c-14.35-0.425-14.688-0.14-11.086,9.416c12.383,32.889,11.517,63.429-2.607,91.993c-11.425,23.106-29.281,39.752-54.122,50.462
	c-19.108,8.24-28.151,9.253-88.883,9.986c-71.303,0.861-80.403,1.431-95.514,5.972c-13.382,4.024-21.385,8.996-30.433,18.89
	c-2.72,2.971-5.11,5.409-5.321,5.409c-0.211,0-1.271-0.974-2.357-2.166c-2.798-3.064-9.358-15.416-12.197-22.947
	C133.654,401.984,131.119,382.746,132.807,367.919z M373.47,925.657c-3.078,5.067-8.437,16.183-10.933,22.681
	c-0.61,1.591-2.285,7.42-3.721,12.96c-2.382,9.208-2.616,11.668-2.66,28.324c-0.021,10.025,0.269,19.634,0.656,21.357
	c0.94,4.23-0.431,4.064-7.916-0.96c-3.342-2.243-7.618-5.123-9.511-6.392c-8.233-5.556-40.663-30.283-48.548-37.027
	c-22.828-19.526-47.582-44.939-65.307-67.047c-11.967-14.924-37.203-53.134-43.854-66.407
	c-17.633-35.147-29.334-81.07-30.976-121.537c-1.74-43.186,13.079-92.722,39.109-130.672c12.086-17.626,25.999-32.829,49.627-54.236
	c23.199-21.005,65.823-50.984,102.756-72.262c28.235-16.267,32.148-18.711,44.683-27.898c20.591-15.082,38.07-32.082,51.772-50.321
	c10.629-14.145,19.414-37.171,21.762-57.047c1.285-10.867,0.503-32.843-1.45-40.579c-1.031-4.11-1.104-5.712-0.276-6.401
	c0.608-0.501,4.777-1.853,9.265-2.998c4.487-1.138,11.583-3.428,15.767-5.076l7.606-3.005l6.645,7.159
	c12.575,13.556,24.117,33.544,28.909,50.07c4.228,14.595,5.54,22.981,6.06,38.681c1.339,40.566-11.125,82.799-36.289,122.973
	c-12.457,19.877-34.007,47.86-58.118,75.441c-3.093,3.542-9.723,11.139-14.739,16.898c-21.115,24.215-51.826,65.762-62.944,85.152
	c-1.517,2.63-3.787,6.305-5.044,8.152c-4.469,6.558-20.233,40.001-23.986,50.877c-3.502,10.16-7.095,25.971-9.718,42.716
	c-1.692,10.85-1.481,38.866,0.378,49.434c7.129,40.587,21.643,71.721,46.357,99.429c4.357,4.881,7.923,9.618,7.923,10.515
	C376.752,919.517,375.27,922.683,373.47,925.657z M521.616,771.71c0.635,6.342,1.363,12.263,1.627,13.164
	c0.531,1.804-2.071,3.842-15.023,11.799c-7.547,4.634-17.647,11.346-31.398,20.861c-24.392,16.88-63.977,53.877-77.816,72.732
	c-3.817,5.209-8.113,9.596-9.384,9.596c-0.643,0-4.117-3.168-7.737-7.045c-21.53-23.087-37.164-58.97-41.677-95.663
	c-3.595-29.198,5.441-69.966,23.296-105.107c18.083-35.592,55.878-86.773,99.229-134.396c23.436-25.739,31.987-36.189,42.411-51.836
	c8.605-12.913,22.544-38.288,28.056-51.077c8.459-19.63,15.488-42.836,17.819-58.834c2.5-17.213,2.973-44.635,0.958-56.765
	c-6.067-36.689-16.117-59.179-37.223-83.331c-2.516-2.88-4.574-5.712-4.574-6.295c0-0.582,1.561-2.546,3.468-4.367
	c1.906-1.822,6.009-6.766,9.114-10.989c7.79-10.59,7.333-10.165,10.26-9.53c6.979,1.515,24.093,8.214,35.715,13.978
	c30.043,14.913,53.827,34.854,77.3,64.797c10.528,13.436,24.096,40.737,31.986,64.375c7.916,23.72,9.743,48.878,5.448,75.168
	c-1.489,9.14-6.236,26.759-8.654,32.153c-0.71,1.589-2.817,6.466-4.684,10.849c-5.79,13.641-23.008,41.911-35.495,58.272
	c-12,15.717-30.684,37.771-41.941,49.494c-21.892,22.8-42.964,52.869-54.115,77.212C524.758,701.096,518.364,739.082,521.616,771.71
	z M774.959,642.676c-13.296,16.498-29.141,32.635-39.348,40.074c-10.358,7.551-55.447,30.486-76.108,38.717
	c-4.487,1.791-25.557,11.186-38.701,17.277c-3.302,1.528-9.782,4.441-14.4,6.473c-8.122,3.578-44.035,21.169-55.115,26.992
	c-6.951,3.655-8.115,3.614-8.834-0.256c-1.397-7.472-1.786-31.715-0.658-40.299c6.312-47.632,26.16-84.337,70.234-129.848
	c31.518-32.548,53.351-63.02,72.899-101.754c12.765-25.31,21.104-53.909,21.536-73.91c0.211-9.775-1.532-31.432-3.298-41.002
	c-3.593-19.419-12.05-43.055-22.271-62.176c-7.238-13.57-24.315-38.652-34.847-51.202c-5.102-6.076-13.242-14.35-18.094-18.38
	c-8.746-7.269-28.541-20.808-40.202-27.501c-8.127-4.66-28.512-13.616-39.427-17.315c-4.88-1.656-9.405-3.428-10.068-3.946
	c-0.701-0.549-1.206-3.177-1.21-6.34c-0.024-7.491-2.036-15.282-5.549-21.511c-1.631-2.9-2.707-5.54-2.388-5.865
	c1.178-1.178,37.488-0.563,48.3,0.822c36.622,4.671,56.568,11.039,91.797,29.319c57.428,29.799,106.758,79.101,134.982,134.915
	c9.768,19.319,16.341,39.263,19.802,60.125c7.69,46.282,8.194,91.158,1.418,126.044c-2.591,13.313-6.859,29.356-11.9,44.692
	c-5.381,16.373-10.042,27.144-20.957,48.421C789.898,620.43,778.226,638.617,774.959,642.676z M912.68,503.418
	c-10.862,26.334-31.609,59.799-51.137,82.481c-13.746,15.957-54.748,53.422-54.748,50.017c0-0.603,2.331-5.499,5.176-10.879
	c9.616-18.183,20.718-47.727,25.952-69.086c1.399-5.687,4.051-15.838,5.906-22.558c7.252-26.328,9.193-49.369,7.193-85.519
	c-2.045-37.071-10.41-78.358-21.219-104.767c-8.112-19.823-21.96-44.683-31.537-56.629c-26.932-33.611-46.429-52.962-75.316-74.759
	c-27.984-21.114-55.315-35.779-87.02-46.7c-36.053-12.415-60.453-15.713-112.504-15.196c-17.459,0.179-30.658-0.067-30.969-0.563
	c-1.343-2.178,19.811-16.21,36.231-24.046c17.122-8.162,25.264-11.093,45.808-16.508c24.967-6.58,57.5-7.758,84.946-3.071
	c42.325,7.229,90.682,28.42,126.111,55.272c20.001,15.164,47.36,41.294,60.123,57.413c3.141,3.964,7.473,9.146,9.646,11.524
	c5.505,6.029,15.28,19.041,21.994,29.274c3.117,4.752,6.83,10.364,8.254,12.482c3.128,4.655,9.911,18.084,15.867,31.421
	c12.582,28.162,21.855,62.856,25.854,96.717C931.385,434.424,926.327,470.336,912.68,503.418z"/>
<path class="st2" d="M996.917,868.869c-4.956-30.893-25.101-56.832-84.764-81.031c-20.725-9.525-43.83-16.348-50.717-32.051
	c-2.446-9.141-2.768-14.289-1.223-19.824c4.44-17.957,25.873-23.557,42.864-18.408c10.941,3.67,21.304,12.1,27.547,25.553
	c29.22-18.924,29.155-18.795,49.558-31.795c-7.465-11.586-11.456-16.928-16.348-21.883c-17.57-19.631-41.513-29.736-79.809-28.963
	c-6.629,0.836-13.322,1.738-19.952,2.574c-19.114,4.826-37.329,14.867-48.013,28.318c-32.053,36.365-22.913,100.02,16.09,126.215
	c38.424,28.834,94.869,35.398,102.078,62.365c7.015,33.018-24.265,43.701-55.352,39.904c-22.912-4.762-35.656-16.412-49.43-37.586
	c-25.358,14.674-25.358,14.674-51.425,29.67c6.179,13.516,12.68,19.629,23.042,31.344c49.043,49.752,171.781,47.307,193.792-27.998
	C995.759,912.699,1001.68,895.451,996.917,868.869z M743.333,664.457h-63.332c0,54.707-0.258,109.029-0.258,163.736
	c0,34.818,1.803,66.742-3.861,76.525c-9.269,19.244-33.275,16.863-44.217,13.131c-11.134-5.473-16.798-13.26-23.363-24.266
	c-1.802-3.154-3.153-5.6-3.604-5.793c-17.185,10.492-34.305,21.047-51.489,31.537c8.56,17.572,21.175,32.824,37.33,42.736
	c24.135,14.482,56.573,18.922,90.491,11.135c22.076-6.436,41.128-19.758,51.104-40.033c14.417-26.58,11.328-58.762,11.199-94.354
	C743.655,780.758,743.333,722.705,743.333,664.457z"/>
</svg>
