<svg xmlns="http://www.w3.org/2000/svg" xmlns:xlink="http://www.w3.org/1999/xlink" viewBox="0 0 512 512">
  <title>OttawaJS Logo</title>
  <defs>
    <filter id="dropshadow" x="-100%" y="-100%" width="250%" height="250%">
      <feOffset result="offOut" in="SourceGraphic" dx="1" dy="1" />
      <feGaussianBlur result="blurOut" in="offOut" stdDeviation="2" />
      <feBlend in="SourceGraphic" in2="blurOut" mode="normal" />
    </filter>
    <polygon id="hex" style="fill:none;stroke-linejoin:round;stroke-width:30px" points="0,100 86.6,50 86.6,-50 0,-100 -86.6,-50 -86.6,50"/>
    <path id="maple-leaf"  d="m 154.99433,0 -25.06359,46.7528 c -2.844,5.08126 -7.93959,4.60996 -13.03517,1.77192 l -18.14538,-9.39723 13.52402,71.81132 c 2.844,13.11953 -6.28082,13.11953 -10.78395,7.44687 L 69.82305,82.93015 64.68194,100.93531 c -0.59287,2.36446 -3.19957,4.84789 -7.11025,4.25649 l -40.04353,-8.42033 10.51769,38.24325 c 2.25156,8.50956 4.00782,12.03281 -2.27304,14.27716 L 11.5,156.00092 80.43236,211.99997 c 2.72839,2.11737 4.10687,5.92775 3.13555,9.37778 l -6.03305,19.8011 c 23.73443,-2.73623 45.00085,-6.85284 68.74731,-9.38813 2.09632,-0.22382 5.60582,3.23618 5.59142,5.66585 L 148.72882,310 l 11.5398,0 -1.81651,-72.38785 c -0.0145,-2.42967 3.16938,-6.04525 5.26571,-5.82143 23.74645,2.5353 45.0129,6.6519 68.74732,9.38813 l -6.03303,-19.8011 c -0.97132,-3.45003 0.40715,-7.26041 3.13554,-9.37778 L 298.5,156.00092 284.2272,149.29188 c -6.28088,-2.24435 -4.52461,-5.7676 -2.27305,-14.27716 l 10.51772,-38.24325 -40.04357,8.42033 c -3.91067,0.5914 -6.51737,-1.89203 -7.11026,-4.25649 l -5.1411,-18.00516 -31.6672,35.45553 c -4.50314,5.67266 -13.62798,5.67266 -10.78397,-7.44687 l 13.524,-71.81132 -18.14534,9.39723 c -5.09571,2.83804 -10.19117,3.30934 -13.03518,-1.77192"/>
  </defs>

  <!--
  dark orange #E34F26
  light orange #EF652A
  node green #8CC84B
  node grey #46483E
  jsconf yellow #f7df1e
  NOT jsconf lighter #F3E071
  NOT jsconf darker #DEC91B
  -->


  <path fill="#E8D100" d="M71,460 L30,0 481,0 440,460 255,512"/>
  <path fill="#f7df1e" d="M256,472 L405,431 440,37 256,37"/>
  <!-- <path fill="#8CC84B" d="M256,472 L107,431 72,37 256,37"/> -->

<!-- from https://github.com/voodootikigod/logo.js.git -->
<g id="JS" transform="translate(220,260) scale(.30)">
  <!-- <rect id="background" x="0" y="0" width="630" height="630" fill="#f7df1e" /> -->
  <path id="j" d="m 165.65,526.47375 48.2125,-29.1775 C 223.16375,513.7875 231.625,527.74 251.92,527.74 c 19.45375,0 31.71875,-7.60975 31.71875,-37.21 l 0,-201.3 59.20375,0 0,202.1375 c 0,61.32 -35.94375,89.23125 -88.385,89.23125 -47.36125,0 -74.8525,-24.52875 -88.8075,-54.13" />
  <path id="s" d="m 375,520.13 48.20625,-27.91125 c 12.69,20.72375 29.1825,35.9475 58.36125,35.9475 24.53125,0 40.17375,-12.26475 40.17375,-29.18125 0,-20.29875 -16.06875,-27.48875 -43.135,-39.32625 l -14.7975,-6.3475 c -42.715,-18.18125 -71.05,-41.0175 -71.05,-89.2275 0,-44.40375 33.83125,-78.2375 86.695,-78.2375 37.6375,0 64.7025,13.11125 84.15375,47.36625 l -46.09625,29.60125 c -10.15,-18.1825 -21.1425,-25.37125 -38.0575,-25.37125 -17.33875,0 -28.335,10.995 -28.335,25.37125 0,17.7625 10.99625,24.9525 36.3675,35.94875 l 14.8,6.3425 c 50.325,21.56875 78.66,43.5575 78.66,93.03375 0,53.2875 -41.86625,82.465 -98.11,82.465 -54.97625,0 -90.5,-26.2175 -107.83625,-60.47375" />
</g>

<g id="hexComposed" transform="translate(256,205) scale(1.30)" >
  <use xlink:href="#hex" stroke="#46483E" filter="url(#dropshadow)" />
  <!-- <use xlink:href="#hex" stroke="#8CC84B" filter="url(#dropshadow)" /> -->
  <!-- <use xlink:href="#hex" stroke="#8CC84B"  /> -->
  <use xlink:href="#hex" stroke="#fff"  />
  <clipPath id="lefthalf">
    <rect x="-120" y="-120" width="120" height="240" />
  </clipPath>
  <use xlink:href="#hex" stroke="#EBEBEB" clip-path="url(#lefthalf)" />
</g>

<!-- <g id="maple-leaf-composed" transform="scale(.5) translate(356,256)" >  
  <use xlink:href="#maple-leaf" fill="#f00"  />
  <clipPath id="lefthalfleaf">
    <rect x="0" y="0" width="155" height="310" />
  </clipPath>
  <use xlink:href="#maple-leaf" fill="#eb0000" clip-path="url(#lefthalfleaf)" />
</g>  -->
</svg>
